%FSLAX44Y44*%
%MOMM*%
G71*
G01*
G75*
G04 Layer_Physical_Order=3*
G04 Layer_Color=16440176*
%ADD10R,1.2000X0.8000*%
%ADD11C,1.0000*%
%ADD12R,2.0000X3.5000*%
%ADD13R,3.0000X4.0000*%
%ADD14R,4.0000X2.8000*%
%ADD15R,2.8000X4.0000*%
%ADD16R,4.0000X3.0000*%
%ADD17R,0.6000X0.5000*%
%ADD18R,1.6000X1.4000*%
%ADD19R,0.9500X0.9000*%
%ADD20R,2.0000X2.0000*%
%ADD21R,2.0000X3.2000*%
%ADD22R,3.5000X2.0000*%
%ADD23R,0.5000X0.6000*%
%ADD24C,2.0000*%
%ADD25R,1.0000X1.8000*%
%ADD26R,3.0000X0.8000*%
%ADD27R,3.2000X2.0000*%
%ADD28R,2.8000X1.5000*%
%ADD29R,7.7000X1.6000*%
%ADD30R,1.7000X1.6000*%
%ADD31R,1.6000X6.3000*%
%ADD32R,1.8000X0.2900*%
%ADD33R,8.7000X8.7000*%
%ADD34R,1.6000X1.7000*%
%ADD35R,5.1500X3.1500*%
%ADD36R,0.7000X0.2900*%
%ADD37R,0.2900X0.7000*%
%ADD38R,0.8000X1.2000*%
%ADD39R,1.1000X1.2000*%
%ADD40R,0.9000X0.9500*%
%ADD41R,4.5000X4.0000*%
%ADD42R,3.2000X3.0000*%
%ADD43R,4.5000X4.2000*%
%ADD44R,0.5500X1.7000*%
%ADD45R,1.7000X0.5500*%
%ADD46R,4.2000X4.5000*%
%ADD47C,0.2540*%
%ADD48C,4.5720*%
%ADD49C,5.0000*%
%ADD50C,0.2286*%
%ADD51C,0.7620*%
%ADD52C,1.0160*%
%ADD53C,0.2032*%
%ADD54C,0.6350*%
%ADD55R,1.6000X6.7000*%
%ADD56R,12.5000X1.4000*%
%ADD57R,1.7500X7.2000*%
%ADD58R,1.6000X5.6000*%
%ADD59R,12.6000X1.3500*%
%ADD60R,1.8000X7.0750*%
%ADD61R,6.2500X6.2500*%
%ADD62C,0.8100*%
%ADD63C,1.5240*%
%ADD64C,1.8500*%
%ADD65C,8.0000*%
%ADD66C,0.8000*%
%ADD67C,1.2700*%
%ADD68C,0.7112*%
%ADD69C,1.2700*%
G36*
X165000Y1251831D02*
X164386Y1251030D01*
X163680Y1249327D01*
X163440Y1247500D01*
X163680Y1245673D01*
X164386Y1243970D01*
X165000Y1243169D01*
Y1240000D01*
X110000D01*
Y1275000D01*
X165000D01*
Y1251831D01*
D02*
G37*
G36*
X245000Y632347D02*
X243503Y631118D01*
X241161Y630652D01*
X239177Y629326D01*
X237851Y627341D01*
X237385Y625000D01*
X237851Y622659D01*
X239177Y620674D01*
X241161Y619348D01*
X243503Y618882D01*
X245000Y617654D01*
Y578937D01*
X244000Y578060D01*
X242173Y577820D01*
X240470Y577114D01*
X239007Y575992D01*
X237885Y574530D01*
X237180Y572827D01*
X236940Y571000D01*
X237180Y569173D01*
X237885Y567470D01*
X239007Y566008D01*
X240470Y564885D01*
X242173Y564180D01*
X244000Y563940D01*
X245000Y563063D01*
Y542937D01*
X244000Y542060D01*
X242173Y541820D01*
X240470Y541115D01*
X239007Y539992D01*
X237885Y538530D01*
X237180Y536827D01*
X236940Y535000D01*
X237180Y533173D01*
X237885Y531470D01*
X239007Y530008D01*
X240470Y528885D01*
X242173Y528180D01*
X244000Y527940D01*
X245000Y527063D01*
Y497754D01*
X244008Y496992D01*
X242885Y495530D01*
X242180Y493827D01*
X241940Y492000D01*
X241975Y491729D01*
X240459Y490000D01*
X75000D01*
Y697940D01*
X76827Y698180D01*
X78530Y698885D01*
X79992Y700008D01*
X81115Y701470D01*
X81820Y703173D01*
X82060Y705000D01*
X81820Y706827D01*
X81115Y708530D01*
X79992Y709993D01*
X79527Y710350D01*
Y712650D01*
X79992Y713008D01*
X81115Y714470D01*
X81820Y716173D01*
X82060Y718000D01*
X81820Y719827D01*
X81115Y721530D01*
X79992Y722992D01*
X78530Y724115D01*
X76827Y724820D01*
X75000Y725060D01*
Y804000D01*
X78666D01*
Y797500D01*
X78920Y796224D01*
X79643Y795143D01*
X80724Y794420D01*
X82000Y794166D01*
X83276Y794420D01*
X84358Y795143D01*
X85080Y796224D01*
X85334Y797500D01*
Y804000D01*
X245000D01*
Y632347D01*
D02*
G37*
G36*
X249558Y497306D02*
X250220Y496864D01*
X251502Y496333D01*
X252538Y495538D01*
X253333Y494502D01*
X253833Y493295D01*
X254004Y492000D01*
X253833Y490705D01*
X253333Y489498D01*
X252538Y488462D01*
X251502Y487667D01*
X250220Y487136D01*
X249558Y486694D01*
X249116Y486032D01*
X248961Y485252D01*
Y472845D01*
X248155Y472039D01*
X72039D01*
Y487133D01*
X74068Y488218D01*
X74220Y488116D01*
X75000Y487961D01*
X240459D01*
X240525Y487974D01*
X240592Y487965D01*
X240914Y488051D01*
X241239Y488116D01*
X241295Y488154D01*
X241361Y488171D01*
X241624Y488373D01*
X241901Y488558D01*
X241938Y488614D01*
X241992Y488656D01*
X243508Y490385D01*
X243542Y490443D01*
X243593Y490488D01*
X243740Y490786D01*
X243906Y491074D01*
X243915Y491141D01*
X243945Y491202D01*
X243967Y491533D01*
X244010Y491863D01*
X243993Y491928D01*
X243997Y491996D01*
X243996Y492000D01*
X244167Y493295D01*
X244667Y494502D01*
X245462Y495538D01*
X246241Y496136D01*
X246330Y496237D01*
X246442Y496312D01*
X246590Y496534D01*
X246766Y496734D01*
X246809Y496862D01*
X246884Y496974D01*
X246936Y497235D01*
X247000Y497422D01*
X249280Y497723D01*
X249558Y497306D01*
D02*
G37*
G36*
X275875Y635875D02*
X275000Y635000D01*
Y632135D01*
X273222Y630676D01*
X271000Y631118D01*
X268659Y630652D01*
X266674Y629326D01*
X265348Y627341D01*
X264883Y625000D01*
X265348Y622659D01*
X266674Y620674D01*
X268659Y619348D01*
X271000Y618882D01*
X273222Y619324D01*
X275000Y617865D01*
Y480000D01*
X193000Y398000D01*
Y120000D01*
X208353D01*
X209438Y117972D01*
X208348Y116341D01*
X207882Y114000D01*
X208348Y111659D01*
X209674Y109674D01*
X210459Y109150D01*
Y106850D01*
X209674Y106326D01*
X208348Y104341D01*
X207882Y102000D01*
X208348Y99659D01*
X209674Y97674D01*
X211659Y96348D01*
X214000Y95883D01*
X216341Y96348D01*
X218326Y97674D01*
X219652Y99659D01*
X220117Y102000D01*
X219652Y104341D01*
X218326Y106326D01*
X217541Y106850D01*
Y109150D01*
X218326Y109674D01*
X219652Y111659D01*
X220117Y114000D01*
X219652Y116341D01*
X218562Y117972D01*
X219647Y120000D01*
X375500D01*
X375502Y267500D01*
X380000Y272750D01*
Y285000D01*
X412254D01*
X412423Y284930D01*
X414250Y284690D01*
X416077Y284930D01*
X416246Y285000D01*
X482457D01*
X482674Y284674D01*
X484659Y283348D01*
X487000Y282882D01*
X489341Y283348D01*
X491326Y284674D01*
X491543Y285000D01*
X522000D01*
X537000Y270000D01*
X575000D01*
Y5000D01*
X5000D01*
Y291062D01*
X6000Y291882D01*
X8341Y292348D01*
X10326Y293674D01*
X11652Y295659D01*
X12118Y298000D01*
X11652Y300341D01*
X10326Y302326D01*
X8341Y303652D01*
X6000Y304118D01*
X5000Y304938D01*
Y531731D01*
X7289Y531957D01*
X7348Y531659D01*
X8674Y529674D01*
X10659Y528348D01*
X13000Y527882D01*
X15341Y528348D01*
X17326Y529674D01*
X18350Y531207D01*
X20650D01*
X21674Y529674D01*
X23659Y528348D01*
X26000Y527882D01*
X28341Y528348D01*
X30326Y529674D01*
X31652Y531659D01*
X32118Y534000D01*
X31652Y536341D01*
X30326Y538326D01*
X28793Y539350D01*
Y541650D01*
X30326Y542674D01*
X31652Y544659D01*
X32118Y547000D01*
X31652Y549341D01*
X30326Y551326D01*
X28793Y552350D01*
Y554650D01*
X30326Y555674D01*
X31652Y557659D01*
X32118Y560000D01*
X31652Y562341D01*
X30326Y564326D01*
X29541Y564850D01*
Y567150D01*
X30326Y567674D01*
X31652Y569659D01*
X32118Y572000D01*
X31652Y574341D01*
X30326Y576326D01*
X28793Y577350D01*
Y579650D01*
X30326Y580674D01*
X31652Y582659D01*
X32118Y585000D01*
X31652Y587341D01*
X30326Y589326D01*
X28341Y590652D01*
X26000Y591118D01*
X23659Y590652D01*
X21674Y589326D01*
X20650Y587793D01*
X18350D01*
X17326Y589326D01*
X15341Y590652D01*
X13000Y591118D01*
X10659Y590652D01*
X8674Y589326D01*
X7348Y587341D01*
X7289Y587043D01*
X5000Y587269D01*
Y635000D01*
X29865D01*
X31324Y633222D01*
X30882Y631000D01*
X31348Y628659D01*
X31774Y628022D01*
X30893Y625897D01*
X29659Y625652D01*
X27674Y624326D01*
X26348Y622341D01*
X25882Y620000D01*
X26348Y617659D01*
X27674Y615674D01*
X29659Y614348D01*
X32000Y613882D01*
X34341Y614348D01*
X36326Y615674D01*
X37652Y617659D01*
X38118Y620000D01*
X37652Y622341D01*
X37227Y622978D01*
X38107Y625103D01*
X39341Y625348D01*
X41326Y626674D01*
X42652Y628659D01*
X43117Y631000D01*
X42676Y633222D01*
X44135Y635000D01*
X68000D01*
X70000Y633000D01*
Y470000D01*
X249000D01*
X251000Y472000D01*
Y485252D01*
X252530Y485886D01*
X253993Y487008D01*
X255114Y488470D01*
X255820Y490173D01*
X256060Y492000D01*
X255820Y493827D01*
X255114Y495530D01*
X253993Y496992D01*
X252530Y498115D01*
X251000Y498748D01*
Y534541D01*
X251060Y535000D01*
X251000Y535459D01*
Y570541D01*
X251060Y571000D01*
X251000Y571459D01*
Y619500D01*
X244940Y623945D01*
X244785Y626240D01*
X251000Y632250D01*
Y638000D01*
X274995D01*
X275875Y635875D01*
D02*
G37*
G36*
X575703Y272616D02*
X575000Y272039D01*
X537845D01*
X523442Y286442D01*
X522780Y286884D01*
X522000Y287039D01*
X491543D01*
X491346Y287000D01*
X491146D01*
X490960Y286923D01*
X490763Y286884D01*
X490596Y286772D01*
X490410Y286695D01*
X490269Y286554D01*
X490102Y286442D01*
X489990Y286275D01*
X489867Y286152D01*
X488545Y285269D01*
X487000Y284962D01*
X485455Y285269D01*
X484133Y286152D01*
X484010Y286275D01*
X483899Y286442D01*
X483731Y286553D01*
X483590Y286695D01*
X483404Y286772D01*
X483237Y286884D01*
X483040Y286923D01*
X482854Y287000D01*
X482654D01*
X482457Y287039D01*
X416246D01*
D01*
X416246D01*
X415799Y286950D01*
X414250Y286746D01*
X412701Y286950D01*
X412409Y287008D01*
X412254Y287039D01*
X412254D01*
D01*
X380000D01*
X379220Y286884D01*
X378558Y286442D01*
X378116Y285780D01*
X377961Y285000D01*
Y274941D01*
X376183Y273482D01*
X375502Y273617D01*
X375317Y273581D01*
X373539Y275040D01*
Y332873D01*
X373490Y333122D01*
X373492Y333152D01*
X373473Y333208D01*
X373469Y333224D01*
X373384Y333653D01*
X373384Y333653D01*
X373384Y333653D01*
X373256Y333844D01*
X373236Y333905D01*
X373152Y334001D01*
X372942Y334315D01*
X372942Y334315D01*
X372942Y334315D01*
X372784Y334421D01*
X372711Y334503D01*
X371462Y335462D01*
X370667Y336498D01*
X370167Y337705D01*
X369996Y339000D01*
X370167Y340295D01*
X370667Y341502D01*
X371625Y342751D01*
X371743Y342990D01*
X371892Y343212D01*
X371918Y343344D01*
X371977Y343465D01*
X371995Y343731D01*
X372047Y343992D01*
Y346008D01*
X371995Y346269D01*
X371977Y346535D01*
X371918Y346656D01*
X371892Y346788D01*
X371743Y347010D01*
X371625Y347249D01*
X370667Y348498D01*
X370167Y349705D01*
X369996Y351000D01*
X370167Y352295D01*
X370667Y353502D01*
X371625Y354751D01*
X371743Y354990D01*
X371892Y355212D01*
X371918Y355344D01*
X371977Y355465D01*
X371995Y355731D01*
X372047Y355992D01*
Y358008D01*
X371995Y358269D01*
X371977Y358535D01*
X371918Y358656D01*
X371892Y358788D01*
X371743Y359010D01*
X371625Y359249D01*
X370667Y360498D01*
X370167Y361705D01*
X369996Y363000D01*
X370167Y364295D01*
X370667Y365502D01*
X371625Y366751D01*
X371743Y366990D01*
X371892Y367212D01*
X371918Y367344D01*
X371977Y367465D01*
X371995Y367731D01*
X372047Y367992D01*
Y370008D01*
X371995Y370269D01*
X371977Y370535D01*
X371918Y370656D01*
X371892Y370788D01*
X371743Y371010D01*
X371625Y371249D01*
X370667Y372498D01*
X370167Y373705D01*
X369996Y375000D01*
X370167Y376295D01*
X370667Y377502D01*
X371462Y378538D01*
X372711Y379497D01*
X372784Y379579D01*
X372942Y379685D01*
X372942Y379685D01*
X372942Y379685D01*
X373152Y379999D01*
X373236Y380095D01*
X373256Y380156D01*
X373384Y380347D01*
X373384Y380347D01*
X373384Y380347D01*
X373469Y380776D01*
X373473Y380792D01*
X373492Y380848D01*
X373490Y380878D01*
X373539Y381127D01*
Y399161D01*
X436449Y462720D01*
X436666Y463047D01*
X436884Y463374D01*
X436885Y463380D01*
X436888Y463384D01*
X436963Y463770D01*
X437039Y464155D01*
Y645000D01*
X436884Y645780D01*
X436442Y646442D01*
X435780Y646884D01*
X435000Y647039D01*
X310000D01*
X309995Y647038D01*
X309989Y647039D01*
X309606Y646961D01*
X309220Y646884D01*
X309215Y646881D01*
X309210Y646880D01*
X308888Y646662D01*
X308558Y646442D01*
X308555Y646437D01*
X308551Y646434D01*
X307551Y645424D01*
X307334Y645097D01*
X307116Y644770D01*
X307115Y644765D01*
X307112Y644760D01*
X307037Y644374D01*
X306961Y643990D01*
Y511456D01*
X279170Y482857D01*
X277039Y483722D01*
Y580298D01*
X279217Y581038D01*
X280007Y580008D01*
X281470Y578885D01*
X283173Y578180D01*
X285000Y577940D01*
X286827Y578180D01*
X288530Y578885D01*
X289992Y580008D01*
X291115Y581470D01*
X291820Y583173D01*
X292060Y585000D01*
X291820Y586827D01*
X291115Y588530D01*
X289992Y589992D01*
X288530Y591115D01*
X286827Y591820D01*
X285000Y592060D01*
X283173Y591820D01*
X281470Y591115D01*
X280007Y589992D01*
X279217Y588962D01*
X277039Y589702D01*
Y617865D01*
X277020Y617965D01*
X277029Y618065D01*
X276942Y618352D01*
X276884Y618646D01*
X276828Y618730D01*
X276798Y618827D01*
X276609Y619058D01*
X276442Y619307D01*
X276358Y619364D01*
X276294Y619442D01*
X274516Y620901D01*
X274427Y620948D01*
X274355Y621020D01*
X274078Y621135D01*
X273814Y621276D01*
X273713Y621286D01*
X273620Y621324D01*
X273321D01*
X273022Y621354D01*
X272925Y621325D01*
X272824D01*
X271000Y620962D01*
X269455Y621269D01*
X268144Y622144D01*
X267269Y623455D01*
X266962Y625000D01*
X267269Y626545D01*
X268144Y627856D01*
X269454Y628731D01*
X271000Y629038D01*
X272824Y628675D01*
X272925D01*
X273022Y628646D01*
X273321Y628676D01*
X273620D01*
X273713Y628714D01*
X273814Y628724D01*
X274078Y628865D01*
X274355Y628980D01*
X274427Y629052D01*
X274516Y629099D01*
X276294Y630558D01*
X276358Y630636D01*
X276442Y630693D01*
X276608Y630942D01*
X276798Y631173D01*
X276828Y631270D01*
X276884Y631354D01*
X276942Y631648D01*
X277029Y631935D01*
X277020Y632035D01*
X277039Y632135D01*
Y634155D01*
X277317Y634433D01*
X277759Y635095D01*
X277914Y635875D01*
X277759Y636655D01*
X277759Y636656D01*
X276879Y638780D01*
X276437Y639442D01*
X275775Y639884D01*
X274995Y640039D01*
X251000D01*
X250220Y639884D01*
X249558Y639442D01*
X249240Y638966D01*
X247039Y639634D01*
Y804000D01*
X246884Y804780D01*
X246442Y805442D01*
X245780Y805884D01*
X245000Y806039D01*
X85334D01*
Y812000D01*
X85080Y813276D01*
X84358Y814358D01*
X8334Y890381D01*
Y961446D01*
X10459Y962326D01*
X66142Y906643D01*
X67224Y905920D01*
X68500Y905666D01*
X76304D01*
X76385Y905470D01*
X77508Y904008D01*
X78970Y902886D01*
X80673Y902180D01*
X82500Y901940D01*
X84327Y902180D01*
X86030Y902886D01*
X87493Y904008D01*
X88615Y905470D01*
X89320Y907173D01*
X89560Y909000D01*
X89320Y910827D01*
X88615Y912530D01*
X87493Y913992D01*
X86030Y915115D01*
X84327Y915820D01*
X82500Y916060D01*
X80673Y915820D01*
X78970Y915115D01*
X77508Y913992D01*
X76385Y912530D01*
X76304Y912334D01*
X69881D01*
X12874Y969341D01*
Y1281738D01*
X74261Y1343126D01*
X155958D01*
X156882Y1342000D01*
X157348Y1339659D01*
X158674Y1337674D01*
X160659Y1336348D01*
X163000Y1335883D01*
X165341Y1336348D01*
X167326Y1337674D01*
X168652Y1339659D01*
X168850Y1340655D01*
X171150D01*
X171348Y1339659D01*
X172674Y1337674D01*
X174659Y1336348D01*
X177000Y1335883D01*
X178545Y1336190D01*
X179630Y1334161D01*
X168234Y1322766D01*
X167539Y1321726D01*
X167295Y1320500D01*
Y1279152D01*
X166177Y1277477D01*
X165518Y1276936D01*
X165000Y1277039D01*
X110000D01*
X109220Y1276884D01*
X108558Y1276442D01*
X108116Y1275780D01*
X107961Y1275000D01*
Y1240000D01*
X108116Y1239220D01*
X108558Y1238558D01*
X109220Y1238116D01*
X110000Y1237961D01*
X165000D01*
X165780Y1238116D01*
X166442Y1238558D01*
X166884Y1239220D01*
X167039Y1240000D01*
X167039Y1240000D01*
D01*
X168673Y1240680D01*
X170500Y1240440D01*
X172327Y1240680D01*
X174030Y1241385D01*
X175492Y1242507D01*
X176614Y1243970D01*
X177320Y1245673D01*
X177560Y1247500D01*
X177320Y1249327D01*
X176614Y1251030D01*
X175492Y1252492D01*
X174030Y1253614D01*
X173705Y1253749D01*
Y1275798D01*
X175733Y1276883D01*
X176159Y1276598D01*
X178500Y1276132D01*
X180841Y1276598D01*
X182826Y1277924D01*
X184152Y1279909D01*
X184618Y1282250D01*
X184152Y1284591D01*
X182826Y1286576D01*
X180841Y1287902D01*
X178500Y1288367D01*
X176159Y1287902D01*
X175733Y1287617D01*
X173705Y1288701D01*
Y1319173D01*
X191721Y1337189D01*
X192016Y1336991D01*
X194357Y1336525D01*
X194357Y1336525D01*
X194357Y1336525D01*
X195680Y1336327D01*
X195440Y1334500D01*
X195680Y1332673D01*
X196385Y1330970D01*
X197058Y1330093D01*
X195658Y1328269D01*
X194327Y1328820D01*
X192500Y1329060D01*
X190673Y1328820D01*
X188970Y1328114D01*
X187507Y1326992D01*
X186385Y1325530D01*
X185680Y1323827D01*
X185440Y1322000D01*
X185680Y1320173D01*
X186385Y1318470D01*
X187507Y1317007D01*
X188970Y1315885D01*
X190673Y1315180D01*
X192500Y1314940D01*
X194327Y1315180D01*
X196030Y1315885D01*
X197492Y1317007D01*
X198615Y1318470D01*
X199320Y1320173D01*
X199560Y1322000D01*
X199320Y1323827D01*
X198615Y1325530D01*
X197942Y1326407D01*
X199342Y1328231D01*
X200673Y1327680D01*
X202500Y1327440D01*
X204327Y1327680D01*
X206030Y1328385D01*
X207492Y1329507D01*
X208615Y1330970D01*
X209320Y1332673D01*
X209560Y1334500D01*
X209361Y1336010D01*
X211424Y1337028D01*
X259295Y1289157D01*
Y1281749D01*
X258970Y1281614D01*
X257508Y1280492D01*
X256385Y1279030D01*
X255680Y1277327D01*
X255440Y1275500D01*
X255680Y1273673D01*
X256385Y1271970D01*
X257508Y1270508D01*
X258970Y1269386D01*
X259295Y1269251D01*
Y1256097D01*
X258508Y1255492D01*
X257386Y1254030D01*
X256680Y1252327D01*
X256440Y1250500D01*
X256680Y1248673D01*
X257386Y1246970D01*
X258508Y1245508D01*
X259970Y1244386D01*
X261673Y1243680D01*
X263500Y1243440D01*
X265327Y1243680D01*
X267030Y1244386D01*
X268493Y1245508D01*
X269615Y1246970D01*
X270320Y1248673D01*
X270560Y1250500D01*
X270320Y1252327D01*
X269615Y1254030D01*
X268493Y1255492D01*
X267030Y1256614D01*
X265705Y1257163D01*
Y1269251D01*
X266030Y1269386D01*
X267493Y1270508D01*
X268615Y1271970D01*
X269320Y1273673D01*
X269560Y1275500D01*
X269320Y1277327D01*
X268615Y1279030D01*
X267493Y1280492D01*
X266030Y1281614D01*
X265705Y1281749D01*
Y1290484D01*
X265461Y1291710D01*
X265182Y1292127D01*
X264766Y1292750D01*
X244383Y1313133D01*
X244832Y1315389D01*
X246030Y1315885D01*
X247492Y1317007D01*
X248615Y1318470D01*
X249320Y1320173D01*
X249560Y1322000D01*
X249320Y1323827D01*
X248615Y1325530D01*
X247492Y1326992D01*
X246030Y1328114D01*
X244327Y1328820D01*
X242500Y1329060D01*
X240673Y1328820D01*
X239342Y1328269D01*
X237942Y1330093D01*
X238615Y1330970D01*
X239320Y1332673D01*
X239560Y1334500D01*
X239320Y1336327D01*
X238615Y1338030D01*
X237492Y1339492D01*
X236030Y1340614D01*
X234327Y1341320D01*
X232500Y1341560D01*
X230673Y1341320D01*
X229342Y1340769D01*
X227942Y1342593D01*
X228615Y1343470D01*
X229320Y1345173D01*
X229560Y1347000D01*
X229320Y1348827D01*
X228615Y1350530D01*
X227492Y1351992D01*
X226030Y1353114D01*
X224327Y1353820D01*
X222500Y1354060D01*
X220673Y1353820D01*
X218970Y1353114D01*
X217507Y1351992D01*
X216385Y1350530D01*
X215680Y1348827D01*
X215440Y1347000D01*
X215680Y1345173D01*
X215784Y1344922D01*
X213872Y1343644D01*
X212607Y1344909D01*
X211567Y1345604D01*
X210341Y1345847D01*
X199432D01*
X198683Y1346969D01*
X196698Y1348295D01*
X194357Y1348761D01*
X192016Y1348295D01*
X190031Y1346969D01*
X188705Y1344984D01*
X188271Y1342803D01*
X184839Y1339370D01*
X182810Y1340455D01*
X183118Y1342000D01*
X182652Y1344341D01*
X181326Y1346326D01*
X179341Y1347652D01*
X177000Y1348118D01*
X175830Y1347885D01*
X170357Y1353358D01*
X169276Y1354080D01*
X168000Y1354334D01*
X82054D01*
X81174Y1356459D01*
X112941Y1388226D01*
X176804D01*
X176886Y1388030D01*
X178008Y1386568D01*
X179470Y1385446D01*
X181173Y1384740D01*
X183000Y1384500D01*
X184827Y1384740D01*
X186530Y1385446D01*
X187992Y1386568D01*
X189114Y1388030D01*
X189820Y1389733D01*
X190060Y1391560D01*
X189820Y1393388D01*
X189114Y1395090D01*
X187992Y1396553D01*
X186530Y1397675D01*
X184827Y1398380D01*
X183000Y1398621D01*
X181173Y1398380D01*
X179470Y1397675D01*
X178008Y1396553D01*
X176886Y1395090D01*
X176804Y1394894D01*
X111560D01*
X110284Y1394641D01*
X109203Y1393918D01*
X68643Y1353358D01*
X2643Y1287357D01*
X1920Y1286276D01*
X1666Y1285000D01*
Y889000D01*
X1920Y887724D01*
X2643Y886643D01*
X78666Y810619D01*
Y806039D01*
X75000D01*
X74220Y805884D01*
X73558Y805442D01*
X73116Y804780D01*
X72961Y804000D01*
Y725060D01*
X73013Y724799D01*
X73030Y724533D01*
X73090Y724412D01*
X73116Y724280D01*
X73264Y724058D01*
X73382Y723819D01*
X73483Y723730D01*
X73558Y723618D01*
X73780Y723470D01*
X73980Y723294D01*
X74108Y723251D01*
X74220Y723176D01*
X74481Y723124D01*
X74734Y723039D01*
X76295Y722833D01*
X77502Y722333D01*
X78538Y721538D01*
X79333Y720502D01*
X79833Y719295D01*
X80004Y718000D01*
X79833Y716705D01*
X79333Y715498D01*
X78538Y714462D01*
X78285Y714268D01*
X78196Y714167D01*
X78085Y714092D01*
X77936Y713870D01*
X77761Y713670D01*
X77717Y713542D01*
X77642Y713430D01*
X77590Y713169D01*
X77505Y712916D01*
X77513Y712782D01*
X77487Y712650D01*
Y710350D01*
X77513Y710218D01*
X77505Y710084D01*
X77590Y709831D01*
X77642Y709570D01*
X77717Y709458D01*
X77761Y709330D01*
X77936Y709130D01*
X78085Y708908D01*
X78196Y708833D01*
X78285Y708732D01*
X78538Y708538D01*
X79333Y707502D01*
X79833Y706295D01*
X80004Y705000D01*
X79833Y703705D01*
X79333Y702498D01*
X78538Y701462D01*
X77502Y700667D01*
X76295Y700167D01*
X74734Y699961D01*
X74481Y699876D01*
X74220Y699824D01*
X74108Y699749D01*
X73980Y699706D01*
X73780Y699530D01*
X73558Y699382D01*
X73483Y699270D01*
X73382Y699181D01*
X73264Y698942D01*
X73116Y698720D01*
X73090Y698588D01*
X73030Y698467D01*
X73013Y698201D01*
X72961Y697940D01*
Y636720D01*
X72448Y635951D01*
X70159Y635725D01*
X69442Y636442D01*
X68780Y636884D01*
X68000Y637039D01*
X44135D01*
X44036Y637020D01*
X43935Y637029D01*
X43648Y636942D01*
X43354Y636884D01*
X43270Y636828D01*
X43173Y636798D01*
X42942Y636609D01*
X42693Y636442D01*
X42636Y636358D01*
X42558Y636294D01*
X41099Y634516D01*
X41052Y634427D01*
X40980Y634355D01*
X40865Y634078D01*
X40724Y633814D01*
X40714Y633713D01*
X40676Y633620D01*
Y633321D01*
X40646Y633022D01*
X40676Y632925D01*
Y632824D01*
X41038Y631000D01*
X40731Y629455D01*
X39856Y628144D01*
X38545Y627269D01*
X37709Y627103D01*
X37523Y627026D01*
X37326Y626987D01*
X37159Y626875D01*
X36974Y626798D01*
X36832Y626656D01*
X36665Y626544D01*
X36553Y626377D01*
X36411Y626236D01*
X36400Y626210D01*
D01*
X36411Y626236D01*
X36400Y626210D01*
X35329Y626157D01*
X34853Y626139D01*
X33756Y627582D01*
X33774Y627625D01*
Y627825D01*
X33813Y628022D01*
X33774Y628219D01*
Y628420D01*
X33697Y628606D01*
X33658Y628803D01*
X33546Y628970D01*
X33469Y629155D01*
X33269Y629455D01*
X32962Y631000D01*
X33324Y632824D01*
Y632925D01*
X33354Y633022D01*
X33324Y633321D01*
Y633620D01*
X33286Y633713D01*
X33276Y633814D01*
X33135Y634078D01*
X33020Y634355D01*
X32948Y634427D01*
X32901Y634516D01*
X31442Y636294D01*
X31363Y636358D01*
X31307Y636442D01*
X31058Y636608D01*
X30827Y636798D01*
X30730Y636828D01*
X30646Y636884D01*
X30352Y636942D01*
X30065Y637029D01*
X29964Y637020D01*
X29865Y637039D01*
X5000D01*
X4220Y636884D01*
X3558Y636442D01*
X3116Y635780D01*
X2961Y635000D01*
Y587269D01*
X3019Y586975D01*
X3049Y586677D01*
X3096Y586588D01*
X3116Y586488D01*
X3282Y586239D01*
X3424Y585975D01*
X3502Y585911D01*
X3558Y585827D01*
X3807Y585660D01*
X4039Y585470D01*
X4136Y585441D01*
X4220Y585385D01*
X4514Y585326D01*
X4800Y585239D01*
X7089Y585014D01*
X7387Y585043D01*
X7687D01*
X7780Y585082D01*
X7881Y585092D01*
X8145Y585233D01*
X8422Y585348D01*
X8493Y585419D01*
X8583Y585467D01*
X8773Y585699D01*
X8984Y585910D01*
X9023Y586004D01*
X9087Y586082D01*
X9174Y586369D01*
X9212Y586461D01*
X10144Y587856D01*
X11454Y588731D01*
X13000Y589038D01*
X14545Y588731D01*
X15856Y587856D01*
X16654Y586660D01*
X16796Y586518D01*
X16908Y586351D01*
X17075Y586239D01*
X17217Y586097D01*
X17403Y586021D01*
X17570Y585909D01*
X17767Y585870D01*
X17952Y585793D01*
X18153D01*
X18350Y585754D01*
X20650D01*
X20847Y585793D01*
X21048D01*
X21233Y585870D01*
X21430Y585909D01*
X21597Y586020D01*
X21783Y586097D01*
X21925Y586239D01*
X22092Y586351D01*
X22204Y586518D01*
X22345Y586660D01*
X23144Y587856D01*
X24455Y588731D01*
X26000Y589038D01*
X27545Y588731D01*
X28856Y587856D01*
X29731Y586545D01*
X30038Y585000D01*
X29731Y583455D01*
X28856Y582144D01*
X27660Y581345D01*
X27518Y581203D01*
X27351Y581092D01*
X27239Y580925D01*
X27097Y580783D01*
X27020Y580597D01*
X26909Y580430D01*
X26870Y580233D01*
X26793Y580048D01*
Y579847D01*
X26754Y579650D01*
Y577350D01*
X26793Y577153D01*
Y576952D01*
X26870Y576767D01*
X26909Y576570D01*
X27020Y576403D01*
X27097Y576217D01*
X27239Y576075D01*
X27351Y575908D01*
X27518Y575797D01*
X27660Y575654D01*
X28856Y574856D01*
X29731Y573545D01*
X30038Y572000D01*
X29731Y570455D01*
X28856Y569145D01*
X28408Y568845D01*
X28266Y568703D01*
X28099Y568592D01*
X27988Y568425D01*
X27846Y568283D01*
X27769Y568097D01*
X27657Y567930D01*
X27618Y567733D01*
X27541Y567548D01*
Y567347D01*
X27502Y567150D01*
Y564850D01*
X27541Y564653D01*
Y564452D01*
X27618Y564267D01*
X27657Y564070D01*
X27769Y563903D01*
X27846Y563717D01*
X27988Y563575D01*
X28099Y563408D01*
X28266Y563297D01*
X28408Y563154D01*
X28856Y562855D01*
X29731Y561545D01*
X30038Y560000D01*
X29731Y558455D01*
X28856Y557144D01*
X27660Y556345D01*
X27518Y556203D01*
X27351Y556092D01*
X27239Y555925D01*
X27097Y555783D01*
X27020Y555597D01*
X26909Y555430D01*
X26870Y555233D01*
X26793Y555048D01*
Y554847D01*
X26754Y554650D01*
Y552350D01*
X26793Y552153D01*
Y551952D01*
X26870Y551767D01*
X26909Y551570D01*
X27020Y551403D01*
X27097Y551217D01*
X27239Y551075D01*
X27351Y550908D01*
X27518Y550797D01*
X27660Y550654D01*
X28856Y549856D01*
X29731Y548545D01*
X30038Y547000D01*
X29731Y545455D01*
X28856Y544144D01*
X27660Y543345D01*
X27518Y543204D01*
X27351Y543092D01*
X27239Y542925D01*
X27097Y542783D01*
X27020Y542597D01*
X26909Y542430D01*
X26870Y542233D01*
X26793Y542048D01*
Y541847D01*
X26754Y541650D01*
Y539350D01*
X26793Y539153D01*
Y538952D01*
X26870Y538767D01*
X26909Y538570D01*
X27020Y538403D01*
X27097Y538217D01*
X27239Y538075D01*
X27351Y537908D01*
X27518Y537797D01*
X27660Y537654D01*
X28856Y536856D01*
X29731Y535546D01*
X30038Y534000D01*
X29731Y532455D01*
X28856Y531144D01*
X27545Y530269D01*
X26000Y529962D01*
X24455Y530269D01*
X23144Y531144D01*
X22345Y532340D01*
X22204Y532482D01*
X22092Y532649D01*
X21925Y532761D01*
X21783Y532903D01*
X21597Y532980D01*
X21430Y533091D01*
X21233Y533130D01*
X21048Y533207D01*
X20847D01*
X20650Y533246D01*
X18350D01*
X18153Y533207D01*
X17952D01*
X17767Y533130D01*
X17570Y533091D01*
X17403Y532980D01*
X17217Y532903D01*
X17075Y532761D01*
X16908Y532649D01*
X16796Y532482D01*
X16654Y532340D01*
X15856Y531144D01*
X14546Y530269D01*
X13000Y529962D01*
X11455Y530269D01*
X10144Y531144D01*
X9212Y532539D01*
X9174Y532631D01*
X9087Y532918D01*
X9023Y532996D01*
X8984Y533090D01*
X8773Y533301D01*
X8583Y533533D01*
X8493Y533581D01*
X8422Y533652D01*
X8145Y533767D01*
X7881Y533908D01*
X7780Y533918D01*
X7687Y533957D01*
X7387D01*
X7089Y533986D01*
X4800Y533761D01*
X4514Y533674D01*
X4220Y533615D01*
X4136Y533559D01*
X4039Y533530D01*
X3807Y533340D01*
X3558Y533173D01*
X3502Y533089D01*
X3424Y533025D01*
X3282Y532761D01*
X3116Y532512D01*
X3096Y532412D01*
X3049Y532323D01*
X3019Y532025D01*
X2961Y531731D01*
Y304938D01*
X2980Y304839D01*
X2971Y304738D01*
X3058Y304452D01*
X3116Y304158D01*
X3172Y304074D01*
X3202Y303977D01*
X3202Y303977D01*
Y303977D01*
Y303977D01*
X3201D01*
X3202Y303977D01*
X3081Y303265D01*
X1674Y302326D01*
X1012Y301334D01*
X-26012D01*
X-26674Y302326D01*
X-28659Y303652D01*
X-31000Y304118D01*
X-33341Y303652D01*
X-35326Y302326D01*
X-36652Y300341D01*
X-37118Y298000D01*
X-36652Y295659D01*
X-35326Y293674D01*
X-33341Y292348D01*
X-31000Y291882D01*
X-28659Y292348D01*
X-26674Y293674D01*
X-26012Y294666D01*
X1012D01*
X1674Y293674D01*
X3517Y292443D01*
X3517D01*
X3202Y292023D01*
X3201Y292023D01*
X3202D01*
X3201Y292023D01*
X3202Y292023D01*
X3202D01*
X3172Y291926D01*
X3116Y291842D01*
X3058Y291548D01*
X2971Y291262D01*
X2980Y291161D01*
X2961Y291062D01*
Y179955D01*
X836Y179075D01*
X-25045Y204955D01*
X-26789Y206294D01*
X-28820Y207135D01*
X-31000Y207422D01*
X-64578D01*
Y224000D01*
X-64578Y224000D01*
X-64578Y224000D01*
Y224000D01*
Y249000D01*
X-64865Y251180D01*
X-65706Y253211D01*
X-67045Y254955D01*
X-68789Y256294D01*
X-70820Y257135D01*
X-73000Y257422D01*
X-75180Y257135D01*
X-77211Y256294D01*
X-78955Y254955D01*
X-80294Y253211D01*
X-81135Y251180D01*
X-81422Y249000D01*
Y224000D01*
X-81422Y224000D01*
X-81422D01*
Y199000D01*
X-81135Y196820D01*
X-80294Y194789D01*
X-78955Y193045D01*
D01*
X-78955D01*
Y193045D01*
D01*
X-78955D01*
Y193045D01*
X-78955D01*
X-78955Y193045D01*
Y193045D01*
X-78955Y193045D01*
Y193045D01*
X-77211Y191706D01*
X-75180Y190865D01*
X-75180Y190865D01*
X-75180Y190865D01*
D01*
X-75180Y190865D01*
X-75180Y190865D01*
X-73000Y190578D01*
X-34488D01*
X2961Y153129D01*
Y5000D01*
X2550Y4500D01*
X-133297D01*
Y1532500D01*
X575703D01*
Y272616D01*
D02*
G37*
G36*
X435000Y464155D02*
X371500Y400000D01*
X371500D01*
Y381127D01*
X371470Y381115D01*
X370008Y379992D01*
X368885Y378530D01*
X368180Y376827D01*
X367940Y375000D01*
X368180Y373173D01*
X368885Y371470D01*
X370008Y370008D01*
Y367992D01*
X368885Y366530D01*
X368180Y364827D01*
X367940Y363000D01*
X368180Y361173D01*
X368885Y359470D01*
X370008Y358008D01*
Y355992D01*
X368885Y354530D01*
X368180Y352827D01*
X367940Y351000D01*
X368180Y349173D01*
X368885Y347470D01*
X370008Y346008D01*
Y343992D01*
X368885Y342530D01*
X368180Y340827D01*
X367940Y339000D01*
X368180Y337173D01*
X368885Y335470D01*
X370008Y334008D01*
X371470Y332886D01*
X371500Y332873D01*
Y272042D01*
X371177Y271826D01*
X369851Y269841D01*
X369385Y267500D01*
X369851Y265159D01*
X371177Y263174D01*
X371500Y262958D01*
Y133500D01*
X370500Y132500D01*
X201500D01*
Y402500D01*
X203929D01*
X309000Y510629D01*
Y643990D01*
X310000Y645000D01*
X435000D01*
Y464155D01*
D02*
G37*
%LPC*%
G36*
X318395Y1145060D02*
X316568Y1144820D01*
X314865Y1144115D01*
X313403Y1142992D01*
X312281Y1141530D01*
X311576Y1139827D01*
X311335Y1138000D01*
X311576Y1136173D01*
X312281Y1134470D01*
X313403Y1133008D01*
X314865Y1131886D01*
X316568Y1131180D01*
X318395Y1130940D01*
X320223Y1131180D01*
X321926Y1131886D01*
X323388Y1133008D01*
X324510Y1134470D01*
X325215Y1136173D01*
X325456Y1138000D01*
X325215Y1139827D01*
X324510Y1141530D01*
X323388Y1142992D01*
X321926Y1144115D01*
X320223Y1144820D01*
X318395Y1145060D01*
D02*
G37*
G36*
X157000Y372060D02*
X155173Y371820D01*
X153470Y371115D01*
X152008Y369992D01*
X150885Y368530D01*
X150180Y366827D01*
X149940Y365000D01*
X150180Y363173D01*
X150885Y361470D01*
X152008Y360008D01*
X153470Y358885D01*
X155173Y358180D01*
X157000Y357940D01*
X158827Y358180D01*
X160530Y358885D01*
X161992Y360008D01*
X163114Y361470D01*
X163820Y363173D01*
X164060Y365000D01*
X163820Y366827D01*
X163114Y368530D01*
X161992Y369992D01*
X160530Y371115D01*
X158827Y371820D01*
X157000Y372060D01*
D02*
G37*
G36*
X131360Y1149200D02*
X129533Y1148960D01*
X127830Y1148254D01*
X126368Y1147132D01*
X125246Y1145670D01*
X124540Y1143967D01*
X124300Y1142140D01*
X124540Y1140313D01*
X125246Y1138610D01*
X126368Y1137148D01*
X127830Y1136026D01*
X129533Y1135320D01*
X131360Y1135080D01*
X133187Y1135320D01*
X134890Y1136026D01*
X136352Y1137148D01*
X137474Y1138610D01*
X138180Y1140313D01*
X138420Y1142140D01*
X138180Y1143967D01*
X137474Y1145670D01*
X136352Y1147132D01*
X134890Y1148254D01*
X133187Y1148960D01*
X131360Y1149200D01*
D02*
G37*
G36*
X390050Y1136510D02*
X388223Y1136270D01*
X386520Y1135564D01*
X385057Y1134442D01*
X383936Y1132980D01*
X383230Y1131277D01*
X382990Y1129450D01*
X383230Y1127623D01*
X383936Y1125920D01*
X385057Y1124457D01*
X386520Y1123335D01*
X388223Y1122630D01*
X390050Y1122390D01*
X391877Y1122630D01*
X393580Y1123335D01*
X395042Y1124457D01*
X396165Y1125920D01*
X396870Y1127623D01*
X397110Y1129450D01*
X396870Y1131277D01*
X396165Y1132980D01*
X395042Y1134442D01*
X393580Y1135564D01*
X391877Y1136270D01*
X390050Y1136510D01*
D02*
G37*
G36*
X296000Y1088060D02*
X294173Y1087820D01*
X292470Y1087114D01*
X291007Y1085992D01*
X289886Y1084530D01*
X289180Y1082827D01*
X288940Y1081000D01*
X289180Y1079173D01*
X289886Y1077470D01*
X291007Y1076008D01*
X292470Y1074885D01*
X294173Y1074180D01*
X296000Y1073940D01*
X297827Y1074180D01*
X299530Y1074885D01*
X300992Y1076008D01*
X302114Y1077470D01*
X302820Y1079173D01*
X303060Y1081000D01*
X302820Y1082827D01*
X302114Y1084530D01*
X300992Y1085992D01*
X299530Y1087114D01*
X297827Y1087820D01*
X296000Y1088060D01*
D02*
G37*
G36*
X197000Y619669D02*
X194639Y619199D01*
X192638Y617862D01*
X191301Y615861D01*
X190832Y613500D01*
X191131Y611996D01*
X189504Y610369D01*
X188000Y610668D01*
X186496Y610369D01*
X184869Y611996D01*
X185168Y613500D01*
X184699Y615861D01*
X183362Y617862D01*
X181361Y619199D01*
X179000Y619669D01*
X176639Y619199D01*
X174638Y617862D01*
X173301Y615861D01*
X172831Y613500D01*
X173131Y611996D01*
X171504Y610369D01*
X170000Y610668D01*
X168496Y610369D01*
X166869Y611996D01*
X167169Y613500D01*
X166699Y615861D01*
X165362Y617862D01*
X163361Y619199D01*
X161000Y619669D01*
X158639Y619199D01*
X156638Y617862D01*
X155301Y615861D01*
X154831Y613500D01*
X155131Y611996D01*
X153504Y610369D01*
X152000Y610668D01*
X150496Y610369D01*
X148869Y611996D01*
X149169Y613500D01*
X148699Y615861D01*
X147362Y617862D01*
X145361Y619199D01*
X143000Y619669D01*
X140639Y619199D01*
X138638Y617862D01*
X137301Y615861D01*
X136832Y613500D01*
X137131Y611996D01*
X135504Y610369D01*
X134000Y610668D01*
X132496Y610369D01*
X130869Y611996D01*
X131168Y613500D01*
X130699Y615861D01*
X129362Y617862D01*
X127361Y619199D01*
X125000Y619669D01*
X122639Y619199D01*
X120638Y617862D01*
X119301Y615861D01*
X118832Y613500D01*
X119301Y611139D01*
X120638Y609138D01*
X122639Y607801D01*
X125000Y607332D01*
X126504Y607631D01*
X128131Y606004D01*
X127831Y604500D01*
X128131Y602996D01*
X126504Y601369D01*
X125000Y601669D01*
X122639Y601199D01*
X120638Y599862D01*
X119301Y597861D01*
X118832Y595500D01*
X119301Y593139D01*
X120638Y591138D01*
X122639Y589801D01*
X125000Y589332D01*
X126504Y589631D01*
X128131Y588004D01*
X127831Y586500D01*
X128131Y584996D01*
X126504Y583369D01*
X125000Y583669D01*
X122639Y583199D01*
X120638Y581862D01*
X119301Y579861D01*
X118832Y577500D01*
X119301Y575139D01*
X120638Y573138D01*
X122639Y571801D01*
X125000Y571331D01*
X126504Y571631D01*
X128131Y570004D01*
X127831Y568500D01*
X128131Y566996D01*
X126504Y565369D01*
X125000Y565668D01*
X122639Y565199D01*
X120638Y563862D01*
X119301Y561861D01*
X118832Y559500D01*
X119301Y557139D01*
X120638Y555138D01*
X122639Y553801D01*
X125000Y553331D01*
X126504Y553631D01*
X128131Y552004D01*
X127831Y550500D01*
X128131Y548996D01*
X126504Y547369D01*
X125000Y547668D01*
X122639Y547199D01*
X120638Y545862D01*
X119301Y543861D01*
X118832Y541500D01*
X119301Y539139D01*
X120638Y537138D01*
X122639Y535801D01*
X125000Y535331D01*
X127361Y535801D01*
X129362Y537138D01*
X130699Y539139D01*
X131168Y541500D01*
X130869Y543004D01*
X132496Y544631D01*
X134000Y544332D01*
X135504Y544631D01*
X137131Y543004D01*
X136832Y541500D01*
X137301Y539139D01*
X138638Y537138D01*
X140639Y535801D01*
X143000Y535331D01*
X145361Y535801D01*
X147362Y537138D01*
X148699Y539139D01*
X149169Y541500D01*
X148869Y543004D01*
X150496Y544631D01*
X152000Y544332D01*
X153504Y544631D01*
X155131Y543004D01*
X154831Y541500D01*
X155301Y539139D01*
X156638Y537138D01*
X158639Y535801D01*
X161000Y535331D01*
X163361Y535801D01*
X165362Y537138D01*
X166699Y539139D01*
X167169Y541500D01*
X166869Y543004D01*
X168496Y544631D01*
X170000Y544332D01*
X171504Y544631D01*
X173131Y543004D01*
X172831Y541500D01*
X173301Y539139D01*
X174638Y537138D01*
X176639Y535801D01*
X179000Y535331D01*
X181361Y535801D01*
X183362Y537138D01*
X184699Y539139D01*
X185168Y541500D01*
X184869Y543004D01*
X186496Y544631D01*
X188000Y544332D01*
X189504Y544631D01*
X191131Y543004D01*
X190832Y541500D01*
X191301Y539139D01*
X192638Y537138D01*
X194639Y535801D01*
X197000Y535331D01*
X199361Y535801D01*
X201362Y537138D01*
X202699Y539139D01*
X203169Y541500D01*
X202699Y543861D01*
X201362Y545862D01*
X199361Y547199D01*
X197000Y547668D01*
X195496Y547369D01*
X193869Y548996D01*
X194168Y550500D01*
X193869Y552004D01*
X195496Y553631D01*
X197000Y553331D01*
X199361Y553801D01*
X201362Y555138D01*
X202699Y557139D01*
X203169Y559500D01*
X202699Y561861D01*
X201362Y563862D01*
X199361Y565199D01*
X197000Y565668D01*
X195496Y565369D01*
X193869Y566996D01*
X194168Y568500D01*
X193869Y570004D01*
X195496Y571631D01*
X197000Y571331D01*
X199361Y571801D01*
X201362Y573138D01*
X202699Y575139D01*
X203169Y577500D01*
X202699Y579861D01*
X201362Y581862D01*
X199361Y583199D01*
X197000Y583669D01*
X195496Y583369D01*
X193869Y584996D01*
X194168Y586500D01*
X193869Y588004D01*
X195496Y589631D01*
X197000Y589332D01*
X199361Y589801D01*
X201362Y591138D01*
X202699Y593139D01*
X203169Y595500D01*
X202699Y597861D01*
X201362Y599862D01*
X199361Y601199D01*
X197000Y601669D01*
X195496Y601369D01*
X193869Y602996D01*
X194168Y604500D01*
X193869Y606004D01*
X195496Y607631D01*
X197000Y607332D01*
X199361Y607801D01*
X201362Y609138D01*
X202699Y611139D01*
X203169Y613500D01*
X202699Y615861D01*
X201362Y617862D01*
X199361Y619199D01*
X197000Y619669D01*
D02*
G37*
G36*
X109770Y1142060D02*
X107943Y1141820D01*
X106240Y1141115D01*
X104777Y1139992D01*
X103656Y1138530D01*
X102950Y1136827D01*
X102710Y1135000D01*
X102950Y1133173D01*
X103656Y1131470D01*
X104777Y1130007D01*
X106240Y1128885D01*
X107943Y1128180D01*
X109770Y1127940D01*
X111597Y1128180D01*
X113300Y1128885D01*
X114762Y1130007D01*
X115884Y1131470D01*
X116590Y1133173D01*
X116830Y1135000D01*
X116590Y1136827D01*
X115884Y1138530D01*
X114762Y1139992D01*
X113300Y1141115D01*
X111597Y1141820D01*
X109770Y1142060D01*
D02*
G37*
G36*
X388000Y259118D02*
X385659Y258652D01*
X383674Y257326D01*
X382348Y255341D01*
X381883Y253000D01*
X382348Y250659D01*
X383674Y248674D01*
X385659Y247348D01*
X388000Y246882D01*
X390341Y247348D01*
X392326Y248674D01*
X393652Y250659D01*
X394118Y253000D01*
X393652Y255341D01*
X392326Y257326D01*
X390341Y258652D01*
X388000Y259118D01*
D02*
G37*
G36*
X323500Y262169D02*
X321139Y261699D01*
X319138Y260362D01*
X317801Y258361D01*
X317332Y256000D01*
X317631Y254496D01*
X316004Y252869D01*
X314500Y253169D01*
X312996Y252869D01*
X311369Y254496D01*
X311668Y256000D01*
X311199Y258361D01*
X309862Y260362D01*
X307861Y261699D01*
X305500Y262169D01*
X303139Y261699D01*
X301138Y260362D01*
X299801Y258361D01*
X299331Y256000D01*
X299631Y254496D01*
X298004Y252869D01*
X296500Y253169D01*
X294996Y252869D01*
X293369Y254496D01*
X293668Y256000D01*
X293199Y258361D01*
X291862Y260362D01*
X289861Y261699D01*
X287500Y262169D01*
X285139Y261699D01*
X283138Y260362D01*
X281801Y258361D01*
X281332Y256000D01*
X281631Y254496D01*
X280004Y252869D01*
X278500Y253169D01*
X276996Y252869D01*
X275369Y254496D01*
X275669Y256000D01*
X275199Y258361D01*
X273862Y260362D01*
X271861Y261699D01*
X269500Y262169D01*
X267139Y261699D01*
X265138Y260362D01*
X263801Y258361D01*
X263332Y256000D01*
X263631Y254496D01*
X262004Y252869D01*
X260500Y253169D01*
X258996Y252869D01*
X257369Y254496D01*
X257668Y256000D01*
X257199Y258361D01*
X255862Y260362D01*
X253861Y261699D01*
X251500Y262169D01*
X249139Y261699D01*
X247138Y260362D01*
X245801Y258361D01*
X245331Y256000D01*
X245801Y253639D01*
X247138Y251638D01*
X249139Y250301D01*
X251500Y249832D01*
X253004Y250131D01*
X254631Y248504D01*
X254331Y247000D01*
X254631Y245496D01*
X253004Y243869D01*
X251500Y244168D01*
X249139Y243699D01*
X247138Y242362D01*
X245801Y240361D01*
X245331Y238000D01*
X245801Y235639D01*
X247138Y233638D01*
X249139Y232301D01*
X251500Y231831D01*
X253004Y232131D01*
X254631Y230504D01*
X254331Y229000D01*
X254631Y227496D01*
X253004Y225869D01*
X251500Y226168D01*
X249139Y225699D01*
X247138Y224362D01*
X245801Y222361D01*
X245331Y220000D01*
X245801Y217639D01*
X247138Y215638D01*
X249139Y214301D01*
X251500Y213832D01*
X253004Y214131D01*
X254631Y212504D01*
X254331Y211000D01*
X254631Y209496D01*
X253004Y207869D01*
X251500Y208169D01*
X249139Y207699D01*
X247138Y206362D01*
X245801Y204361D01*
X245331Y202000D01*
X245801Y199639D01*
X247138Y197638D01*
X249139Y196301D01*
X251500Y195832D01*
X253004Y196131D01*
X254631Y194504D01*
X254331Y193000D01*
X254631Y191496D01*
X253004Y189869D01*
X251500Y190168D01*
X249139Y189699D01*
X247138Y188362D01*
X245801Y186361D01*
X245331Y184000D01*
X245801Y181639D01*
X247138Y179638D01*
X249139Y178301D01*
X251500Y177831D01*
X253861Y178301D01*
X255862Y179638D01*
X257199Y181639D01*
X257668Y184000D01*
X257369Y185504D01*
X258996Y187131D01*
X260500Y186831D01*
X262004Y187131D01*
X263631Y185504D01*
X263332Y184000D01*
X263801Y181639D01*
X265138Y179638D01*
X267139Y178301D01*
X269500Y177831D01*
X271861Y178301D01*
X273862Y179638D01*
X275199Y181639D01*
X275669Y184000D01*
X275369Y185504D01*
X276996Y187131D01*
X278500Y186831D01*
X280004Y187131D01*
X281631Y185504D01*
X281332Y184000D01*
X281801Y181639D01*
X283138Y179638D01*
X285139Y178301D01*
X287500Y177831D01*
X289861Y178301D01*
X291862Y179638D01*
X293199Y181639D01*
X293668Y184000D01*
X293369Y185504D01*
X294996Y187131D01*
X296500Y186831D01*
X298004Y187131D01*
X299631Y185504D01*
X299331Y184000D01*
X299801Y181639D01*
X301138Y179638D01*
X303139Y178301D01*
X305500Y177831D01*
X307861Y178301D01*
X309862Y179638D01*
X311199Y181639D01*
X311668Y184000D01*
X311369Y185504D01*
X312996Y187131D01*
X314500Y186831D01*
X316004Y187131D01*
X317631Y185504D01*
X317332Y184000D01*
X317801Y181639D01*
X319138Y179638D01*
X321139Y178301D01*
X323500Y177831D01*
X325861Y178301D01*
X327862Y179638D01*
X329199Y181639D01*
X329669Y184000D01*
X329199Y186361D01*
X327862Y188362D01*
X325861Y189699D01*
X323500Y190168D01*
X321996Y189869D01*
X320369Y191496D01*
X320668Y193000D01*
X320369Y194504D01*
X321996Y196131D01*
X323500Y195832D01*
X325861Y196301D01*
X327862Y197638D01*
X329199Y199639D01*
X329669Y202000D01*
X329199Y204361D01*
X327862Y206362D01*
X325861Y207699D01*
X323500Y208169D01*
X321996Y207869D01*
X320369Y209496D01*
X320668Y211000D01*
X320369Y212504D01*
X321996Y214131D01*
X323500Y213832D01*
X325861Y214301D01*
X327862Y215638D01*
X329199Y217639D01*
X329669Y220000D01*
X329199Y222361D01*
X327862Y224362D01*
X325861Y225699D01*
X323500Y226168D01*
X321996Y225869D01*
X320369Y227496D01*
X320668Y229000D01*
X320369Y230504D01*
X321996Y232131D01*
X323500Y231831D01*
X325861Y232301D01*
X327862Y233638D01*
X329199Y235639D01*
X329669Y238000D01*
X329199Y240361D01*
X327862Y242362D01*
X325861Y243699D01*
X323500Y244168D01*
X321996Y243869D01*
X320369Y245496D01*
X320668Y247000D01*
X320369Y248504D01*
X321996Y250131D01*
X323500Y249832D01*
X325861Y250301D01*
X327862Y251638D01*
X329199Y253639D01*
X329669Y256000D01*
X329199Y258361D01*
X327862Y260362D01*
X325861Y261699D01*
X323500Y262169D01*
D02*
G37*
G36*
X98000Y228118D02*
X95659Y227652D01*
X93674Y226326D01*
X92650Y224793D01*
X90350D01*
X89326Y226326D01*
X87341Y227652D01*
X85000Y228118D01*
X82659Y227652D01*
X80674Y226326D01*
X79650Y224793D01*
X77350D01*
X76326Y226326D01*
X74341Y227652D01*
X72000Y228118D01*
X69659Y227652D01*
X67674Y226326D01*
X66650Y224793D01*
X64350D01*
X63326Y226326D01*
X61341Y227652D01*
X59000Y228118D01*
X56659Y227652D01*
X54674Y226326D01*
X53650Y224793D01*
X51350D01*
X50326Y226326D01*
X48341Y227652D01*
X46000Y228118D01*
X43659Y227652D01*
X41674Y226326D01*
X40348Y224341D01*
X39883Y222000D01*
X40348Y219659D01*
X41674Y217674D01*
X43207Y216650D01*
Y214350D01*
X41674Y213326D01*
X40348Y211341D01*
X39883Y209000D01*
X40348Y206659D01*
X41674Y204674D01*
X42459Y204150D01*
Y201850D01*
X41674Y201326D01*
X40348Y199341D01*
X39883Y197000D01*
X40348Y194659D01*
X41674Y192674D01*
X43207Y191650D01*
Y189350D01*
X41674Y188326D01*
X40348Y186341D01*
X39883Y184000D01*
X40348Y181659D01*
X41674Y179674D01*
X43207Y178650D01*
Y176350D01*
X41674Y175326D01*
X40348Y173341D01*
X39883Y171000D01*
X40348Y168659D01*
X41674Y166674D01*
X43659Y165348D01*
X46000Y164883D01*
X48341Y165348D01*
X50326Y166674D01*
X51350Y168207D01*
X53650D01*
X54674Y166674D01*
X56659Y165348D01*
X59000Y164883D01*
X61341Y165348D01*
X63326Y166674D01*
X64350Y168207D01*
X66650D01*
X67674Y166674D01*
X69659Y165348D01*
X72000Y164883D01*
X74341Y165348D01*
X76326Y166674D01*
X77350Y168207D01*
X79650D01*
X80674Y166674D01*
X82659Y165348D01*
X85000Y164883D01*
X87341Y165348D01*
X89326Y166674D01*
X90350Y168207D01*
X92650D01*
X93674Y166674D01*
X95659Y165348D01*
X98000Y164883D01*
X100341Y165348D01*
X102326Y166674D01*
X103652Y168659D01*
X104117Y171000D01*
X103652Y173341D01*
X102326Y175326D01*
X100793Y176350D01*
Y178650D01*
X102326Y179674D01*
X103652Y181659D01*
X104117Y184000D01*
X103652Y186341D01*
X102326Y188326D01*
X100793Y189350D01*
Y191650D01*
X102326Y192674D01*
X103652Y194659D01*
X104117Y197000D01*
X103652Y199341D01*
X102326Y201326D01*
X101541Y201850D01*
Y204150D01*
X102326Y204674D01*
X103652Y206659D01*
X104117Y209000D01*
X103652Y211341D01*
X102326Y213326D01*
X100793Y214350D01*
Y216650D01*
X102326Y217674D01*
X103652Y219659D01*
X104117Y222000D01*
X103652Y224341D01*
X102326Y226326D01*
X100341Y227652D01*
X98000Y228118D01*
D02*
G37*
G36*
X69000Y97090D02*
X63506Y96730D01*
X58106Y95656D01*
X52893Y93886D01*
X47955Y91451D01*
X43377Y88392D01*
X39238Y84762D01*
X35608Y80623D01*
X32549Y76045D01*
X30114Y71107D01*
X28344Y65894D01*
X27270Y60494D01*
X26910Y55000D01*
X27270Y49506D01*
X28344Y44106D01*
X30114Y38893D01*
X32549Y33955D01*
X35608Y29377D01*
X39238Y25238D01*
X43377Y21608D01*
X47955Y18549D01*
X52893Y16114D01*
X58106Y14344D01*
X63506Y13270D01*
X69000Y12910D01*
X74494Y13270D01*
X79894Y14344D01*
X85107Y16114D01*
X90045Y18549D01*
X94623Y21608D01*
X98762Y25238D01*
X102392Y29377D01*
X105451Y33955D01*
X107886Y38893D01*
X109656Y44106D01*
X110730Y49506D01*
X111090Y55000D01*
X110730Y60494D01*
X109656Y65894D01*
X107886Y71107D01*
X105451Y76045D01*
X102392Y80623D01*
X98762Y84762D01*
X94623Y88392D01*
X90045Y91451D01*
X85107Y93886D01*
X79894Y95656D01*
X74494Y96730D01*
X69000Y97090D01*
D02*
G37*
G36*
X354000D02*
X348506Y96730D01*
X343106Y95656D01*
X337893Y93886D01*
X332955Y91451D01*
X328377Y88392D01*
X324238Y84762D01*
X320608Y80623D01*
X317549Y76045D01*
X315114Y71107D01*
X313344Y65894D01*
X312270Y60494D01*
X311910Y55000D01*
X312270Y49506D01*
X313344Y44106D01*
X315114Y38893D01*
X317549Y33955D01*
X320608Y29377D01*
X324238Y25238D01*
X328377Y21608D01*
X332955Y18549D01*
X337893Y16114D01*
X343106Y14344D01*
X348506Y13270D01*
X354000Y12910D01*
X359494Y13270D01*
X364894Y14344D01*
X370107Y16114D01*
X375045Y18549D01*
X379623Y21608D01*
X383762Y25238D01*
X387392Y29377D01*
X390451Y33955D01*
X392886Y38893D01*
X394656Y44106D01*
X395730Y49506D01*
X396090Y55000D01*
X395730Y60494D01*
X394656Y65894D01*
X392886Y71107D01*
X390451Y76045D01*
X387392Y80623D01*
X383762Y84762D01*
X379623Y88392D01*
X375045Y91451D01*
X370107Y93886D01*
X364894Y95656D01*
X359494Y96730D01*
X354000Y97090D01*
D02*
G37*
G36*
X408000Y281117D02*
X405659Y280652D01*
X403674Y279326D01*
X402348Y277341D01*
X401883Y275000D01*
X402348Y272659D01*
X403674Y270674D01*
X405659Y269348D01*
X408000Y268883D01*
X410341Y269348D01*
X412326Y270674D01*
X413652Y272659D01*
X414118Y275000D01*
X413652Y277341D01*
X412326Y279326D01*
X410341Y280652D01*
X408000Y281117D01*
D02*
G37*
G36*
X158000Y323060D02*
X156173Y322820D01*
X154470Y322114D01*
X153007Y320992D01*
X151885Y319530D01*
X151180Y317827D01*
X150940Y316000D01*
X151180Y314173D01*
X151885Y312470D01*
X153007Y311008D01*
X154470Y309886D01*
X156173Y309180D01*
X158000Y308940D01*
X159827Y309180D01*
X161530Y309886D01*
X162992Y311008D01*
X164114Y312470D01*
X164820Y314173D01*
X165060Y316000D01*
X164820Y317827D01*
X164114Y319530D01*
X162992Y320992D01*
X161530Y322114D01*
X159827Y322820D01*
X158000Y323060D01*
D02*
G37*
G36*
X157000Y348060D02*
X155173Y347820D01*
X153470Y347114D01*
X152008Y345992D01*
X150885Y344530D01*
X150180Y342827D01*
X149940Y341000D01*
X150180Y339173D01*
X150885Y337470D01*
X152008Y336008D01*
X153470Y334885D01*
X155173Y334180D01*
X157000Y333940D01*
X158827Y334180D01*
X160530Y334885D01*
X161992Y336008D01*
X163114Y337470D01*
X163820Y339173D01*
X164060Y341000D01*
X163820Y342827D01*
X163114Y344530D01*
X161992Y345992D01*
X160530Y347114D01*
X158827Y347820D01*
X157000Y348060D01*
D02*
G37*
G36*
X470000Y303118D02*
X467659Y302652D01*
X465674Y301326D01*
X464348Y299341D01*
X463882Y297000D01*
X464348Y294659D01*
X465674Y292674D01*
X467659Y291348D01*
X470000Y290882D01*
X472341Y291348D01*
X474326Y292674D01*
X475652Y294659D01*
X476118Y297000D01*
X475652Y299341D01*
X474326Y301326D01*
X472341Y302652D01*
X470000Y303118D01*
D02*
G37*
G36*
X158000Y299060D02*
X156173Y298820D01*
X154470Y298114D01*
X153007Y296992D01*
X151885Y295530D01*
X151180Y293827D01*
X150940Y292000D01*
X151180Y290173D01*
X151885Y288470D01*
X153007Y287008D01*
X154470Y285886D01*
X156173Y285180D01*
X158000Y284940D01*
X158256Y284973D01*
X159470Y283020D01*
X158348Y281341D01*
X157882Y279000D01*
X158194Y277432D01*
X156568Y275806D01*
X155000Y276117D01*
X152659Y275652D01*
X150674Y274326D01*
X149348Y272341D01*
X148883Y270000D01*
X149348Y267659D01*
X150674Y265674D01*
X152659Y264348D01*
X155000Y263883D01*
X157341Y264348D01*
X159326Y265674D01*
X160652Y267659D01*
X161117Y270000D01*
X160806Y271568D01*
X162432Y273194D01*
X164000Y272882D01*
X166341Y273348D01*
X168326Y274674D01*
X169652Y276659D01*
X170117Y279000D01*
X169652Y281341D01*
X168326Y283326D01*
X166341Y284652D01*
X164004Y285117D01*
X163193Y287269D01*
X164114Y288470D01*
X164820Y290173D01*
X165060Y292000D01*
X164820Y293827D01*
X164114Y295530D01*
X162992Y296992D01*
X161530Y298114D01*
X159827Y298820D01*
X158000Y299060D01*
D02*
G37*
G36*
X69000Y366090D02*
X63506Y365730D01*
X58106Y364656D01*
X52893Y362886D01*
X47955Y360451D01*
X43377Y357392D01*
X39238Y353762D01*
X35608Y349623D01*
X32549Y345045D01*
X30114Y340107D01*
X28344Y334894D01*
X27270Y329494D01*
X26910Y324000D01*
X27270Y318506D01*
X28344Y313106D01*
X30114Y307893D01*
X32549Y302955D01*
X35608Y298377D01*
X39238Y294238D01*
X43377Y290608D01*
X47955Y287549D01*
X52893Y285114D01*
X58106Y283344D01*
X63506Y282270D01*
X69000Y281910D01*
X74494Y282270D01*
X79894Y283344D01*
X85107Y285114D01*
X90045Y287549D01*
X94623Y290608D01*
X98762Y294238D01*
X102392Y298377D01*
X105451Y302955D01*
X107886Y307893D01*
X109656Y313106D01*
X110730Y318506D01*
X111090Y324000D01*
X110730Y329494D01*
X109656Y334894D01*
X107886Y340107D01*
X105451Y345045D01*
X102392Y349623D01*
X98762Y353762D01*
X94623Y357392D01*
X90045Y360451D01*
X85107Y362886D01*
X79894Y364656D01*
X74494Y365730D01*
X69000Y366090D01*
D02*
G37*
G36*
X187500Y1161560D02*
X185673Y1161320D01*
X183970Y1160614D01*
X182507Y1159492D01*
X181385Y1158030D01*
X180680Y1156327D01*
X180440Y1154500D01*
X180680Y1152673D01*
X181385Y1150970D01*
X182507Y1149508D01*
X183970Y1148385D01*
X185673Y1147680D01*
X187500Y1147440D01*
X189327Y1147680D01*
X191030Y1148385D01*
X192492Y1149508D01*
X193614Y1150970D01*
X193696Y1151166D01*
X243119D01*
X245261Y1149024D01*
X245180Y1148827D01*
X244940Y1147000D01*
X245180Y1145173D01*
X245886Y1143470D01*
X247008Y1142008D01*
X248470Y1140885D01*
X250173Y1140180D01*
X252000Y1139940D01*
X253827Y1140180D01*
X255530Y1140885D01*
X256992Y1142008D01*
X258114Y1143470D01*
X258820Y1145173D01*
X259060Y1147000D01*
X258820Y1148827D01*
X258114Y1150530D01*
X256992Y1151992D01*
X255530Y1153114D01*
X253827Y1153820D01*
X252000Y1154060D01*
X250173Y1153820D01*
X249977Y1153738D01*
X246858Y1156858D01*
X245776Y1157580D01*
X244500Y1157834D01*
X193696D01*
X193614Y1158030D01*
X192492Y1159492D01*
X191030Y1160614D01*
X189327Y1161320D01*
X187500Y1161560D01*
D02*
G37*
G36*
X287000Y1451347D02*
X284063Y1450960D01*
X281327Y1449827D01*
X278976Y1448024D01*
X277173Y1445674D01*
X276040Y1442937D01*
X275653Y1440000D01*
X276040Y1437063D01*
X277173Y1434326D01*
X278976Y1431976D01*
X281327Y1430173D01*
X284063Y1429040D01*
X287000Y1428653D01*
X289937Y1429040D01*
X292674Y1430173D01*
X295024Y1431976D01*
X296827Y1434326D01*
X297960Y1437063D01*
X298347Y1440000D01*
X297960Y1442937D01*
X296827Y1445674D01*
X295024Y1448024D01*
X292674Y1449827D01*
X289937Y1450960D01*
X287000Y1451347D01*
D02*
G37*
G36*
X375000Y1467060D02*
X373173Y1466820D01*
X371470Y1466115D01*
X370008Y1464992D01*
X368886Y1463530D01*
X368180Y1461827D01*
X367940Y1460000D01*
X368180Y1458173D01*
X368886Y1456470D01*
X370008Y1455008D01*
X371470Y1453885D01*
X372038Y1453650D01*
Y1451350D01*
X371470Y1451115D01*
X370008Y1449993D01*
X368886Y1448530D01*
X368180Y1446827D01*
X367940Y1445000D01*
X368180Y1443173D01*
X368886Y1441470D01*
X370008Y1440008D01*
X371470Y1438885D01*
X373173Y1438180D01*
X375000Y1437940D01*
X376827Y1438180D01*
X378530Y1438885D01*
X379992Y1440008D01*
X381115Y1441470D01*
X381820Y1443173D01*
X382060Y1445000D01*
X381820Y1446827D01*
X381115Y1448530D01*
X379992Y1449993D01*
X378530Y1451115D01*
X377962Y1451350D01*
Y1453650D01*
X378530Y1453885D01*
X379992Y1455008D01*
X381115Y1456470D01*
X381820Y1458173D01*
X382060Y1460000D01*
X381820Y1461827D01*
X381115Y1463530D01*
X379992Y1464992D01*
X378530Y1466115D01*
X376827Y1466820D01*
X375000Y1467060D01*
D02*
G37*
G36*
X245000Y1451347D02*
X242063Y1450960D01*
X239326Y1449827D01*
X236976Y1448024D01*
X235173Y1445674D01*
X234040Y1442937D01*
X233653Y1440000D01*
X234040Y1437063D01*
X235173Y1434326D01*
X236976Y1431976D01*
X239326Y1430173D01*
X242063Y1429040D01*
X245000Y1428653D01*
X247937Y1429040D01*
X250674Y1430173D01*
X253024Y1431976D01*
X254827Y1434326D01*
X255960Y1437063D01*
X256347Y1440000D01*
X255960Y1442937D01*
X254827Y1445674D01*
X253024Y1448024D01*
X250674Y1449827D01*
X247937Y1450960D01*
X245000Y1451347D01*
D02*
G37*
G36*
X171000Y1379922D02*
X168820Y1379635D01*
X166789Y1378794D01*
X165045Y1377455D01*
X163706Y1375711D01*
X162865Y1373680D01*
X162578Y1371500D01*
X162865Y1369320D01*
X163706Y1367289D01*
X165045Y1365545D01*
X166789Y1364206D01*
X168820Y1363365D01*
X171000Y1363078D01*
X173180Y1363365D01*
X175211Y1364206D01*
X176955Y1365545D01*
X178294Y1367289D01*
X179135Y1369320D01*
X179422Y1371500D01*
X179135Y1373680D01*
X178294Y1375711D01*
X176955Y1377455D01*
X175211Y1378794D01*
X173180Y1379635D01*
X171000Y1379922D01*
D02*
G37*
G36*
X203000Y1451347D02*
X200063Y1450960D01*
X197327Y1449827D01*
X194976Y1448024D01*
X193173Y1445674D01*
X192040Y1442937D01*
X191653Y1440000D01*
X192040Y1437063D01*
X193173Y1434326D01*
X194976Y1431976D01*
X197327Y1430173D01*
X200063Y1429040D01*
X203000Y1428653D01*
X205937Y1429040D01*
X208674Y1430173D01*
X211024Y1431976D01*
X212827Y1434326D01*
X213960Y1437063D01*
X214347Y1440000D01*
X213960Y1442937D01*
X212827Y1445674D01*
X211024Y1448024D01*
X208674Y1449827D01*
X205937Y1450960D01*
X203000Y1451347D01*
D02*
G37*
G36*
X392500Y1467060D02*
X390673Y1466820D01*
X388970Y1466115D01*
X387508Y1464992D01*
X386386Y1463530D01*
X385680Y1461827D01*
X385440Y1460000D01*
X385680Y1458173D01*
X386386Y1456470D01*
X387508Y1455008D01*
X388970Y1453885D01*
X389538Y1453650D01*
Y1451350D01*
X388970Y1451115D01*
X387508Y1449993D01*
X386386Y1448530D01*
X385680Y1446827D01*
X385440Y1445000D01*
X385680Y1443173D01*
X386386Y1441470D01*
X387508Y1440008D01*
X388970Y1438885D01*
X390673Y1438180D01*
X392500Y1437940D01*
X394327Y1438180D01*
X396030Y1438885D01*
X397492Y1440008D01*
X398615Y1441470D01*
X399320Y1443173D01*
X399560Y1445000D01*
X399320Y1446827D01*
X398615Y1448530D01*
X397492Y1449993D01*
X396030Y1451115D01*
X395462Y1451350D01*
Y1453650D01*
X396030Y1453885D01*
X397492Y1455008D01*
X398615Y1456470D01*
X399320Y1458173D01*
X399560Y1460000D01*
X399320Y1461827D01*
X398615Y1463530D01*
X397492Y1464992D01*
X396030Y1466115D01*
X394327Y1466820D01*
X392500Y1467060D01*
D02*
G37*
G36*
Y1499560D02*
X390673Y1499320D01*
X388970Y1498615D01*
X387508Y1497493D01*
X386386Y1496030D01*
X385680Y1494327D01*
X385440Y1492500D01*
X385680Y1490673D01*
X386386Y1488970D01*
X387508Y1487508D01*
X388970Y1486385D01*
X389538Y1486150D01*
Y1483850D01*
X388970Y1483615D01*
X387508Y1482493D01*
X386386Y1481030D01*
X385680Y1479327D01*
X385440Y1477500D01*
X385680Y1475673D01*
X386386Y1473970D01*
X387508Y1472508D01*
X388970Y1471386D01*
X390673Y1470680D01*
X392500Y1470440D01*
X394327Y1470680D01*
X396030Y1471386D01*
X397492Y1472508D01*
X398615Y1473970D01*
X399320Y1475673D01*
X399560Y1477500D01*
X399320Y1479327D01*
X398615Y1481030D01*
X397492Y1482493D01*
X396030Y1483615D01*
X395462Y1483850D01*
Y1486150D01*
X396030Y1486385D01*
X397492Y1487508D01*
X398615Y1488970D01*
X399320Y1490673D01*
X399560Y1492500D01*
X399320Y1494327D01*
X398615Y1496030D01*
X397492Y1497493D01*
X396030Y1498615D01*
X394327Y1499320D01*
X392500Y1499560D01*
D02*
G37*
G36*
X410000D02*
X408173Y1499320D01*
X406470Y1498615D01*
X405008Y1497493D01*
X403886Y1496030D01*
X403180Y1494327D01*
X402940Y1492500D01*
X403180Y1490673D01*
X403886Y1488970D01*
X405008Y1487508D01*
X406470Y1486385D01*
X407038Y1486150D01*
Y1483850D01*
X406470Y1483615D01*
X405008Y1482493D01*
X403886Y1481030D01*
X403180Y1479327D01*
X402940Y1477500D01*
X403180Y1475673D01*
X403886Y1473970D01*
X405008Y1472508D01*
X406470Y1471386D01*
X408173Y1470680D01*
X410000Y1470440D01*
X411827Y1470680D01*
X413530Y1471386D01*
X414992Y1472508D01*
X416115Y1473970D01*
X416820Y1475673D01*
X417060Y1477500D01*
X416820Y1479327D01*
X416115Y1481030D01*
X414992Y1482493D01*
X413530Y1483615D01*
X412962Y1483850D01*
Y1486150D01*
X413530Y1486385D01*
X414992Y1487508D01*
X416115Y1488970D01*
X416820Y1490673D01*
X417060Y1492500D01*
X416820Y1494327D01*
X416115Y1496030D01*
X414992Y1497493D01*
X413530Y1498615D01*
X411827Y1499320D01*
X410000Y1499560D01*
D02*
G37*
G36*
X375000D02*
X373173Y1499320D01*
X371470Y1498615D01*
X370008Y1497493D01*
X368886Y1496030D01*
X368180Y1494327D01*
X367940Y1492500D01*
X368180Y1490673D01*
X368886Y1488970D01*
X370008Y1487508D01*
X371470Y1486385D01*
X372038Y1486150D01*
Y1483850D01*
X371470Y1483615D01*
X370008Y1482493D01*
X368886Y1481030D01*
X368180Y1479327D01*
X367940Y1477500D01*
X368180Y1475673D01*
X368886Y1473970D01*
X370008Y1472508D01*
X371470Y1471386D01*
X373173Y1470680D01*
X375000Y1470440D01*
X376827Y1470680D01*
X378530Y1471386D01*
X379992Y1472508D01*
X381115Y1473970D01*
X381820Y1475673D01*
X382060Y1477500D01*
X381820Y1479327D01*
X381115Y1481030D01*
X379992Y1482493D01*
X378530Y1483615D01*
X377962Y1483850D01*
Y1486150D01*
X378530Y1486385D01*
X379992Y1487508D01*
X381115Y1488970D01*
X381820Y1490673D01*
X382060Y1492500D01*
X381820Y1494327D01*
X381115Y1496030D01*
X379992Y1497493D01*
X378530Y1498615D01*
X376827Y1499320D01*
X375000Y1499560D01*
D02*
G37*
G36*
X410000Y1467060D02*
X408173Y1466820D01*
X406470Y1466115D01*
X405008Y1464992D01*
X403886Y1463530D01*
X403180Y1461827D01*
X402940Y1460000D01*
X403180Y1458173D01*
X403886Y1456470D01*
X405008Y1455008D01*
X406470Y1453885D01*
X407038Y1453650D01*
Y1451350D01*
X406470Y1451115D01*
X405008Y1449993D01*
X403886Y1448530D01*
X403180Y1446827D01*
X402940Y1445000D01*
X403180Y1443173D01*
X403886Y1441470D01*
X405008Y1440008D01*
X406470Y1438885D01*
X408173Y1438180D01*
X410000Y1437940D01*
X411827Y1438180D01*
X413530Y1438885D01*
X414992Y1440008D01*
X416115Y1441470D01*
X416820Y1443173D01*
X417060Y1445000D01*
X416820Y1446827D01*
X416115Y1448530D01*
X414992Y1449993D01*
X413530Y1451115D01*
X412962Y1451350D01*
Y1453650D01*
X413530Y1453885D01*
X414992Y1455008D01*
X416115Y1456470D01*
X416820Y1458173D01*
X417060Y1460000D01*
X416820Y1461827D01*
X416115Y1463530D01*
X414992Y1464992D01*
X413530Y1466115D01*
X411827Y1466820D01*
X410000Y1467060D01*
D02*
G37*
G36*
X78000Y1469203D02*
X75489Y1468872D01*
X73148Y1467903D01*
X71139Y1466361D01*
X69597Y1464352D01*
X68628Y1462011D01*
X68297Y1459500D01*
X68628Y1456989D01*
X69597Y1454648D01*
X71139Y1452639D01*
X73148Y1451097D01*
X75489Y1450128D01*
X78000Y1449797D01*
X80511Y1450128D01*
X82851Y1451097D01*
X84861Y1452639D01*
X86403Y1454648D01*
X87372Y1456989D01*
X87703Y1459500D01*
X87372Y1462011D01*
X86403Y1464352D01*
X84861Y1466361D01*
X82851Y1467903D01*
X80511Y1468872D01*
X78000Y1469203D01*
D02*
G37*
G36*
X291000Y1375922D02*
X288820Y1375635D01*
X286789Y1374794D01*
X285045Y1373455D01*
X283706Y1371711D01*
X282865Y1369680D01*
X282578Y1367500D01*
X282865Y1365320D01*
X283706Y1363289D01*
X285045Y1361545D01*
X286789Y1360206D01*
X288820Y1359365D01*
X291000Y1359078D01*
X293180Y1359365D01*
X295211Y1360206D01*
X296955Y1361545D01*
X298294Y1363289D01*
X299135Y1365320D01*
X299422Y1367500D01*
X299135Y1369680D01*
X298294Y1371711D01*
X296955Y1373455D01*
X295211Y1374794D01*
X293180Y1375635D01*
X291000Y1375922D01*
D02*
G37*
G36*
X298560Y1256560D02*
X296733Y1256320D01*
X295030Y1255614D01*
X293568Y1254492D01*
X292446Y1253030D01*
X291741Y1251327D01*
X291500Y1249500D01*
X291741Y1247673D01*
X292446Y1245970D01*
X293568Y1244508D01*
X295030Y1243385D01*
X295356Y1243251D01*
Y1233888D01*
X239734Y1178266D01*
X239039Y1177226D01*
X238795Y1176000D01*
Y1174249D01*
X238470Y1174115D01*
X237008Y1172992D01*
X235886Y1171530D01*
X235180Y1169827D01*
X234940Y1168000D01*
X235180Y1166173D01*
X235886Y1164470D01*
X237008Y1163008D01*
X238470Y1161886D01*
X240173Y1161180D01*
X242000Y1160940D01*
X243827Y1161180D01*
X245530Y1161886D01*
X246992Y1163008D01*
X248114Y1164470D01*
X248820Y1166173D01*
X249060Y1168000D01*
X248820Y1169827D01*
X248114Y1171530D01*
X246992Y1172992D01*
X246414Y1173436D01*
X246263Y1175732D01*
X300826Y1230294D01*
X301521Y1231334D01*
X301521Y1231334D01*
X301521Y1231334D01*
X301765Y1232560D01*
Y1243251D01*
X302091Y1243385D01*
X303553Y1244508D01*
X304675Y1245970D01*
X305380Y1247673D01*
X305621Y1249500D01*
X305380Y1251327D01*
X304675Y1253030D01*
X303553Y1254492D01*
X302091Y1255614D01*
X300388Y1256320D01*
X298560Y1256560D01*
D02*
G37*
G36*
X155500Y1262617D02*
X153159Y1262152D01*
X151174Y1260826D01*
X149848Y1258841D01*
X149382Y1256500D01*
X149848Y1254159D01*
X151174Y1252174D01*
X153159Y1250848D01*
X155500Y1250382D01*
X157841Y1250848D01*
X159826Y1252174D01*
X161152Y1254159D01*
X161618Y1256500D01*
X161152Y1258841D01*
X159826Y1260826D01*
X157841Y1262152D01*
X155500Y1262617D01*
D02*
G37*
G36*
X255000Y1222060D02*
X253173Y1221820D01*
X251470Y1221115D01*
X250008Y1219993D01*
X248885Y1218530D01*
X248180Y1216827D01*
X247940Y1215000D01*
X248180Y1213173D01*
X248885Y1211470D01*
X250008Y1210008D01*
X251470Y1208885D01*
X253173Y1208180D01*
X255000Y1207940D01*
X256827Y1208180D01*
X258530Y1208885D01*
X259992Y1210008D01*
X261115Y1211470D01*
X261820Y1213173D01*
X262060Y1215000D01*
X261820Y1216827D01*
X261115Y1218530D01*
X259992Y1219993D01*
X258530Y1221115D01*
X256827Y1221820D01*
X255000Y1222060D01*
D02*
G37*
G36*
X242500Y1204060D02*
X240673Y1203820D01*
X238970Y1203114D01*
X237508Y1201992D01*
X236385Y1200530D01*
X235680Y1198827D01*
X235440Y1197000D01*
X235680Y1195173D01*
X236385Y1193470D01*
X237058Y1192593D01*
X235658Y1190769D01*
X234327Y1191320D01*
X232500Y1191560D01*
X230673Y1191320D01*
X228970Y1190614D01*
X227507Y1189492D01*
X226385Y1188030D01*
X225680Y1186327D01*
X225440Y1184500D01*
X225680Y1182673D01*
X226385Y1180970D01*
X227507Y1179508D01*
X228970Y1178385D01*
X230673Y1177680D01*
X232500Y1177440D01*
X234327Y1177680D01*
X236030Y1178385D01*
X237492Y1179508D01*
X238615Y1180970D01*
X239320Y1182673D01*
X239560Y1184500D01*
X239320Y1186327D01*
X238615Y1188030D01*
X237942Y1188907D01*
X239342Y1190731D01*
X240673Y1190180D01*
X242500Y1189940D01*
X244327Y1190180D01*
X246030Y1190885D01*
X247492Y1192008D01*
X248615Y1193470D01*
X249320Y1195173D01*
X249560Y1197000D01*
X249320Y1198827D01*
X248615Y1200530D01*
X247492Y1201992D01*
X246030Y1203114D01*
X244327Y1203820D01*
X242500Y1204060D01*
D02*
G37*
G36*
X172500Y1229060D02*
X170673Y1228820D01*
X168970Y1228114D01*
X167507Y1226992D01*
X166385Y1225530D01*
X165680Y1223827D01*
X165440Y1222000D01*
X165680Y1220173D01*
X166385Y1218470D01*
X167507Y1217008D01*
X168970Y1215885D01*
X170673Y1215180D01*
X172495Y1214940D01*
X173645Y1212948D01*
X173180Y1211827D01*
X172940Y1210000D01*
X173180Y1208173D01*
X173885Y1206470D01*
X175007Y1205007D01*
X176470Y1203885D01*
X178173Y1203180D01*
X180000Y1202940D01*
X181827Y1203180D01*
X183530Y1203885D01*
X184992Y1205007D01*
X186115Y1206470D01*
X186820Y1208173D01*
X187060Y1210000D01*
X186820Y1211827D01*
X186115Y1213530D01*
X184992Y1214992D01*
X183530Y1216115D01*
X181827Y1216820D01*
X180005Y1217060D01*
X178855Y1219052D01*
X179320Y1220173D01*
X179560Y1222000D01*
X179320Y1223827D01*
X178615Y1225530D01*
X177492Y1226992D01*
X176030Y1228114D01*
X174327Y1228820D01*
X172500Y1229060D01*
D02*
G37*
G36*
X110640Y1161700D02*
X108813Y1161460D01*
X107110Y1160754D01*
X105648Y1159632D01*
X104526Y1158170D01*
X103820Y1156467D01*
X103580Y1154640D01*
X103820Y1152813D01*
X104526Y1151110D01*
X105648Y1149648D01*
X107110Y1148525D01*
X108813Y1147820D01*
X110640Y1147580D01*
X112467Y1147820D01*
X114170Y1148525D01*
X115632Y1149648D01*
X116755Y1151110D01*
X117460Y1152813D01*
X117700Y1154640D01*
X117460Y1156467D01*
X116755Y1158170D01*
X115632Y1159632D01*
X114170Y1160754D01*
X112467Y1161460D01*
X110640Y1161700D01*
D02*
G37*
G36*
X293500Y1318618D02*
X291159Y1318152D01*
X289174Y1316826D01*
X287848Y1314841D01*
X287383Y1312500D01*
X287848Y1310159D01*
X289174Y1308174D01*
X291159Y1306848D01*
X293500Y1306382D01*
X295841Y1306848D01*
X297826Y1308174D01*
X298488Y1309166D01*
X327119D01*
X336326Y1299959D01*
X335446Y1297834D01*
X298606D01*
X297943Y1298826D01*
X295959Y1300152D01*
X293617Y1300618D01*
X291276Y1300152D01*
X289292Y1298826D01*
X287966Y1296841D01*
X287500Y1294500D01*
X287966Y1292159D01*
X289292Y1290174D01*
X291276Y1288848D01*
X293617Y1288382D01*
X295959Y1288848D01*
X297943Y1290174D01*
X298606Y1291166D01*
X338699D01*
X426126Y1203738D01*
Y975841D01*
X365119Y914834D01*
X358696D01*
X358615Y915030D01*
X357492Y916492D01*
X356030Y917615D01*
X354327Y918320D01*
X352500Y918560D01*
X350673Y918320D01*
X348970Y917615D01*
X347508Y916492D01*
X346385Y915030D01*
X345680Y913327D01*
X345440Y911500D01*
X345680Y909673D01*
X346385Y907970D01*
X347508Y906508D01*
X348970Y905386D01*
X350673Y904680D01*
X352500Y904440D01*
X354327Y904680D01*
X356030Y905386D01*
X357492Y906508D01*
X358615Y907970D01*
X358696Y908166D01*
X366500D01*
X367776Y908420D01*
X368858Y909143D01*
X368858Y909143D01*
X368858Y909143D01*
X428541Y968826D01*
X430666Y967946D01*
Y886381D01*
X355523Y811238D01*
X355327Y811320D01*
X353500Y811560D01*
X351673Y811320D01*
X349970Y810614D01*
X348508Y809492D01*
X347385Y808030D01*
X346680Y806327D01*
X346440Y804500D01*
X346680Y802673D01*
X347385Y800970D01*
X348508Y799508D01*
X349970Y798385D01*
X351673Y797680D01*
X353500Y797440D01*
X355327Y797680D01*
X357030Y798385D01*
X358493Y799508D01*
X359614Y800970D01*
X360320Y802673D01*
X360560Y804500D01*
X360320Y806327D01*
X360238Y806524D01*
X436357Y882643D01*
X437080Y883724D01*
X437334Y885000D01*
Y1207000D01*
X437080Y1208276D01*
X436357Y1209358D01*
X330858Y1314857D01*
X329776Y1315580D01*
X328500Y1315834D01*
X298488D01*
X297826Y1316826D01*
X295841Y1318152D01*
X293500Y1318618D01*
D02*
G37*
G36*
X291000Y1339922D02*
X288820Y1339635D01*
X286789Y1338794D01*
X285045Y1337455D01*
X283706Y1335711D01*
X282865Y1333680D01*
X282578Y1331500D01*
X282865Y1329320D01*
X283706Y1327289D01*
X285045Y1325545D01*
X286789Y1324206D01*
X288820Y1323365D01*
X291000Y1323078D01*
X293180Y1323365D01*
X295211Y1324206D01*
X296955Y1325545D01*
X298294Y1327289D01*
X299135Y1329320D01*
X299422Y1331500D01*
X299135Y1333680D01*
X298294Y1335711D01*
X296955Y1337455D01*
X295211Y1338794D01*
X293180Y1339635D01*
X291000Y1339922D01*
D02*
G37*
G36*
X192500Y1204060D02*
X190673Y1203820D01*
X188970Y1203114D01*
X187507Y1201992D01*
X186385Y1200530D01*
X185680Y1198827D01*
X185440Y1197000D01*
X185680Y1195173D01*
X186385Y1193470D01*
X187507Y1192008D01*
X188970Y1190885D01*
X190673Y1190180D01*
X192500Y1189940D01*
X194327Y1190180D01*
X195658Y1190731D01*
X197058Y1188907D01*
X196385Y1188030D01*
X195680Y1186327D01*
X195440Y1184500D01*
X195680Y1182673D01*
X196385Y1180970D01*
X197508Y1179508D01*
X198970Y1178385D01*
X200673Y1177680D01*
X202500Y1177440D01*
X204327Y1177680D01*
X206030Y1178385D01*
X207492Y1179508D01*
X208615Y1180970D01*
X209320Y1182673D01*
X209560Y1184500D01*
X209320Y1186327D01*
X208615Y1188030D01*
X207492Y1189492D01*
X206030Y1190614D01*
X204327Y1191320D01*
X202500Y1191560D01*
X200673Y1191320D01*
X199342Y1190769D01*
X197942Y1192593D01*
X198615Y1193470D01*
X199320Y1195173D01*
X199560Y1197000D01*
X199320Y1198827D01*
X198615Y1200530D01*
X197492Y1201992D01*
X196030Y1203114D01*
X194327Y1203820D01*
X192500Y1204060D01*
D02*
G37*
G36*
X217500Y1300618D02*
X215159Y1300152D01*
X213174Y1298826D01*
X211848Y1296841D01*
X211383Y1294500D01*
X211848Y1292159D01*
X213174Y1290174D01*
X215159Y1288848D01*
X217500Y1288382D01*
X219841Y1288848D01*
X221826Y1290174D01*
X223152Y1292159D01*
X223617Y1294500D01*
X223152Y1296841D01*
X221826Y1298826D01*
X219841Y1300152D01*
X217500Y1300618D01*
D02*
G37*
%LPD*%
G36*
X74227Y94704D02*
X79365Y93682D01*
X84325Y91998D01*
X89023Y89681D01*
X93379Y86771D01*
X97317Y83317D01*
X100771Y79379D01*
X103681Y75023D01*
X105998Y70325D01*
X107682Y65365D01*
X108704Y60227D01*
X109046Y55000D01*
X108704Y49773D01*
X107682Y44635D01*
X105998Y39675D01*
X103681Y34977D01*
X100771Y30621D01*
X97317Y26683D01*
X93379Y23229D01*
X89023Y20319D01*
X84325Y18002D01*
X79365Y16318D01*
X74227Y15296D01*
X69000Y14953D01*
X63773Y15296D01*
X58635Y16318D01*
X53675Y18002D01*
X48977Y20319D01*
X44621Y23229D01*
X40683Y26683D01*
X37229Y30621D01*
X34319Y34977D01*
X32002Y39675D01*
X30318Y44635D01*
X29296Y49773D01*
X28953Y55000D01*
X29296Y60227D01*
X30318Y65365D01*
X32002Y70325D01*
X34319Y75023D01*
X37229Y79379D01*
X40683Y83317D01*
X44621Y86771D01*
X48977Y89681D01*
X53675Y91998D01*
X58635Y93682D01*
X63773Y94704D01*
X69000Y95047D01*
X74227Y94704D01*
D02*
G37*
G36*
X359227D02*
X364365Y93682D01*
X369325Y91998D01*
X374023Y89681D01*
X378379Y86771D01*
X382317Y83317D01*
X385771Y79379D01*
X388681Y75023D01*
X390998Y70325D01*
X392682Y65365D01*
X393704Y60227D01*
X394047Y55000D01*
X393704Y49773D01*
X392682Y44635D01*
X390998Y39675D01*
X388681Y34977D01*
X385771Y30621D01*
X382317Y26683D01*
X378379Y23229D01*
X374023Y20319D01*
X369325Y18002D01*
X364365Y16318D01*
X359227Y15296D01*
X354000Y14953D01*
X348773Y15296D01*
X343635Y16318D01*
X338675Y18002D01*
X333977Y20319D01*
X329621Y23229D01*
X325683Y26683D01*
X322229Y30621D01*
X319319Y34977D01*
X317002Y39675D01*
X315318Y44635D01*
X314296Y49773D01*
X313953Y55000D01*
X314296Y60227D01*
X315318Y65365D01*
X317002Y70325D01*
X319319Y75023D01*
X322229Y79379D01*
X325683Y83317D01*
X329621Y86771D01*
X333977Y89681D01*
X338675Y91998D01*
X343635Y93682D01*
X348773Y94704D01*
X354000Y95047D01*
X359227Y94704D01*
D02*
G37*
G36*
X180565Y617278D02*
X181892Y616392D01*
X182778Y615065D01*
X183089Y613500D01*
X182869Y612393D01*
Y612193D01*
X182830Y611996D01*
X182869Y611799D01*
Y611598D01*
X182946Y611412D01*
X182985Y611215D01*
X183097Y611048D01*
X183174Y610863D01*
X183316Y610721D01*
X183427Y610554D01*
X185054Y608927D01*
X185221Y608816D01*
X185363Y608674D01*
X185548Y608597D01*
X185715Y608485D01*
X185912Y608446D01*
X186098Y608369D01*
X186299D01*
X186496Y608330D01*
X186693Y608369D01*
X186894D01*
X188000Y608589D01*
X189107Y608369D01*
X189307D01*
X189504Y608330D01*
X189701Y608369D01*
X189902D01*
X190088Y608446D01*
X190285Y608485D01*
X190375Y608545D01*
X191292Y607792D01*
X192045Y606875D01*
X191985Y606785D01*
X191946Y606588D01*
X191869Y606402D01*
Y606201D01*
X191830Y606004D01*
X191869Y605807D01*
Y605606D01*
X192089Y604500D01*
X191869Y603393D01*
Y603193D01*
X191830Y602996D01*
X191869Y602799D01*
Y602598D01*
X191946Y602412D01*
X191985Y602215D01*
X192097Y602048D01*
X192174Y601863D01*
X192316Y601721D01*
X192427Y601554D01*
X194054Y599927D01*
X194221Y599816D01*
X194363Y599674D01*
X194548Y599597D01*
X194715Y599485D01*
X194912Y599446D01*
X195098Y599369D01*
X195299D01*
X195496Y599330D01*
X195693Y599369D01*
X195893D01*
X197000Y599589D01*
X198565Y599278D01*
X199892Y598392D01*
X200778Y597065D01*
X201089Y595500D01*
X200778Y593935D01*
X199892Y592608D01*
X198565Y591722D01*
X197000Y591411D01*
X195893Y591631D01*
X195693D01*
X195496Y591670D01*
X195299Y591631D01*
X195098D01*
X194912Y591554D01*
X194715Y591515D01*
X194548Y591403D01*
X194363Y591326D01*
X194221Y591184D01*
X194054Y591073D01*
X192427Y589446D01*
X192316Y589279D01*
X192174Y589137D01*
X192097Y588952D01*
X191985Y588785D01*
X191946Y588588D01*
X191869Y588402D01*
Y588201D01*
X191830Y588004D01*
X191869Y587807D01*
Y587607D01*
X192089Y586500D01*
X191869Y585393D01*
Y585193D01*
X191830Y584996D01*
X191869Y584799D01*
Y584598D01*
X191946Y584412D01*
X191985Y584215D01*
X192097Y584048D01*
X192174Y583863D01*
X192316Y583721D01*
X192427Y583554D01*
X194054Y581927D01*
X194221Y581816D01*
X194363Y581674D01*
X194548Y581597D01*
X194715Y581485D01*
X194912Y581446D01*
X195098Y581369D01*
X195299D01*
X195496Y581330D01*
X195693Y581369D01*
X195893D01*
X197000Y581589D01*
X198565Y581278D01*
X199892Y580392D01*
X200778Y579065D01*
X201089Y577500D01*
X200778Y575935D01*
X199892Y574608D01*
X198565Y573722D01*
X197000Y573411D01*
X195893Y573631D01*
X195693D01*
X195496Y573670D01*
X195299Y573631D01*
X195098D01*
X194912Y573554D01*
X194715Y573515D01*
X194548Y573403D01*
X194363Y573326D01*
X194221Y573184D01*
X194054Y573073D01*
X192427Y571446D01*
X192316Y571279D01*
X192174Y571137D01*
X192097Y570952D01*
X191985Y570785D01*
X191946Y570588D01*
X191869Y570402D01*
Y570201D01*
X191830Y570004D01*
X191869Y569807D01*
Y569607D01*
X192089Y568500D01*
X191869Y567393D01*
Y567193D01*
X191830Y566996D01*
X191869Y566799D01*
Y566598D01*
X191946Y566412D01*
X191985Y566215D01*
X192097Y566048D01*
X192174Y565863D01*
X192316Y565721D01*
X192427Y565554D01*
X194054Y563927D01*
X194221Y563816D01*
X194363Y563674D01*
X194548Y563597D01*
X194715Y563485D01*
X194912Y563446D01*
X195098Y563369D01*
X195299D01*
X195496Y563330D01*
X195693Y563369D01*
X195893D01*
X197000Y563589D01*
X198565Y563278D01*
X199892Y562392D01*
X200778Y561065D01*
X201089Y559500D01*
X200778Y557935D01*
X199892Y556608D01*
X198565Y555722D01*
X197000Y555411D01*
X195893Y555631D01*
X195693D01*
X195496Y555670D01*
X195299Y555631D01*
X195098D01*
X194912Y555554D01*
X194715Y555515D01*
X194548Y555403D01*
X194363Y555326D01*
X194221Y555184D01*
X194054Y555073D01*
X192427Y553446D01*
X192316Y553279D01*
X192174Y553137D01*
X192097Y552952D01*
X191985Y552785D01*
X191946Y552588D01*
X191869Y552402D01*
Y552201D01*
X191830Y552004D01*
X191869Y551807D01*
Y551606D01*
X192089Y550500D01*
X191869Y549393D01*
Y549193D01*
X191830Y548996D01*
X191869Y548799D01*
Y548598D01*
X191946Y548412D01*
X191985Y548215D01*
X192045Y548125D01*
X191292Y547208D01*
X190375Y546455D01*
X190285Y546515D01*
X190088Y546554D01*
X189902Y546631D01*
X189701D01*
X189504Y546670D01*
X189307Y546631D01*
X189107D01*
X188000Y546411D01*
X186893Y546631D01*
X186693D01*
X186496Y546670D01*
X186299Y546631D01*
X186098D01*
X185912Y546554D01*
X185715Y546515D01*
X185548Y546403D01*
X185363Y546326D01*
X185221Y546184D01*
X185054Y546073D01*
X183427Y544446D01*
X183316Y544279D01*
X183174Y544137D01*
X183097Y543952D01*
X182985Y543785D01*
X182946Y543588D01*
X182869Y543402D01*
Y543201D01*
X182830Y543004D01*
X182869Y542807D01*
Y542607D01*
X183089Y541500D01*
X182778Y539935D01*
X181892Y538608D01*
X180565Y537722D01*
X179000Y537411D01*
X177435Y537722D01*
X176108Y538608D01*
X175222Y539935D01*
X174911Y541500D01*
X175131Y542607D01*
Y542807D01*
X175170Y543004D01*
X175131Y543201D01*
Y543402D01*
X175054Y543588D01*
X175015Y543785D01*
X174903Y543952D01*
X174826Y544137D01*
X174684Y544279D01*
X174573Y544446D01*
X172946Y546073D01*
X172779Y546184D01*
X172637Y546326D01*
X172452Y546403D01*
X172285Y546515D01*
X172088Y546554D01*
X171902Y546631D01*
X171701D01*
X171504Y546670D01*
X171307Y546631D01*
X171106D01*
X170000Y546411D01*
X168893Y546631D01*
X168693D01*
X168496Y546670D01*
X168299Y546631D01*
X168098D01*
X167912Y546554D01*
X167715Y546515D01*
X167548Y546403D01*
X167363Y546326D01*
X167221Y546184D01*
X167054Y546073D01*
X165427Y544446D01*
X165316Y544279D01*
X165174Y544137D01*
X165097Y543952D01*
X164985Y543785D01*
X164946Y543588D01*
X164869Y543402D01*
Y543201D01*
X164830Y543004D01*
X164869Y542807D01*
Y542607D01*
X165089Y541500D01*
X164778Y539935D01*
X163892Y538608D01*
X162565Y537722D01*
X161000Y537411D01*
X159435Y537722D01*
X158108Y538608D01*
X157222Y539935D01*
X156911Y541500D01*
X157131Y542607D01*
Y542807D01*
X157170Y543004D01*
X157131Y543201D01*
Y543402D01*
X157054Y543588D01*
X157015Y543785D01*
X156903Y543952D01*
X156826Y544137D01*
X156684Y544279D01*
X156573Y544446D01*
X154946Y546073D01*
X154779Y546184D01*
X154637Y546326D01*
X154452Y546403D01*
X154285Y546515D01*
X154088Y546554D01*
X153902Y546631D01*
X153701D01*
X153504Y546670D01*
X153307Y546631D01*
X153107D01*
X152000Y546411D01*
X150893Y546631D01*
X150693D01*
X150496Y546670D01*
X150299Y546631D01*
X150098D01*
X149912Y546554D01*
X149715Y546515D01*
X149548Y546403D01*
X149363Y546326D01*
X149221Y546184D01*
X149054Y546073D01*
X147427Y544446D01*
X147316Y544279D01*
X147174Y544137D01*
X147097Y543952D01*
X146985Y543785D01*
X146946Y543588D01*
X146869Y543402D01*
Y543201D01*
X146830Y543004D01*
X146869Y542807D01*
Y542607D01*
X147089Y541500D01*
X146778Y539935D01*
X145892Y538608D01*
X144565Y537722D01*
X143000Y537411D01*
X141435Y537722D01*
X140108Y538608D01*
X139222Y539935D01*
X138911Y541500D01*
X139131Y542607D01*
Y542807D01*
X139170Y543004D01*
X139131Y543201D01*
Y543402D01*
X139054Y543588D01*
X139015Y543785D01*
X138903Y543952D01*
X138826Y544137D01*
X138684Y544279D01*
X138573Y544446D01*
X136946Y546073D01*
X136779Y546184D01*
X136637Y546326D01*
X136452Y546403D01*
X136285Y546515D01*
X136088Y546554D01*
X135902Y546631D01*
X135701D01*
X135504Y546670D01*
X135307Y546631D01*
X135106D01*
X134000Y546411D01*
X132893Y546631D01*
X132693D01*
X132496Y546670D01*
X132299Y546631D01*
X132098D01*
X131912Y546554D01*
X131715Y546515D01*
X131625Y546455D01*
X130708Y547207D01*
X129955Y548125D01*
X130015Y548215D01*
X130054Y548412D01*
X130131Y548598D01*
Y548799D01*
X130170Y548996D01*
X130131Y549193D01*
Y549393D01*
X129911Y550500D01*
X130131Y551607D01*
Y551807D01*
X130170Y552004D01*
X130131Y552201D01*
Y552402D01*
X130054Y552588D01*
X130015Y552785D01*
X129903Y552952D01*
X129826Y553137D01*
X129684Y553279D01*
X129573Y553446D01*
X127946Y555073D01*
X127779Y555184D01*
X127637Y555326D01*
X127452Y555403D01*
X127285Y555515D01*
X127088Y555554D01*
X126902Y555631D01*
X126701D01*
X126504Y555670D01*
X126307Y555631D01*
X126107D01*
X125000Y555411D01*
X123435Y555722D01*
X122108Y556608D01*
X121222Y557935D01*
X120911Y559500D01*
X121222Y561065D01*
X122108Y562392D01*
X123435Y563278D01*
X125000Y563589D01*
X126107Y563369D01*
X126307D01*
X126504Y563330D01*
X126701Y563369D01*
X126902D01*
X127088Y563446D01*
X127285Y563485D01*
X127452Y563597D01*
X127637Y563674D01*
X127779Y563816D01*
X127946Y563927D01*
X129573Y565554D01*
X129684Y565721D01*
X129826Y565863D01*
X129903Y566048D01*
X130015Y566215D01*
X130054Y566412D01*
X130131Y566598D01*
Y566799D01*
X130170Y566996D01*
X130131Y567193D01*
Y567393D01*
X129911Y568500D01*
X130131Y569607D01*
Y569807D01*
X130170Y570004D01*
X130131Y570201D01*
Y570402D01*
X130054Y570588D01*
X130015Y570785D01*
X129903Y570952D01*
X129826Y571137D01*
X129684Y571279D01*
X129573Y571446D01*
X127946Y573073D01*
X127779Y573184D01*
X127637Y573326D01*
X127452Y573403D01*
X127285Y573515D01*
X127088Y573554D01*
X126902Y573631D01*
X126701D01*
X126504Y573670D01*
X126307Y573631D01*
X126107D01*
X125000Y573411D01*
X123435Y573722D01*
X122108Y574608D01*
X121222Y575935D01*
X120911Y577500D01*
X121222Y579065D01*
X122108Y580392D01*
X123435Y581278D01*
X125000Y581589D01*
X126107Y581369D01*
X126307D01*
X126504Y581330D01*
X126701Y581369D01*
X126902D01*
X127088Y581446D01*
X127285Y581485D01*
X127452Y581597D01*
X127637Y581674D01*
X127779Y581816D01*
X127946Y581927D01*
X129573Y583554D01*
X129684Y583721D01*
X129826Y583863D01*
X129903Y584048D01*
X130015Y584215D01*
X130054Y584412D01*
X130131Y584598D01*
Y584799D01*
X130170Y584996D01*
X130131Y585193D01*
Y585393D01*
X129911Y586500D01*
X130131Y587607D01*
Y587807D01*
X130170Y588004D01*
X130131Y588201D01*
Y588402D01*
X130054Y588588D01*
X130015Y588785D01*
X129903Y588952D01*
X129826Y589137D01*
X129684Y589279D01*
X129573Y589446D01*
X127946Y591073D01*
X127779Y591184D01*
X127637Y591326D01*
X127452Y591403D01*
X127285Y591515D01*
X127088Y591554D01*
X126902Y591631D01*
X126701D01*
X126504Y591670D01*
X126307Y591631D01*
X126107D01*
X125000Y591411D01*
X123435Y591722D01*
X122108Y592608D01*
X121222Y593935D01*
X120911Y595500D01*
X121222Y597065D01*
X122108Y598392D01*
X123435Y599278D01*
X125000Y599589D01*
X126107Y599369D01*
X126307D01*
X126504Y599330D01*
X126701Y599369D01*
X126902D01*
X127088Y599446D01*
X127285Y599485D01*
X127452Y599597D01*
X127637Y599674D01*
X127779Y599816D01*
X127946Y599927D01*
X129573Y601554D01*
X129684Y601721D01*
X129826Y601863D01*
X129903Y602048D01*
X130015Y602215D01*
X130054Y602412D01*
X130131Y602598D01*
Y602799D01*
X130170Y602996D01*
X130131Y603193D01*
Y603393D01*
X129911Y604500D01*
X130131Y605607D01*
Y605807D01*
X130170Y606004D01*
X130131Y606201D01*
Y606402D01*
X130054Y606588D01*
X130015Y606785D01*
X129955Y606875D01*
X130708Y607792D01*
X131625Y608545D01*
X131715Y608485D01*
X131912Y608446D01*
X132098Y608369D01*
X132299D01*
X132496Y608330D01*
X132693Y608369D01*
X132893D01*
X134000Y608589D01*
X135107Y608369D01*
X135307D01*
X135504Y608330D01*
X135701Y608369D01*
X135902D01*
X136088Y608446D01*
X136285Y608485D01*
X136452Y608597D01*
X136637Y608674D01*
X136779Y608816D01*
X136946Y608927D01*
X138573Y610554D01*
X138684Y610721D01*
X138826Y610863D01*
X138903Y611048D01*
X139015Y611215D01*
X139054Y611412D01*
X139131Y611598D01*
Y611799D01*
X139170Y611996D01*
X139131Y612193D01*
Y612393D01*
X138911Y613500D01*
X139222Y615065D01*
X140108Y616392D01*
X141435Y617278D01*
X143000Y617589D01*
X144565Y617278D01*
X145892Y616392D01*
X146778Y615065D01*
X147089Y613500D01*
X146869Y612393D01*
Y612193D01*
X146830Y611996D01*
X146869Y611799D01*
Y611598D01*
X146946Y611412D01*
X146985Y611215D01*
X147097Y611048D01*
X147174Y610863D01*
X147316Y610721D01*
X147427Y610554D01*
X149054Y608927D01*
X149221Y608816D01*
X149363Y608674D01*
X149548Y608597D01*
X149715Y608485D01*
X149912Y608446D01*
X150098Y608369D01*
X150299D01*
X150496Y608330D01*
X150693Y608369D01*
X150893D01*
X152000Y608589D01*
X153107Y608369D01*
X153307D01*
X153504Y608330D01*
X153701Y608369D01*
X153902D01*
X154088Y608446D01*
X154285Y608485D01*
X154452Y608597D01*
X154637Y608674D01*
X154779Y608816D01*
X154946Y608927D01*
X156573Y610554D01*
X156684Y610721D01*
X156826Y610863D01*
X156903Y611048D01*
X157015Y611215D01*
X157054Y611412D01*
X157131Y611598D01*
Y611799D01*
X157170Y611996D01*
X157131Y612193D01*
Y612393D01*
X156911Y613500D01*
X157222Y615065D01*
X158108Y616392D01*
X159435Y617278D01*
X161000Y617589D01*
X162565Y617278D01*
X163892Y616392D01*
X164778Y615065D01*
X165089Y613500D01*
X164869Y612393D01*
Y612193D01*
X164830Y611996D01*
X164869Y611799D01*
Y611598D01*
X164946Y611412D01*
X164985Y611215D01*
X165097Y611048D01*
X165174Y610863D01*
X165316Y610721D01*
X165427Y610554D01*
X167054Y608927D01*
X167221Y608816D01*
X167363Y608674D01*
X167548Y608597D01*
X167715Y608485D01*
X167912Y608446D01*
X168098Y608369D01*
X168299D01*
X168496Y608330D01*
X168693Y608369D01*
X168894D01*
X170000Y608589D01*
X171107Y608369D01*
X171307D01*
X171504Y608330D01*
X171701Y608369D01*
X171902D01*
X172088Y608446D01*
X172285Y608485D01*
X172452Y608597D01*
X172637Y608674D01*
X172779Y608816D01*
X172946Y608927D01*
X174573Y610554D01*
X174684Y610721D01*
X174826Y610863D01*
X174903Y611048D01*
X175015Y611215D01*
X175054Y611412D01*
X175131Y611598D01*
Y611799D01*
X175170Y611996D01*
X175131Y612193D01*
Y612393D01*
X174911Y613500D01*
X175222Y615065D01*
X176108Y616392D01*
X177435Y617278D01*
X179000Y617589D01*
X180565Y617278D01*
D02*
G37*
G36*
X74227Y363704D02*
X79365Y362682D01*
X84325Y360998D01*
X89023Y358681D01*
X93379Y355771D01*
X97317Y352317D01*
X100771Y348379D01*
X103681Y344023D01*
X105998Y339325D01*
X107682Y334365D01*
X108704Y329227D01*
X109046Y324000D01*
X108704Y318773D01*
X107682Y313635D01*
X105998Y308675D01*
X103681Y303977D01*
X100771Y299621D01*
X97317Y295683D01*
X93379Y292229D01*
X89023Y289319D01*
X84325Y287002D01*
X79365Y285318D01*
X74227Y284296D01*
X69000Y283953D01*
X63773Y284296D01*
X58635Y285318D01*
X53675Y287002D01*
X48977Y289319D01*
X44621Y292229D01*
X40683Y295683D01*
X37229Y299621D01*
X34319Y303977D01*
X32002Y308675D01*
X30318Y313635D01*
X29296Y318773D01*
X28953Y324000D01*
X29296Y329227D01*
X30318Y334365D01*
X32002Y339325D01*
X34319Y344023D01*
X37229Y348379D01*
X40683Y352317D01*
X44621Y355771D01*
X48977Y358681D01*
X53675Y360998D01*
X58635Y362682D01*
X63773Y363704D01*
X69000Y364047D01*
X74227Y363704D01*
D02*
G37*
G36*
X99545Y225731D02*
X100856Y224856D01*
X101731Y223545D01*
X102038Y222000D01*
X101731Y220455D01*
X100856Y219144D01*
X99660Y218346D01*
X99518Y218204D01*
X99351Y218092D01*
X99239Y217925D01*
X99097Y217783D01*
X99021Y217597D01*
X98909Y217430D01*
X98870Y217233D01*
X98793Y217048D01*
Y216847D01*
X98754Y216650D01*
Y214350D01*
X98793Y214153D01*
Y213952D01*
X98870Y213767D01*
X98909Y213570D01*
X99021Y213403D01*
X99097Y213217D01*
X99239Y213075D01*
X99351Y212908D01*
X99518Y212796D01*
X99660Y212654D01*
X100856Y211856D01*
X101731Y210546D01*
X102038Y209000D01*
X101731Y207455D01*
X100856Y206145D01*
X100408Y205846D01*
X100266Y205704D01*
X100099Y205592D01*
X99988Y205425D01*
X99846Y205283D01*
X99769Y205097D01*
X99657Y204930D01*
X99618Y204733D01*
X99541Y204548D01*
Y204347D01*
X99502Y204150D01*
Y201850D01*
X99541Y201653D01*
Y201452D01*
X99618Y201267D01*
X99657Y201070D01*
X99769Y200903D01*
X99846Y200717D01*
X99988Y200575D01*
X100099Y200408D01*
X100266Y200296D01*
X100408Y200154D01*
X100856Y199856D01*
X101731Y198545D01*
X102038Y197000D01*
X101731Y195455D01*
X100856Y194144D01*
X99660Y193346D01*
X99518Y193204D01*
X99351Y193092D01*
X99239Y192925D01*
X99097Y192783D01*
X99021Y192597D01*
X98909Y192430D01*
X98870Y192233D01*
X98793Y192048D01*
Y191847D01*
X98754Y191650D01*
Y189350D01*
X98793Y189153D01*
Y188952D01*
X98870Y188767D01*
X98909Y188570D01*
X99021Y188403D01*
X99097Y188217D01*
X99239Y188075D01*
X99351Y187908D01*
X99518Y187796D01*
X99660Y187654D01*
X100856Y186856D01*
X101731Y185546D01*
X102038Y184000D01*
X101731Y182455D01*
X100856Y181144D01*
X99660Y180345D01*
X99518Y180204D01*
X99351Y180092D01*
X99239Y179925D01*
X99097Y179783D01*
X99021Y179597D01*
X98909Y179430D01*
X98870Y179233D01*
X98793Y179048D01*
Y178847D01*
X98754Y178650D01*
Y176350D01*
X98793Y176153D01*
Y175952D01*
X98870Y175767D01*
X98909Y175570D01*
X99021Y175403D01*
X99097Y175217D01*
X99239Y175075D01*
X99351Y174908D01*
X99518Y174797D01*
X99660Y174655D01*
X100856Y173856D01*
X101731Y172546D01*
X102038Y171000D01*
X101731Y169455D01*
X100856Y168144D01*
X99545Y167269D01*
X98000Y166962D01*
X96455Y167269D01*
X95144Y168144D01*
X94346Y169340D01*
X94204Y169482D01*
X94092Y169649D01*
X93925Y169761D01*
X93783Y169903D01*
X93597Y169979D01*
X93430Y170091D01*
X93233Y170130D01*
X93048Y170207D01*
X92847D01*
X92650Y170246D01*
X90350D01*
X90153Y170207D01*
X89952D01*
X89767Y170130D01*
X89570Y170091D01*
X89403Y169980D01*
X89217Y169903D01*
X89075Y169761D01*
X88908Y169649D01*
X88797Y169482D01*
X88654Y169340D01*
X87856Y168144D01*
X86545Y167269D01*
X85000Y166962D01*
X83455Y167269D01*
X82144Y168144D01*
X81346Y169340D01*
X81203Y169482D01*
X81092Y169649D01*
X80925Y169761D01*
X80783Y169903D01*
X80597Y169979D01*
X80430Y170091D01*
X80233Y170130D01*
X80048Y170207D01*
X79847D01*
X79650Y170246D01*
X77350D01*
X77153Y170207D01*
X76952D01*
X76767Y170130D01*
X76570Y170091D01*
X76403Y169980D01*
X76217Y169903D01*
X76075Y169761D01*
X75908Y169649D01*
X75796Y169482D01*
X75655Y169340D01*
X74856Y168144D01*
X73545Y167269D01*
X72000Y166962D01*
X70455Y167269D01*
X69144Y168144D01*
X68345Y169340D01*
X68204Y169482D01*
X68092Y169649D01*
X67925Y169761D01*
X67783Y169903D01*
X67597Y169979D01*
X67430Y170091D01*
X67233Y170130D01*
X67048Y170207D01*
X66847D01*
X66650Y170246D01*
X64350D01*
X64153Y170207D01*
X63952D01*
X63767Y170130D01*
X63570Y170091D01*
X63403Y169980D01*
X63217Y169903D01*
X63075Y169761D01*
X62908Y169649D01*
X62797Y169482D01*
X62655Y169340D01*
X61856Y168144D01*
X60546Y167269D01*
X59000Y166962D01*
X57455Y167269D01*
X56144Y168144D01*
X55346Y169340D01*
X55203Y169482D01*
X55092Y169649D01*
X54925Y169761D01*
X54783Y169903D01*
X54597Y169979D01*
X54430Y170091D01*
X54233Y170130D01*
X54048Y170207D01*
X53847D01*
X53650Y170246D01*
X51350D01*
X51153Y170207D01*
X50952D01*
X50767Y170130D01*
X50570Y170091D01*
X50403Y169980D01*
X50217Y169903D01*
X50075Y169761D01*
X49908Y169649D01*
X49797Y169482D01*
X49654Y169340D01*
X48856Y168144D01*
X47545Y167269D01*
X46000Y166962D01*
X44455Y167269D01*
X43144Y168144D01*
X42269Y169455D01*
X41962Y171000D01*
X42269Y172545D01*
X43144Y173856D01*
X44340Y174655D01*
X44482Y174797D01*
X44649Y174908D01*
X44761Y175075D01*
X44903Y175217D01*
X44980Y175403D01*
X45091Y175570D01*
X45130Y175767D01*
X45207Y175952D01*
Y176153D01*
X45246Y176350D01*
Y178650D01*
X45207Y178847D01*
Y179048D01*
X45130Y179233D01*
X45091Y179430D01*
X44980Y179597D01*
X44903Y179783D01*
X44761Y179925D01*
X44649Y180092D01*
X44482Y180204D01*
X44340Y180345D01*
X43144Y181144D01*
X42269Y182454D01*
X41962Y184000D01*
X42269Y185545D01*
X43144Y186856D01*
X44340Y187654D01*
X44482Y187796D01*
X44649Y187908D01*
X44761Y188075D01*
X44903Y188217D01*
X44980Y188403D01*
X45091Y188570D01*
X45130Y188767D01*
X45207Y188952D01*
Y189153D01*
X45246Y189350D01*
Y191650D01*
X45207Y191847D01*
Y192048D01*
X45130Y192233D01*
X45091Y192430D01*
X44980Y192597D01*
X44903Y192783D01*
X44761Y192925D01*
X44649Y193092D01*
X44482Y193204D01*
X44340Y193346D01*
X43144Y194144D01*
X42269Y195455D01*
X41962Y197000D01*
X42269Y198545D01*
X43144Y199856D01*
X43592Y200154D01*
X43734Y200296D01*
X43901Y200408D01*
X44012Y200575D01*
X44154Y200717D01*
X44231Y200903D01*
X44343Y201070D01*
X44382Y201267D01*
X44459Y201452D01*
Y201653D01*
X44498Y201850D01*
Y204150D01*
X44459Y204347D01*
Y204548D01*
X44382Y204733D01*
X44343Y204930D01*
X44231Y205097D01*
X44154Y205283D01*
X44012Y205425D01*
X43901Y205592D01*
X43734Y205704D01*
X43592Y205846D01*
X43144Y206145D01*
X42269Y207455D01*
X41962Y209000D01*
X42269Y210545D01*
X43144Y211856D01*
X44340Y212654D01*
X44482Y212796D01*
X44649Y212908D01*
X44761Y213075D01*
X44903Y213217D01*
X44980Y213403D01*
X45091Y213570D01*
X45130Y213767D01*
X45207Y213952D01*
Y214153D01*
X45246Y214350D01*
Y216650D01*
X45207Y216847D01*
Y217048D01*
X45130Y217233D01*
X45091Y217430D01*
X44980Y217597D01*
X44903Y217783D01*
X44761Y217925D01*
X44649Y218092D01*
X44482Y218204D01*
X44340Y218346D01*
X43144Y219144D01*
X42269Y220455D01*
X41962Y222000D01*
X42269Y223545D01*
X43144Y224856D01*
X44454Y225731D01*
X46000Y226038D01*
X47545Y225731D01*
X48856Y224856D01*
X49654Y223660D01*
X49797Y223518D01*
X49908Y223351D01*
X50075Y223239D01*
X50217Y223097D01*
X50403Y223020D01*
X50570Y222909D01*
X50767Y222870D01*
X50952Y222793D01*
X51153D01*
X51350Y222754D01*
X53650D01*
X53847Y222793D01*
X54048D01*
X54233Y222870D01*
X54430Y222909D01*
X54597Y223020D01*
X54783Y223097D01*
X54925Y223239D01*
X55092Y223351D01*
X55203Y223518D01*
X55346Y223660D01*
X56144Y224856D01*
X57455Y225731D01*
X59000Y226038D01*
X60545Y225731D01*
X61856Y224856D01*
X62655Y223660D01*
X62797Y223518D01*
X62908Y223351D01*
X63075Y223239D01*
X63217Y223097D01*
X63403Y223020D01*
X63570Y222909D01*
X63767Y222870D01*
X63952Y222793D01*
X64153D01*
X64350Y222754D01*
X66650D01*
X66847Y222793D01*
X67048D01*
X67233Y222870D01*
X67430Y222909D01*
X67597Y223020D01*
X67783Y223097D01*
X67925Y223239D01*
X68092Y223351D01*
X68204Y223518D01*
X68345Y223660D01*
X69144Y224856D01*
X70455Y225731D01*
X72000Y226038D01*
X73545Y225731D01*
X74856Y224856D01*
X75655Y223660D01*
X75796Y223518D01*
X75908Y223351D01*
X76075Y223239D01*
X76217Y223097D01*
X76403Y223020D01*
X76570Y222909D01*
X76767Y222870D01*
X76952Y222793D01*
X77153D01*
X77350Y222754D01*
X79650D01*
X79847Y222793D01*
X80048D01*
X80233Y222870D01*
X80430Y222909D01*
X80597Y223020D01*
X80783Y223097D01*
X80925Y223239D01*
X81092Y223351D01*
X81203Y223518D01*
X81346Y223660D01*
X82144Y224856D01*
X83455Y225731D01*
X85000Y226038D01*
X86545Y225731D01*
X87856Y224856D01*
X88654Y223660D01*
X88797Y223518D01*
X88908Y223351D01*
X89075Y223239D01*
X89217Y223097D01*
X89403Y223020D01*
X89570Y222909D01*
X89767Y222870D01*
X89952Y222793D01*
X90153D01*
X90350Y222754D01*
X92650D01*
X92847Y222793D01*
X93048D01*
X93233Y222870D01*
X93430Y222909D01*
X93597Y223020D01*
X93783Y223097D01*
X93925Y223239D01*
X94092Y223351D01*
X94204Y223518D01*
X94346Y223660D01*
X95144Y224856D01*
X96454Y225731D01*
X98000Y226038D01*
X99545Y225731D01*
D02*
G37*
G36*
X307065Y259778D02*
X308392Y258892D01*
X309278Y257565D01*
X309589Y256000D01*
X309369Y254893D01*
Y254693D01*
X309330Y254496D01*
X309369Y254299D01*
Y254098D01*
X309446Y253912D01*
X309485Y253715D01*
X309597Y253548D01*
X309674Y253363D01*
X309816Y253221D01*
X309927Y253054D01*
X311554Y251427D01*
X311721Y251316D01*
X311863Y251174D01*
X312048Y251097D01*
X312215Y250985D01*
X312412Y250946D01*
X312598Y250869D01*
X312799D01*
X312996Y250830D01*
X313193Y250869D01*
X313393D01*
X314500Y251089D01*
X315607Y250869D01*
X315807D01*
X316004Y250830D01*
X316201Y250869D01*
X316402D01*
X316588Y250946D01*
X316785Y250985D01*
X316875Y251045D01*
X317792Y250292D01*
X318545Y249375D01*
X318485Y249285D01*
X318446Y249088D01*
X318369Y248902D01*
Y248701D01*
X318330Y248504D01*
X318369Y248307D01*
Y248106D01*
X318589Y247000D01*
X318369Y245893D01*
Y245693D01*
X318330Y245496D01*
X318369Y245299D01*
Y245098D01*
X318446Y244912D01*
X318485Y244715D01*
X318597Y244548D01*
X318674Y244363D01*
X318816Y244221D01*
X318927Y244054D01*
X320554Y242427D01*
X320721Y242316D01*
X320863Y242174D01*
X321048Y242097D01*
X321215Y241985D01*
X321412Y241946D01*
X321598Y241869D01*
X321799D01*
X321996Y241830D01*
X322193Y241869D01*
X322393D01*
X323500Y242089D01*
X325065Y241778D01*
X326392Y240892D01*
X327278Y239565D01*
X327589Y238000D01*
X327278Y236435D01*
X326392Y235108D01*
X325065Y234222D01*
X323500Y233911D01*
X322393Y234131D01*
X322193D01*
X321996Y234170D01*
X321799Y234131D01*
X321598D01*
X321412Y234054D01*
X321215Y234015D01*
X321048Y233903D01*
X320863Y233826D01*
X320721Y233684D01*
X320554Y233573D01*
X318927Y231946D01*
X318816Y231779D01*
X318674Y231637D01*
X318597Y231452D01*
X318485Y231285D01*
X318446Y231088D01*
X318369Y230902D01*
Y230701D01*
X318330Y230504D01*
X318369Y230307D01*
Y230107D01*
X318589Y229000D01*
X318369Y227893D01*
Y227693D01*
X318330Y227496D01*
X318369Y227299D01*
Y227098D01*
X318446Y226912D01*
X318485Y226715D01*
X318597Y226548D01*
X318674Y226363D01*
X318816Y226221D01*
X318927Y226054D01*
X320554Y224427D01*
X320721Y224316D01*
X320863Y224174D01*
X321048Y224097D01*
X321215Y223985D01*
X321412Y223946D01*
X321598Y223869D01*
X321799D01*
X321996Y223830D01*
X322193Y223869D01*
X322393D01*
X323500Y224089D01*
X325065Y223778D01*
X326392Y222892D01*
X327278Y221565D01*
X327589Y220000D01*
X327278Y218435D01*
X326392Y217108D01*
X325065Y216222D01*
X323500Y215911D01*
X322393Y216131D01*
X322193D01*
X321996Y216170D01*
X321799Y216131D01*
X321598D01*
X321412Y216054D01*
X321215Y216015D01*
X321048Y215903D01*
X320863Y215826D01*
X320721Y215684D01*
X320554Y215573D01*
X318927Y213946D01*
X318816Y213779D01*
X318674Y213637D01*
X318597Y213452D01*
X318485Y213285D01*
X318446Y213088D01*
X318369Y212902D01*
Y212701D01*
X318330Y212504D01*
X318369Y212307D01*
Y212106D01*
X318589Y211000D01*
X318369Y209893D01*
Y209693D01*
X318330Y209496D01*
X318369Y209299D01*
Y209098D01*
X318446Y208912D01*
X318485Y208715D01*
X318597Y208548D01*
X318674Y208363D01*
X318816Y208221D01*
X318927Y208054D01*
X320554Y206427D01*
X320721Y206316D01*
X320863Y206174D01*
X321048Y206097D01*
X321215Y205985D01*
X321412Y205946D01*
X321598Y205869D01*
X321799D01*
X321996Y205830D01*
X322193Y205869D01*
X322393D01*
X323500Y206089D01*
X325065Y205778D01*
X326392Y204892D01*
X327278Y203565D01*
X327589Y202000D01*
X327278Y200435D01*
X326392Y199108D01*
X325065Y198222D01*
X323500Y197911D01*
X322393Y198131D01*
X322193D01*
X321996Y198170D01*
X321799Y198131D01*
X321598D01*
X321412Y198054D01*
X321215Y198015D01*
X321048Y197903D01*
X320863Y197826D01*
X320721Y197684D01*
X320554Y197573D01*
X318927Y195946D01*
X318816Y195779D01*
X318674Y195637D01*
X318597Y195452D01*
X318485Y195285D01*
X318446Y195088D01*
X318369Y194902D01*
Y194701D01*
X318330Y194504D01*
X318369Y194307D01*
Y194107D01*
X318589Y193000D01*
X318369Y191893D01*
Y191693D01*
X318330Y191496D01*
X318369Y191299D01*
Y191098D01*
X318446Y190912D01*
X318485Y190715D01*
X318545Y190625D01*
X317792Y189708D01*
X316875Y188955D01*
X316785Y189015D01*
X316588Y189054D01*
X316402Y189131D01*
X316201D01*
X316004Y189170D01*
X315807Y189131D01*
X315606D01*
X314500Y188911D01*
X313393Y189131D01*
X313193D01*
X312996Y189170D01*
X312799Y189131D01*
X312598D01*
X312412Y189054D01*
X312215Y189015D01*
X312048Y188903D01*
X311863Y188826D01*
X311721Y188684D01*
X311554Y188573D01*
X309927Y186946D01*
X309816Y186779D01*
X309674Y186637D01*
X309597Y186452D01*
X309485Y186285D01*
X309446Y186088D01*
X309369Y185902D01*
Y185701D01*
X309330Y185504D01*
X309369Y185307D01*
Y185107D01*
X309589Y184000D01*
X309278Y182435D01*
X308392Y181108D01*
X307065Y180222D01*
X305500Y179911D01*
X303935Y180222D01*
X302608Y181108D01*
X301722Y182435D01*
X301411Y184000D01*
X301631Y185107D01*
Y185307D01*
X301670Y185504D01*
X301631Y185701D01*
Y185902D01*
X301554Y186088D01*
X301515Y186285D01*
X301403Y186452D01*
X301326Y186637D01*
X301184Y186779D01*
X301073Y186946D01*
X299446Y188573D01*
X299279Y188684D01*
X299137Y188826D01*
X298952Y188903D01*
X298785Y189015D01*
X298588Y189054D01*
X298402Y189131D01*
X298201D01*
X298004Y189170D01*
X297807Y189131D01*
X297607D01*
X296500Y188911D01*
X295393Y189131D01*
X295193D01*
X294996Y189170D01*
X294799Y189131D01*
X294598D01*
X294412Y189054D01*
X294215Y189015D01*
X294048Y188903D01*
X293863Y188826D01*
X293721Y188684D01*
X293554Y188573D01*
X291927Y186946D01*
X291816Y186779D01*
X291674Y186637D01*
X291597Y186452D01*
X291485Y186285D01*
X291446Y186088D01*
X291369Y185902D01*
Y185701D01*
X291330Y185504D01*
X291369Y185307D01*
Y185107D01*
X291589Y184000D01*
X291278Y182435D01*
X290392Y181108D01*
X289065Y180222D01*
X287500Y179911D01*
X285935Y180222D01*
X284608Y181108D01*
X283722Y182435D01*
X283411Y184000D01*
X283631Y185107D01*
Y185307D01*
X283670Y185504D01*
X283631Y185701D01*
Y185902D01*
X283554Y186088D01*
X283515Y186285D01*
X283403Y186452D01*
X283326Y186637D01*
X283184Y186779D01*
X283073Y186946D01*
X281446Y188573D01*
X281279Y188684D01*
X281137Y188826D01*
X280952Y188903D01*
X280785Y189015D01*
X280588Y189054D01*
X280402Y189131D01*
X280201D01*
X280004Y189170D01*
X279807Y189131D01*
X279606D01*
X278500Y188911D01*
X277393Y189131D01*
X277193D01*
X276996Y189170D01*
X276799Y189131D01*
X276598D01*
X276412Y189054D01*
X276215Y189015D01*
X276048Y188903D01*
X275863Y188826D01*
X275721Y188684D01*
X275554Y188573D01*
X273927Y186946D01*
X273816Y186779D01*
X273674Y186637D01*
X273597Y186452D01*
X273485Y186285D01*
X273446Y186088D01*
X273369Y185902D01*
Y185701D01*
X273330Y185504D01*
X273369Y185307D01*
Y185107D01*
X273589Y184000D01*
X273278Y182435D01*
X272392Y181108D01*
X271065Y180222D01*
X269500Y179911D01*
X267935Y180222D01*
X266608Y181108D01*
X265722Y182435D01*
X265411Y184000D01*
X265631Y185107D01*
Y185307D01*
X265670Y185504D01*
X265631Y185701D01*
Y185902D01*
X265554Y186088D01*
X265515Y186285D01*
X265403Y186452D01*
X265326Y186637D01*
X265184Y186779D01*
X265073Y186946D01*
X263446Y188573D01*
X263279Y188684D01*
X263137Y188826D01*
X262952Y188903D01*
X262785Y189015D01*
X262588Y189054D01*
X262402Y189131D01*
X262201D01*
X262004Y189170D01*
X261807Y189131D01*
X261607D01*
X260500Y188911D01*
X259393Y189131D01*
X259193D01*
X258996Y189170D01*
X258799Y189131D01*
X258598D01*
X258412Y189054D01*
X258215Y189015D01*
X258125Y188955D01*
X257208Y189708D01*
X256455Y190625D01*
X256515Y190715D01*
X256554Y190912D01*
X256631Y191098D01*
Y191299D01*
X256670Y191496D01*
X256631Y191693D01*
Y191893D01*
X256411Y193000D01*
X256631Y194107D01*
Y194307D01*
X256670Y194504D01*
X256631Y194701D01*
Y194902D01*
X256554Y195088D01*
X256515Y195285D01*
X256403Y195452D01*
X256326Y195637D01*
X256184Y195779D01*
X256073Y195946D01*
X254446Y197573D01*
X254279Y197684D01*
X254137Y197826D01*
X253952Y197903D01*
X253785Y198015D01*
X253588Y198054D01*
X253402Y198131D01*
X253201D01*
X253004Y198170D01*
X252807Y198131D01*
X252607D01*
X251500Y197911D01*
X249935Y198222D01*
X248608Y199108D01*
X247722Y200435D01*
X247411Y202000D01*
X247722Y203565D01*
X248608Y204892D01*
X249935Y205778D01*
X251500Y206089D01*
X252607Y205869D01*
X252807D01*
X253004Y205830D01*
X253201Y205869D01*
X253402D01*
X253588Y205946D01*
X253785Y205985D01*
X253952Y206097D01*
X254137Y206174D01*
X254279Y206316D01*
X254446Y206427D01*
X256073Y208054D01*
X256184Y208221D01*
X256326Y208363D01*
X256403Y208548D01*
X256515Y208715D01*
X256554Y208912D01*
X256631Y209098D01*
Y209299D01*
X256670Y209496D01*
X256631Y209693D01*
Y209893D01*
X256411Y211000D01*
X256631Y212107D01*
Y212307D01*
X256670Y212504D01*
X256631Y212701D01*
Y212902D01*
X256554Y213088D01*
X256515Y213285D01*
X256403Y213452D01*
X256326Y213637D01*
X256184Y213779D01*
X256073Y213946D01*
X254446Y215573D01*
X254279Y215684D01*
X254137Y215826D01*
X253952Y215903D01*
X253785Y216015D01*
X253588Y216054D01*
X253402Y216131D01*
X253201D01*
X253004Y216170D01*
X252807Y216131D01*
X252607D01*
X251500Y215911D01*
X249935Y216222D01*
X248608Y217108D01*
X247722Y218435D01*
X247411Y220000D01*
X247722Y221565D01*
X248608Y222892D01*
X249935Y223778D01*
X251500Y224089D01*
X252607Y223869D01*
X252807D01*
X253004Y223830D01*
X253201Y223869D01*
X253402D01*
X253588Y223946D01*
X253785Y223985D01*
X253952Y224097D01*
X254137Y224174D01*
X254279Y224316D01*
X254446Y224427D01*
X256073Y226054D01*
X256184Y226221D01*
X256326Y226363D01*
X256403Y226548D01*
X256515Y226715D01*
X256554Y226912D01*
X256631Y227098D01*
Y227299D01*
X256670Y227496D01*
X256631Y227693D01*
Y227893D01*
X256411Y229000D01*
X256631Y230107D01*
Y230307D01*
X256670Y230504D01*
X256631Y230701D01*
Y230902D01*
X256554Y231088D01*
X256515Y231285D01*
X256403Y231452D01*
X256326Y231637D01*
X256184Y231779D01*
X256073Y231946D01*
X254446Y233573D01*
X254279Y233684D01*
X254137Y233826D01*
X253952Y233903D01*
X253785Y234015D01*
X253588Y234054D01*
X253402Y234131D01*
X253201D01*
X253004Y234170D01*
X252807Y234131D01*
X252607D01*
X251500Y233911D01*
X249935Y234222D01*
X248608Y235108D01*
X247722Y236435D01*
X247411Y238000D01*
X247722Y239565D01*
X248608Y240892D01*
X249935Y241778D01*
X251500Y242089D01*
X252607Y241869D01*
X252807D01*
X253004Y241830D01*
X253201Y241869D01*
X253402D01*
X253588Y241946D01*
X253785Y241985D01*
X253952Y242097D01*
X254137Y242174D01*
X254279Y242316D01*
X254446Y242427D01*
X256073Y244054D01*
X256184Y244221D01*
X256326Y244363D01*
X256403Y244548D01*
X256515Y244715D01*
X256554Y244912D01*
X256631Y245098D01*
Y245299D01*
X256670Y245496D01*
X256631Y245693D01*
Y245893D01*
X256411Y247000D01*
X256631Y248107D01*
Y248307D01*
X256670Y248504D01*
X256631Y248701D01*
Y248902D01*
X256554Y249088D01*
X256515Y249285D01*
X256455Y249375D01*
X257208Y250292D01*
X258125Y251045D01*
X258215Y250985D01*
X258412Y250946D01*
X258598Y250869D01*
X258799D01*
X258996Y250830D01*
X259193Y250869D01*
X259393D01*
X260500Y251089D01*
X261607Y250869D01*
X261807D01*
X262004Y250830D01*
X262201Y250869D01*
X262402D01*
X262588Y250946D01*
X262785Y250985D01*
X262952Y251097D01*
X263137Y251174D01*
X263279Y251316D01*
X263446Y251427D01*
X265073Y253054D01*
X265184Y253221D01*
X265326Y253363D01*
X265403Y253548D01*
X265515Y253715D01*
X265554Y253912D01*
X265631Y254098D01*
Y254299D01*
X265670Y254496D01*
X265631Y254693D01*
Y254893D01*
X265411Y256000D01*
X265722Y257565D01*
X266608Y258892D01*
X267935Y259778D01*
X269500Y260089D01*
X271065Y259778D01*
X272392Y258892D01*
X273278Y257565D01*
X273589Y256000D01*
X273369Y254893D01*
Y254693D01*
X273330Y254496D01*
X273369Y254299D01*
Y254098D01*
X273446Y253912D01*
X273485Y253715D01*
X273597Y253548D01*
X273674Y253363D01*
X273816Y253221D01*
X273927Y253054D01*
X275554Y251427D01*
X275721Y251316D01*
X275863Y251174D01*
X276048Y251097D01*
X276215Y250985D01*
X276412Y250946D01*
X276598Y250869D01*
X276799D01*
X276996Y250830D01*
X277193Y250869D01*
X277393D01*
X278500Y251089D01*
X279607Y250869D01*
X279807D01*
X280004Y250830D01*
X280201Y250869D01*
X280402D01*
X280588Y250946D01*
X280785Y250985D01*
X280952Y251097D01*
X281137Y251174D01*
X281279Y251316D01*
X281446Y251427D01*
X283073Y253054D01*
X283184Y253221D01*
X283326Y253363D01*
X283403Y253548D01*
X283515Y253715D01*
X283554Y253912D01*
X283631Y254098D01*
Y254299D01*
X283670Y254496D01*
X283631Y254693D01*
Y254893D01*
X283411Y256000D01*
X283722Y257565D01*
X284608Y258892D01*
X285935Y259778D01*
X287500Y260089D01*
X289065Y259778D01*
X290392Y258892D01*
X291278Y257565D01*
X291589Y256000D01*
X291369Y254893D01*
Y254693D01*
X291330Y254496D01*
X291369Y254299D01*
Y254098D01*
X291446Y253912D01*
X291485Y253715D01*
X291597Y253548D01*
X291674Y253363D01*
X291816Y253221D01*
X291927Y253054D01*
X293554Y251427D01*
X293721Y251316D01*
X293863Y251174D01*
X294048Y251097D01*
X294215Y250985D01*
X294412Y250946D01*
X294598Y250869D01*
X294799D01*
X294996Y250830D01*
X295193Y250869D01*
X295393D01*
X296500Y251089D01*
X297607Y250869D01*
X297807D01*
X298004Y250830D01*
X298201Y250869D01*
X298402D01*
X298588Y250946D01*
X298785Y250985D01*
X298952Y251097D01*
X299137Y251174D01*
X299279Y251316D01*
X299446Y251427D01*
X301073Y253054D01*
X301184Y253221D01*
X301326Y253363D01*
X301403Y253548D01*
X301515Y253715D01*
X301554Y253912D01*
X301631Y254098D01*
Y254299D01*
X301670Y254496D01*
X301631Y254693D01*
Y254893D01*
X301411Y256000D01*
X301722Y257565D01*
X302608Y258892D01*
X303935Y259778D01*
X305500Y260089D01*
X307065Y259778D01*
D02*
G37*
D11*
X227500Y1249500D02*
D03*
Y1269500D02*
D03*
X207500D02*
D03*
Y1249500D02*
D03*
X197500Y1259500D02*
D03*
X217500D02*
D03*
X237500D02*
D03*
X284000Y672000D02*
D03*
Y660000D02*
D03*
Y684000D02*
D03*
Y648000D02*
D03*
Y707000D02*
D03*
Y695000D02*
D03*
X75000Y705000D02*
D03*
Y718000D02*
D03*
X12000Y672000D02*
D03*
Y660000D02*
D03*
Y684000D02*
D03*
Y648000D02*
D03*
X375000Y351000D02*
D03*
Y375000D02*
D03*
Y339000D02*
D03*
X414250Y303750D02*
D03*
Y327750D02*
D03*
Y291750D02*
D03*
X35000Y1099000D02*
D03*
Y1085000D02*
D03*
Y1071000D02*
D03*
Y1057000D02*
D03*
Y1043000D02*
D03*
X402000Y1099000D02*
D03*
Y1085000D02*
D03*
Y1071000D02*
D03*
Y1057000D02*
D03*
Y1043000D02*
D03*
X35000Y973000D02*
D03*
Y959000D02*
D03*
Y987000D02*
D03*
Y1001000D02*
D03*
Y1015000D02*
D03*
Y1029000D02*
D03*
X402000Y973000D02*
D03*
Y959000D02*
D03*
Y987000D02*
D03*
Y1001000D02*
D03*
Y1015000D02*
D03*
Y1029000D02*
D03*
X263000Y1068000D02*
D03*
Y1054000D02*
D03*
Y1040000D02*
D03*
Y1026000D02*
D03*
Y998000D02*
D03*
Y1012000D02*
D03*
X279000Y1068000D02*
D03*
Y1054000D02*
D03*
Y1040000D02*
D03*
Y1026000D02*
D03*
Y998000D02*
D03*
Y1012000D02*
D03*
X151000Y1068000D02*
D03*
Y1054000D02*
D03*
Y1040000D02*
D03*
Y1026000D02*
D03*
Y998000D02*
D03*
Y1012000D02*
D03*
X167000Y1068000D02*
D03*
Y1054000D02*
D03*
Y1040000D02*
D03*
Y1026000D02*
D03*
Y998000D02*
D03*
Y1012000D02*
D03*
X183000Y1068000D02*
D03*
Y1054000D02*
D03*
Y1040000D02*
D03*
Y1026000D02*
D03*
Y998000D02*
D03*
Y1012000D02*
D03*
X199000Y1068000D02*
D03*
Y1054000D02*
D03*
Y1040000D02*
D03*
Y1026000D02*
D03*
Y998000D02*
D03*
Y1012000D02*
D03*
X247000D02*
D03*
Y998000D02*
D03*
Y1026000D02*
D03*
Y1040000D02*
D03*
Y1054000D02*
D03*
Y1068000D02*
D03*
X231000Y1012000D02*
D03*
Y998000D02*
D03*
Y1026000D02*
D03*
Y1040000D02*
D03*
Y1054000D02*
D03*
Y1068000D02*
D03*
X215000D02*
D03*
Y1054000D02*
D03*
Y1040000D02*
D03*
Y1026000D02*
D03*
Y998000D02*
D03*
Y1012000D02*
D03*
X82000Y797500D02*
D03*
X263500Y1250500D02*
D03*
X262500Y1275500D02*
D03*
X170500Y1247500D02*
D03*
X242000Y1168000D02*
D03*
X82500Y909000D02*
D03*
X352500Y911500D02*
D03*
X353500Y804500D02*
D03*
X187500Y1154500D02*
D03*
X185000Y1369500D02*
D03*
X183000Y1391560D02*
D03*
X249000Y492000D02*
D03*
X414250Y315750D02*
D03*
X252000Y1147000D02*
D03*
X298560Y1249500D02*
D03*
X375000Y363000D02*
D03*
X207250Y1141000D02*
D03*
D47*
X5000Y1285000D02*
X71000Y1351000D01*
X168000D01*
X177000Y1342000D01*
X158540Y1346460D02*
X163000Y1342000D01*
X5000Y889000D02*
X82000Y812000D01*
Y797500D02*
Y812000D01*
X9540Y967960D02*
X68500Y909000D01*
X82500D01*
X72881Y1346460D02*
X158540D01*
X5000Y889000D02*
Y1285000D01*
X9540Y967960D02*
Y1283120D01*
X72881Y1346460D01*
X111560Y1391560D02*
X183000D01*
X71000Y1351000D02*
X111560Y1391560D01*
X121000Y96000D02*
X149000D01*
X340079Y1294500D02*
X429460Y1205119D01*
Y974460D02*
Y1205119D01*
X328500Y1312500D02*
X434000Y1207000D01*
X-31000Y298000D02*
X6000D01*
X187500Y1154500D02*
X244500D01*
X252000Y1147000D01*
X293617Y1294500D02*
X340079D01*
X293500Y1312500D02*
X328500D01*
X293000Y1313000D02*
X293500Y1312500D01*
X353500Y804500D02*
X434000Y885000D01*
Y1207000D01*
X352500Y911500D02*
X366500D01*
X429460Y974460D01*
D50*
X262500Y1249500D02*
Y1275500D01*
X192643Y1342643D02*
X194357D01*
X262500Y1275500D02*
Y1290484D01*
X210341Y1342643D02*
X262500Y1290484D01*
X194357Y1342643D02*
X210341D01*
X170500Y1247500D02*
Y1320500D01*
X242000Y1168000D02*
Y1176000D01*
X298560Y1232560D01*
Y1249500D01*
X170500Y1320500D02*
X192643Y1342643D01*
D62*
X251500Y238000D02*
D03*
X260500Y229000D02*
D03*
Y247000D02*
D03*
X269500Y238000D02*
D03*
Y256000D02*
D03*
X278500Y229000D02*
D03*
Y247000D02*
D03*
X287500Y238000D02*
D03*
Y256000D02*
D03*
X269500Y184000D02*
D03*
X260500Y193000D02*
D03*
X278500D02*
D03*
X251500Y202000D02*
D03*
X269500D02*
D03*
X260500Y211000D02*
D03*
X278500D02*
D03*
X251500Y220000D02*
D03*
X269500D02*
D03*
X305500Y184000D02*
D03*
X296500Y193000D02*
D03*
X314500D02*
D03*
X305500Y202000D02*
D03*
X323500D02*
D03*
X296500Y211000D02*
D03*
X314500D02*
D03*
X305500Y256000D02*
D03*
X296500Y247000D02*
D03*
X314500D02*
D03*
X305500Y238000D02*
D03*
X323500D02*
D03*
X296500Y229000D02*
D03*
X314500D02*
D03*
X287500Y184000D02*
D03*
X323500Y220000D02*
D03*
X287500Y202000D02*
D03*
X305500Y220000D02*
D03*
X287500D02*
D03*
X125000Y595500D02*
D03*
X134000Y586500D02*
D03*
Y604500D02*
D03*
X143000Y595500D02*
D03*
Y613500D02*
D03*
X152000Y586500D02*
D03*
Y604500D02*
D03*
X161000Y595500D02*
D03*
Y613500D02*
D03*
X143000Y541500D02*
D03*
X134000Y550500D02*
D03*
X152000D02*
D03*
X125000Y559500D02*
D03*
X143000D02*
D03*
X134000Y568500D02*
D03*
X152000D02*
D03*
X125000Y577500D02*
D03*
X143000D02*
D03*
X179000Y541500D02*
D03*
X170000Y550500D02*
D03*
X188000D02*
D03*
X179000Y559500D02*
D03*
X197000D02*
D03*
X170000Y568500D02*
D03*
X188000D02*
D03*
X179000Y613500D02*
D03*
X170000Y604500D02*
D03*
X188000D02*
D03*
X179000Y595500D02*
D03*
X197000D02*
D03*
X170000Y586500D02*
D03*
X188000D02*
D03*
X161000Y541500D02*
D03*
X197000Y577500D02*
D03*
X161000Y559500D02*
D03*
X179000Y577500D02*
D03*
X161000D02*
D03*
D63*
X78000Y1494500D02*
D03*
D64*
X245000Y1495000D02*
D03*
X287000D02*
D03*
X203000D02*
D03*
D65*
X354000Y55000D02*
D03*
X69000D02*
D03*
Y324000D02*
D03*
X354000Y1353000D02*
D03*
D66*
X118000Y1245750D02*
D03*
X147500Y1265500D02*
D03*
X6000Y298000D02*
D03*
X-31000D02*
D03*
X-73000Y279000D02*
D03*
X-31000D02*
D03*
Y199000D02*
D03*
X-73000Y249000D02*
D03*
Y224000D02*
D03*
Y199000D02*
D03*
X-32000Y443000D02*
D03*
X-74000Y442000D02*
D03*
X98000Y209000D02*
D03*
Y222000D02*
D03*
Y184000D02*
D03*
Y197000D02*
D03*
Y171000D02*
D03*
X85000Y209000D02*
D03*
Y222000D02*
D03*
Y184000D02*
D03*
Y197000D02*
D03*
Y171000D02*
D03*
X72000Y209000D02*
D03*
Y222000D02*
D03*
Y184000D02*
D03*
Y197000D02*
D03*
Y171000D02*
D03*
X59000Y209000D02*
D03*
Y222000D02*
D03*
Y184000D02*
D03*
Y197000D02*
D03*
Y171000D02*
D03*
X46000D02*
D03*
Y197000D02*
D03*
Y184000D02*
D03*
Y222000D02*
D03*
Y209000D02*
D03*
X-43000Y1482000D02*
D03*
Y1495000D02*
D03*
Y1457000D02*
D03*
Y1470000D02*
D03*
Y1444000D02*
D03*
X-56000Y1482000D02*
D03*
Y1495000D02*
D03*
Y1457000D02*
D03*
Y1470000D02*
D03*
Y1444000D02*
D03*
X-69000Y1482000D02*
D03*
Y1495000D02*
D03*
Y1457000D02*
D03*
Y1470000D02*
D03*
Y1444000D02*
D03*
X-82000Y1482000D02*
D03*
Y1495000D02*
D03*
Y1457000D02*
D03*
Y1470000D02*
D03*
Y1444000D02*
D03*
X-95000D02*
D03*
Y1470000D02*
D03*
Y1457000D02*
D03*
Y1495000D02*
D03*
Y1482000D02*
D03*
X532000D02*
D03*
Y1495000D02*
D03*
Y1457000D02*
D03*
Y1470000D02*
D03*
Y1444000D02*
D03*
X519000Y1482000D02*
D03*
Y1495000D02*
D03*
Y1457000D02*
D03*
Y1470000D02*
D03*
Y1444000D02*
D03*
X506000Y1482000D02*
D03*
Y1495000D02*
D03*
Y1457000D02*
D03*
Y1470000D02*
D03*
Y1444000D02*
D03*
X493000Y1482000D02*
D03*
Y1495000D02*
D03*
Y1457000D02*
D03*
Y1470000D02*
D03*
Y1444000D02*
D03*
X480000D02*
D03*
Y1470000D02*
D03*
Y1457000D02*
D03*
Y1495000D02*
D03*
Y1482000D02*
D03*
X548000Y427000D02*
D03*
X486000Y428000D02*
D03*
X487000Y289000D02*
D03*
X548000Y287000D02*
D03*
Y250000D02*
D03*
Y225000D02*
D03*
Y200000D02*
D03*
X486000Y201000D02*
D03*
X174000Y706000D02*
D03*
Y719000D02*
D03*
Y732000D02*
D03*
X161000Y706000D02*
D03*
Y719000D02*
D03*
Y732000D02*
D03*
X148000Y706000D02*
D03*
Y719000D02*
D03*
Y732000D02*
D03*
X400000Y573000D02*
D03*
Y586000D02*
D03*
Y612000D02*
D03*
Y599000D02*
D03*
Y637000D02*
D03*
Y624000D02*
D03*
Y547000D02*
D03*
Y560000D02*
D03*
Y522000D02*
D03*
Y535000D02*
D03*
Y509000D02*
D03*
Y496000D02*
D03*
X413000Y573000D02*
D03*
Y586000D02*
D03*
Y612000D02*
D03*
Y599000D02*
D03*
Y637000D02*
D03*
Y624000D02*
D03*
Y547000D02*
D03*
Y560000D02*
D03*
Y522000D02*
D03*
Y535000D02*
D03*
Y509000D02*
D03*
Y496000D02*
D03*
X426000Y573000D02*
D03*
Y586000D02*
D03*
Y612000D02*
D03*
Y599000D02*
D03*
Y637000D02*
D03*
Y624000D02*
D03*
Y547000D02*
D03*
Y560000D02*
D03*
Y522000D02*
D03*
Y535000D02*
D03*
Y509000D02*
D03*
Y496000D02*
D03*
X122000Y745000D02*
D03*
X147000D02*
D03*
X134000D02*
D03*
X173000D02*
D03*
X160000D02*
D03*
X122000Y758000D02*
D03*
X147000D02*
D03*
X134000D02*
D03*
X173000D02*
D03*
X160000D02*
D03*
X122000Y771000D02*
D03*
X147000D02*
D03*
X134000D02*
D03*
X173000D02*
D03*
X160000D02*
D03*
X122000Y784000D02*
D03*
X147000D02*
D03*
X134000D02*
D03*
X173000D02*
D03*
X160000D02*
D03*
Y797000D02*
D03*
X173000D02*
D03*
X134000D02*
D03*
X147000D02*
D03*
X122000D02*
D03*
X194357Y1342643D02*
D03*
X126000Y71000D02*
D03*
X153000Y96000D02*
D03*
X221500Y201500D02*
D03*
Y186500D02*
D03*
Y168500D02*
D03*
X241500Y153500D02*
D03*
X261500D02*
D03*
X351500Y169500D02*
D03*
Y201500D02*
D03*
X333500Y153500D02*
D03*
X350500D02*
D03*
X351500Y184500D02*
D03*
X279500Y153500D02*
D03*
X297260Y153500D02*
D03*
X315260D02*
D03*
X222500Y153500D02*
D03*
X96000Y511000D02*
D03*
X188760Y511000D02*
D03*
X170760D02*
D03*
X153000Y511000D02*
D03*
X225000Y542000D02*
D03*
X224000Y511000D02*
D03*
X207000D02*
D03*
X316000Y1247250D02*
D03*
X195000Y269000D02*
D03*
X375502Y267500D02*
D03*
X225000Y559000D02*
D03*
Y527000D02*
D03*
X135000Y511000D02*
D03*
X115000D02*
D03*
X95000Y526000D02*
D03*
Y544000D02*
D03*
Y559000D02*
D03*
X68000Y626000D02*
D03*
X37000Y631000D02*
D03*
X243503Y625000D02*
D03*
X271000Y625000D02*
D03*
X13000Y572000D02*
D03*
Y585000D02*
D03*
Y547000D02*
D03*
Y560000D02*
D03*
Y534000D02*
D03*
X26000D02*
D03*
Y560000D02*
D03*
Y547000D02*
D03*
Y585000D02*
D03*
Y572000D02*
D03*
X293617Y1294500D02*
D03*
X293500Y1312500D02*
D03*
X163000Y1342000D02*
D03*
X177000D02*
D03*
X136500Y667000D02*
D03*
X43000Y664000D02*
D03*
D69*
X-73000Y224000D02*
Y249000D01*
Y199000D02*
Y224000D01*
X-31000Y199000D02*
X64000Y104000D01*
X-73000Y199000D02*
X-31000D01*
M02*
