%FSLAX44Y44*%
%MOMM*%
G71*
G01*
G75*
G04 Layer_Color=16711935*
%ADD10R,1.2000X0.8000*%
%ADD11C,1.0000*%
%ADD12R,2.0000X3.5000*%
%ADD13R,3.0000X4.0000*%
%ADD14R,4.0000X2.8000*%
%ADD15R,2.8000X4.0000*%
%ADD16R,4.0000X3.0000*%
%ADD17R,0.6000X0.5000*%
%ADD18R,1.6000X1.4000*%
%ADD19R,0.9500X0.9000*%
%ADD20R,2.0000X2.0000*%
%ADD21R,2.0000X3.2000*%
%ADD22R,3.5000X2.0000*%
%ADD23R,0.5000X0.6000*%
%ADD24C,2.0000*%
%ADD25R,1.0000X1.8000*%
%ADD26R,3.0000X0.8000*%
%ADD27R,3.2000X2.0000*%
%ADD28R,2.8000X1.5000*%
%ADD29R,7.7000X1.6000*%
%ADD30R,1.7000X1.6000*%
%ADD31R,1.6000X6.3000*%
%ADD32R,1.8000X0.2900*%
%ADD33R,8.7000X8.7000*%
%ADD34R,1.6000X1.7000*%
%ADD35R,5.1500X3.1500*%
%ADD36R,0.7000X0.2900*%
%ADD37R,0.2900X0.7000*%
%ADD38R,0.8000X1.2000*%
%ADD39R,1.1000X1.2000*%
%ADD40R,0.9000X0.9500*%
%ADD41R,4.5000X4.0000*%
%ADD42R,3.2000X3.0000*%
%ADD43R,4.5000X4.2000*%
%ADD44R,0.5500X1.7000*%
%ADD45R,1.7000X0.5500*%
%ADD46R,4.2000X4.5000*%
%ADD47C,0.2540*%
%ADD48C,4.5720*%
%ADD49C,5.0000*%
%ADD50C,0.2286*%
%ADD51C,0.7620*%
%ADD52C,1.0160*%
%ADD53C,0.2032*%
%ADD54C,0.6350*%
%ADD55R,1.6000X6.7000*%
%ADD56R,12.5000X1.4000*%
%ADD57R,1.7500X7.2000*%
%ADD58R,1.6000X5.6000*%
%ADD59R,12.6000X1.3500*%
%ADD60R,1.8000X7.0750*%
%ADD61R,6.2500X6.2500*%
%ADD62C,0.8100*%
%ADD63C,1.5240*%
%ADD64C,1.8500*%
%ADD65C,8.0000*%
%ADD66C,0.8000*%
%ADD67C,1.2700*%
%ADD68C,0.7112*%
%ADD69C,1.2700*%
%ADD70C,0.0500*%
%ADD71C,0.2000*%
%ADD72C,0.1270*%
%ADD73R,1.4032X1.0032*%
%ADD74C,2.0000*%
%ADD75R,2.2032X3.7032*%
%ADD76R,3.2032X4.2032*%
%ADD77R,4.2032X3.0032*%
%ADD78R,3.0032X4.2032*%
%ADD79R,4.2032X3.2032*%
%ADD80R,0.8032X0.7032*%
%ADD81R,1.8032X1.6032*%
%ADD82R,1.1532X1.1032*%
%ADD83R,2.2032X2.2032*%
%ADD84R,2.2032X3.4032*%
%ADD85R,3.7032X2.2032*%
%ADD86R,0.7032X0.8032*%
%ADD87C,2.2032*%
%ADD88R,1.2032X2.0032*%
%ADD89R,3.2032X1.0032*%
%ADD90R,3.4032X2.2032*%
%ADD91R,3.0032X1.7032*%
%ADD92R,7.7200X1.6200*%
%ADD93R,1.7200X1.6200*%
%ADD94R,1.6200X6.3200*%
%ADD95R,1.8200X0.3100*%
%ADD96R,8.7200X8.7200*%
%ADD97R,1.6200X1.7200*%
%ADD98R,5.1900X3.1900*%
%ADD99R,0.7400X0.3300*%
%ADD100R,0.3300X0.7400*%
%ADD101R,1.0032X1.4032*%
%ADD102R,1.3032X1.4032*%
%ADD103R,1.1032X1.1532*%
%ADD104R,4.7032X4.2032*%
%ADD105R,3.4032X3.2032*%
%ADD106R,4.7032X4.4032*%
%ADD107R,0.7532X1.9032*%
%ADD108R,1.9032X0.7532*%
%ADD109R,4.4032X4.7032*%
%ADD110C,0.8300*%
%ADD111C,1.2032*%
%ADD112C,1.7272*%
%ADD113C,2.0532*%
%ADD114C,8.2032*%
%ADD115C,1.0032*%
%ADD116C,1.4732*%
D74*
X227540Y59840D02*
D03*
X85540Y1251840D02*
D03*
D96*
X287500Y220000D02*
D03*
X161000Y577500D02*
D03*
D98*
X217500Y1259500D02*
D03*
D110*
X251500Y238000D02*
D03*
Y256000D02*
D03*
X260500Y229000D02*
D03*
Y247000D02*
D03*
X269500Y238000D02*
D03*
Y256000D02*
D03*
X278500Y229000D02*
D03*
Y247000D02*
D03*
X287500Y238000D02*
D03*
Y256000D02*
D03*
X251500Y184000D02*
D03*
X269500D02*
D03*
X260500Y193000D02*
D03*
X278500D02*
D03*
X251500Y202000D02*
D03*
X269500D02*
D03*
X260500Y211000D02*
D03*
X278500D02*
D03*
X251500Y220000D02*
D03*
X269500D02*
D03*
X305500Y184000D02*
D03*
X323500D02*
D03*
X296500Y193000D02*
D03*
X314500D02*
D03*
X305500Y202000D02*
D03*
X323500D02*
D03*
X296500Y211000D02*
D03*
X314500D02*
D03*
X305500Y256000D02*
D03*
X323500D02*
D03*
X296500Y247000D02*
D03*
X314500D02*
D03*
X305500Y238000D02*
D03*
X323500D02*
D03*
X296500Y229000D02*
D03*
X314500D02*
D03*
X287500Y184000D02*
D03*
X323500Y220000D02*
D03*
X287500Y202000D02*
D03*
X305500Y220000D02*
D03*
X287500D02*
D03*
X125000Y595500D02*
D03*
Y613500D02*
D03*
X134000Y586500D02*
D03*
Y604500D02*
D03*
X143000Y595500D02*
D03*
Y613500D02*
D03*
X152000Y586500D02*
D03*
Y604500D02*
D03*
X161000Y595500D02*
D03*
Y613500D02*
D03*
X125000Y541500D02*
D03*
X143000D02*
D03*
X134000Y550500D02*
D03*
X152000D02*
D03*
X125000Y559500D02*
D03*
X143000D02*
D03*
X134000Y568500D02*
D03*
X152000D02*
D03*
X125000Y577500D02*
D03*
X143000D02*
D03*
X179000Y541500D02*
D03*
X197000D02*
D03*
X170000Y550500D02*
D03*
X188000D02*
D03*
X179000Y559500D02*
D03*
X197000D02*
D03*
X170000Y568500D02*
D03*
X188000D02*
D03*
X179000Y613500D02*
D03*
X197000D02*
D03*
X170000Y604500D02*
D03*
X188000D02*
D03*
X179000Y595500D02*
D03*
X197000D02*
D03*
X170000Y586500D02*
D03*
X188000D02*
D03*
X161000Y541500D02*
D03*
X197000Y577500D02*
D03*
X161000Y559500D02*
D03*
X179000Y577500D02*
D03*
X161000D02*
D03*
D111*
X227500Y1249500D02*
D03*
Y1269500D02*
D03*
X207500D02*
D03*
Y1249500D02*
D03*
X197500Y1259500D02*
D03*
X217500D02*
D03*
X237500D02*
D03*
X285000Y585000D02*
D03*
X284000Y672000D02*
D03*
Y660000D02*
D03*
Y684000D02*
D03*
Y648000D02*
D03*
Y707000D02*
D03*
Y695000D02*
D03*
X75000Y705000D02*
D03*
Y718000D02*
D03*
X12000Y672000D02*
D03*
Y660000D02*
D03*
Y684000D02*
D03*
Y648000D02*
D03*
X375000Y351000D02*
D03*
Y375000D02*
D03*
Y339000D02*
D03*
X414250Y303750D02*
D03*
Y327750D02*
D03*
Y291750D02*
D03*
X158000Y316000D02*
D03*
Y292000D02*
D03*
X157000Y341000D02*
D03*
Y365000D02*
D03*
X35000Y1099000D02*
D03*
Y1085000D02*
D03*
Y1071000D02*
D03*
Y1057000D02*
D03*
Y1043000D02*
D03*
X402000Y1099000D02*
D03*
Y1085000D02*
D03*
Y1071000D02*
D03*
Y1057000D02*
D03*
Y1043000D02*
D03*
X35000Y973000D02*
D03*
Y959000D02*
D03*
Y987000D02*
D03*
Y1001000D02*
D03*
Y1015000D02*
D03*
Y1029000D02*
D03*
X402000Y973000D02*
D03*
Y959000D02*
D03*
Y987000D02*
D03*
Y1001000D02*
D03*
Y1015000D02*
D03*
Y1029000D02*
D03*
X263000Y1068000D02*
D03*
Y1054000D02*
D03*
Y1040000D02*
D03*
Y1026000D02*
D03*
Y998000D02*
D03*
Y1012000D02*
D03*
X279000Y1068000D02*
D03*
Y1054000D02*
D03*
Y1040000D02*
D03*
Y1026000D02*
D03*
Y998000D02*
D03*
Y1012000D02*
D03*
X151000Y1068000D02*
D03*
Y1054000D02*
D03*
Y1040000D02*
D03*
Y1026000D02*
D03*
Y998000D02*
D03*
Y1012000D02*
D03*
X167000Y1068000D02*
D03*
Y1054000D02*
D03*
Y1040000D02*
D03*
Y1026000D02*
D03*
Y998000D02*
D03*
Y1012000D02*
D03*
X183000Y1068000D02*
D03*
Y1054000D02*
D03*
Y1040000D02*
D03*
Y1026000D02*
D03*
Y998000D02*
D03*
Y1012000D02*
D03*
X199000Y1068000D02*
D03*
Y1054000D02*
D03*
Y1040000D02*
D03*
Y1026000D02*
D03*
Y998000D02*
D03*
Y1012000D02*
D03*
X247000D02*
D03*
Y998000D02*
D03*
Y1026000D02*
D03*
Y1040000D02*
D03*
Y1054000D02*
D03*
Y1068000D02*
D03*
X231000Y1012000D02*
D03*
Y998000D02*
D03*
Y1026000D02*
D03*
Y1040000D02*
D03*
Y1054000D02*
D03*
Y1068000D02*
D03*
X215000D02*
D03*
Y1054000D02*
D03*
Y1040000D02*
D03*
Y1026000D02*
D03*
Y998000D02*
D03*
Y1012000D02*
D03*
X82000Y797500D02*
D03*
X180000Y1210000D02*
D03*
X255000Y1215000D02*
D03*
X375000Y1492500D02*
D03*
Y1477500D02*
D03*
Y1445000D02*
D03*
Y1460000D02*
D03*
X392500Y1492500D02*
D03*
Y1477500D02*
D03*
Y1445000D02*
D03*
Y1460000D02*
D03*
X410000D02*
D03*
Y1445000D02*
D03*
Y1477500D02*
D03*
Y1492500D02*
D03*
X263500Y1250500D02*
D03*
X172500Y1222000D02*
D03*
X242500Y1197000D02*
D03*
X192500D02*
D03*
X232500Y1184500D02*
D03*
X202500D02*
D03*
X192500Y1322000D02*
D03*
X202500Y1334500D02*
D03*
X242500Y1322000D02*
D03*
X232500Y1334500D02*
D03*
X222500Y1347000D02*
D03*
X262500Y1275500D02*
D03*
X170500Y1247500D02*
D03*
X242000Y1168000D02*
D03*
X296000Y1081000D02*
D03*
X390050Y1129450D02*
D03*
X131360Y1142140D02*
D03*
X110640Y1154640D02*
D03*
X82500Y909000D02*
D03*
X352500Y911500D02*
D03*
X353500Y804500D02*
D03*
X187500Y1154500D02*
D03*
X185000Y1369500D02*
D03*
X183000Y1391560D02*
D03*
X249000Y492000D02*
D03*
X244000Y571000D02*
D03*
Y535000D02*
D03*
X109770Y1135000D02*
D03*
X318395Y1138000D02*
D03*
X414250Y315750D02*
D03*
X252000Y1147000D02*
D03*
X298560Y1249500D02*
D03*
X375000Y363000D02*
D03*
X207250Y1141000D02*
D03*
D112*
X78000Y1494500D02*
D03*
Y1459500D02*
D03*
D113*
X245000Y1440000D02*
D03*
Y1495000D02*
D03*
X203000Y1440000D02*
D03*
X287000Y1495000D02*
D03*
Y1440000D02*
D03*
X203000Y1495000D02*
D03*
D114*
X354000Y55000D02*
D03*
X69000D02*
D03*
Y324000D02*
D03*
X354000Y1353000D02*
D03*
D115*
X118000Y1245750D02*
D03*
X178500Y1282250D02*
D03*
X147500Y1265500D02*
D03*
X6000Y298000D02*
D03*
X-31000D02*
D03*
X-73000Y279000D02*
D03*
X-31000D02*
D03*
Y199000D02*
D03*
X-73000Y249000D02*
D03*
Y224000D02*
D03*
Y199000D02*
D03*
X-32000Y443000D02*
D03*
X-74000Y442000D02*
D03*
X98000Y209000D02*
D03*
Y222000D02*
D03*
Y184000D02*
D03*
Y197000D02*
D03*
Y171000D02*
D03*
X85000Y209000D02*
D03*
Y222000D02*
D03*
Y184000D02*
D03*
Y197000D02*
D03*
Y171000D02*
D03*
X72000Y209000D02*
D03*
Y222000D02*
D03*
Y184000D02*
D03*
Y197000D02*
D03*
Y171000D02*
D03*
X59000Y209000D02*
D03*
Y222000D02*
D03*
Y184000D02*
D03*
Y197000D02*
D03*
Y171000D02*
D03*
X46000D02*
D03*
Y197000D02*
D03*
Y184000D02*
D03*
Y222000D02*
D03*
Y209000D02*
D03*
X-43000Y1482000D02*
D03*
Y1495000D02*
D03*
Y1457000D02*
D03*
Y1470000D02*
D03*
Y1444000D02*
D03*
X-56000Y1482000D02*
D03*
Y1495000D02*
D03*
Y1457000D02*
D03*
Y1470000D02*
D03*
Y1444000D02*
D03*
X-69000Y1482000D02*
D03*
Y1495000D02*
D03*
Y1457000D02*
D03*
Y1470000D02*
D03*
Y1444000D02*
D03*
X-82000Y1482000D02*
D03*
Y1495000D02*
D03*
Y1457000D02*
D03*
Y1470000D02*
D03*
Y1444000D02*
D03*
X-95000D02*
D03*
Y1470000D02*
D03*
Y1457000D02*
D03*
Y1495000D02*
D03*
Y1482000D02*
D03*
X532000D02*
D03*
Y1495000D02*
D03*
Y1457000D02*
D03*
Y1470000D02*
D03*
Y1444000D02*
D03*
X519000Y1482000D02*
D03*
Y1495000D02*
D03*
Y1457000D02*
D03*
Y1470000D02*
D03*
Y1444000D02*
D03*
X506000Y1482000D02*
D03*
Y1495000D02*
D03*
Y1457000D02*
D03*
Y1470000D02*
D03*
Y1444000D02*
D03*
X493000Y1482000D02*
D03*
Y1495000D02*
D03*
Y1457000D02*
D03*
Y1470000D02*
D03*
Y1444000D02*
D03*
X480000D02*
D03*
Y1470000D02*
D03*
Y1457000D02*
D03*
Y1495000D02*
D03*
Y1482000D02*
D03*
X548000Y427000D02*
D03*
X486000Y428000D02*
D03*
X487000Y289000D02*
D03*
X548000Y287000D02*
D03*
Y250000D02*
D03*
Y225000D02*
D03*
Y200000D02*
D03*
X486000Y201000D02*
D03*
X174000Y706000D02*
D03*
Y719000D02*
D03*
Y732000D02*
D03*
X161000Y706000D02*
D03*
Y719000D02*
D03*
Y732000D02*
D03*
X148000Y706000D02*
D03*
Y719000D02*
D03*
Y732000D02*
D03*
X400000Y573000D02*
D03*
Y586000D02*
D03*
Y612000D02*
D03*
Y599000D02*
D03*
Y637000D02*
D03*
Y624000D02*
D03*
Y547000D02*
D03*
Y560000D02*
D03*
Y522000D02*
D03*
Y535000D02*
D03*
Y509000D02*
D03*
Y496000D02*
D03*
X413000Y573000D02*
D03*
Y586000D02*
D03*
Y612000D02*
D03*
Y599000D02*
D03*
Y637000D02*
D03*
Y624000D02*
D03*
Y547000D02*
D03*
Y560000D02*
D03*
Y522000D02*
D03*
Y535000D02*
D03*
Y509000D02*
D03*
Y496000D02*
D03*
X426000Y573000D02*
D03*
Y586000D02*
D03*
Y612000D02*
D03*
Y599000D02*
D03*
Y637000D02*
D03*
Y624000D02*
D03*
Y547000D02*
D03*
Y560000D02*
D03*
Y522000D02*
D03*
Y535000D02*
D03*
Y509000D02*
D03*
Y496000D02*
D03*
X122000Y745000D02*
D03*
X147000D02*
D03*
X134000D02*
D03*
X173000D02*
D03*
X160000D02*
D03*
X122000Y758000D02*
D03*
X147000D02*
D03*
X134000D02*
D03*
X173000D02*
D03*
X160000D02*
D03*
X122000Y771000D02*
D03*
X147000D02*
D03*
X134000D02*
D03*
X173000D02*
D03*
X160000D02*
D03*
X122000Y784000D02*
D03*
X147000D02*
D03*
X134000D02*
D03*
X173000D02*
D03*
X160000D02*
D03*
Y797000D02*
D03*
X173000D02*
D03*
X134000D02*
D03*
X147000D02*
D03*
X122000D02*
D03*
X470000Y297000D02*
D03*
X214000Y102000D02*
D03*
Y114000D02*
D03*
X388000Y253000D02*
D03*
X194357Y1342643D02*
D03*
X126000Y71000D02*
D03*
X153000Y96000D02*
D03*
X32000Y620000D02*
D03*
X155000Y270000D02*
D03*
X221500Y201500D02*
D03*
Y186500D02*
D03*
Y168500D02*
D03*
X241500Y153500D02*
D03*
X261500D02*
D03*
X351500Y169500D02*
D03*
Y201500D02*
D03*
X333500Y153500D02*
D03*
X350500D02*
D03*
X351500Y184500D02*
D03*
X279500Y153500D02*
D03*
X297260Y153500D02*
D03*
X315260D02*
D03*
X222500Y153500D02*
D03*
X96000Y511000D02*
D03*
X188760Y511000D02*
D03*
X170760D02*
D03*
X153000Y511000D02*
D03*
X225000Y542000D02*
D03*
X224000Y511000D02*
D03*
X207000D02*
D03*
X316000Y1247250D02*
D03*
X195000Y269000D02*
D03*
X164000Y279000D02*
D03*
X375502Y267500D02*
D03*
X408000Y275000D02*
D03*
X225000Y559000D02*
D03*
Y527000D02*
D03*
X135000Y511000D02*
D03*
X115000D02*
D03*
X95000Y526000D02*
D03*
Y544000D02*
D03*
Y559000D02*
D03*
X68000Y626000D02*
D03*
X37000Y631000D02*
D03*
X243503Y625000D02*
D03*
X271000Y625000D02*
D03*
X217500Y1294500D02*
D03*
X155500Y1256500D02*
D03*
X13000Y572000D02*
D03*
Y585000D02*
D03*
Y547000D02*
D03*
Y560000D02*
D03*
Y534000D02*
D03*
X26000D02*
D03*
Y560000D02*
D03*
Y547000D02*
D03*
Y585000D02*
D03*
Y572000D02*
D03*
X293617Y1294500D02*
D03*
X293500Y1312500D02*
D03*
X163000Y1342000D02*
D03*
X177000D02*
D03*
X136500Y667000D02*
D03*
X43000Y664000D02*
D03*
D116*
X291000Y1331500D02*
D03*
Y1367500D02*
D03*
X171000Y1371500D02*
D03*
M02*
