M48
;Layer_Color=9474304
;FILE_FORMAT=4:4
METRIC,LZ
;TYPE=PLATED
T1F00S00C0.3000
T2F00S00C0.4000
T3F00S00C0.5000
T4F00S00C0.7112
T5F00S00C1.1000
T6F00S00C1.4500
%
T01
X00126Y00071
X00153Y00096
X00214Y00102
Y00114
X00388Y00253
X00408Y00275
X0047Y00297
X00487Y00289
X00548Y00287
Y0025
Y00225
Y002
X00486Y00201
Y00428
X00548Y00427
X00426Y00496
X00413
X004
Y00509
Y00522
Y00535
X00413
Y00522
Y00509
X00426
Y00522
Y00535
X00225Y00527
X00224Y00511
X00207
X0018876Y00511
X0017076
X00153Y00511
X00135
X00115
X00096
X00095Y00526
X00026Y00534
X00013
X00006Y00298
X00046Y00222
X00059
X00072
X00085
X00098
Y00209
Y00197
Y00184
Y00171
X00085
Y00184
Y00197
Y00209
X00072
Y00197
Y00184
Y00171
X00059
Y00184
Y00197
Y00209
X00046
Y00197
Y00184
Y00171
X002215Y001685
X002225Y001535
X002415
X002615
X002795
X0029726Y001535
X0031526
X003335Y001535
X003505
X003515Y001695
Y001845
Y002015
X00375502Y002675
X00195Y00269
X00155Y0027
X00164Y00279
X002215Y002015
Y001865
X-00031Y00199
X-00073
Y00224
Y00249
Y00279
X-00031
Y00298
X-00032Y00443
X-00074Y00442
X00013Y00547
Y0056
Y00572
Y00585
X00026
Y00572
Y0056
Y00547
X00095Y00544
Y00559
X00068Y00626
X00037Y00631
X00032Y0062
X00043Y00664
X001365Y00667
X00148Y00706
X00161
X00174
Y00719
Y00732
X00161
Y00719
X00148
Y00732
X00147Y00745
X00134
X00122
Y00758
X00134
X00147
X0016
Y00745
X00173
Y00758
Y00771
X0016
X00147
X00134
X00122
Y00784
X00134
X00147
X0016
X00173
Y00797
X0016
X00147
X00134
X00122
X00243503Y00625
X00271Y00625
X00225Y00559
Y00542
X004Y00547
Y0056
Y00573
Y00586
Y00599
Y00612
Y00624
Y00637
X00413
Y00624
Y00612
Y00599
Y00586
Y00573
Y0056
Y00547
X00426
Y0056
Y00573
Y00586
Y00599
Y00612
Y00624
Y00637
X00316Y0124725
X-00043Y01444
Y01457
Y0147
Y01482
Y01495
X-00056
Y01482
Y0147
Y01457
Y01444
X-00069
Y01457
Y0147
Y01482
Y01495
X-00082
Y01482
Y0147
Y01457
Y01444
X-00095
Y01457
Y0147
Y01482
Y01495
X0048
X00493
X00506
X00519
X00532
Y01482
Y0147
Y01457
Y01444
X00519
Y01457
Y0147
Y01482
X00506
Y0147
Y01457
Y01444
X00493
Y01457
Y0147
Y01482
X0048
Y0147
Y01457
Y01444
T02
X002515Y00184
X002695
X002605Y00193
X002515Y00202
X002605Y00211
X002695Y00202
X002785Y00211
Y00193
X002965
X003055Y00184
X002875
Y00202
X003055
X002965Y00211
X003145
Y00193
X003235Y00184
Y00202
Y0022
Y00238
X003145Y00229
Y00247
X002965
X003055Y00256
X002875
X002695
X002785Y00247
X002605
Y00229
X002515Y00238
Y0022
X002695
X002695Y00238
X002785Y00229
X002875Y00238
X003055
X002965Y00229
X003055Y0022
X002875
X002515Y00256
X003235
X00197Y005415
X00179
X0017Y005505
X00188
Y005685
X00179Y005595
X0017Y005685
X00161Y005595
X00152Y005685
Y005505
X00143Y005415
X00125
X00134Y005505
X00125Y005595
X00134Y005685
X00143Y005595
Y005775
X00134Y005865
X00125Y005955
Y005775
Y006135
X00134Y006045
X00152
X00143Y005955
X00152Y005865
X00161Y005955
X00179
X0017Y005865
Y006045
X00179Y006135
X00161
X00143
X00197
X00188Y006045
Y005865
X00197Y005955
Y005775
Y005595
X00179Y005775
X00161
Y005415
X001555Y012565
X001475Y012655
X001785Y0128225
X002175Y012945
X00293617
X002935Y013125
X00118Y0124575
X00163Y01342
X00177
X00194357Y01342643
T03
X0041425Y0029175
Y0030375
Y0031575
Y0032775
X00375Y00339
Y00351
Y00363
Y00375
X00157Y00365
Y00341
X00158Y00316
Y00292
X00249Y00492
X00244Y00535
Y00571
X00285Y00585
X00284Y00648
Y0066
Y00672
Y00684
Y00695
Y00707
X003535Y008045
X003525Y009115
X000825Y00909
X00082Y007975
X00075Y00718
Y00705
X00012Y00684
Y00672
Y0066
Y00648
X00402Y00959
Y00973
Y00987
Y01001
Y01015
Y01029
Y01043
Y01057
Y01071
Y01085
Y01099
X0039005Y0112945
X00318395Y01138
X00252Y01147
X00242Y01168
X002325Y011845
X002425Y01197
X00255Y01215
X002635Y012505
X002625Y012755
X002275Y012695
Y012495
X002075
Y012695
X001975Y012595
X002175
X002375
X002425Y01322
X001925
X001705Y012475
X001725Y01222
X0018Y0121
X001925Y01197
X002025Y011845
X001875Y011545
X0020725Y01141
X0013136Y0114214
X0010977Y01135
X0011064Y0115464
X00151Y01068
Y01054
Y0104
Y01026
Y01012
Y00998
X00167
Y01012
Y01026
Y0104
Y01054
Y01068
X00183
Y01054
Y0104
Y01026
Y01012
Y00998
X00199
Y01012
Y01026
Y0104
Y01054
Y01068
X00215
Y01054
Y0104
Y01026
Y01012
Y00998
X00231
Y01012
Y01026
Y0104
Y01054
Y01068
X00247
Y01054
Y0104
Y01026
Y01012
Y00998
X00263
Y01012
Y01026
Y0104
Y01054
Y01068
X00279
Y01054
Y0104
Y01026
Y01012
Y00998
X00296Y01081
X0029856Y012495
X00035Y01099
Y01085
Y01071
Y01057
Y01043
Y01029
Y01015
Y01001
Y00987
Y00973
Y00959
X002025Y013345
X002325
X002225Y01347
X00185Y013695
X00183Y0139156
X00375Y01445
Y0146
Y014775
Y014925
X003925
Y014775
X0041
Y014925
Y0146
Y01445
X003925
Y0146
T04
X00291Y013315
Y013675
X00171Y013715
T05
X00078Y014595
Y014945
T06
X00203Y0144
X00245
X00287
Y01495
X00245
X00203
M30
