%FSLAX44Y44*%
%MOMM*%
G71*
G01*
G75*
G04 Layer_Color=255*
%ADD10R,1.2000X0.8000*%
%ADD11C,1.0000*%
%ADD12R,2.0000X3.5000*%
%ADD13R,3.0000X4.0000*%
%ADD14R,4.0000X2.8000*%
%ADD15R,2.8000X4.0000*%
%ADD16R,4.0000X3.0000*%
%ADD17R,0.6000X0.5000*%
%ADD18R,1.6000X1.4000*%
%ADD19R,0.9500X0.9000*%
%ADD20R,2.0000X2.0000*%
%ADD21R,2.0000X3.2000*%
%ADD22R,3.5000X2.0000*%
%ADD23R,0.5000X0.6000*%
%ADD24C,2.0000*%
%ADD25R,1.0000X1.8000*%
%ADD26R,3.0000X0.8000*%
%ADD27R,3.2000X2.0000*%
%ADD28R,2.8000X1.5000*%
%ADD29R,7.7000X1.6000*%
%ADD30R,1.7000X1.6000*%
%ADD31R,1.6000X6.3000*%
%ADD32R,1.8000X0.2900*%
%ADD33R,8.7000X8.7000*%
%ADD34R,1.6000X1.7000*%
%ADD35R,5.1500X3.1500*%
%ADD36R,0.7000X0.2900*%
%ADD37R,0.2900X0.7000*%
%ADD38R,0.8000X1.2000*%
%ADD39R,1.1000X1.2000*%
%ADD40R,0.9000X0.9500*%
%ADD41R,4.5000X4.0000*%
%ADD42R,3.2000X3.0000*%
%ADD43R,4.5000X4.2000*%
%ADD44R,0.5500X1.7000*%
%ADD45R,1.7000X0.5500*%
%ADD46R,4.2000X4.5000*%
%ADD47C,0.2540*%
%ADD48C,4.5720*%
%ADD49C,5.0000*%
%ADD50C,0.2286*%
%ADD51C,0.7620*%
%ADD52C,1.0160*%
%ADD53C,0.2032*%
%ADD54C,0.6350*%
%ADD55R,1.6000X6.7000*%
%ADD56R,12.5000X1.4000*%
%ADD57R,1.7500X7.2000*%
%ADD58R,1.6000X5.6000*%
%ADD59R,12.6000X1.3500*%
%ADD60R,1.8000X7.0750*%
%ADD61R,6.2500X6.2500*%
%ADD62C,0.8100*%
%ADD63C,1.5240*%
%ADD64C,1.8500*%
%ADD65C,8.0000*%
%ADD66C,0.8000*%
%ADD67C,1.2700*%
%ADD68C,0.7112*%
%ADD69C,1.2700*%
D11*
X227540Y59840D02*
D03*
X85540Y1251840D02*
D03*
X227500Y1249500D02*
D03*
Y1269500D02*
D03*
X207500D02*
D03*
Y1249500D02*
D03*
X197500Y1259500D02*
D03*
X217500D02*
D03*
X237500D02*
D03*
D33*
X287500Y220000D02*
D03*
X161000Y577500D02*
D03*
D35*
X217500Y1259500D02*
D03*
D62*
X251500Y238000D02*
D03*
Y256000D02*
D03*
X260500Y229000D02*
D03*
Y247000D02*
D03*
X269500Y238000D02*
D03*
Y256000D02*
D03*
X278500Y229000D02*
D03*
Y247000D02*
D03*
X287500Y238000D02*
D03*
Y256000D02*
D03*
X251500Y184000D02*
D03*
X269500D02*
D03*
X260500Y193000D02*
D03*
X278500D02*
D03*
X251500Y202000D02*
D03*
X269500D02*
D03*
X260500Y211000D02*
D03*
X278500D02*
D03*
X251500Y220000D02*
D03*
X269500D02*
D03*
X305500Y184000D02*
D03*
X323500D02*
D03*
X296500Y193000D02*
D03*
X314500D02*
D03*
X305500Y202000D02*
D03*
X323500D02*
D03*
X296500Y211000D02*
D03*
X314500D02*
D03*
X305500Y256000D02*
D03*
X323500D02*
D03*
X296500Y247000D02*
D03*
X314500D02*
D03*
X305500Y238000D02*
D03*
X323500D02*
D03*
X296500Y229000D02*
D03*
X314500D02*
D03*
X287500Y184000D02*
D03*
X323500Y220000D02*
D03*
X287500Y202000D02*
D03*
X305500Y220000D02*
D03*
X287500D02*
D03*
X125000Y595500D02*
D03*
Y613500D02*
D03*
X134000Y586500D02*
D03*
Y604500D02*
D03*
X143000Y595500D02*
D03*
Y613500D02*
D03*
X152000Y586500D02*
D03*
Y604500D02*
D03*
X161000Y595500D02*
D03*
Y613500D02*
D03*
X125000Y541500D02*
D03*
X143000D02*
D03*
X134000Y550500D02*
D03*
X152000D02*
D03*
X125000Y559500D02*
D03*
X143000D02*
D03*
X134000Y568500D02*
D03*
X152000D02*
D03*
X125000Y577500D02*
D03*
X143000D02*
D03*
X179000Y541500D02*
D03*
X197000D02*
D03*
X170000Y550500D02*
D03*
X188000D02*
D03*
X179000Y559500D02*
D03*
X197000D02*
D03*
X170000Y568500D02*
D03*
X188000D02*
D03*
X179000Y613500D02*
D03*
X197000D02*
D03*
X170000Y604500D02*
D03*
X188000D02*
D03*
X179000Y595500D02*
D03*
X197000D02*
D03*
X170000Y586500D02*
D03*
X188000D02*
D03*
X161000Y541500D02*
D03*
X197000Y577500D02*
D03*
X161000Y559500D02*
D03*
X179000Y577500D02*
D03*
X161000D02*
D03*
D63*
X78000Y1494500D02*
D03*
Y1459500D02*
D03*
D64*
X245000Y1440000D02*
D03*
Y1495000D02*
D03*
X203000Y1440000D02*
D03*
X287000Y1495000D02*
D03*
Y1440000D02*
D03*
X203000Y1495000D02*
D03*
D65*
X354000Y55000D02*
D03*
X69000D02*
D03*
Y324000D02*
D03*
X354000Y1353000D02*
D03*
M02*
