%FSLAX44Y44*%
%MOMM*%
G71*
G01*
G75*
G04 Layer_Physical_Order=4*
G04 Layer_Color=16711680*
%ADD10R,1.2000X0.8000*%
%ADD11C,1.0000*%
%ADD12R,2.0000X3.5000*%
%ADD13R,3.0000X4.0000*%
%ADD14R,4.0000X2.8000*%
%ADD15R,2.8000X4.0000*%
%ADD16R,4.0000X3.0000*%
%ADD17R,0.6000X0.5000*%
%ADD18R,1.6000X1.4000*%
%ADD19R,0.9500X0.9000*%
%ADD20R,2.0000X2.0000*%
%ADD21R,2.0000X3.2000*%
%ADD22R,3.5000X2.0000*%
%ADD23R,0.5000X0.6000*%
%ADD24C,2.0000*%
%ADD25R,1.0000X1.8000*%
%ADD26R,3.0000X0.8000*%
%ADD27R,3.2000X2.0000*%
%ADD28R,2.8000X1.5000*%
%ADD29R,7.7000X1.6000*%
%ADD30R,1.7000X1.6000*%
%ADD31R,1.6000X6.3000*%
%ADD32R,1.8000X0.2900*%
%ADD33R,8.7000X8.7000*%
%ADD34R,1.6000X1.7000*%
%ADD35R,5.1500X3.1500*%
%ADD36R,0.7000X0.2900*%
%ADD37R,0.2900X0.7000*%
%ADD38R,0.8000X1.2000*%
%ADD39R,1.1000X1.2000*%
%ADD40R,0.9000X0.9500*%
%ADD41R,4.5000X4.0000*%
%ADD42R,3.2000X3.0000*%
%ADD43R,4.5000X4.2000*%
%ADD44R,0.5500X1.7000*%
%ADD45R,1.7000X0.5500*%
%ADD46R,4.2000X4.5000*%
%ADD47C,0.2540*%
%ADD48C,4.5720*%
%ADD49C,5.0000*%
%ADD50C,0.2286*%
%ADD51C,0.7620*%
%ADD52C,1.0160*%
%ADD53C,0.2032*%
%ADD54C,0.6350*%
%ADD55R,1.6000X6.7000*%
%ADD56R,12.5000X1.4000*%
%ADD57R,1.7500X7.2000*%
%ADD58R,1.6000X5.6000*%
%ADD59R,12.6000X1.3500*%
%ADD60R,1.8000X7.0750*%
%ADD61R,6.2500X6.2500*%
%ADD62C,0.8100*%
%ADD63C,1.5240*%
%ADD64C,1.8500*%
%ADD65C,8.0000*%
%ADD66C,0.8000*%
%ADD67C,1.2700*%
%ADD68C,0.7112*%
%ADD69C,1.2700*%
G36*
X573000Y1530000D02*
X573000Y1530000D01*
X574000Y1529586D01*
Y5000D01*
X-134000D01*
X-134999Y1528373D01*
X-133373Y1530000D01*
X573000D01*
X573000Y1530000D01*
D02*
G37*
%LPC*%
G36*
X96000Y517118D02*
X93659Y516652D01*
X91674Y515326D01*
X90348Y513341D01*
X89882Y511000D01*
X90348Y508659D01*
X91674Y506674D01*
X93659Y505348D01*
X96000Y504883D01*
X98341Y505348D01*
X100326Y506674D01*
X101652Y508659D01*
X102118Y511000D01*
X101652Y513341D01*
X100326Y515326D01*
X98341Y516652D01*
X96000Y517118D01*
D02*
G37*
G36*
X6000Y304118D02*
X3659Y303652D01*
X1674Y302326D01*
X348Y300341D01*
X-118Y298000D01*
X348Y295659D01*
X1674Y293674D01*
X3659Y292348D01*
X6000Y291882D01*
X8341Y292348D01*
X10326Y293674D01*
X11652Y295659D01*
X12118Y298000D01*
X11652Y300341D01*
X10326Y302326D01*
X8341Y303652D01*
X6000Y304118D01*
D02*
G37*
G36*
X-31000D02*
X-33341Y303652D01*
X-35326Y302326D01*
X-36652Y300341D01*
X-37118Y298000D01*
X-36652Y295659D01*
X-35326Y293674D01*
X-33341Y292348D01*
X-31000Y291882D01*
X-28659Y292348D01*
X-26674Y293674D01*
X-25348Y295659D01*
X-24882Y298000D01*
X-25348Y300341D01*
X-26674Y302326D01*
X-28659Y303652D01*
X-31000Y304118D01*
D02*
G37*
G36*
X153000Y517118D02*
X150659Y516652D01*
X148674Y515326D01*
X147348Y513341D01*
X146882Y511000D01*
X147348Y508659D01*
X148674Y506674D01*
X150659Y505348D01*
X153000Y504883D01*
X155341Y505348D01*
X157326Y506674D01*
X158652Y508659D01*
X159117Y511000D01*
X158652Y513341D01*
X157326Y515326D01*
X155341Y516652D01*
X153000Y517118D01*
D02*
G37*
G36*
X135000D02*
X132659Y516652D01*
X130674Y515326D01*
X129348Y513341D01*
X128883Y511000D01*
X129348Y508659D01*
X130674Y506674D01*
X132659Y505348D01*
X135000Y504883D01*
X137341Y505348D01*
X139326Y506674D01*
X140652Y508659D01*
X141117Y511000D01*
X140652Y513341D01*
X139326Y515326D01*
X137341Y516652D01*
X135000Y517118D01*
D02*
G37*
G36*
X115000D02*
X112659Y516652D01*
X110674Y515326D01*
X109348Y513341D01*
X108883Y511000D01*
X109348Y508659D01*
X110674Y506674D01*
X112659Y505348D01*
X115000Y504883D01*
X117341Y505348D01*
X119326Y506674D01*
X120652Y508659D01*
X121117Y511000D01*
X120652Y513341D01*
X119326Y515326D01*
X117341Y516652D01*
X115000Y517118D01*
D02*
G37*
G36*
X375502Y273617D02*
X373161Y273152D01*
X371177Y271826D01*
X369851Y269841D01*
X369385Y267500D01*
X369851Y265159D01*
X371177Y263174D01*
X373161Y261848D01*
X375502Y261382D01*
X377844Y261848D01*
X379828Y263174D01*
X381154Y265159D01*
X381620Y267500D01*
X381154Y269841D01*
X379828Y271826D01*
X377844Y273152D01*
X375502Y273617D01*
D02*
G37*
G36*
X388000Y259118D02*
X385659Y258652D01*
X383674Y257326D01*
X382348Y255341D01*
X381883Y253000D01*
X382348Y250659D01*
X383674Y248674D01*
X385659Y247348D01*
X388000Y246882D01*
X390341Y247348D01*
X392326Y248674D01*
X393652Y250659D01*
X394118Y253000D01*
X393652Y255341D01*
X392326Y257326D01*
X390341Y258652D01*
X388000Y259118D01*
D02*
G37*
G36*
X548000Y256117D02*
X545659Y255652D01*
X543674Y254326D01*
X542348Y252341D01*
X541883Y250000D01*
X542348Y247659D01*
X543674Y245674D01*
X545659Y244348D01*
X548000Y243883D01*
X550341Y244348D01*
X552326Y245674D01*
X553652Y247659D01*
X554118Y250000D01*
X553652Y252341D01*
X552326Y254326D01*
X550341Y255652D01*
X548000Y256117D01*
D02*
G37*
G36*
X470000Y303118D02*
X467659Y302652D01*
X465674Y301326D01*
X464348Y299341D01*
X463882Y297000D01*
X464348Y294659D01*
X465674Y292674D01*
X467659Y291348D01*
X470000Y290882D01*
X472341Y291348D01*
X474326Y292674D01*
X475652Y294659D01*
X476118Y297000D01*
X475652Y299341D01*
X474326Y301326D01*
X472341Y302652D01*
X470000Y303118D01*
D02*
G37*
G36*
X155000Y276117D02*
X152659Y275652D01*
X150674Y274326D01*
X149348Y272341D01*
X148883Y270000D01*
X149348Y267659D01*
X150674Y265674D01*
X152659Y264348D01*
X155000Y263883D01*
X157341Y264348D01*
X159326Y265674D01*
X160652Y267659D01*
X161117Y270000D01*
X160652Y272341D01*
X159326Y274326D01*
X157341Y275652D01*
X155000Y276117D01*
D02*
G37*
G36*
X195000Y275117D02*
X192659Y274652D01*
X190674Y273326D01*
X189348Y271341D01*
X188883Y269000D01*
X189348Y266659D01*
X190674Y264674D01*
X192659Y263348D01*
X195000Y262882D01*
X197341Y263348D01*
X199326Y264674D01*
X200652Y266659D01*
X201117Y269000D01*
X200652Y271341D01*
X199326Y273326D01*
X197341Y274652D01*
X195000Y275117D01*
D02*
G37*
G36*
X95000Y565117D02*
X92659Y564652D01*
X90674Y563326D01*
X89348Y561341D01*
X88882Y559000D01*
X89348Y556659D01*
X90674Y554674D01*
X92659Y553348D01*
X95000Y552882D01*
X97341Y553348D01*
X99326Y554674D01*
X100652Y556659D01*
X101117Y559000D01*
X100652Y561341D01*
X99326Y563326D01*
X97341Y564652D01*
X95000Y565117D01*
D02*
G37*
G36*
Y550117D02*
X92659Y549652D01*
X90674Y548326D01*
X89348Y546341D01*
X88882Y544000D01*
X89348Y541659D01*
X90674Y539674D01*
X92659Y538348D01*
X95000Y537882D01*
X97341Y538348D01*
X99326Y539674D01*
X100652Y541659D01*
X101117Y544000D01*
X100652Y546341D01*
X99326Y548326D01*
X97341Y549652D01*
X95000Y550117D01*
D02*
G37*
G36*
X225000Y548117D02*
X222659Y547652D01*
X220674Y546326D01*
X219348Y544341D01*
X218883Y542000D01*
X219348Y539659D01*
X220674Y537674D01*
X222659Y536348D01*
X225000Y535882D01*
X227341Y536348D01*
X229326Y537674D01*
X230652Y539659D01*
X231117Y542000D01*
X230652Y544341D01*
X229326Y546326D01*
X227341Y547652D01*
X225000Y548117D01*
D02*
G37*
G36*
X32000Y626118D02*
X29659Y625652D01*
X27674Y624326D01*
X26348Y622341D01*
X25882Y620000D01*
X26348Y617659D01*
X27674Y615674D01*
X29659Y614348D01*
X32000Y613882D01*
X34341Y614348D01*
X36326Y615674D01*
X37652Y617659D01*
X38118Y620000D01*
X37652Y622341D01*
X36326Y624326D01*
X34341Y625652D01*
X32000Y626118D01*
D02*
G37*
G36*
X285000Y592060D02*
X283173Y591820D01*
X281470Y591115D01*
X280007Y589992D01*
X278885Y588530D01*
X278180Y586827D01*
X277940Y585000D01*
X278180Y583173D01*
X278885Y581470D01*
X280007Y580008D01*
X281470Y578885D01*
X283173Y578180D01*
X285000Y577940D01*
X286827Y578180D01*
X288530Y578885D01*
X289992Y580008D01*
X291115Y581470D01*
X291820Y583173D01*
X292060Y585000D01*
X291820Y586827D01*
X291115Y588530D01*
X289992Y589992D01*
X288530Y591115D01*
X286827Y591820D01*
X285000Y592060D01*
D02*
G37*
G36*
X225000Y565117D02*
X222659Y564652D01*
X220674Y563326D01*
X219348Y561341D01*
X218883Y559000D01*
X219348Y556659D01*
X220674Y554674D01*
X222659Y553348D01*
X225000Y552882D01*
X227341Y553348D01*
X229326Y554674D01*
X230652Y556659D01*
X231117Y559000D01*
X230652Y561341D01*
X229326Y563326D01*
X227341Y564652D01*
X225000Y565117D01*
D02*
G37*
G36*
X170760Y517118D02*
X168419Y516652D01*
X166434Y515326D01*
X165108Y513341D01*
X164642Y511000D01*
X165108Y508659D01*
X166434Y506674D01*
X168419Y505348D01*
X170760Y504883D01*
X173101Y505348D01*
X175086Y506674D01*
X176412Y508659D01*
X176877Y511000D01*
X176412Y513341D01*
X175086Y515326D01*
X173101Y516652D01*
X170760Y517118D01*
D02*
G37*
G36*
X224000Y517118D02*
X221659Y516652D01*
X219674Y515326D01*
X218348Y513341D01*
X217882Y511000D01*
X218348Y508659D01*
X219674Y506674D01*
X221659Y505348D01*
X224000Y504883D01*
X226341Y505348D01*
X228326Y506674D01*
X229652Y508659D01*
X230117Y511000D01*
X229652Y513341D01*
X228326Y515326D01*
X226341Y516652D01*
X224000Y517118D01*
D02*
G37*
G36*
X207000D02*
X204659Y516652D01*
X202674Y515326D01*
X201348Y513341D01*
X200882Y511000D01*
X201348Y508659D01*
X202674Y506674D01*
X204659Y505348D01*
X207000Y504883D01*
X209341Y505348D01*
X211326Y506674D01*
X212652Y508659D01*
X213118Y511000D01*
X212652Y513341D01*
X211326Y515326D01*
X209341Y516652D01*
X207000Y517118D01*
D02*
G37*
G36*
X225000Y533117D02*
X222659Y532652D01*
X220674Y531326D01*
X219348Y529341D01*
X218883Y527000D01*
X219348Y524659D01*
X220674Y522674D01*
X222659Y521348D01*
X225000Y520882D01*
X227341Y521348D01*
X229326Y522674D01*
X230652Y524659D01*
X231117Y527000D01*
X230652Y529341D01*
X229326Y531326D01*
X227341Y532652D01*
X225000Y533117D01*
D02*
G37*
G36*
X95000Y532118D02*
X92659Y531652D01*
X90674Y530326D01*
X89348Y528341D01*
X88882Y526000D01*
X89348Y523659D01*
X90674Y521674D01*
X92659Y520348D01*
X95000Y519883D01*
X97341Y520348D01*
X99326Y521674D01*
X100652Y523659D01*
X101117Y526000D01*
X100652Y528341D01*
X99326Y530326D01*
X97341Y531652D01*
X95000Y532118D01*
D02*
G37*
G36*
X188760Y517118D02*
X186419Y516652D01*
X184434Y515326D01*
X183108Y513341D01*
X182642Y511000D01*
X183108Y508659D01*
X184434Y506674D01*
X186419Y505348D01*
X188760Y504883D01*
X191101Y505348D01*
X193086Y506674D01*
X194412Y508659D01*
X194877Y511000D01*
X194412Y513341D01*
X193086Y515326D01*
X191101Y516652D01*
X188760Y517118D01*
D02*
G37*
G36*
X-73000Y255117D02*
X-75341Y254652D01*
X-77326Y253326D01*
X-78652Y251341D01*
X-79117Y249000D01*
X-78652Y246659D01*
X-77326Y244674D01*
X-75341Y243348D01*
X-73000Y242882D01*
X-70659Y243348D01*
X-68674Y244674D01*
X-67348Y246659D01*
X-66883Y249000D01*
X-67348Y251341D01*
X-68674Y253326D01*
X-70659Y254652D01*
X-73000Y255117D01*
D02*
G37*
G36*
X333500Y159618D02*
X331159Y159152D01*
X329174Y157826D01*
X327848Y155841D01*
X327382Y153500D01*
X327848Y151159D01*
X329174Y149174D01*
X331159Y147848D01*
X333500Y147382D01*
X335841Y147848D01*
X337826Y149174D01*
X339152Y151159D01*
X339618Y153500D01*
X339152Y155841D01*
X337826Y157826D01*
X335841Y159152D01*
X333500Y159618D01*
D02*
G37*
G36*
X279500D02*
X277159Y159152D01*
X275174Y157826D01*
X273848Y155841D01*
X273382Y153500D01*
X273848Y151159D01*
X275174Y149174D01*
X277159Y147848D01*
X279500Y147382D01*
X281841Y147848D01*
X283826Y149174D01*
X285152Y151159D01*
X285618Y153500D01*
X285152Y155841D01*
X283826Y157826D01*
X281841Y159152D01*
X279500Y159618D01*
D02*
G37*
G36*
X261500D02*
X259159Y159152D01*
X257174Y157826D01*
X255848Y155841D01*
X255382Y153500D01*
X255848Y151159D01*
X257174Y149174D01*
X259159Y147848D01*
X261500Y147382D01*
X263841Y147848D01*
X265826Y149174D01*
X267152Y151159D01*
X267617Y153500D01*
X267152Y155841D01*
X265826Y157826D01*
X263841Y159152D01*
X261500Y159618D01*
D02*
G37*
G36*
X315260Y159618D02*
X312919Y159152D01*
X310934Y157826D01*
X309608Y155841D01*
X309142Y153500D01*
X309608Y151159D01*
X310934Y149174D01*
X312919Y147848D01*
X315260Y147382D01*
X317601Y147848D01*
X319586Y149174D01*
X320912Y151159D01*
X321377Y153500D01*
X320912Y155841D01*
X319586Y157826D01*
X317601Y159152D01*
X315260Y159618D01*
D02*
G37*
G36*
X297260D02*
X294919Y159152D01*
X292934Y157826D01*
X291608Y155841D01*
X291142Y153500D01*
X291608Y151159D01*
X292934Y149174D01*
X294919Y147848D01*
X297260Y147382D01*
X299601Y147848D01*
X301586Y149174D01*
X302912Y151159D01*
X303377Y153500D01*
X302912Y155841D01*
X301586Y157826D01*
X299601Y159152D01*
X297260Y159618D01*
D02*
G37*
G36*
X350500Y159618D02*
X348159Y159152D01*
X346174Y157826D01*
X344848Y155841D01*
X344382Y153500D01*
X344848Y151159D01*
X346174Y149174D01*
X348159Y147848D01*
X350500Y147382D01*
X352841Y147848D01*
X354826Y149174D01*
X356152Y151159D01*
X356618Y153500D01*
X356152Y155841D01*
X354826Y157826D01*
X352841Y159152D01*
X350500Y159618D01*
D02*
G37*
G36*
X153000Y102118D02*
X150659Y101652D01*
X148674Y100326D01*
X147348Y98341D01*
X146882Y96000D01*
X147348Y93659D01*
X148674Y91674D01*
X150659Y90348D01*
X153000Y89882D01*
X155341Y90348D01*
X157326Y91674D01*
X158652Y93659D01*
X159117Y96000D01*
X158652Y98341D01*
X157326Y100326D01*
X155341Y101652D01*
X153000Y102118D01*
D02*
G37*
G36*
X126000Y77118D02*
X123659Y76652D01*
X121674Y75326D01*
X120348Y73341D01*
X119882Y71000D01*
X120348Y68659D01*
X121674Y66674D01*
X123659Y65348D01*
X126000Y64882D01*
X128341Y65348D01*
X130326Y66674D01*
X131652Y68659D01*
X132118Y71000D01*
X131652Y73341D01*
X130326Y75326D01*
X128341Y76652D01*
X126000Y77118D01*
D02*
G37*
G36*
X227540Y66900D02*
X225713Y66660D01*
X224010Y65954D01*
X222548Y64833D01*
X221425Y63370D01*
X220720Y61667D01*
X220480Y59840D01*
X220720Y58013D01*
X221425Y56310D01*
X222548Y54848D01*
X224010Y53726D01*
X225713Y53020D01*
X227540Y52780D01*
X229367Y53020D01*
X231070Y53726D01*
X232533Y54848D01*
X233654Y56310D01*
X234360Y58013D01*
X234600Y59840D01*
X234360Y61667D01*
X233654Y63370D01*
X232533Y64833D01*
X231070Y65954D01*
X229367Y66660D01*
X227540Y66900D01*
D02*
G37*
G36*
X241500Y159618D02*
X239159Y159152D01*
X237174Y157826D01*
X235848Y155841D01*
X235382Y153500D01*
X235848Y151159D01*
X237174Y149174D01*
X239159Y147848D01*
X241500Y147382D01*
X243841Y147848D01*
X245826Y149174D01*
X247152Y151159D01*
X247617Y153500D01*
X247152Y155841D01*
X245826Y157826D01*
X243841Y159152D01*
X241500Y159618D01*
D02*
G37*
G36*
X222500D02*
X220159Y159152D01*
X218174Y157826D01*
X216848Y155841D01*
X216382Y153500D01*
X216848Y151159D01*
X218174Y149174D01*
X220159Y147848D01*
X222500Y147382D01*
X224841Y147848D01*
X226826Y149174D01*
X228152Y151159D01*
X228617Y153500D01*
X228152Y155841D01*
X226826Y157826D01*
X224841Y159152D01*
X222500Y159618D01*
D02*
G37*
G36*
X214000Y120118D02*
X211659Y119652D01*
X209674Y118326D01*
X208348Y116341D01*
X207882Y114000D01*
X208348Y111659D01*
X209674Y109674D01*
X210459Y109150D01*
Y106850D01*
X209674Y106326D01*
X208348Y104341D01*
X207882Y102000D01*
X208348Y99659D01*
X209674Y97674D01*
X211659Y96348D01*
X214000Y95883D01*
X216341Y96348D01*
X218326Y97674D01*
X219652Y99659D01*
X220117Y102000D01*
X219652Y104341D01*
X218326Y106326D01*
X217541Y106850D01*
Y109150D01*
X218326Y109674D01*
X219652Y111659D01*
X220117Y114000D01*
X219652Y116341D01*
X218326Y118326D01*
X216341Y119652D01*
X214000Y120118D01*
D02*
G37*
G36*
X221500Y207617D02*
X219159Y207152D01*
X217174Y205826D01*
X215848Y203841D01*
X215382Y201500D01*
X215848Y199159D01*
X217174Y197174D01*
X219159Y195848D01*
X221500Y195382D01*
X223841Y195848D01*
X225826Y197174D01*
X227152Y199159D01*
X227617Y201500D01*
X227152Y203841D01*
X225826Y205826D01*
X223841Y207152D01*
X221500Y207617D01*
D02*
G37*
G36*
X486000Y207118D02*
X483659Y206652D01*
X481674Y205326D01*
X480348Y203341D01*
X479883Y201000D01*
X480348Y198659D01*
X481674Y196674D01*
X483659Y195348D01*
X486000Y194883D01*
X488341Y195348D01*
X490326Y196674D01*
X491652Y198659D01*
X492118Y201000D01*
X491652Y203341D01*
X490326Y205326D01*
X488341Y206652D01*
X486000Y207118D01*
D02*
G37*
G36*
X548000Y206117D02*
X545659Y205652D01*
X543674Y204326D01*
X542348Y202341D01*
X541883Y200000D01*
X542348Y197659D01*
X543674Y195674D01*
X545659Y194348D01*
X548000Y193883D01*
X550341Y194348D01*
X552326Y195674D01*
X553652Y197659D01*
X554118Y200000D01*
X553652Y202341D01*
X552326Y204326D01*
X550341Y205652D01*
X548000Y206117D01*
D02*
G37*
G36*
Y231117D02*
X545659Y230652D01*
X543674Y229326D01*
X542348Y227341D01*
X541883Y225000D01*
X542348Y222659D01*
X543674Y220674D01*
X545659Y219348D01*
X548000Y218883D01*
X550341Y219348D01*
X552326Y220674D01*
X553652Y222659D01*
X554118Y225000D01*
X553652Y227341D01*
X552326Y229326D01*
X550341Y230652D01*
X548000Y231117D01*
D02*
G37*
G36*
X-73000Y230117D02*
X-75341Y229652D01*
X-77326Y228326D01*
X-78652Y226341D01*
X-79117Y224000D01*
X-78652Y221659D01*
X-77326Y219674D01*
X-75341Y218348D01*
X-73000Y217882D01*
X-70659Y218348D01*
X-68674Y219674D01*
X-67348Y221659D01*
X-66883Y224000D01*
X-67348Y226341D01*
X-68674Y228326D01*
X-70659Y229652D01*
X-73000Y230117D01*
D02*
G37*
G36*
X351500Y207617D02*
X349159Y207152D01*
X347174Y205826D01*
X345848Y203841D01*
X345382Y201500D01*
X345848Y199159D01*
X347174Y197174D01*
X349159Y195848D01*
X351500Y195382D01*
X353841Y195848D01*
X355826Y197174D01*
X357152Y199159D01*
X357617Y201500D01*
X357152Y203841D01*
X355826Y205826D01*
X353841Y207152D01*
X351500Y207617D01*
D02*
G37*
G36*
Y190618D02*
X349159Y190152D01*
X347174Y188826D01*
X345848Y186841D01*
X345382Y184500D01*
X345848Y182159D01*
X347174Y180174D01*
X349159Y178848D01*
X351500Y178382D01*
X353841Y178848D01*
X355826Y180174D01*
X357152Y182159D01*
X357617Y184500D01*
X357152Y186841D01*
X355826Y188826D01*
X353841Y190152D01*
X351500Y190618D01*
D02*
G37*
G36*
Y175618D02*
X349159Y175152D01*
X347174Y173826D01*
X345848Y171841D01*
X345382Y169500D01*
X345848Y167159D01*
X347174Y165174D01*
X349159Y163848D01*
X351500Y163382D01*
X353841Y163848D01*
X355826Y165174D01*
X357152Y167159D01*
X357617Y169500D01*
X357152Y171841D01*
X355826Y173826D01*
X353841Y175152D01*
X351500Y175618D01*
D02*
G37*
G36*
X221500Y174618D02*
X219159Y174152D01*
X217174Y172826D01*
X215848Y170841D01*
X215382Y168500D01*
X215848Y166159D01*
X217174Y164174D01*
X219159Y162848D01*
X221500Y162383D01*
X223841Y162848D01*
X225826Y164174D01*
X227152Y166159D01*
X227617Y168500D01*
X227152Y170841D01*
X225826Y172826D01*
X223841Y174152D01*
X221500Y174618D01*
D02*
G37*
G36*
X-31000Y205117D02*
X-33341Y204652D01*
X-35326Y203326D01*
X-36652Y201341D01*
X-37118Y199000D01*
X-36652Y196659D01*
X-35326Y194674D01*
X-33341Y193348D01*
X-31000Y192882D01*
X-28659Y193348D01*
X-26674Y194674D01*
X-25348Y196659D01*
X-24882Y199000D01*
X-25348Y201341D01*
X-26674Y203326D01*
X-28659Y204652D01*
X-31000Y205117D01*
D02*
G37*
G36*
X-73000D02*
X-75341Y204652D01*
X-77326Y203326D01*
X-78652Y201341D01*
X-79117Y199000D01*
X-78652Y196659D01*
X-77326Y194674D01*
X-75341Y193348D01*
X-73000Y192882D01*
X-70659Y193348D01*
X-68674Y194674D01*
X-67348Y196659D01*
X-66883Y199000D01*
X-67348Y201341D01*
X-68674Y203326D01*
X-70659Y204652D01*
X-73000Y205117D01*
D02*
G37*
G36*
X221500Y192617D02*
X219159Y192152D01*
X217174Y190826D01*
X215848Y188841D01*
X215382Y186500D01*
X215848Y184159D01*
X217174Y182174D01*
X219159Y180848D01*
X221500Y180382D01*
X223841Y180848D01*
X225826Y182174D01*
X227152Y184159D01*
X227617Y186500D01*
X227152Y188841D01*
X225826Y190826D01*
X223841Y192152D01*
X221500Y192617D01*
D02*
G37*
G36*
X291000Y1339922D02*
X288820Y1339635D01*
X286789Y1338794D01*
X285045Y1337455D01*
X283706Y1335711D01*
X282865Y1333680D01*
X282578Y1331500D01*
X282865Y1329320D01*
X283706Y1327289D01*
X285045Y1325545D01*
X286789Y1324206D01*
X288820Y1323365D01*
X291000Y1323078D01*
X293180Y1323365D01*
X295211Y1324206D01*
X296955Y1325545D01*
X298294Y1327289D01*
X299135Y1329320D01*
X299422Y1331500D01*
X299135Y1333680D01*
X298294Y1335711D01*
X296955Y1337455D01*
X295211Y1338794D01*
X293180Y1339635D01*
X291000Y1339922D01*
D02*
G37*
G36*
X222500Y1354060D02*
X220673Y1353820D01*
X218970Y1353114D01*
X217507Y1351992D01*
X216385Y1350530D01*
X215680Y1348827D01*
X215440Y1347000D01*
X215680Y1345173D01*
X216385Y1343470D01*
X217507Y1342007D01*
X218970Y1340885D01*
X220673Y1340180D01*
X222500Y1339940D01*
X224327Y1340180D01*
X225658Y1340731D01*
X227058Y1338907D01*
X226385Y1338030D01*
X225680Y1336327D01*
X225440Y1334500D01*
X225680Y1332673D01*
X226385Y1330970D01*
X227507Y1329507D01*
X228970Y1328385D01*
X230673Y1327680D01*
X232500Y1327440D01*
X234327Y1327680D01*
X235658Y1328231D01*
X237058Y1326407D01*
X236385Y1325530D01*
X235680Y1323827D01*
X235440Y1322000D01*
X235680Y1320173D01*
X236385Y1318470D01*
X237508Y1317007D01*
X238970Y1315885D01*
X240673Y1315180D01*
X242500Y1314940D01*
X244327Y1315180D01*
X246030Y1315885D01*
X247492Y1317007D01*
X248615Y1318470D01*
X249320Y1320173D01*
X249560Y1322000D01*
X249320Y1323827D01*
X248615Y1325530D01*
X247492Y1326992D01*
X246030Y1328114D01*
X244327Y1328820D01*
X242500Y1329060D01*
X240673Y1328820D01*
X239342Y1328269D01*
X237942Y1330093D01*
X238615Y1330970D01*
X239320Y1332673D01*
X239560Y1334500D01*
X239320Y1336327D01*
X238615Y1338030D01*
X237492Y1339492D01*
X236030Y1340614D01*
X234327Y1341320D01*
X232500Y1341560D01*
X230673Y1341320D01*
X229342Y1340769D01*
X227942Y1342593D01*
X228615Y1343470D01*
X229320Y1345173D01*
X229560Y1347000D01*
X229320Y1348827D01*
X228615Y1350530D01*
X227492Y1351992D01*
X226030Y1353114D01*
X224327Y1353820D01*
X222500Y1354060D01*
D02*
G37*
G36*
X293500Y1318618D02*
X291159Y1318152D01*
X289174Y1316826D01*
X287848Y1314841D01*
X287383Y1312500D01*
X287848Y1310159D01*
X289174Y1308174D01*
X291159Y1306848D01*
X293500Y1306382D01*
X295841Y1306848D01*
X297826Y1308174D01*
X299152Y1310159D01*
X299618Y1312500D01*
X299152Y1314841D01*
X297826Y1316826D01*
X295841Y1318152D01*
X293500Y1318618D01*
D02*
G37*
G36*
X291000Y1375922D02*
X288820Y1375635D01*
X286789Y1374794D01*
X285045Y1373455D01*
X283706Y1371711D01*
X282865Y1369680D01*
X282578Y1367500D01*
X282865Y1365320D01*
X283706Y1363289D01*
X285045Y1361545D01*
X286789Y1360206D01*
X288820Y1359365D01*
X291000Y1359078D01*
X293180Y1359365D01*
X295211Y1360206D01*
X296955Y1361545D01*
X298294Y1363289D01*
X299135Y1365320D01*
X299422Y1367500D01*
X299135Y1369680D01*
X298294Y1371711D01*
X296955Y1373455D01*
X295211Y1374794D01*
X293180Y1375635D01*
X291000Y1375922D01*
D02*
G37*
G36*
X177000Y1348118D02*
X174659Y1347652D01*
X172674Y1346326D01*
X171348Y1344341D01*
X171150Y1343345D01*
X168850D01*
X168652Y1344341D01*
X167326Y1346326D01*
X165341Y1347652D01*
X163000Y1348118D01*
X160659Y1347652D01*
X158674Y1346326D01*
X157348Y1344341D01*
X156882Y1342000D01*
X157348Y1339659D01*
X158674Y1337674D01*
X160659Y1336348D01*
X163000Y1335883D01*
X165341Y1336348D01*
X167326Y1337674D01*
X168652Y1339659D01*
X168850Y1340655D01*
X171150D01*
X171348Y1339659D01*
X172674Y1337674D01*
X174659Y1336348D01*
X177000Y1335883D01*
X179341Y1336348D01*
X181326Y1337674D01*
X182652Y1339659D01*
X183118Y1342000D01*
X182652Y1344341D01*
X181326Y1346326D01*
X179341Y1347652D01*
X177000Y1348118D01*
D02*
G37*
G36*
X194357Y1348761D02*
X192016Y1348295D01*
X190031Y1346969D01*
X188705Y1344984D01*
X188239Y1342643D01*
X188705Y1340302D01*
X190031Y1338317D01*
X192016Y1336991D01*
X194357Y1336525D01*
X194357Y1336525D01*
X194357Y1336525D01*
X195680Y1336327D01*
X195440Y1334500D01*
X195680Y1332673D01*
X196385Y1330970D01*
X197058Y1330093D01*
X195658Y1328269D01*
X194327Y1328820D01*
X192500Y1329060D01*
X190673Y1328820D01*
X188970Y1328114D01*
X187507Y1326992D01*
X186385Y1325530D01*
X185680Y1323827D01*
X185440Y1322000D01*
X185680Y1320173D01*
X186385Y1318470D01*
X187507Y1317007D01*
X188970Y1315885D01*
X190673Y1315180D01*
X192500Y1314940D01*
X194327Y1315180D01*
X196030Y1315885D01*
X197492Y1317007D01*
X198615Y1318470D01*
X199320Y1320173D01*
X199560Y1322000D01*
X199320Y1323827D01*
X198615Y1325530D01*
X197942Y1326407D01*
X199342Y1328231D01*
X200673Y1327680D01*
X202500Y1327440D01*
X204327Y1327680D01*
X206030Y1328385D01*
X207492Y1329507D01*
X208615Y1330970D01*
X209320Y1332673D01*
X209560Y1334500D01*
X209320Y1336327D01*
X208615Y1338030D01*
X207492Y1339492D01*
X206030Y1340614D01*
X204327Y1341320D01*
X202500Y1341560D01*
X200673Y1341320D01*
X200474Y1342643D01*
X200475Y1342643D01*
X200474D01*
X200009Y1344984D01*
X198683Y1346969D01*
X196698Y1348295D01*
X194357Y1348761D01*
D02*
G37*
G36*
X262500Y1282560D02*
X260673Y1282320D01*
X258970Y1281614D01*
X257508Y1280492D01*
X256385Y1279030D01*
X255680Y1277327D01*
X255440Y1275500D01*
X255680Y1273673D01*
X256385Y1271970D01*
X257508Y1270508D01*
X258970Y1269386D01*
X260673Y1268680D01*
X262500Y1268440D01*
X264327Y1268680D01*
X266030Y1269386D01*
X267493Y1270508D01*
X268615Y1271970D01*
X269320Y1273673D01*
X269560Y1275500D01*
X269320Y1277327D01*
X268615Y1279030D01*
X267493Y1280492D01*
X266030Y1281614D01*
X264327Y1282320D01*
X262500Y1282560D01*
D02*
G37*
G36*
X85540Y1258900D02*
X83713Y1258660D01*
X82010Y1257954D01*
X80548Y1256833D01*
X79426Y1255370D01*
X78720Y1253667D01*
X78480Y1251840D01*
X78720Y1250013D01*
X79426Y1248310D01*
X80548Y1246848D01*
X82010Y1245726D01*
X83713Y1245020D01*
X85540Y1244780D01*
X87367Y1245020D01*
X89070Y1245726D01*
X90533Y1246848D01*
X91655Y1248310D01*
X92360Y1250013D01*
X92600Y1251840D01*
X92360Y1253667D01*
X91655Y1255370D01*
X90533Y1256833D01*
X89070Y1257954D01*
X87367Y1258660D01*
X85540Y1258900D01*
D02*
G37*
G36*
X263500Y1257560D02*
X261673Y1257320D01*
X259970Y1256614D01*
X258508Y1255492D01*
X257386Y1254030D01*
X256680Y1252327D01*
X256440Y1250500D01*
X256680Y1248673D01*
X257386Y1246970D01*
X258508Y1245508D01*
X259970Y1244386D01*
X261673Y1243680D01*
X263500Y1243440D01*
X265327Y1243680D01*
X267030Y1244386D01*
X268493Y1245508D01*
X269615Y1246970D01*
X270320Y1248673D01*
X270560Y1250500D01*
X270320Y1252327D01*
X269615Y1254030D01*
X268493Y1255492D01*
X267030Y1256614D01*
X265327Y1257320D01*
X263500Y1257560D01*
D02*
G37*
G36*
X293617Y1300618D02*
X291276Y1300152D01*
X289292Y1298826D01*
X287966Y1296841D01*
X287500Y1294500D01*
X287966Y1292159D01*
X289292Y1290174D01*
X291276Y1288848D01*
X293617Y1288382D01*
X295959Y1288848D01*
X297943Y1290174D01*
X299269Y1292159D01*
X299735Y1294500D01*
X299269Y1296841D01*
X297943Y1298826D01*
X295959Y1300152D01*
X293617Y1300618D01*
D02*
G37*
G36*
X217500D02*
X215159Y1300152D01*
X213174Y1298826D01*
X211848Y1296841D01*
X211383Y1294500D01*
X211848Y1292159D01*
X213174Y1290174D01*
X215159Y1288848D01*
X217500Y1288382D01*
X219841Y1288848D01*
X221826Y1290174D01*
X223152Y1292159D01*
X223617Y1294500D01*
X223152Y1296841D01*
X221826Y1298826D01*
X219841Y1300152D01*
X217500Y1300618D01*
D02*
G37*
G36*
X178500Y1288367D02*
X176159Y1287902D01*
X174174Y1286576D01*
X172848Y1284591D01*
X172383Y1282250D01*
X172848Y1279909D01*
X174174Y1277924D01*
X176159Y1276598D01*
X178500Y1276132D01*
X180841Y1276598D01*
X182826Y1277924D01*
X184152Y1279909D01*
X184618Y1282250D01*
X184152Y1284591D01*
X182826Y1286576D01*
X180841Y1287902D01*
X178500Y1288367D01*
D02*
G37*
G36*
X78000Y1469203D02*
X75489Y1468872D01*
X73148Y1467903D01*
X71139Y1466361D01*
X69597Y1464352D01*
X68628Y1462011D01*
X68297Y1459500D01*
X68628Y1456989D01*
X69597Y1454648D01*
X71139Y1452639D01*
X73148Y1451097D01*
X75489Y1450128D01*
X78000Y1449797D01*
X80511Y1450128D01*
X82851Y1451097D01*
X84861Y1452639D01*
X86403Y1454648D01*
X87372Y1456989D01*
X87703Y1459500D01*
X87372Y1462011D01*
X86403Y1464352D01*
X84861Y1466361D01*
X82851Y1467903D01*
X80511Y1468872D01*
X78000Y1469203D01*
D02*
G37*
G36*
X410000Y1467060D02*
X408173Y1466820D01*
X406470Y1466115D01*
X405008Y1464992D01*
X403886Y1463530D01*
X403180Y1461827D01*
X402940Y1460000D01*
X403180Y1458173D01*
X403886Y1456470D01*
X405008Y1455008D01*
X406470Y1453885D01*
X407038Y1453650D01*
Y1451350D01*
X406470Y1451115D01*
X405008Y1449993D01*
X403886Y1448530D01*
X403180Y1446827D01*
X402940Y1445000D01*
X403180Y1443173D01*
X403886Y1441470D01*
X405008Y1440008D01*
X406470Y1438885D01*
X408173Y1438180D01*
X410000Y1437940D01*
X411827Y1438180D01*
X413530Y1438885D01*
X414992Y1440008D01*
X416115Y1441470D01*
X416820Y1443173D01*
X417060Y1445000D01*
X416820Y1446827D01*
X416115Y1448530D01*
X414992Y1449993D01*
X413530Y1451115D01*
X412962Y1451350D01*
Y1453650D01*
X413530Y1453885D01*
X414992Y1455008D01*
X416115Y1456470D01*
X416820Y1458173D01*
X417060Y1460000D01*
X416820Y1461827D01*
X416115Y1463530D01*
X414992Y1464992D01*
X413530Y1466115D01*
X411827Y1466820D01*
X410000Y1467060D01*
D02*
G37*
G36*
X392500D02*
X390673Y1466820D01*
X388970Y1466115D01*
X387508Y1464992D01*
X386386Y1463530D01*
X385680Y1461827D01*
X385440Y1460000D01*
X385680Y1458173D01*
X386386Y1456470D01*
X387508Y1455008D01*
X388970Y1453885D01*
X389538Y1453650D01*
Y1451350D01*
X388970Y1451115D01*
X387508Y1449993D01*
X386386Y1448530D01*
X385680Y1446827D01*
X385440Y1445000D01*
X385680Y1443173D01*
X386386Y1441470D01*
X387508Y1440008D01*
X388970Y1438885D01*
X390673Y1438180D01*
X392500Y1437940D01*
X394327Y1438180D01*
X396030Y1438885D01*
X397492Y1440008D01*
X398615Y1441470D01*
X399320Y1443173D01*
X399560Y1445000D01*
X399320Y1446827D01*
X398615Y1448530D01*
X397492Y1449993D01*
X396030Y1451115D01*
X395462Y1451350D01*
Y1453650D01*
X396030Y1453885D01*
X397492Y1455008D01*
X398615Y1456470D01*
X399320Y1458173D01*
X399560Y1460000D01*
X399320Y1461827D01*
X398615Y1463530D01*
X397492Y1464992D01*
X396030Y1466115D01*
X394327Y1466820D01*
X392500Y1467060D01*
D02*
G37*
G36*
X410000Y1499560D02*
X408173Y1499320D01*
X406470Y1498615D01*
X405008Y1497493D01*
X403886Y1496030D01*
X403180Y1494327D01*
X402940Y1492500D01*
X403180Y1490673D01*
X403886Y1488970D01*
X405008Y1487508D01*
X406470Y1486385D01*
X407038Y1486150D01*
Y1483850D01*
X406470Y1483615D01*
X405008Y1482493D01*
X403886Y1481030D01*
X403180Y1479327D01*
X402940Y1477500D01*
X403180Y1475673D01*
X403886Y1473970D01*
X405008Y1472508D01*
X406470Y1471386D01*
X408173Y1470680D01*
X410000Y1470440D01*
X411827Y1470680D01*
X413530Y1471386D01*
X414992Y1472508D01*
X416115Y1473970D01*
X416820Y1475673D01*
X417060Y1477500D01*
X416820Y1479327D01*
X416115Y1481030D01*
X414992Y1482493D01*
X413530Y1483615D01*
X412962Y1483850D01*
Y1486150D01*
X413530Y1486385D01*
X414992Y1487508D01*
X416115Y1488970D01*
X416820Y1490673D01*
X417060Y1492500D01*
X416820Y1494327D01*
X416115Y1496030D01*
X414992Y1497493D01*
X413530Y1498615D01*
X411827Y1499320D01*
X410000Y1499560D01*
D02*
G37*
G36*
X392500D02*
X390673Y1499320D01*
X388970Y1498615D01*
X387508Y1497493D01*
X386386Y1496030D01*
X385680Y1494327D01*
X385440Y1492500D01*
X385680Y1490673D01*
X386386Y1488970D01*
X387508Y1487508D01*
X388970Y1486385D01*
X389538Y1486150D01*
Y1483850D01*
X388970Y1483615D01*
X387508Y1482493D01*
X386386Y1481030D01*
X385680Y1479327D01*
X385440Y1477500D01*
X385680Y1475673D01*
X386386Y1473970D01*
X387508Y1472508D01*
X388970Y1471386D01*
X390673Y1470680D01*
X392500Y1470440D01*
X394327Y1470680D01*
X396030Y1471386D01*
X397492Y1472508D01*
X398615Y1473970D01*
X399320Y1475673D01*
X399560Y1477500D01*
X399320Y1479327D01*
X398615Y1481030D01*
X397492Y1482493D01*
X396030Y1483615D01*
X395462Y1483850D01*
Y1486150D01*
X396030Y1486385D01*
X397492Y1487508D01*
X398615Y1488970D01*
X399320Y1490673D01*
X399560Y1492500D01*
X399320Y1494327D01*
X398615Y1496030D01*
X397492Y1497493D01*
X396030Y1498615D01*
X394327Y1499320D01*
X392500Y1499560D01*
D02*
G37*
G36*
X375000D02*
X373173Y1499320D01*
X371470Y1498615D01*
X370008Y1497493D01*
X368886Y1496030D01*
X368180Y1494327D01*
X367940Y1492500D01*
X368180Y1490673D01*
X368886Y1488970D01*
X370008Y1487508D01*
X371470Y1486385D01*
X372038Y1486150D01*
Y1483850D01*
X371470Y1483615D01*
X370008Y1482493D01*
X368886Y1481030D01*
X368180Y1479327D01*
X367940Y1477500D01*
X368180Y1475673D01*
X368886Y1473970D01*
X370008Y1472508D01*
X371470Y1471386D01*
X373173Y1470680D01*
X375000Y1470440D01*
X376827Y1470680D01*
X378530Y1471386D01*
X379992Y1472508D01*
X381115Y1473970D01*
X381820Y1475673D01*
X382060Y1477500D01*
X381820Y1479327D01*
X381115Y1481030D01*
X379992Y1482493D01*
X378530Y1483615D01*
X377962Y1483850D01*
Y1486150D01*
X378530Y1486385D01*
X379992Y1487508D01*
X381115Y1488970D01*
X381820Y1490673D01*
X382060Y1492500D01*
X381820Y1494327D01*
X381115Y1496030D01*
X379992Y1497493D01*
X378530Y1498615D01*
X376827Y1499320D01*
X375000Y1499560D01*
D02*
G37*
G36*
X203000Y1451347D02*
X200063Y1450960D01*
X197327Y1449827D01*
X194976Y1448024D01*
X193173Y1445674D01*
X192040Y1442937D01*
X191653Y1440000D01*
X192040Y1437063D01*
X193173Y1434326D01*
X194976Y1431976D01*
X197327Y1430173D01*
X200063Y1429040D01*
X203000Y1428653D01*
X205937Y1429040D01*
X208674Y1430173D01*
X211024Y1431976D01*
X212827Y1434326D01*
X213960Y1437063D01*
X214347Y1440000D01*
X213960Y1442937D01*
X212827Y1445674D01*
X211024Y1448024D01*
X208674Y1449827D01*
X205937Y1450960D01*
X203000Y1451347D01*
D02*
G37*
G36*
X183000Y1398621D02*
X181173Y1398380D01*
X179470Y1397675D01*
X178008Y1396553D01*
X176886Y1395090D01*
X176180Y1393388D01*
X175940Y1391560D01*
X176180Y1389733D01*
X176886Y1388030D01*
X178008Y1386568D01*
X179470Y1385446D01*
X181173Y1384740D01*
X183000Y1384500D01*
X184827Y1384740D01*
X186530Y1385446D01*
X187992Y1386568D01*
X189114Y1388030D01*
X189820Y1389733D01*
X190060Y1391560D01*
X189820Y1393388D01*
X189114Y1395090D01*
X187992Y1396553D01*
X186530Y1397675D01*
X184827Y1398380D01*
X183000Y1398621D01*
D02*
G37*
G36*
X171000Y1379922D02*
X168820Y1379635D01*
X166789Y1378794D01*
X165045Y1377455D01*
X163706Y1375711D01*
X162865Y1373680D01*
X162578Y1371500D01*
X162865Y1369320D01*
X163706Y1367289D01*
X165045Y1365545D01*
X166789Y1364206D01*
X168820Y1363365D01*
X171000Y1363078D01*
X173180Y1363365D01*
X175211Y1364206D01*
X176955Y1365545D01*
X178294Y1367289D01*
X179135Y1369320D01*
X179422Y1371500D01*
X179135Y1373680D01*
X178294Y1375711D01*
X176955Y1377455D01*
X175211Y1378794D01*
X173180Y1379635D01*
X171000Y1379922D01*
D02*
G37*
G36*
X375000Y1467060D02*
X373173Y1466820D01*
X371470Y1466115D01*
X370008Y1464992D01*
X368886Y1463530D01*
X368180Y1461827D01*
X367940Y1460000D01*
X368180Y1458173D01*
X368886Y1456470D01*
X370008Y1455008D01*
X371470Y1453885D01*
X372038Y1453650D01*
Y1451350D01*
X371470Y1451115D01*
X370008Y1449993D01*
X368886Y1448530D01*
X368180Y1446827D01*
X367940Y1445000D01*
X368180Y1443173D01*
X368886Y1441470D01*
X370008Y1440008D01*
X371470Y1438885D01*
X373173Y1438180D01*
X375000Y1437940D01*
X376827Y1438180D01*
X378530Y1438885D01*
X379992Y1440008D01*
X381115Y1441470D01*
X381820Y1443173D01*
X382060Y1445000D01*
X381820Y1446827D01*
X381115Y1448530D01*
X379992Y1449993D01*
X378530Y1451115D01*
X377962Y1451350D01*
Y1453650D01*
X378530Y1453885D01*
X379992Y1455008D01*
X381115Y1456470D01*
X381820Y1458173D01*
X382060Y1460000D01*
X381820Y1461827D01*
X381115Y1463530D01*
X379992Y1464992D01*
X378530Y1466115D01*
X376827Y1466820D01*
X375000Y1467060D01*
D02*
G37*
G36*
X287000Y1451347D02*
X284063Y1450960D01*
X281327Y1449827D01*
X278976Y1448024D01*
X277173Y1445674D01*
X276040Y1442937D01*
X275653Y1440000D01*
X276040Y1437063D01*
X277173Y1434326D01*
X278976Y1431976D01*
X281327Y1430173D01*
X284063Y1429040D01*
X287000Y1428653D01*
X289937Y1429040D01*
X292674Y1430173D01*
X295024Y1431976D01*
X296827Y1434326D01*
X297960Y1437063D01*
X298347Y1440000D01*
X297960Y1442937D01*
X296827Y1445674D01*
X295024Y1448024D01*
X292674Y1449827D01*
X289937Y1450960D01*
X287000Y1451347D01*
D02*
G37*
G36*
X245000D02*
X242063Y1450960D01*
X239326Y1449827D01*
X236976Y1448024D01*
X235173Y1445674D01*
X234040Y1442937D01*
X233653Y1440000D01*
X234040Y1437063D01*
X235173Y1434326D01*
X236976Y1431976D01*
X239326Y1430173D01*
X242063Y1429040D01*
X245000Y1428653D01*
X247937Y1429040D01*
X250674Y1430173D01*
X253024Y1431976D01*
X254827Y1434326D01*
X255960Y1437063D01*
X256347Y1440000D01*
X255960Y1442937D01*
X254827Y1445674D01*
X253024Y1448024D01*
X250674Y1449827D01*
X247937Y1450960D01*
X245000Y1451347D01*
D02*
G37*
G36*
X298560Y1256560D02*
X296733Y1256320D01*
X295030Y1255614D01*
X293568Y1254492D01*
X292446Y1253030D01*
X291741Y1251327D01*
X291500Y1249500D01*
X291741Y1247673D01*
X292446Y1245970D01*
X293568Y1244508D01*
X295030Y1243385D01*
X296733Y1242680D01*
X298560Y1242440D01*
X300388Y1242680D01*
X302091Y1243385D01*
X303553Y1244508D01*
X304675Y1245970D01*
X305380Y1247673D01*
X305621Y1249500D01*
X305380Y1251327D01*
X304675Y1253030D01*
X303553Y1254492D01*
X302091Y1255614D01*
X300388Y1256320D01*
X298560Y1256560D01*
D02*
G37*
G36*
X352500Y918560D02*
X350673Y918320D01*
X348970Y917615D01*
X347508Y916492D01*
X346385Y915030D01*
X345680Y913327D01*
X345440Y911500D01*
X345680Y909673D01*
X346385Y907970D01*
X347508Y906508D01*
X348970Y905386D01*
X350673Y904680D01*
X352500Y904440D01*
X354327Y904680D01*
X356030Y905386D01*
X357492Y906508D01*
X358615Y907970D01*
X359320Y909673D01*
X359560Y911500D01*
X359320Y913327D01*
X358615Y915030D01*
X357492Y916492D01*
X356030Y917615D01*
X354327Y918320D01*
X352500Y918560D01*
D02*
G37*
G36*
X82500Y916060D02*
X80673Y915820D01*
X78970Y915115D01*
X77508Y913992D01*
X76385Y912530D01*
X75680Y910827D01*
X75440Y909000D01*
X75680Y907173D01*
X76385Y905470D01*
X77508Y904008D01*
X78970Y902886D01*
X80673Y902180D01*
X82500Y901940D01*
X84327Y902180D01*
X86030Y902886D01*
X87493Y904008D01*
X88615Y905470D01*
X89320Y907173D01*
X89560Y909000D01*
X89320Y910827D01*
X88615Y912530D01*
X87493Y913992D01*
X86030Y915115D01*
X84327Y915820D01*
X82500Y916060D01*
D02*
G37*
G36*
X173000Y803118D02*
X170659Y802652D01*
X168674Y801326D01*
X167650Y799793D01*
X165350D01*
X164326Y801326D01*
X162341Y802652D01*
X160000Y803118D01*
X157659Y802652D01*
X155674Y801326D01*
X154650Y799793D01*
X152350D01*
X151326Y801326D01*
X149341Y802652D01*
X147000Y803118D01*
X144659Y802652D01*
X142674Y801326D01*
X141650Y799793D01*
X139350D01*
X138326Y801326D01*
X136341Y802652D01*
X134000Y803118D01*
X131659Y802652D01*
X129674Y801326D01*
X129150Y800541D01*
X126850D01*
X126326Y801326D01*
X124341Y802652D01*
X122000Y803118D01*
X119659Y802652D01*
X117674Y801326D01*
X116348Y799341D01*
X115883Y797000D01*
X116348Y794659D01*
X117674Y792674D01*
X119207Y791650D01*
Y789350D01*
X117674Y788326D01*
X116348Y786341D01*
X115883Y784000D01*
X116348Y781659D01*
X117674Y779674D01*
X119207Y778650D01*
Y776350D01*
X117674Y775326D01*
X116348Y773341D01*
X115883Y771000D01*
X116348Y768659D01*
X117674Y766674D01*
X119207Y765650D01*
Y763350D01*
X117674Y762326D01*
X116348Y760341D01*
X115883Y758000D01*
X116348Y755659D01*
X117674Y753674D01*
X119207Y752650D01*
Y750350D01*
X117674Y749326D01*
X116348Y747341D01*
X115883Y745000D01*
X116348Y742659D01*
X117674Y740674D01*
X119659Y739348D01*
X122000Y738883D01*
X124341Y739348D01*
X126326Y740674D01*
X126850Y741459D01*
X129150D01*
X129674Y740674D01*
X131659Y739348D01*
X134000Y738883D01*
X136341Y739348D01*
X138326Y740674D01*
X139350Y742207D01*
X141650D01*
X142674Y740674D01*
X144659Y739348D01*
X144116Y736621D01*
X143674Y736326D01*
X142348Y734341D01*
X141882Y732000D01*
X142348Y729659D01*
X143674Y727674D01*
X145207Y726650D01*
Y724350D01*
X143674Y723326D01*
X142348Y721341D01*
X141882Y719000D01*
X142348Y716659D01*
X143674Y714674D01*
X145207Y713650D01*
Y711350D01*
X143674Y710326D01*
X142348Y708341D01*
X141882Y706000D01*
X142348Y703659D01*
X143674Y701674D01*
X145659Y700348D01*
X148000Y699882D01*
X150341Y700348D01*
X152326Y701674D01*
X153350Y703207D01*
X155650D01*
X156674Y701674D01*
X158659Y700348D01*
X161000Y699882D01*
X163341Y700348D01*
X165326Y701674D01*
X166350Y703207D01*
X168650D01*
X169674Y701674D01*
X171659Y700348D01*
X174000Y699882D01*
X176341Y700348D01*
X178326Y701674D01*
X179652Y703659D01*
X180117Y706000D01*
X179652Y708341D01*
X178326Y710326D01*
X176793Y711350D01*
Y713650D01*
X178326Y714674D01*
X179652Y716659D01*
X180117Y719000D01*
X179652Y721341D01*
X178326Y723326D01*
X176793Y724350D01*
Y726650D01*
X178326Y727674D01*
X179652Y729659D01*
X180117Y732000D01*
X179652Y734341D01*
X178326Y736326D01*
X176341Y737652D01*
X176884Y740379D01*
X177326Y740674D01*
X178652Y742659D01*
X179118Y745000D01*
X178652Y747341D01*
X177326Y749326D01*
X175793Y750350D01*
Y752650D01*
X177326Y753674D01*
X178652Y755659D01*
X179118Y758000D01*
X178652Y760341D01*
X177326Y762326D01*
X175793Y763350D01*
Y765650D01*
X177326Y766674D01*
X178652Y768659D01*
X179118Y771000D01*
X178652Y773341D01*
X177326Y775326D01*
X175793Y776350D01*
Y778650D01*
X177326Y779674D01*
X178652Y781659D01*
X179118Y784000D01*
X178652Y786341D01*
X177326Y788326D01*
X175793Y789350D01*
Y791650D01*
X177326Y792674D01*
X178652Y794659D01*
X179118Y797000D01*
X178652Y799341D01*
X177326Y801326D01*
X175341Y802652D01*
X173000Y803118D01*
D02*
G37*
G36*
X109770Y1142060D02*
X107943Y1141820D01*
X106240Y1141115D01*
X104777Y1139992D01*
X103656Y1138530D01*
X102950Y1136827D01*
X102710Y1135000D01*
X102950Y1133173D01*
X103656Y1131470D01*
X104777Y1130007D01*
X106240Y1128885D01*
X107943Y1128180D01*
X109770Y1127940D01*
X111597Y1128180D01*
X113300Y1128885D01*
X114762Y1130007D01*
X115884Y1131470D01*
X116590Y1133173D01*
X116830Y1135000D01*
X116590Y1136827D01*
X115884Y1138530D01*
X114762Y1139992D01*
X113300Y1141115D01*
X111597Y1141820D01*
X109770Y1142060D01*
D02*
G37*
G36*
X390050Y1136510D02*
X388223Y1136270D01*
X386520Y1135564D01*
X385057Y1134442D01*
X383936Y1132980D01*
X383230Y1131277D01*
X382990Y1129450D01*
X383230Y1127623D01*
X383936Y1125920D01*
X385057Y1124457D01*
X386520Y1123335D01*
X388223Y1122630D01*
X390050Y1122390D01*
X391877Y1122630D01*
X393580Y1123335D01*
X395042Y1124457D01*
X396165Y1125920D01*
X396870Y1127623D01*
X397110Y1129450D01*
X396870Y1131277D01*
X396165Y1132980D01*
X395042Y1134442D01*
X393580Y1135564D01*
X391877Y1136270D01*
X390050Y1136510D01*
D02*
G37*
G36*
X296000Y1088060D02*
X294173Y1087820D01*
X292470Y1087114D01*
X291007Y1085992D01*
X289886Y1084530D01*
X289180Y1082827D01*
X288940Y1081000D01*
X289180Y1079173D01*
X289886Y1077470D01*
X291007Y1076008D01*
X292470Y1074885D01*
X294173Y1074180D01*
X296000Y1073940D01*
X297827Y1074180D01*
X299530Y1074885D01*
X300992Y1076008D01*
X302114Y1077470D01*
X302820Y1079173D01*
X303060Y1081000D01*
X302820Y1082827D01*
X302114Y1084530D01*
X300992Y1085992D01*
X299530Y1087114D01*
X297827Y1087820D01*
X296000Y1088060D01*
D02*
G37*
G36*
X426000Y643118D02*
X423659Y642652D01*
X421674Y641326D01*
X420650Y639793D01*
X418350D01*
X417326Y641326D01*
X415341Y642652D01*
X413000Y643118D01*
X410659Y642652D01*
X408674Y641326D01*
X407650Y639793D01*
X405350D01*
X404326Y641326D01*
X402341Y642652D01*
X400000Y643118D01*
X397659Y642652D01*
X395674Y641326D01*
X394348Y639341D01*
X393882Y637000D01*
X394348Y634659D01*
X395674Y632674D01*
X397207Y631650D01*
Y629350D01*
X395674Y628326D01*
X394348Y626341D01*
X393882Y624000D01*
X394348Y621659D01*
X395674Y619674D01*
X396459Y619150D01*
Y616850D01*
X395674Y616326D01*
X394348Y614341D01*
X393882Y612000D01*
X394348Y609659D01*
X395674Y607674D01*
X397207Y606650D01*
Y604350D01*
X395674Y603326D01*
X394348Y601341D01*
X393882Y599000D01*
X394348Y596659D01*
X395674Y594674D01*
X397207Y593650D01*
Y591350D01*
X395674Y590326D01*
X394348Y588341D01*
X393882Y586000D01*
X394348Y583659D01*
X395674Y581674D01*
X397207Y580650D01*
Y578350D01*
X395674Y577326D01*
X394348Y575341D01*
X393882Y573000D01*
X394348Y570659D01*
X395674Y568674D01*
X397207Y567650D01*
Y565350D01*
X395674Y564326D01*
X394348Y562341D01*
X393882Y560000D01*
X394348Y557659D01*
X395674Y555674D01*
X397207Y554650D01*
Y552350D01*
X395674Y551326D01*
X394348Y549341D01*
X393882Y547000D01*
X394348Y544659D01*
X395674Y542674D01*
X396459Y542150D01*
Y539850D01*
X395674Y539326D01*
X394348Y537341D01*
X393882Y535000D01*
X394348Y532659D01*
X395674Y530674D01*
X397207Y529650D01*
Y527350D01*
X395674Y526326D01*
X394348Y524341D01*
X393882Y522000D01*
X394348Y519659D01*
X395674Y517674D01*
X397207Y516650D01*
Y514350D01*
X395674Y513326D01*
X394348Y511341D01*
X393882Y509000D01*
X394348Y506659D01*
X395674Y504674D01*
X397207Y503650D01*
Y501350D01*
X395674Y500326D01*
X394348Y498341D01*
X393882Y496000D01*
X394348Y493659D01*
X395674Y491674D01*
X397659Y490348D01*
X400000Y489883D01*
X402341Y490348D01*
X404326Y491674D01*
X405350Y493207D01*
X407650D01*
X408674Y491674D01*
X410659Y490348D01*
X413000Y489883D01*
X415341Y490348D01*
X417326Y491674D01*
X418350Y493207D01*
X420650D01*
X421674Y491674D01*
X423659Y490348D01*
X426000Y489883D01*
X428341Y490348D01*
X430326Y491674D01*
X431652Y493659D01*
X432118Y496000D01*
X431652Y498341D01*
X430326Y500326D01*
X428793Y501350D01*
Y503650D01*
X430326Y504674D01*
X431652Y506659D01*
X432118Y509000D01*
X431652Y511341D01*
X430326Y513326D01*
X428793Y514350D01*
Y516650D01*
X430326Y517674D01*
X431652Y519659D01*
X432118Y522000D01*
X431652Y524341D01*
X430326Y526326D01*
X428793Y527350D01*
Y529650D01*
X430326Y530674D01*
X431652Y532659D01*
X432118Y535000D01*
X431652Y537341D01*
X430326Y539326D01*
X429541Y539850D01*
Y542150D01*
X430326Y542674D01*
X431652Y544659D01*
X432118Y547000D01*
X431652Y549341D01*
X430326Y551326D01*
X428793Y552350D01*
Y554650D01*
X430326Y555674D01*
X431652Y557659D01*
X432118Y560000D01*
X431652Y562341D01*
X430326Y564326D01*
X428793Y565350D01*
Y567650D01*
X430326Y568674D01*
X431652Y570659D01*
X432118Y573000D01*
X431652Y575341D01*
X430326Y577326D01*
X428793Y578350D01*
Y580650D01*
X430326Y581674D01*
X431652Y583659D01*
X432118Y586000D01*
X431652Y588341D01*
X430326Y590326D01*
X428793Y591350D01*
Y593650D01*
X430326Y594674D01*
X431652Y596659D01*
X432118Y599000D01*
X431652Y601341D01*
X430326Y603326D01*
X428793Y604350D01*
Y606650D01*
X430326Y607674D01*
X431652Y609659D01*
X432118Y612000D01*
X431652Y614341D01*
X430326Y616326D01*
X429541Y616850D01*
Y619150D01*
X430326Y619674D01*
X431652Y621659D01*
X432118Y624000D01*
X431652Y626341D01*
X430326Y628326D01*
X428793Y629350D01*
Y631650D01*
X430326Y632674D01*
X431652Y634659D01*
X432118Y637000D01*
X431652Y639341D01*
X430326Y641326D01*
X428341Y642652D01*
X426000Y643118D01*
D02*
G37*
G36*
X68000Y632118D02*
X65659Y631652D01*
X63674Y630326D01*
X62348Y628341D01*
X61883Y626000D01*
X62348Y623659D01*
X63674Y621674D01*
X65659Y620348D01*
X68000Y619883D01*
X70341Y620348D01*
X72326Y621674D01*
X73652Y623659D01*
X74117Y626000D01*
X73652Y628341D01*
X72326Y630326D01*
X70341Y631652D01*
X68000Y632118D01*
D02*
G37*
G36*
X243503Y631118D02*
X241161Y630652D01*
X239177Y629326D01*
X237851Y627341D01*
X237385Y625000D01*
X237851Y622659D01*
X239177Y620674D01*
X241161Y619348D01*
X243503Y618882D01*
X245844Y619348D01*
X247828Y620674D01*
X249154Y622659D01*
X249620Y625000D01*
X249154Y627341D01*
X247828Y629326D01*
X245844Y630652D01*
X243503Y631118D01*
D02*
G37*
G36*
X353500Y811560D02*
X351673Y811320D01*
X349970Y810614D01*
X348508Y809492D01*
X347385Y808030D01*
X346680Y806327D01*
X346440Y804500D01*
X346680Y802673D01*
X347385Y800970D01*
X348508Y799508D01*
X349970Y798385D01*
X351673Y797680D01*
X353500Y797440D01*
X355327Y797680D01*
X357030Y798385D01*
X358493Y799508D01*
X359614Y800970D01*
X360320Y802673D01*
X360560Y804500D01*
X360320Y806327D01*
X359614Y808030D01*
X358493Y809492D01*
X357030Y810614D01*
X355327Y811320D01*
X353500Y811560D01*
D02*
G37*
G36*
X82000Y804560D02*
X80173Y804320D01*
X78470Y803615D01*
X77008Y802493D01*
X75886Y801030D01*
X75180Y799327D01*
X74940Y797500D01*
X75180Y795673D01*
X75886Y793970D01*
X77008Y792508D01*
X78470Y791386D01*
X80173Y790680D01*
X82000Y790440D01*
X83827Y790680D01*
X85530Y791386D01*
X86993Y792508D01*
X88115Y793970D01*
X88820Y795673D01*
X89060Y797500D01*
X88820Y799327D01*
X88115Y801030D01*
X86993Y802493D01*
X85530Y803615D01*
X83827Y804320D01*
X82000Y804560D01*
D02*
G37*
G36*
X136500Y673118D02*
X134159Y672652D01*
X132174Y671326D01*
X130848Y669341D01*
X130382Y667000D01*
X130848Y664659D01*
X132174Y662674D01*
X134159Y661348D01*
X136500Y660882D01*
X138841Y661348D01*
X140826Y662674D01*
X142152Y664659D01*
X142618Y667000D01*
X142152Y669341D01*
X140826Y671326D01*
X138841Y672652D01*
X136500Y673118D01*
D02*
G37*
G36*
X318395Y1145060D02*
X316568Y1144820D01*
X314865Y1144115D01*
X313403Y1142992D01*
X312281Y1141530D01*
X311576Y1139827D01*
X311335Y1138000D01*
X311576Y1136173D01*
X312281Y1134470D01*
X313403Y1133008D01*
X314865Y1131886D01*
X316568Y1131180D01*
X318395Y1130940D01*
X320223Y1131180D01*
X321926Y1131886D01*
X323388Y1133008D01*
X324510Y1134470D01*
X325215Y1136173D01*
X325456Y1138000D01*
X325215Y1139827D01*
X324510Y1141530D01*
X323388Y1142992D01*
X321926Y1144115D01*
X320223Y1144820D01*
X318395Y1145060D01*
D02*
G37*
G36*
X242500Y1204060D02*
X240673Y1203820D01*
X238970Y1203114D01*
X237508Y1201992D01*
X236385Y1200530D01*
X235680Y1198827D01*
X235440Y1197000D01*
X235680Y1195173D01*
X236385Y1193470D01*
X237058Y1192593D01*
X235658Y1190769D01*
X234327Y1191320D01*
X232500Y1191560D01*
X230673Y1191320D01*
X228970Y1190614D01*
X227507Y1189492D01*
X226385Y1188030D01*
X225680Y1186327D01*
X225440Y1184500D01*
X225680Y1182673D01*
X226385Y1180970D01*
X227507Y1179508D01*
X228970Y1178385D01*
X230673Y1177680D01*
X232500Y1177440D01*
X234327Y1177680D01*
X236030Y1178385D01*
X237492Y1179508D01*
X238615Y1180970D01*
X239320Y1182673D01*
X239560Y1184500D01*
X239320Y1186327D01*
X238615Y1188030D01*
X237942Y1188907D01*
X239342Y1190731D01*
X240673Y1190180D01*
X242500Y1189940D01*
X244327Y1190180D01*
X246030Y1190885D01*
X247492Y1192008D01*
X248615Y1193470D01*
X249320Y1195173D01*
X249560Y1197000D01*
X249320Y1198827D01*
X248615Y1200530D01*
X247492Y1201992D01*
X246030Y1203114D01*
X244327Y1203820D01*
X242500Y1204060D01*
D02*
G37*
G36*
X192500D02*
X190673Y1203820D01*
X188970Y1203114D01*
X187507Y1201992D01*
X186385Y1200530D01*
X185680Y1198827D01*
X185440Y1197000D01*
X185680Y1195173D01*
X186385Y1193470D01*
X187507Y1192008D01*
X188970Y1190885D01*
X190673Y1190180D01*
X192500Y1189940D01*
X194327Y1190180D01*
X195658Y1190731D01*
X197058Y1188907D01*
X196385Y1188030D01*
X195680Y1186327D01*
X195440Y1184500D01*
X195680Y1182673D01*
X196385Y1180970D01*
X197508Y1179508D01*
X198970Y1178385D01*
X200673Y1177680D01*
X202500Y1177440D01*
X204327Y1177680D01*
X206030Y1178385D01*
X207492Y1179508D01*
X208615Y1180970D01*
X209320Y1182673D01*
X209560Y1184500D01*
X209320Y1186327D01*
X208615Y1188030D01*
X207492Y1189492D01*
X206030Y1190614D01*
X204327Y1191320D01*
X202500Y1191560D01*
X200673Y1191320D01*
X199342Y1190769D01*
X197942Y1192593D01*
X198615Y1193470D01*
X199320Y1195173D01*
X199560Y1197000D01*
X199320Y1198827D01*
X198615Y1200530D01*
X197492Y1201992D01*
X196030Y1203114D01*
X194327Y1203820D01*
X192500Y1204060D01*
D02*
G37*
G36*
X172500Y1229060D02*
X170673Y1228820D01*
X168970Y1228114D01*
X167507Y1226992D01*
X166385Y1225530D01*
X165680Y1223827D01*
X165440Y1222000D01*
X165680Y1220173D01*
X166385Y1218470D01*
X167507Y1217008D01*
X168970Y1215885D01*
X170673Y1215180D01*
X172495Y1214940D01*
X173645Y1212948D01*
X173180Y1211827D01*
X172940Y1210000D01*
X173180Y1208173D01*
X173885Y1206470D01*
X175007Y1205007D01*
X176470Y1203885D01*
X178173Y1203180D01*
X180000Y1202940D01*
X181827Y1203180D01*
X183530Y1203885D01*
X184992Y1205007D01*
X186115Y1206470D01*
X186820Y1208173D01*
X187060Y1210000D01*
X186820Y1211827D01*
X186115Y1213530D01*
X184992Y1214992D01*
X183530Y1216115D01*
X181827Y1216820D01*
X180005Y1217060D01*
X178855Y1219052D01*
X179320Y1220173D01*
X179560Y1222000D01*
X179320Y1223827D01*
X178615Y1225530D01*
X177492Y1226992D01*
X176030Y1228114D01*
X174327Y1228820D01*
X172500Y1229060D01*
D02*
G37*
G36*
X167500Y1277039D02*
X110000D01*
X109220Y1276884D01*
X108558Y1276442D01*
X108116Y1275780D01*
X107961Y1275000D01*
Y1240000D01*
X108116Y1239220D01*
X108558Y1238558D01*
X109220Y1238116D01*
X110000Y1237961D01*
X165198D01*
X165264Y1237974D01*
X165331Y1237965D01*
X165653Y1238051D01*
X165978Y1238116D01*
X166034Y1238154D01*
X166100Y1238171D01*
X166364Y1238373D01*
X166640Y1238558D01*
X166677Y1238614D01*
X166731Y1238655D01*
X166897Y1238943D01*
X167082Y1239220D01*
X167095Y1239286D01*
X167129Y1239344D01*
X167384Y1240096D01*
X168673Y1240680D01*
X170500Y1240440D01*
X172327Y1240680D01*
X174030Y1241385D01*
X175492Y1242507D01*
X176614Y1243970D01*
X177320Y1245673D01*
X177560Y1247500D01*
X177320Y1249327D01*
X176614Y1251030D01*
X175492Y1252492D01*
X174030Y1253614D01*
X172327Y1254320D01*
X170500Y1254560D01*
X169539Y1255403D01*
Y1275000D01*
X169384Y1275780D01*
X168942Y1276442D01*
X168280Y1276884D01*
X167500Y1277039D01*
D02*
G37*
G36*
X255000Y1222060D02*
X253173Y1221820D01*
X251470Y1221115D01*
X250008Y1219993D01*
X248885Y1218530D01*
X248180Y1216827D01*
X247940Y1215000D01*
X248180Y1213173D01*
X248885Y1211470D01*
X250008Y1210008D01*
X251470Y1208885D01*
X253173Y1208180D01*
X255000Y1207940D01*
X256827Y1208180D01*
X258530Y1208885D01*
X259992Y1210008D01*
X261115Y1211470D01*
X261820Y1213173D01*
X262060Y1215000D01*
X261820Y1216827D01*
X261115Y1218530D01*
X259992Y1219993D01*
X258530Y1221115D01*
X256827Y1221820D01*
X255000Y1222060D01*
D02*
G37*
G36*
X252000Y1154060D02*
X250173Y1153820D01*
X248470Y1153114D01*
X247008Y1151992D01*
X245886Y1150530D01*
X245180Y1148827D01*
X244940Y1147000D01*
X245180Y1145173D01*
X245886Y1143470D01*
X247008Y1142008D01*
X248470Y1140885D01*
X250173Y1140180D01*
X252000Y1139940D01*
X253827Y1140180D01*
X255530Y1140885D01*
X256992Y1142008D01*
X258114Y1143470D01*
X258820Y1145173D01*
X259060Y1147000D01*
X258820Y1148827D01*
X258114Y1150530D01*
X256992Y1151992D01*
X255530Y1153114D01*
X253827Y1153820D01*
X252000Y1154060D01*
D02*
G37*
G36*
X131360Y1149200D02*
X129533Y1148960D01*
X127830Y1148254D01*
X126368Y1147132D01*
X125246Y1145670D01*
X124540Y1143967D01*
X124300Y1142140D01*
X124540Y1140313D01*
X125246Y1138610D01*
X126368Y1137148D01*
X127830Y1136026D01*
X129533Y1135320D01*
X131360Y1135080D01*
X133187Y1135320D01*
X134890Y1136026D01*
X136352Y1137148D01*
X137474Y1138610D01*
X138180Y1140313D01*
X138420Y1142140D01*
X138180Y1143967D01*
X137474Y1145670D01*
X136352Y1147132D01*
X134890Y1148254D01*
X133187Y1148960D01*
X131360Y1149200D01*
D02*
G37*
G36*
X187500Y1161560D02*
X185673Y1161320D01*
X183970Y1160614D01*
X182507Y1159492D01*
X181385Y1158030D01*
X180680Y1156327D01*
X180440Y1154500D01*
X180680Y1152673D01*
X181385Y1150970D01*
X182507Y1149508D01*
X183970Y1148385D01*
X185673Y1147680D01*
X187500Y1147440D01*
X189327Y1147680D01*
X191030Y1148385D01*
X192492Y1149508D01*
X193614Y1150970D01*
X194320Y1152673D01*
X194560Y1154500D01*
X194320Y1156327D01*
X193614Y1158030D01*
X192492Y1159492D01*
X191030Y1160614D01*
X189327Y1161320D01*
X187500Y1161560D01*
D02*
G37*
G36*
X242000Y1175060D02*
X240173Y1174820D01*
X238470Y1174115D01*
X237008Y1172992D01*
X235886Y1171530D01*
X235180Y1169827D01*
X234940Y1168000D01*
X235180Y1166173D01*
X235886Y1164470D01*
X237008Y1163008D01*
X238470Y1161886D01*
X240173Y1161180D01*
X242000Y1160940D01*
X243827Y1161180D01*
X245530Y1161886D01*
X246992Y1163008D01*
X248114Y1164470D01*
X248820Y1166173D01*
X249060Y1168000D01*
X248820Y1169827D01*
X248114Y1171530D01*
X246992Y1172992D01*
X245530Y1174115D01*
X243827Y1174820D01*
X242000Y1175060D01*
D02*
G37*
G36*
X110640Y1161700D02*
X108813Y1161460D01*
X107110Y1160754D01*
X105648Y1159632D01*
X104526Y1158170D01*
X103820Y1156467D01*
X103580Y1154640D01*
X103820Y1152813D01*
X104526Y1151110D01*
X105648Y1149648D01*
X107110Y1148525D01*
X108813Y1147820D01*
X110640Y1147580D01*
X112467Y1147820D01*
X114170Y1148525D01*
X115632Y1149648D01*
X116755Y1151110D01*
X117460Y1152813D01*
X117700Y1154640D01*
X117460Y1156467D01*
X116755Y1158170D01*
X115632Y1159632D01*
X114170Y1160754D01*
X112467Y1161460D01*
X110640Y1161700D01*
D02*
G37*
%LPD*%
G36*
X167500Y1253834D02*
X166970Y1253614D01*
X165508Y1252492D01*
X164386Y1251030D01*
X163680Y1249327D01*
X163440Y1247500D01*
X163680Y1245673D01*
X164386Y1243970D01*
X165508Y1242507D01*
X165937Y1242178D01*
X165198Y1240000D01*
X110000D01*
Y1275000D01*
X167500D01*
Y1253834D01*
D02*
G37*
%LPC*%
G36*
X155500Y1262617D02*
X153159Y1262152D01*
X151174Y1260826D01*
X149848Y1258841D01*
X149382Y1256500D01*
X149848Y1254159D01*
X151174Y1252174D01*
X153159Y1250848D01*
X155500Y1250382D01*
X157841Y1250848D01*
X159826Y1252174D01*
X161152Y1254159D01*
X161618Y1256500D01*
X161152Y1258841D01*
X159826Y1260826D01*
X157841Y1262152D01*
X155500Y1262617D01*
D02*
G37*
%LPD*%
D11*
X227540Y59840D02*
D03*
X85540Y1251840D02*
D03*
X227500Y1249500D02*
D03*
Y1269500D02*
D03*
X207500D02*
D03*
Y1249500D02*
D03*
X197500Y1259500D02*
D03*
X217500D02*
D03*
X237500D02*
D03*
X285000Y585000D02*
D03*
X284000Y672000D02*
D03*
Y660000D02*
D03*
Y684000D02*
D03*
Y648000D02*
D03*
Y707000D02*
D03*
Y695000D02*
D03*
X75000Y705000D02*
D03*
Y718000D02*
D03*
X12000Y672000D02*
D03*
Y660000D02*
D03*
Y684000D02*
D03*
Y648000D02*
D03*
X375000Y351000D02*
D03*
Y375000D02*
D03*
Y339000D02*
D03*
X414250Y303750D02*
D03*
Y327750D02*
D03*
Y291750D02*
D03*
X158000Y316000D02*
D03*
Y292000D02*
D03*
X157000Y341000D02*
D03*
Y365000D02*
D03*
X35000Y1099000D02*
D03*
Y1085000D02*
D03*
Y1071000D02*
D03*
Y1057000D02*
D03*
Y1043000D02*
D03*
X402000Y1099000D02*
D03*
Y1085000D02*
D03*
Y1071000D02*
D03*
Y1057000D02*
D03*
Y1043000D02*
D03*
X35000Y973000D02*
D03*
Y959000D02*
D03*
Y987000D02*
D03*
Y1001000D02*
D03*
Y1015000D02*
D03*
Y1029000D02*
D03*
X402000Y973000D02*
D03*
Y959000D02*
D03*
Y987000D02*
D03*
Y1001000D02*
D03*
Y1015000D02*
D03*
Y1029000D02*
D03*
X263000Y1068000D02*
D03*
Y1054000D02*
D03*
Y1040000D02*
D03*
Y1026000D02*
D03*
Y998000D02*
D03*
Y1012000D02*
D03*
X279000Y1068000D02*
D03*
Y1054000D02*
D03*
Y1040000D02*
D03*
Y1026000D02*
D03*
Y998000D02*
D03*
Y1012000D02*
D03*
X151000Y1068000D02*
D03*
Y1054000D02*
D03*
Y1040000D02*
D03*
Y1026000D02*
D03*
Y998000D02*
D03*
Y1012000D02*
D03*
X167000Y1068000D02*
D03*
Y1054000D02*
D03*
Y1040000D02*
D03*
Y1026000D02*
D03*
Y998000D02*
D03*
Y1012000D02*
D03*
X183000Y1068000D02*
D03*
Y1054000D02*
D03*
Y1040000D02*
D03*
Y1026000D02*
D03*
Y998000D02*
D03*
Y1012000D02*
D03*
X199000Y1068000D02*
D03*
Y1054000D02*
D03*
Y1040000D02*
D03*
Y1026000D02*
D03*
Y998000D02*
D03*
Y1012000D02*
D03*
X247000D02*
D03*
Y998000D02*
D03*
Y1026000D02*
D03*
Y1040000D02*
D03*
Y1054000D02*
D03*
Y1068000D02*
D03*
X231000Y1012000D02*
D03*
Y998000D02*
D03*
Y1026000D02*
D03*
Y1040000D02*
D03*
Y1054000D02*
D03*
Y1068000D02*
D03*
X215000D02*
D03*
Y1054000D02*
D03*
Y1040000D02*
D03*
Y1026000D02*
D03*
Y998000D02*
D03*
Y1012000D02*
D03*
X82000Y797500D02*
D03*
X180000Y1210000D02*
D03*
X255000Y1215000D02*
D03*
X375000Y1492500D02*
D03*
Y1477500D02*
D03*
Y1445000D02*
D03*
Y1460000D02*
D03*
X392500Y1492500D02*
D03*
Y1477500D02*
D03*
Y1445000D02*
D03*
Y1460000D02*
D03*
X410000D02*
D03*
Y1445000D02*
D03*
Y1477500D02*
D03*
Y1492500D02*
D03*
X263500Y1250500D02*
D03*
X172500Y1222000D02*
D03*
X242500Y1197000D02*
D03*
X192500D02*
D03*
X232500Y1184500D02*
D03*
X202500D02*
D03*
X192500Y1322000D02*
D03*
X202500Y1334500D02*
D03*
X242500Y1322000D02*
D03*
X232500Y1334500D02*
D03*
X222500Y1347000D02*
D03*
X262500Y1275500D02*
D03*
X170500Y1247500D02*
D03*
X242000Y1168000D02*
D03*
X296000Y1081000D02*
D03*
X390050Y1129450D02*
D03*
X131360Y1142140D02*
D03*
X110640Y1154640D02*
D03*
X82500Y909000D02*
D03*
X352500Y911500D02*
D03*
X353500Y804500D02*
D03*
X187500Y1154500D02*
D03*
X185000Y1369500D02*
D03*
X183000Y1391560D02*
D03*
X249000Y492000D02*
D03*
X244000Y571000D02*
D03*
Y535000D02*
D03*
X109770Y1135000D02*
D03*
X318395Y1138000D02*
D03*
X414250Y315750D02*
D03*
X252000Y1147000D02*
D03*
X298560Y1249500D02*
D03*
X375000Y363000D02*
D03*
X207250Y1141000D02*
D03*
D33*
X287500Y220000D02*
D03*
X161000Y577500D02*
D03*
D35*
X217500Y1259500D02*
D03*
D62*
X251500Y238000D02*
D03*
Y256000D02*
D03*
X260500Y229000D02*
D03*
Y247000D02*
D03*
X269500Y238000D02*
D03*
Y256000D02*
D03*
X278500Y229000D02*
D03*
Y247000D02*
D03*
X287500Y238000D02*
D03*
Y256000D02*
D03*
X251500Y184000D02*
D03*
X269500D02*
D03*
X260500Y193000D02*
D03*
X278500D02*
D03*
X251500Y202000D02*
D03*
X269500D02*
D03*
X260500Y211000D02*
D03*
X278500D02*
D03*
X251500Y220000D02*
D03*
X269500D02*
D03*
X305500Y184000D02*
D03*
X323500D02*
D03*
X296500Y193000D02*
D03*
X314500D02*
D03*
X305500Y202000D02*
D03*
X323500D02*
D03*
X296500Y211000D02*
D03*
X314500D02*
D03*
X305500Y256000D02*
D03*
X323500D02*
D03*
X296500Y247000D02*
D03*
X314500D02*
D03*
X305500Y238000D02*
D03*
X323500D02*
D03*
X296500Y229000D02*
D03*
X314500D02*
D03*
X287500Y184000D02*
D03*
X323500Y220000D02*
D03*
X287500Y202000D02*
D03*
X305500Y220000D02*
D03*
X287500D02*
D03*
X125000Y595500D02*
D03*
Y613500D02*
D03*
X134000Y586500D02*
D03*
Y604500D02*
D03*
X143000Y595500D02*
D03*
Y613500D02*
D03*
X152000Y586500D02*
D03*
Y604500D02*
D03*
X161000Y595500D02*
D03*
Y613500D02*
D03*
X125000Y541500D02*
D03*
X143000D02*
D03*
X134000Y550500D02*
D03*
X152000D02*
D03*
X125000Y559500D02*
D03*
X143000D02*
D03*
X134000Y568500D02*
D03*
X152000D02*
D03*
X125000Y577500D02*
D03*
X143000D02*
D03*
X179000Y541500D02*
D03*
X197000D02*
D03*
X170000Y550500D02*
D03*
X188000D02*
D03*
X179000Y559500D02*
D03*
X197000D02*
D03*
X170000Y568500D02*
D03*
X188000D02*
D03*
X179000Y613500D02*
D03*
X197000D02*
D03*
X170000Y604500D02*
D03*
X188000D02*
D03*
X179000Y595500D02*
D03*
X197000D02*
D03*
X170000Y586500D02*
D03*
X188000D02*
D03*
X161000Y541500D02*
D03*
X197000Y577500D02*
D03*
X161000Y559500D02*
D03*
X179000Y577500D02*
D03*
X161000D02*
D03*
D63*
X78000Y1494500D02*
D03*
Y1459500D02*
D03*
D64*
X245000Y1440000D02*
D03*
Y1495000D02*
D03*
X203000Y1440000D02*
D03*
X287000Y1495000D02*
D03*
Y1440000D02*
D03*
X203000Y1495000D02*
D03*
D65*
X354000Y55000D02*
D03*
X69000D02*
D03*
Y324000D02*
D03*
X354000Y1353000D02*
D03*
D66*
X118000Y1245750D02*
D03*
X178500Y1282250D02*
D03*
X147500Y1265500D02*
D03*
X6000Y298000D02*
D03*
X-31000D02*
D03*
X-73000Y279000D02*
D03*
X-31000D02*
D03*
Y199000D02*
D03*
X-73000Y249000D02*
D03*
Y224000D02*
D03*
Y199000D02*
D03*
X-32000Y443000D02*
D03*
X-74000Y442000D02*
D03*
X98000Y209000D02*
D03*
Y222000D02*
D03*
Y184000D02*
D03*
Y197000D02*
D03*
Y171000D02*
D03*
X85000Y209000D02*
D03*
Y222000D02*
D03*
Y184000D02*
D03*
Y197000D02*
D03*
Y171000D02*
D03*
X72000Y209000D02*
D03*
Y222000D02*
D03*
Y184000D02*
D03*
Y197000D02*
D03*
Y171000D02*
D03*
X59000Y209000D02*
D03*
Y222000D02*
D03*
Y184000D02*
D03*
Y197000D02*
D03*
Y171000D02*
D03*
X46000D02*
D03*
Y197000D02*
D03*
Y184000D02*
D03*
Y222000D02*
D03*
Y209000D02*
D03*
X-43000Y1482000D02*
D03*
Y1495000D02*
D03*
Y1457000D02*
D03*
Y1470000D02*
D03*
Y1444000D02*
D03*
X-56000Y1482000D02*
D03*
Y1495000D02*
D03*
Y1457000D02*
D03*
Y1470000D02*
D03*
Y1444000D02*
D03*
X-69000Y1482000D02*
D03*
Y1495000D02*
D03*
Y1457000D02*
D03*
Y1470000D02*
D03*
Y1444000D02*
D03*
X-82000Y1482000D02*
D03*
Y1495000D02*
D03*
Y1457000D02*
D03*
Y1470000D02*
D03*
Y1444000D02*
D03*
X-95000D02*
D03*
Y1470000D02*
D03*
Y1457000D02*
D03*
Y1495000D02*
D03*
Y1482000D02*
D03*
X532000D02*
D03*
Y1495000D02*
D03*
Y1457000D02*
D03*
Y1470000D02*
D03*
Y1444000D02*
D03*
X519000Y1482000D02*
D03*
Y1495000D02*
D03*
Y1457000D02*
D03*
Y1470000D02*
D03*
Y1444000D02*
D03*
X506000Y1482000D02*
D03*
Y1495000D02*
D03*
Y1457000D02*
D03*
Y1470000D02*
D03*
Y1444000D02*
D03*
X493000Y1482000D02*
D03*
Y1495000D02*
D03*
Y1457000D02*
D03*
Y1470000D02*
D03*
Y1444000D02*
D03*
X480000D02*
D03*
Y1470000D02*
D03*
Y1457000D02*
D03*
Y1495000D02*
D03*
Y1482000D02*
D03*
X548000Y427000D02*
D03*
X486000Y428000D02*
D03*
X487000Y289000D02*
D03*
X548000Y287000D02*
D03*
Y250000D02*
D03*
Y225000D02*
D03*
Y200000D02*
D03*
X486000Y201000D02*
D03*
X174000Y706000D02*
D03*
Y719000D02*
D03*
Y732000D02*
D03*
X161000Y706000D02*
D03*
Y719000D02*
D03*
Y732000D02*
D03*
X148000Y706000D02*
D03*
Y719000D02*
D03*
Y732000D02*
D03*
X400000Y573000D02*
D03*
Y586000D02*
D03*
Y612000D02*
D03*
Y599000D02*
D03*
Y637000D02*
D03*
Y624000D02*
D03*
Y547000D02*
D03*
Y560000D02*
D03*
Y522000D02*
D03*
Y535000D02*
D03*
Y509000D02*
D03*
Y496000D02*
D03*
X413000Y573000D02*
D03*
Y586000D02*
D03*
Y612000D02*
D03*
Y599000D02*
D03*
Y637000D02*
D03*
Y624000D02*
D03*
Y547000D02*
D03*
Y560000D02*
D03*
Y522000D02*
D03*
Y535000D02*
D03*
Y509000D02*
D03*
Y496000D02*
D03*
X426000Y573000D02*
D03*
Y586000D02*
D03*
Y612000D02*
D03*
Y599000D02*
D03*
Y637000D02*
D03*
Y624000D02*
D03*
Y547000D02*
D03*
Y560000D02*
D03*
Y522000D02*
D03*
Y535000D02*
D03*
Y509000D02*
D03*
Y496000D02*
D03*
X122000Y745000D02*
D03*
X147000D02*
D03*
X134000D02*
D03*
X173000D02*
D03*
X160000D02*
D03*
X122000Y758000D02*
D03*
X147000D02*
D03*
X134000D02*
D03*
X173000D02*
D03*
X160000D02*
D03*
X122000Y771000D02*
D03*
X147000D02*
D03*
X134000D02*
D03*
X173000D02*
D03*
X160000D02*
D03*
X122000Y784000D02*
D03*
X147000D02*
D03*
X134000D02*
D03*
X173000D02*
D03*
X160000D02*
D03*
Y797000D02*
D03*
X173000D02*
D03*
X134000D02*
D03*
X147000D02*
D03*
X122000D02*
D03*
X470000Y297000D02*
D03*
X214000Y102000D02*
D03*
Y114000D02*
D03*
X388000Y253000D02*
D03*
X194357Y1342643D02*
D03*
X126000Y71000D02*
D03*
X153000Y96000D02*
D03*
X32000Y620000D02*
D03*
X155000Y270000D02*
D03*
X221500Y201500D02*
D03*
Y186500D02*
D03*
Y168500D02*
D03*
X241500Y153500D02*
D03*
X261500D02*
D03*
X351500Y169500D02*
D03*
Y201500D02*
D03*
X333500Y153500D02*
D03*
X350500D02*
D03*
X351500Y184500D02*
D03*
X279500Y153500D02*
D03*
X297260Y153500D02*
D03*
X315260D02*
D03*
X222500Y153500D02*
D03*
X96000Y511000D02*
D03*
X188760Y511000D02*
D03*
X170760D02*
D03*
X153000Y511000D02*
D03*
X225000Y542000D02*
D03*
X224000Y511000D02*
D03*
X207000D02*
D03*
X316000Y1247250D02*
D03*
X195000Y269000D02*
D03*
X164000Y279000D02*
D03*
X375502Y267500D02*
D03*
X408000Y275000D02*
D03*
X225000Y559000D02*
D03*
Y527000D02*
D03*
X135000Y511000D02*
D03*
X115000D02*
D03*
X95000Y526000D02*
D03*
Y544000D02*
D03*
Y559000D02*
D03*
X68000Y626000D02*
D03*
X37000Y631000D02*
D03*
X243503Y625000D02*
D03*
X271000Y625000D02*
D03*
X217500Y1294500D02*
D03*
X155500Y1256500D02*
D03*
X13000Y572000D02*
D03*
Y585000D02*
D03*
Y547000D02*
D03*
Y560000D02*
D03*
Y534000D02*
D03*
X26000D02*
D03*
Y560000D02*
D03*
Y547000D02*
D03*
Y585000D02*
D03*
Y572000D02*
D03*
X293617Y1294500D02*
D03*
X293500Y1312500D02*
D03*
X163000Y1342000D02*
D03*
X177000D02*
D03*
X136500Y667000D02*
D03*
X43000Y664000D02*
D03*
D67*
X291000Y1331500D02*
D03*
Y1367500D02*
D03*
X171000Y1371500D02*
D03*
M02*
