%FSLAX44Y44*%
%MOMM*%
G71*
G01*
G75*
G04 Layer_Physical_Order=2*
G04 Layer_Color=36540*
%ADD10R,1.2000X0.8000*%
%ADD11C,1.0000*%
%ADD12R,2.0000X3.5000*%
%ADD13R,3.0000X4.0000*%
%ADD14R,4.0000X2.8000*%
%ADD15R,2.8000X4.0000*%
%ADD16R,4.0000X3.0000*%
%ADD17R,0.6000X0.5000*%
%ADD18R,1.6000X1.4000*%
%ADD19R,0.9500X0.9000*%
%ADD20R,2.0000X2.0000*%
%ADD21R,2.0000X3.2000*%
%ADD22R,3.5000X2.0000*%
%ADD23R,0.5000X0.6000*%
%ADD24C,2.0000*%
%ADD25R,1.0000X1.8000*%
%ADD26R,3.0000X0.8000*%
%ADD27R,3.2000X2.0000*%
%ADD28R,2.8000X1.5000*%
%ADD29R,7.7000X1.6000*%
%ADD30R,1.7000X1.6000*%
%ADD31R,1.6000X6.3000*%
%ADD32R,1.8000X0.2900*%
%ADD33R,8.7000X8.7000*%
%ADD34R,1.6000X1.7000*%
%ADD35R,5.1500X3.1500*%
%ADD36R,0.7000X0.2900*%
%ADD37R,0.2900X0.7000*%
%ADD38R,0.8000X1.2000*%
%ADD39R,1.1000X1.2000*%
%ADD40R,0.9000X0.9500*%
%ADD41R,4.5000X4.0000*%
%ADD42R,3.2000X3.0000*%
%ADD43R,4.5000X4.2000*%
%ADD44R,0.5500X1.7000*%
%ADD45R,1.7000X0.5500*%
%ADD46R,4.2000X4.5000*%
%ADD47C,0.2540*%
%ADD48C,4.5720*%
%ADD49C,5.0000*%
%ADD50C,0.2286*%
%ADD51C,0.7620*%
%ADD52C,1.0160*%
%ADD53C,0.2032*%
%ADD54C,0.6350*%
%ADD55R,1.6000X6.7000*%
%ADD56R,12.5000X1.4000*%
%ADD57R,1.7500X7.2000*%
%ADD58R,1.6000X5.6000*%
%ADD59R,12.6000X1.3500*%
%ADD60R,1.8000X7.0750*%
%ADD61R,6.2500X6.2500*%
%ADD62C,0.8100*%
%ADD63C,1.5240*%
%ADD64C,1.8500*%
%ADD65C,8.0000*%
%ADD66C,0.8000*%
%ADD67C,1.2700*%
%ADD68C,0.7112*%
G36*
X92000Y1074201D02*
X294122D01*
X294173Y1074180D01*
X296000Y1073940D01*
X297827Y1074180D01*
X297878Y1074201D01*
X350000D01*
X353000Y1077101D01*
X382000Y1105134D01*
X435000D01*
Y476822D01*
X401000Y443956D01*
Y287362D01*
X383000D01*
Y271040D01*
X380799Y270373D01*
X379828Y271826D01*
X377844Y273152D01*
X375502Y273617D01*
X373161Y273152D01*
X371177Y271826D01*
X369851Y269841D01*
X369385Y267500D01*
X369851Y265159D01*
X371177Y263174D01*
X373161Y261848D01*
X375502Y261382D01*
X377844Y261848D01*
X379828Y263174D01*
X380799Y264627D01*
X383000Y263960D01*
Y256317D01*
X382348Y255341D01*
X381883Y253000D01*
X382348Y250659D01*
X383000Y249683D01*
Y153000D01*
X357028D01*
X356618Y153500D01*
X356152Y155841D01*
X354826Y157826D01*
X352841Y159152D01*
X350500Y159618D01*
X348159Y159152D01*
X346174Y157826D01*
X344848Y155841D01*
X344382Y153500D01*
X343972Y153000D01*
X340028D01*
X339618Y153500D01*
X339152Y155841D01*
X337826Y157826D01*
X335841Y159152D01*
X333500Y159618D01*
X331159Y159152D01*
X329174Y157826D01*
X327848Y155841D01*
X327382Y153500D01*
X326972Y153000D01*
X321788D01*
X321377Y153500D01*
X320912Y155841D01*
X319586Y157826D01*
X317601Y159152D01*
X315260Y159618D01*
X312919Y159152D01*
X310934Y157826D01*
X309608Y155841D01*
X309142Y153500D01*
X308732Y153000D01*
X303788D01*
X303377Y153500D01*
X302912Y155841D01*
X301586Y157826D01*
X299601Y159152D01*
X297260Y159618D01*
X294919Y159152D01*
X292934Y157826D01*
X291608Y155841D01*
X291142Y153500D01*
X290732Y153000D01*
X286028D01*
X285618Y153500D01*
X285152Y155841D01*
X283826Y157826D01*
X281841Y159152D01*
X279500Y159618D01*
X277159Y159152D01*
X275174Y157826D01*
X273848Y155841D01*
X273382Y153500D01*
X272972Y153000D01*
X268028D01*
X267617Y153500D01*
X267152Y155841D01*
X265826Y157826D01*
X263841Y159152D01*
X261500Y159618D01*
X259159Y159152D01*
X257174Y157826D01*
X255848Y155841D01*
X255382Y153500D01*
X254972Y153000D01*
X248028D01*
X247617Y153500D01*
X247152Y155841D01*
X245826Y157826D01*
X243841Y159152D01*
X241500Y159618D01*
X239159Y159152D01*
X237174Y157826D01*
X235848Y155841D01*
X235382Y153500D01*
X234972Y153000D01*
X229028D01*
X228617Y153500D01*
X228152Y155841D01*
X226826Y157826D01*
X224841Y159152D01*
X222500Y159618D01*
X220159Y159152D01*
X218174Y157826D01*
X216848Y155841D01*
X216382Y153500D01*
X215972Y153000D01*
X190000D01*
Y262685D01*
X192028Y263769D01*
X192659Y263348D01*
X195000Y262882D01*
X197341Y263348D01*
X199326Y264674D01*
X200652Y266659D01*
X201117Y269000D01*
X200652Y271341D01*
X199326Y273326D01*
X197341Y274652D01*
X195000Y275117D01*
X192659Y274652D01*
X192028Y274231D01*
X190000Y275315D01*
Y290262D01*
X175334D01*
Y314428D01*
X201000D01*
Y412285D01*
X287358Y498643D01*
X287358Y498642D01*
X287358Y498643D01*
X288080Y499724D01*
X288334Y501000D01*
Y509044D01*
X309000Y529020D01*
Y529987D01*
Y751346D01*
X310000Y752312D01*
X280000D01*
Y635350D01*
X263000D01*
Y500988D01*
X62000D01*
Y587985D01*
X75000Y600551D01*
Y619884D01*
X72648Y622157D01*
X73652Y623659D01*
X74117Y626000D01*
X73652Y628341D01*
X72326Y630326D01*
X70341Y631652D01*
X68000Y632118D01*
X65659Y631652D01*
X63984Y630532D01*
X56000Y638250D01*
X43000D01*
Y660666D01*
X44276Y660920D01*
X45357Y661643D01*
X46080Y662724D01*
X46334Y664000D01*
Y677000D01*
X46080Y678276D01*
X45357Y679358D01*
X43000Y681715D01*
Y690666D01*
X108119D01*
X130615Y668170D01*
X130382Y667000D01*
X130848Y664659D01*
X132174Y662674D01*
X134159Y661348D01*
X136500Y660882D01*
X138841Y661348D01*
X140826Y662674D01*
X142152Y664659D01*
X142618Y667000D01*
X142152Y669341D01*
X140826Y671326D01*
X138841Y672652D01*
X136500Y673118D01*
X135330Y672885D01*
X111858Y696357D01*
X110776Y697080D01*
X109500Y697334D01*
X43000D01*
Y709781D01*
X92000Y757146D01*
Y759079D01*
Y900207D01*
X93000Y901174D01*
X88589Y905437D01*
X88615Y905470D01*
X89320Y907173D01*
X89560Y909000D01*
X89320Y910827D01*
X88615Y912530D01*
X87493Y913992D01*
X86030Y915115D01*
X84327Y915820D01*
X82500Y916060D01*
X80673Y915820D01*
X78970Y915115D01*
X78752Y914947D01*
X28000Y964005D01*
Y1109000D01*
X56000D01*
X92000Y1074201D01*
D02*
G37*
%LPC*%
G36*
X135000Y517118D02*
X132659Y516652D01*
X130674Y515326D01*
X129348Y513341D01*
X128883Y511000D01*
X129348Y508659D01*
X130674Y506674D01*
X132659Y505348D01*
X135000Y504883D01*
X137341Y505348D01*
X139326Y506674D01*
X140652Y508659D01*
X141117Y511000D01*
X140652Y513341D01*
X139326Y515326D01*
X137341Y516652D01*
X135000Y517118D01*
D02*
G37*
G36*
X115000D02*
X112659Y516652D01*
X110674Y515326D01*
X109348Y513341D01*
X108883Y511000D01*
X109348Y508659D01*
X110674Y506674D01*
X112659Y505348D01*
X115000Y504883D01*
X117341Y505348D01*
X119326Y506674D01*
X120652Y508659D01*
X121117Y511000D01*
X120652Y513341D01*
X119326Y515326D01*
X117341Y516652D01*
X115000Y517118D01*
D02*
G37*
G36*
X96000D02*
X93659Y516652D01*
X91674Y515326D01*
X90348Y513341D01*
X89882Y511000D01*
X90348Y508659D01*
X91674Y506674D01*
X93659Y505348D01*
X96000Y504883D01*
X98341Y505348D01*
X100326Y506674D01*
X101652Y508659D01*
X102118Y511000D01*
X101652Y513341D01*
X100326Y515326D01*
X98341Y516652D01*
X96000Y517118D01*
D02*
G37*
G36*
X224000D02*
X221659Y516652D01*
X219674Y515326D01*
X218348Y513341D01*
X217882Y511000D01*
X218348Y508659D01*
X219674Y506674D01*
X221659Y505348D01*
X224000Y504883D01*
X226341Y505348D01*
X228326Y506674D01*
X229652Y508659D01*
X230117Y511000D01*
X229652Y513341D01*
X228326Y515326D01*
X226341Y516652D01*
X224000Y517118D01*
D02*
G37*
G36*
X207000D02*
X204659Y516652D01*
X202674Y515326D01*
X201348Y513341D01*
X200882Y511000D01*
X201348Y508659D01*
X202674Y506674D01*
X204659Y505348D01*
X207000Y504883D01*
X209341Y505348D01*
X211326Y506674D01*
X212652Y508659D01*
X213118Y511000D01*
X212652Y513341D01*
X211326Y515326D01*
X209341Y516652D01*
X207000Y517118D01*
D02*
G37*
G36*
X153000D02*
X150659Y516652D01*
X148674Y515326D01*
X147348Y513341D01*
X146882Y511000D01*
X147348Y508659D01*
X148674Y506674D01*
X150659Y505348D01*
X153000Y504883D01*
X155341Y505348D01*
X157326Y506674D01*
X158652Y508659D01*
X159117Y511000D01*
X158652Y513341D01*
X157326Y515326D01*
X155341Y516652D01*
X153000Y517118D01*
D02*
G37*
G36*
X221500Y192617D02*
X219159Y192152D01*
X217174Y190826D01*
X215848Y188841D01*
X215382Y186500D01*
X215848Y184159D01*
X217174Y182174D01*
X219159Y180848D01*
X221500Y180382D01*
X223841Y180848D01*
X225826Y182174D01*
X227152Y184159D01*
X227617Y186500D01*
X227152Y188841D01*
X225826Y190826D01*
X223841Y192152D01*
X221500Y192617D01*
D02*
G37*
G36*
X351500Y190618D02*
X349159Y190152D01*
X347174Y188826D01*
X345848Y186841D01*
X345382Y184500D01*
X345848Y182159D01*
X347174Y180174D01*
X349159Y178848D01*
X351500Y178382D01*
X353841Y178848D01*
X355826Y180174D01*
X357152Y182159D01*
X357617Y184500D01*
X357152Y186841D01*
X355826Y188826D01*
X353841Y190152D01*
X351500Y190618D01*
D02*
G37*
G36*
Y175618D02*
X349159Y175152D01*
X347174Y173826D01*
X345848Y171841D01*
X345382Y169500D01*
X345848Y167159D01*
X347174Y165174D01*
X349159Y163848D01*
X351500Y163382D01*
X353841Y163848D01*
X355826Y165174D01*
X357152Y167159D01*
X357617Y169500D01*
X357152Y171841D01*
X355826Y173826D01*
X353841Y175152D01*
X351500Y175618D01*
D02*
G37*
G36*
X221500Y174618D02*
X219159Y174152D01*
X217174Y172826D01*
X215848Y170841D01*
X215382Y168500D01*
X215848Y166159D01*
X217174Y164174D01*
X219159Y162848D01*
X221500Y162383D01*
X223841Y162848D01*
X225826Y164174D01*
X227152Y166159D01*
X227617Y168500D01*
X227152Y170841D01*
X225826Y172826D01*
X223841Y174152D01*
X221500Y174618D01*
D02*
G37*
G36*
X351500Y207617D02*
X349159Y207152D01*
X347174Y205826D01*
X345848Y203841D01*
X345382Y201500D01*
X345848Y199159D01*
X347174Y197174D01*
X349159Y195848D01*
X351500Y195382D01*
X353841Y195848D01*
X355826Y197174D01*
X357152Y199159D01*
X357617Y201500D01*
X357152Y203841D01*
X355826Y205826D01*
X353841Y207152D01*
X351500Y207617D01*
D02*
G37*
G36*
X221500D02*
X219159Y207152D01*
X217174Y205826D01*
X215848Y203841D01*
X215382Y201500D01*
X215848Y199159D01*
X217174Y197174D01*
X219159Y195848D01*
X221500Y195382D01*
X223841Y195848D01*
X225826Y197174D01*
X227152Y199159D01*
X227617Y201500D01*
X227152Y203841D01*
X225826Y205826D01*
X223841Y207152D01*
X221500Y207617D01*
D02*
G37*
G36*
X426000Y643118D02*
X423659Y642652D01*
X421674Y641326D01*
X420650Y639793D01*
X418350D01*
X417326Y641326D01*
X415341Y642652D01*
X413000Y643118D01*
X410659Y642652D01*
X408674Y641326D01*
X407650Y639793D01*
X405350D01*
X404326Y641326D01*
X402341Y642652D01*
X400000Y643118D01*
X397659Y642652D01*
X395674Y641326D01*
X394348Y639341D01*
X393882Y637000D01*
X394348Y634659D01*
X395674Y632674D01*
X397207Y631650D01*
Y629350D01*
X395674Y628326D01*
X394348Y626341D01*
X393882Y624000D01*
X394348Y621659D01*
X395674Y619674D01*
X396459Y619150D01*
Y616850D01*
X395674Y616326D01*
X394348Y614341D01*
X393882Y612000D01*
X394348Y609659D01*
X395674Y607674D01*
X397207Y606650D01*
Y604350D01*
X395674Y603326D01*
X394348Y601341D01*
X393882Y599000D01*
X394348Y596659D01*
X395674Y594674D01*
X397207Y593650D01*
Y591350D01*
X395674Y590326D01*
X394348Y588341D01*
X393882Y586000D01*
X394348Y583659D01*
X395674Y581674D01*
X397207Y580650D01*
Y578350D01*
X395674Y577326D01*
X394348Y575341D01*
X393882Y573000D01*
X394348Y570659D01*
X395674Y568674D01*
X397207Y567650D01*
Y565350D01*
X395674Y564326D01*
X394348Y562341D01*
X393882Y560000D01*
X394348Y557659D01*
X395674Y555674D01*
X397207Y554650D01*
Y552350D01*
X395674Y551326D01*
X394348Y549341D01*
X393882Y547000D01*
X394348Y544659D01*
X395674Y542674D01*
X396459Y542150D01*
Y539850D01*
X395674Y539326D01*
X394348Y537341D01*
X393882Y535000D01*
X394348Y532659D01*
X395674Y530674D01*
X397207Y529650D01*
Y527350D01*
X395674Y526326D01*
X394348Y524341D01*
X393882Y522000D01*
X394348Y519659D01*
X395674Y517674D01*
X397207Y516650D01*
Y514350D01*
X395674Y513326D01*
X394348Y511341D01*
X393882Y509000D01*
X394348Y506659D01*
X395674Y504674D01*
X397207Y503650D01*
Y501350D01*
X395674Y500326D01*
X394348Y498341D01*
X393882Y496000D01*
X394348Y493659D01*
X395674Y491674D01*
X397659Y490348D01*
X400000Y489883D01*
X402341Y490348D01*
X404326Y491674D01*
X405350Y493207D01*
X407650D01*
X408674Y491674D01*
X410659Y490348D01*
X413000Y489883D01*
X415341Y490348D01*
X417326Y491674D01*
X418350Y493207D01*
X420650D01*
X421674Y491674D01*
X423659Y490348D01*
X426000Y489883D01*
X428341Y490348D01*
X430326Y491674D01*
X431652Y493659D01*
X432118Y496000D01*
X431652Y498341D01*
X430326Y500326D01*
X428793Y501350D01*
Y503650D01*
X430326Y504674D01*
X431652Y506659D01*
X432118Y509000D01*
X431652Y511341D01*
X430326Y513326D01*
X428793Y514350D01*
Y516650D01*
X430326Y517674D01*
X431652Y519659D01*
X432118Y522000D01*
X431652Y524341D01*
X430326Y526326D01*
X428793Y527350D01*
Y529650D01*
X430326Y530674D01*
X431652Y532659D01*
X432118Y535000D01*
X431652Y537341D01*
X430326Y539326D01*
X429541Y539850D01*
Y542150D01*
X430326Y542674D01*
X431652Y544659D01*
X432118Y547000D01*
X431652Y549341D01*
X430326Y551326D01*
X428793Y552350D01*
Y554650D01*
X430326Y555674D01*
X431652Y557659D01*
X432118Y560000D01*
X431652Y562341D01*
X430326Y564326D01*
X428793Y565350D01*
Y567650D01*
X430326Y568674D01*
X431652Y570659D01*
X432118Y573000D01*
X431652Y575341D01*
X430326Y577326D01*
X428793Y578350D01*
Y580650D01*
X430326Y581674D01*
X431652Y583659D01*
X432118Y586000D01*
X431652Y588341D01*
X430326Y590326D01*
X428793Y591350D01*
Y593650D01*
X430326Y594674D01*
X431652Y596659D01*
X432118Y599000D01*
X431652Y601341D01*
X430326Y603326D01*
X428793Y604350D01*
Y606650D01*
X430326Y607674D01*
X431652Y609659D01*
X432118Y612000D01*
X431652Y614341D01*
X430326Y616326D01*
X429541Y616850D01*
Y619150D01*
X430326Y619674D01*
X431652Y621659D01*
X432118Y624000D01*
X431652Y626341D01*
X430326Y628326D01*
X428793Y629350D01*
Y631650D01*
X430326Y632674D01*
X431652Y634659D01*
X432118Y637000D01*
X431652Y639341D01*
X430326Y641326D01*
X428341Y642652D01*
X426000Y643118D01*
D02*
G37*
G36*
X243503Y631118D02*
X241161Y630652D01*
X239177Y629326D01*
X237851Y627341D01*
X237385Y625000D01*
X237851Y622659D01*
X239177Y620674D01*
X241161Y619348D01*
X243503Y618882D01*
X245844Y619348D01*
X247828Y620674D01*
X249154Y622659D01*
X249620Y625000D01*
X249154Y627341D01*
X247828Y629326D01*
X245844Y630652D01*
X243503Y631118D01*
D02*
G37*
G36*
X225000Y565117D02*
X222659Y564652D01*
X220674Y563326D01*
X219348Y561341D01*
X218883Y559000D01*
X219348Y556659D01*
X220674Y554674D01*
X222659Y553348D01*
X225000Y552882D01*
X227341Y553348D01*
X229326Y554674D01*
X230652Y556659D01*
X231117Y559000D01*
X230652Y561341D01*
X229326Y563326D01*
X227341Y564652D01*
X225000Y565117D01*
D02*
G37*
G36*
X352500Y918560D02*
X350673Y918320D01*
X348970Y917615D01*
X347508Y916492D01*
X346385Y915030D01*
X345680Y913327D01*
X345440Y911500D01*
X345680Y909673D01*
X346385Y907970D01*
X347508Y906508D01*
X348970Y905386D01*
X350673Y904680D01*
X352500Y904440D01*
X354327Y904680D01*
X356030Y905386D01*
X357492Y906508D01*
X358615Y907970D01*
X359320Y909673D01*
X359560Y911500D01*
X359320Y913327D01*
X358615Y915030D01*
X357492Y916492D01*
X356030Y917615D01*
X354327Y918320D01*
X352500Y918560D01*
D02*
G37*
G36*
X173000Y803118D02*
X170659Y802652D01*
X168674Y801326D01*
X167650Y799793D01*
X165350D01*
X164326Y801326D01*
X162341Y802652D01*
X160000Y803118D01*
X157659Y802652D01*
X155674Y801326D01*
X154650Y799793D01*
X152350D01*
X151326Y801326D01*
X149341Y802652D01*
X147000Y803118D01*
X144659Y802652D01*
X142674Y801326D01*
X141650Y799793D01*
X139350D01*
X138326Y801326D01*
X136341Y802652D01*
X134000Y803118D01*
X131659Y802652D01*
X129674Y801326D01*
X129150Y800541D01*
X126850D01*
X126326Y801326D01*
X124341Y802652D01*
X122000Y803118D01*
X119659Y802652D01*
X117674Y801326D01*
X116348Y799341D01*
X115883Y797000D01*
X116348Y794659D01*
X117674Y792674D01*
X119207Y791650D01*
Y789350D01*
X117674Y788326D01*
X116348Y786341D01*
X115883Y784000D01*
X116348Y781659D01*
X117674Y779674D01*
X119207Y778650D01*
Y776350D01*
X117674Y775326D01*
X116348Y773341D01*
X115883Y771000D01*
X116348Y768659D01*
X117674Y766674D01*
X119207Y765650D01*
Y763350D01*
X117674Y762326D01*
X116348Y760341D01*
X115883Y758000D01*
X116348Y755659D01*
X117674Y753674D01*
X119207Y752650D01*
Y750350D01*
X117674Y749326D01*
X116348Y747341D01*
X115883Y745000D01*
X116348Y742659D01*
X117674Y740674D01*
X119659Y739348D01*
X122000Y738883D01*
X124341Y739348D01*
X126326Y740674D01*
X126850Y741459D01*
X129150D01*
X129674Y740674D01*
X131659Y739348D01*
X134000Y738883D01*
X136341Y739348D01*
X138326Y740674D01*
X139350Y742207D01*
X141650D01*
X142674Y740674D01*
X144659Y739348D01*
X144116Y736621D01*
X143674Y736326D01*
X142348Y734341D01*
X141882Y732000D01*
X142348Y729659D01*
X143674Y727674D01*
X145207Y726650D01*
Y724350D01*
X143674Y723326D01*
X142348Y721341D01*
X141882Y719000D01*
X142348Y716659D01*
X143674Y714674D01*
X145207Y713650D01*
Y711350D01*
X143674Y710326D01*
X142348Y708341D01*
X141882Y706000D01*
X142348Y703659D01*
X143674Y701674D01*
X145659Y700348D01*
X148000Y699882D01*
X150341Y700348D01*
X152326Y701674D01*
X153350Y703207D01*
X155650D01*
X156674Y701674D01*
X158659Y700348D01*
X161000Y699882D01*
X163341Y700348D01*
X165326Y701674D01*
X166350Y703207D01*
X168650D01*
X169674Y701674D01*
X171659Y700348D01*
X174000Y699882D01*
X176341Y700348D01*
X178326Y701674D01*
X179652Y703659D01*
X180117Y706000D01*
X179652Y708341D01*
X178326Y710326D01*
X176793Y711350D01*
Y713650D01*
X178326Y714674D01*
X179652Y716659D01*
X180117Y719000D01*
X179652Y721341D01*
X178326Y723326D01*
X176793Y724350D01*
Y726650D01*
X178326Y727674D01*
X179652Y729659D01*
X180117Y732000D01*
X179652Y734341D01*
X178326Y736326D01*
X176341Y737652D01*
X176884Y740379D01*
X177326Y740674D01*
X178652Y742659D01*
X179118Y745000D01*
X178652Y747341D01*
X177326Y749326D01*
X175793Y750350D01*
Y752650D01*
X177326Y753674D01*
X178652Y755659D01*
X179118Y758000D01*
X178652Y760341D01*
X177326Y762326D01*
X175793Y763350D01*
Y765650D01*
X177326Y766674D01*
X178652Y768659D01*
X179118Y771000D01*
X178652Y773341D01*
X177326Y775326D01*
X175793Y776350D01*
Y778650D01*
X177326Y779674D01*
X178652Y781659D01*
X179118Y784000D01*
X178652Y786341D01*
X177326Y788326D01*
X175793Y789350D01*
Y791650D01*
X177326Y792674D01*
X178652Y794659D01*
X179118Y797000D01*
X178652Y799341D01*
X177326Y801326D01*
X175341Y802652D01*
X173000Y803118D01*
D02*
G37*
G36*
X353500Y811560D02*
X351673Y811320D01*
X349970Y810614D01*
X348508Y809492D01*
X347385Y808030D01*
X346680Y806327D01*
X346440Y804500D01*
X346680Y802673D01*
X347385Y800970D01*
X348508Y799508D01*
X349970Y798385D01*
X351673Y797680D01*
X353500Y797440D01*
X355327Y797680D01*
X357030Y798385D01*
X358493Y799508D01*
X359614Y800970D01*
X360320Y802673D01*
X360560Y804500D01*
X360320Y806327D01*
X359614Y808030D01*
X358493Y809492D01*
X357030Y810614D01*
X355327Y811320D01*
X353500Y811560D01*
D02*
G37*
G36*
X95000Y565117D02*
X92659Y564652D01*
X90674Y563326D01*
X89348Y561341D01*
X88882Y559000D01*
X89348Y556659D01*
X90674Y554674D01*
X92659Y553348D01*
X95000Y552882D01*
X97341Y553348D01*
X99326Y554674D01*
X100652Y556659D01*
X101117Y559000D01*
X100652Y561341D01*
X99326Y563326D01*
X97341Y564652D01*
X95000Y565117D01*
D02*
G37*
G36*
Y532118D02*
X92659Y531652D01*
X90674Y530326D01*
X89348Y528341D01*
X88882Y526000D01*
X89348Y523659D01*
X90674Y521674D01*
X92659Y520348D01*
X95000Y519883D01*
X97341Y520348D01*
X99326Y521674D01*
X100652Y523659D01*
X101117Y526000D01*
X100652Y528341D01*
X99326Y530326D01*
X97341Y531652D01*
X95000Y532118D01*
D02*
G37*
G36*
X188760Y517118D02*
X186419Y516652D01*
X184434Y515326D01*
X183108Y513341D01*
X182642Y511000D01*
X183108Y508659D01*
X184434Y506674D01*
X186419Y505348D01*
X188760Y504883D01*
X191101Y505348D01*
X193086Y506674D01*
X194412Y508659D01*
X194877Y511000D01*
X194412Y513341D01*
X193086Y515326D01*
X191101Y516652D01*
X188760Y517118D01*
D02*
G37*
G36*
X170760D02*
X168419Y516652D01*
X166434Y515326D01*
X165108Y513341D01*
X164642Y511000D01*
X165108Y508659D01*
X166434Y506674D01*
X168419Y505348D01*
X170760Y504883D01*
X173101Y505348D01*
X175086Y506674D01*
X176412Y508659D01*
X176877Y511000D01*
X176412Y513341D01*
X175086Y515326D01*
X173101Y516652D01*
X170760Y517118D01*
D02*
G37*
G36*
X95000Y550117D02*
X92659Y549652D01*
X90674Y548326D01*
X89348Y546341D01*
X88882Y544000D01*
X89348Y541659D01*
X90674Y539674D01*
X92659Y538348D01*
X95000Y537882D01*
X97341Y538348D01*
X99326Y539674D01*
X100652Y541659D01*
X101117Y544000D01*
X100652Y546341D01*
X99326Y548326D01*
X97341Y549652D01*
X95000Y550117D01*
D02*
G37*
G36*
X225000Y548117D02*
X222659Y547652D01*
X220674Y546326D01*
X219348Y544341D01*
X218883Y542000D01*
X219348Y539659D01*
X220674Y537674D01*
X222659Y536348D01*
X225000Y535882D01*
X227341Y536348D01*
X229326Y537674D01*
X230652Y539659D01*
X231117Y542000D01*
X230652Y544341D01*
X229326Y546326D01*
X227341Y547652D01*
X225000Y548117D01*
D02*
G37*
G36*
Y533117D02*
X222659Y532652D01*
X220674Y531326D01*
X219348Y529341D01*
X218883Y527000D01*
X219348Y524659D01*
X220674Y522674D01*
X222659Y521348D01*
X225000Y520882D01*
X227341Y521348D01*
X229326Y522674D01*
X230652Y524659D01*
X231117Y527000D01*
X230652Y529341D01*
X229326Y531326D01*
X227341Y532652D01*
X225000Y533117D01*
D02*
G37*
%LPD*%
D11*
X285000Y585000D02*
D03*
X284000Y672000D02*
D03*
Y660000D02*
D03*
Y684000D02*
D03*
Y648000D02*
D03*
Y707000D02*
D03*
Y695000D02*
D03*
X75000Y705000D02*
D03*
Y718000D02*
D03*
X375000Y351000D02*
D03*
Y375000D02*
D03*
Y339000D02*
D03*
X35000Y1099000D02*
D03*
Y1085000D02*
D03*
Y1071000D02*
D03*
Y1057000D02*
D03*
Y1043000D02*
D03*
X402000Y1099000D02*
D03*
Y1085000D02*
D03*
Y1071000D02*
D03*
Y1057000D02*
D03*
Y1043000D02*
D03*
X35000Y973000D02*
D03*
Y959000D02*
D03*
Y987000D02*
D03*
Y1001000D02*
D03*
Y1015000D02*
D03*
Y1029000D02*
D03*
X402000Y973000D02*
D03*
Y959000D02*
D03*
Y987000D02*
D03*
Y1001000D02*
D03*
Y1015000D02*
D03*
Y1029000D02*
D03*
X263000Y1068000D02*
D03*
Y1054000D02*
D03*
Y1040000D02*
D03*
Y1026000D02*
D03*
Y998000D02*
D03*
Y1012000D02*
D03*
X279000Y1068000D02*
D03*
Y1054000D02*
D03*
Y1040000D02*
D03*
Y1026000D02*
D03*
Y998000D02*
D03*
Y1012000D02*
D03*
X151000Y1068000D02*
D03*
Y1054000D02*
D03*
Y1040000D02*
D03*
Y1026000D02*
D03*
Y998000D02*
D03*
Y1012000D02*
D03*
X167000Y1068000D02*
D03*
Y1054000D02*
D03*
Y1040000D02*
D03*
Y1026000D02*
D03*
Y998000D02*
D03*
Y1012000D02*
D03*
X183000Y1068000D02*
D03*
Y1054000D02*
D03*
Y1040000D02*
D03*
Y1026000D02*
D03*
Y998000D02*
D03*
Y1012000D02*
D03*
X199000Y1068000D02*
D03*
Y1054000D02*
D03*
Y1040000D02*
D03*
Y1026000D02*
D03*
Y998000D02*
D03*
Y1012000D02*
D03*
X247000D02*
D03*
Y998000D02*
D03*
Y1026000D02*
D03*
Y1040000D02*
D03*
Y1054000D02*
D03*
Y1068000D02*
D03*
X231000Y1012000D02*
D03*
Y998000D02*
D03*
Y1026000D02*
D03*
Y1040000D02*
D03*
Y1054000D02*
D03*
Y1068000D02*
D03*
X215000D02*
D03*
Y1054000D02*
D03*
Y1040000D02*
D03*
Y1026000D02*
D03*
Y998000D02*
D03*
Y1012000D02*
D03*
X180000Y1210000D02*
D03*
X255000Y1215000D02*
D03*
X375000Y1460000D02*
D03*
X242500Y1197000D02*
D03*
X192500D02*
D03*
X232500Y1184500D02*
D03*
X202500D02*
D03*
X192500Y1322000D02*
D03*
X202500Y1334500D02*
D03*
X242500Y1322000D02*
D03*
X232500Y1334500D02*
D03*
X296000Y1081000D02*
D03*
X390050Y1129450D02*
D03*
X131360Y1142140D02*
D03*
X110640Y1154640D02*
D03*
X244000Y571000D02*
D03*
Y535000D02*
D03*
X109770Y1135000D02*
D03*
X318395Y1138000D02*
D03*
X375000Y363000D02*
D03*
D47*
X40500Y1245500D02*
X117750D01*
X46000Y1258000D02*
X154000D01*
X4000Y1216000D02*
X46000Y1258000D01*
X154000D02*
X155500Y1256500D01*
X4000Y716000D02*
X43000Y677000D01*
Y664000D02*
Y677000D01*
X109500Y694000D02*
X136500Y667000D01*
X36000Y694000D02*
X109500D01*
X8540Y721460D02*
X36000Y694000D01*
X4000Y716000D02*
Y1216000D01*
X8540Y1213540D02*
X40500Y1245500D01*
X8540Y721460D02*
Y1213540D01*
X117750Y1245500D02*
X118000Y1245750D01*
X147500Y1312500D02*
X177000Y1342000D01*
X147500Y1265500D02*
Y1312500D01*
Y1265500D02*
X164250Y1282250D01*
X178500D01*
X19000Y7000D02*
X387000D01*
X435000Y55000D01*
Y262000D01*
X470000Y297000D01*
X123000Y152000D02*
Y225000D01*
X388000Y253000D02*
X418000D01*
X430000Y241000D01*
X202500Y1334500D02*
X232500D01*
X192500Y1322000D02*
X242500D01*
X200230Y1332230D02*
X202500Y1334500D01*
X252460Y11540D02*
X385120D01*
X430000Y56420D01*
Y241000D01*
X123000Y152000D02*
X160000Y115000D01*
X211000Y53000D02*
X252460Y11540D01*
X6000Y20000D02*
X19000Y7000D01*
X34000Y270000D02*
X155000D01*
X4000Y592000D02*
X32000Y620000D01*
X285000Y501000D02*
Y585000D01*
X4000Y300000D02*
Y592000D01*
X6000Y20000D02*
Y298000D01*
X34000Y270000D01*
X211000Y53000D02*
Y99000D01*
X214000Y102000D01*
X213000Y115000D02*
X214000Y114000D01*
X160000Y115000D02*
X213000D01*
X163000Y1340000D02*
Y1342000D01*
X123000Y225000D02*
X172000Y274000D01*
Y388000D01*
X285000Y501000D01*
D51*
X296000Y1081000D02*
Y1146791D01*
X258291Y1184500D02*
X296000Y1146791D01*
X232500Y1184500D02*
X258291D01*
X242500Y1197000D02*
X259395D01*
X355700Y1163800D02*
X390050Y1129450D01*
X306200Y1163800D02*
X355700D01*
X255000Y1215000D02*
X306200Y1163800D01*
X109770Y1135838D02*
X121450Y1147518D01*
Y1151845D01*
X140675Y1171070D01*
X154675D01*
X180605Y1197000D01*
X192500D01*
X110640Y1154640D02*
X136690Y1180690D01*
X150690D01*
X180000Y1210000D01*
X217500Y1294500D02*
X254000D01*
X291000Y1331500D01*
X306000Y1346500D01*
Y1391000D01*
X375000Y1460000D01*
X259395Y1197000D02*
X318395Y1138000D01*
D62*
X251500Y238000D02*
D03*
Y256000D02*
D03*
X260500Y229000D02*
D03*
Y247000D02*
D03*
X269500Y238000D02*
D03*
Y256000D02*
D03*
X278500Y229000D02*
D03*
Y247000D02*
D03*
X287500Y238000D02*
D03*
Y256000D02*
D03*
X251500Y184000D02*
D03*
X269500D02*
D03*
X260500Y193000D02*
D03*
X278500D02*
D03*
X251500Y202000D02*
D03*
X269500D02*
D03*
X260500Y211000D02*
D03*
X278500D02*
D03*
X251500Y220000D02*
D03*
X269500D02*
D03*
X305500Y184000D02*
D03*
X323500D02*
D03*
X296500Y193000D02*
D03*
X314500D02*
D03*
X305500Y202000D02*
D03*
X323500D02*
D03*
X296500Y211000D02*
D03*
X314500D02*
D03*
X305500Y256000D02*
D03*
X323500D02*
D03*
X296500Y247000D02*
D03*
X314500D02*
D03*
X305500Y238000D02*
D03*
X323500D02*
D03*
X296500Y229000D02*
D03*
X314500D02*
D03*
X287500Y184000D02*
D03*
X323500Y220000D02*
D03*
X287500Y202000D02*
D03*
X305500Y220000D02*
D03*
X287500D02*
D03*
X125000Y595500D02*
D03*
Y613500D02*
D03*
X134000Y586500D02*
D03*
Y604500D02*
D03*
X143000Y595500D02*
D03*
Y613500D02*
D03*
X152000Y586500D02*
D03*
Y604500D02*
D03*
X161000Y595500D02*
D03*
Y613500D02*
D03*
X125000Y541500D02*
D03*
X143000D02*
D03*
X134000Y550500D02*
D03*
X152000D02*
D03*
X125000Y559500D02*
D03*
X143000D02*
D03*
X134000Y568500D02*
D03*
X152000D02*
D03*
X125000Y577500D02*
D03*
X143000D02*
D03*
X179000Y541500D02*
D03*
X197000D02*
D03*
X170000Y550500D02*
D03*
X188000D02*
D03*
X179000Y559500D02*
D03*
X197000D02*
D03*
X170000Y568500D02*
D03*
X188000D02*
D03*
X179000Y613500D02*
D03*
X197000D02*
D03*
X170000Y604500D02*
D03*
X188000D02*
D03*
X179000Y595500D02*
D03*
X197000D02*
D03*
X170000Y586500D02*
D03*
X188000D02*
D03*
X161000Y541500D02*
D03*
X197000Y577500D02*
D03*
X161000Y559500D02*
D03*
X179000Y577500D02*
D03*
X161000D02*
D03*
D66*
X118000Y1245750D02*
D03*
X178500Y1282250D02*
D03*
X147500Y1265500D02*
D03*
X6000Y298000D02*
D03*
X470000Y297000D02*
D03*
X214000Y102000D02*
D03*
Y114000D02*
D03*
X388000Y253000D02*
D03*
X32000Y620000D02*
D03*
X155000Y270000D02*
D03*
X217500Y1294500D02*
D03*
X155500Y1256500D02*
D03*
X163000Y1342000D02*
D03*
X177000D02*
D03*
X136500Y667000D02*
D03*
X43000Y664000D02*
D03*
D67*
X291000Y1331500D02*
D03*
D68*
X131360Y1142140D02*
Y1143064D01*
X150000Y1161704D01*
X158554D01*
X182906Y1186056D01*
X200944D01*
X202500Y1184500D01*
M02*
