%FSLAX44Y44*%
%MOMM*%
G71*
G01*
G75*
G04 Layer_Color=16711935*
%ADD10R,1.2000X0.8000*%
%ADD11C,1.0000*%
%ADD12R,2.0000X3.5000*%
%ADD13R,3.0000X4.0000*%
%ADD14R,4.0000X2.8000*%
%ADD15R,2.8000X4.0000*%
%ADD16R,4.0000X3.0000*%
%ADD17R,0.6000X0.5000*%
%ADD18R,1.6000X1.4000*%
%ADD19R,0.9500X0.9000*%
%ADD20R,2.0000X2.0000*%
%ADD21R,2.0000X3.2000*%
%ADD22R,3.5000X2.0000*%
%ADD23R,0.5000X0.6000*%
%ADD24C,2.0000*%
%ADD25R,1.0000X1.8000*%
%ADD26R,3.0000X0.8000*%
%ADD27R,3.2000X2.0000*%
%ADD28R,2.8000X1.5000*%
%ADD29R,7.7000X1.6000*%
%ADD30R,1.7000X1.6000*%
%ADD31R,1.6000X6.3000*%
%ADD32R,1.8000X0.2900*%
%ADD33R,8.7000X8.7000*%
%ADD34R,1.6000X1.7000*%
%ADD35R,5.1500X3.1500*%
%ADD36R,0.7000X0.2900*%
%ADD37R,0.2900X0.7000*%
%ADD38R,0.8000X1.2000*%
%ADD39R,1.1000X1.2000*%
%ADD40R,0.9000X0.9500*%
%ADD41R,4.5000X4.0000*%
%ADD42R,3.2000X3.0000*%
%ADD43R,4.5000X4.2000*%
%ADD44R,0.5500X1.7000*%
%ADD45R,1.7000X0.5500*%
%ADD46R,4.2000X4.5000*%
%ADD47C,0.2540*%
%ADD48C,4.5720*%
%ADD49C,5.0000*%
%ADD50C,0.2286*%
%ADD51C,0.7620*%
%ADD52C,1.0160*%
%ADD53C,0.2032*%
%ADD54C,0.6350*%
%ADD55R,1.6000X6.7000*%
%ADD56R,12.5000X1.4000*%
%ADD57R,1.7500X7.2000*%
%ADD58R,1.6000X5.6000*%
%ADD59R,12.6000X1.3500*%
%ADD60R,1.8000X7.0750*%
%ADD61R,6.2500X6.2500*%
%ADD62C,0.8100*%
%ADD63C,1.5240*%
%ADD64C,1.8500*%
%ADD65C,8.0000*%
%ADD66C,0.8000*%
%ADD67C,1.2700*%
%ADD68C,0.7112*%
%ADD69C,1.2700*%
%ADD70C,0.0500*%
%ADD71C,0.2000*%
%ADD72C,0.1270*%
%ADD73R,1.4032X1.0032*%
%ADD74C,2.0000*%
%ADD75R,2.2032X3.7032*%
%ADD76R,3.2032X4.2032*%
%ADD77R,4.2032X3.0032*%
%ADD78R,3.0032X4.2032*%
%ADD79R,4.2032X3.2032*%
%ADD80R,0.8032X0.7032*%
%ADD81R,1.8032X1.6032*%
%ADD82R,1.1532X1.1032*%
%ADD83R,2.2032X2.2032*%
%ADD84R,2.2032X3.4032*%
%ADD85R,3.7032X2.2032*%
%ADD86R,0.7032X0.8032*%
%ADD87C,2.2032*%
%ADD88R,1.2032X2.0032*%
%ADD89R,3.2032X1.0032*%
%ADD90R,3.4032X2.2032*%
%ADD91R,3.0032X1.7032*%
%ADD92R,7.7200X1.6200*%
%ADD93R,1.7200X1.6200*%
%ADD94R,1.6200X6.3200*%
%ADD95R,1.8200X0.3100*%
%ADD96R,8.7200X8.7200*%
%ADD97R,1.6200X1.7200*%
%ADD98R,5.1900X3.1900*%
%ADD99R,0.7400X0.3300*%
%ADD100R,0.3300X0.7400*%
%ADD101R,1.0032X1.4032*%
%ADD102R,1.3032X1.4032*%
%ADD103R,1.1032X1.1532*%
%ADD104R,4.7032X4.2032*%
%ADD105R,3.4032X3.2032*%
%ADD106R,4.7032X4.4032*%
%ADD107R,0.7532X1.9032*%
%ADD108R,1.9032X0.7532*%
%ADD109R,4.4032X4.7032*%
%ADD110C,0.8300*%
%ADD111C,1.2032*%
%ADD112C,1.7272*%
%ADD113C,2.0532*%
%ADD114C,8.2032*%
%ADD115C,1.0032*%
%ADD116C,1.4732*%
%ADD117C,0.1000*%
D117*
X382870Y276249D02*
X393870D01*
X382870Y270249D02*
X393870D01*
X382870D02*
Y276249D01*
X393870Y270249D02*
Y276249D01*
X382870Y265249D02*
X393870D01*
X382870Y259249D02*
X393870D01*
X382870D02*
Y265249D01*
X393870Y259249D02*
Y265249D01*
X192129Y489749D02*
Y500750D01*
X186129Y489749D02*
Y500750D01*
X192129D01*
X186129Y489749D02*
X192129D01*
X210129D02*
Y500750D01*
X204129Y489749D02*
Y500750D01*
X210129D01*
X204129Y489749D02*
X210129D01*
X227129D02*
Y500750D01*
X221129Y489749D02*
Y500750D01*
X227129D01*
X221129Y489749D02*
X227129D01*
X365000Y1460500D02*
Y1479500D01*
X330000Y1460500D02*
X365000D01*
X330000Y1479500D02*
X365000D01*
X330000Y1460500D02*
Y1479500D01*
X50870Y617251D02*
X61870D01*
X50870Y623251D02*
X61870D01*
Y617251D02*
Y623251D01*
X50870Y617251D02*
Y623251D01*
Y628251D02*
X61870D01*
X50870Y634251D02*
X61870D01*
Y628251D02*
Y634251D01*
X50870Y628251D02*
Y634251D01*
X250870Y633749D02*
X261870D01*
X250870Y627749D02*
X261870D01*
X250870D02*
Y633749D01*
X261870Y627749D02*
Y633749D01*
X250870Y622749D02*
X261870D01*
X250870Y616749D02*
X261870D01*
X250870D02*
Y622749D01*
X261870Y616749D02*
Y622749D01*
X177369Y259751D02*
X188370D01*
X177369Y265751D02*
X188370D01*
Y259751D02*
Y265751D01*
X177369Y259751D02*
Y265751D01*
Y270751D02*
X188370D01*
X177369Y276751D02*
X188370D01*
Y270751D02*
Y276751D01*
X177369Y270751D02*
Y276751D01*
X360370Y204249D02*
X371371D01*
X360370Y198249D02*
X371371D01*
X360370D02*
Y204249D01*
X371371Y198249D02*
Y204249D01*
X360370Y188249D02*
X371371D01*
X360370Y182249D02*
X371371D01*
X360370D02*
Y188249D01*
X371371Y182249D02*
Y188249D01*
X233871Y561749D02*
X244870D01*
X233871Y555749D02*
X244870D01*
X233871D02*
Y561749D01*
X244870Y555749D02*
Y561749D01*
X233871Y545749D02*
X244870D01*
X233871Y539749D02*
X244870D01*
X233871D02*
Y545749D01*
X244870Y539749D02*
Y545749D01*
X233871Y529749D02*
X244870D01*
X233871Y523749D02*
X244870D01*
X233871D02*
Y529749D01*
X244870Y523749D02*
Y529749D01*
X233871Y512749D02*
X244870D01*
X233871Y506749D02*
X244870D01*
X233871D02*
Y512749D01*
X244870Y506749D02*
Y512749D01*
X156369Y489749D02*
Y500750D01*
X150369Y489749D02*
Y500750D01*
X156369D01*
X150369Y489749D02*
X156369D01*
X138369D02*
Y500750D01*
X132369Y489749D02*
Y500750D01*
X138369D01*
X132369Y489749D02*
X138369D01*
X118369D02*
Y500750D01*
X112369Y489749D02*
Y500750D01*
X118369D01*
X112369Y489749D02*
X118369D01*
X99369D02*
Y500750D01*
X93369Y489749D02*
Y500750D01*
X99369D01*
X93369Y489749D02*
X99369D01*
X174129Y489749D02*
Y500750D01*
X168129Y489749D02*
Y500750D01*
X174129D01*
X168129Y489749D02*
X174129D01*
X74370Y507251D02*
X85370D01*
X74370Y513251D02*
X85370D01*
Y507251D02*
Y513251D01*
X74370Y507251D02*
Y513251D01*
Y523251D02*
X85370D01*
X74370Y529251D02*
X85370D01*
Y523251D02*
Y529251D01*
X74370Y523251D02*
Y529251D01*
Y540251D02*
X85370D01*
X74370Y546251D02*
X85370D01*
Y540251D02*
Y546251D01*
X74370Y540251D02*
Y546251D01*
Y555251D02*
X85370D01*
X74370Y561251D02*
X85370D01*
Y555251D02*
Y561251D01*
X74370Y555251D02*
Y561251D01*
X219000Y1373500D02*
Y1379500D01*
X208000Y1373500D02*
Y1379500D01*
Y1373500D02*
X219000D01*
X208000Y1379500D02*
X219000D01*
X125750Y382500D02*
X131750D01*
X125750Y393500D02*
X131750D01*
X125750Y382500D02*
Y393500D01*
X131750Y382500D02*
Y393500D01*
X136500Y382500D02*
X142500D01*
X136500Y393500D02*
X142500D01*
X136500Y382500D02*
Y393500D01*
X142500Y382500D02*
Y393500D01*
X46250Y438500D02*
X52250D01*
X46250Y427500D02*
X52250D01*
Y438500D01*
X46250Y427500D02*
Y438500D01*
X35750D02*
X41750D01*
X35750Y427500D02*
X41750D01*
Y438500D01*
X35750Y427500D02*
Y438500D01*
X200424Y198000D02*
X211424D01*
X200424Y204000D02*
X211424D01*
Y198000D02*
Y204000D01*
X200424Y198000D02*
Y204000D01*
Y183000D02*
X211424D01*
X200424Y189000D02*
X211424D01*
Y183000D02*
Y189000D01*
X200424Y183000D02*
Y189000D01*
Y166000D02*
X211424D01*
X200424Y172000D02*
X211424D01*
Y166000D02*
Y172000D01*
X200424Y166000D02*
Y172000D01*
Y150000D02*
X211424D01*
X200424Y156000D02*
X211424D01*
Y150000D02*
Y156000D01*
X200424Y150000D02*
Y156000D01*
X226120Y132924D02*
Y143924D01*
X220120Y132924D02*
Y143924D01*
X226120D01*
X220120Y132924D02*
X226120D01*
X245240Y132424D02*
Y143424D01*
X239240Y132424D02*
Y143424D01*
X245240D01*
X239240Y132424D02*
X245240D01*
X265240D02*
Y143424D01*
X259240Y132424D02*
Y143424D01*
X265240D01*
X259240Y132424D02*
X265240D01*
X283240D02*
Y143424D01*
X277240Y132424D02*
Y143424D01*
X283240D01*
X277240Y132424D02*
X283240D01*
X301000Y132424D02*
Y143424D01*
X295000Y132424D02*
Y143424D01*
X301000D01*
X295000Y132424D02*
X301000D01*
X319000D02*
Y143424D01*
X313000Y132424D02*
Y143424D01*
X319000D01*
X313000Y132424D02*
X319000D01*
X337000D02*
Y143424D01*
X331000Y132424D02*
Y143424D01*
X337000D01*
X331000Y132424D02*
X337000D01*
X354000D02*
Y143424D01*
X348000Y132424D02*
Y143424D01*
X354000D01*
X348000Y132424D02*
X354000D01*
X360370Y155249D02*
X371371D01*
X360370Y149249D02*
X371371D01*
X360370D02*
Y155249D01*
X371371Y149249D02*
Y155249D01*
X360370Y172249D02*
X371371D01*
X360370Y166249D02*
X371371D01*
X360370D02*
Y172249D01*
X371371Y166249D02*
Y172249D01*
M02*
