%FSLAX44Y44*%
%MOMM*%
G71*
G01*
G75*
G04 Layer_Physical_Order=1*
G04 Layer_Color=255*
%ADD10R,1.2000X0.8000*%
%ADD11C,1.0000*%
%ADD12R,2.0000X3.5000*%
%ADD13R,3.0000X4.0000*%
%ADD14R,4.0000X2.8000*%
%ADD15R,2.8000X4.0000*%
%ADD16R,4.0000X3.0000*%
%ADD17R,0.6000X0.5000*%
%ADD18R,1.6000X1.4000*%
%ADD19R,0.9500X0.9000*%
%ADD20R,2.0000X2.0000*%
%ADD21R,2.0000X3.2000*%
%ADD22R,3.5000X2.0000*%
%ADD23R,0.5000X0.6000*%
%ADD24C,2.0000*%
%ADD25R,1.0000X1.8000*%
%ADD26R,3.0000X0.8000*%
%ADD27R,3.2000X2.0000*%
%ADD28R,2.8000X1.5000*%
%ADD29R,7.7000X1.6000*%
%ADD30R,1.7000X1.6000*%
%ADD31R,1.6000X6.3000*%
%ADD32R,1.8000X0.2900*%
%ADD33R,8.7000X8.7000*%
%ADD34R,1.6000X1.7000*%
%ADD35R,5.1500X3.1500*%
%ADD36R,0.7000X0.2900*%
%ADD37R,0.2900X0.7000*%
%ADD38R,0.8000X1.2000*%
%ADD39R,1.1000X1.2000*%
%ADD40R,0.9000X0.9500*%
%ADD41R,4.5000X4.0000*%
%ADD42R,3.2000X3.0000*%
%ADD43R,4.5000X4.2000*%
%ADD44R,0.5500X1.7000*%
%ADD45R,1.7000X0.5500*%
%ADD46R,4.2000X4.5000*%
%ADD47C,0.2540*%
%ADD48C,4.5720*%
%ADD49C,5.0000*%
%ADD50C,0.2286*%
%ADD51C,0.7620*%
%ADD52C,1.0160*%
%ADD53C,0.2032*%
%ADD54C,0.6350*%
%ADD55R,1.6000X6.7000*%
%ADD56R,12.5000X1.4000*%
%ADD57R,1.7500X7.2000*%
%ADD58R,1.6000X5.6000*%
%ADD59R,12.6000X1.3500*%
%ADD60R,1.8000X7.0750*%
%ADD61R,6.2500X6.2500*%
%ADD62C,0.8100*%
%ADD63C,1.5240*%
%ADD64C,1.8500*%
%ADD65C,8.0000*%
%ADD66C,0.8000*%
%ADD67C,1.2700*%
G36*
X86000Y1467000D02*
X130000D01*
Y1404000D01*
X131000Y1403000D01*
X428961D01*
Y1190500D01*
X429116Y1189720D01*
X429558Y1189058D01*
X430220Y1188616D01*
X431000Y1188461D01*
X433461D01*
Y1168539D01*
X431000D01*
X430220Y1168384D01*
X429645Y1168000D01*
X310000D01*
Y1127000D01*
X310000Y1127000D01*
X310000Y1127000D01*
X309586Y1126000D01*
X288000D01*
Y1111000D01*
X144000D01*
Y1127000D01*
X136636D01*
Y1137518D01*
X137474Y1138610D01*
X138180Y1140313D01*
X138420Y1142140D01*
X138180Y1143967D01*
X137474Y1145670D01*
X136352Y1147132D01*
X134890Y1148254D01*
X133187Y1148960D01*
X131360Y1149200D01*
X129533Y1148960D01*
X127830Y1148254D01*
X126368Y1147132D01*
X126178Y1146885D01*
X124000Y1147625D01*
Y1168000D01*
X1000D01*
Y1246000D01*
X43000D01*
Y1481000D01*
X86000D01*
Y1467000D01*
D02*
G37*
G36*
X120000Y1015000D02*
X44000D01*
Y1164000D01*
X82800D01*
Y1156846D01*
X82675Y1156659D01*
X82274Y1154640D01*
X82675Y1152621D01*
X82800Y1152434D01*
Y1144140D01*
X92300D01*
Y1149364D01*
X106018D01*
X107110Y1148525D01*
X108813Y1147820D01*
X110640Y1147580D01*
X112467Y1147820D01*
X114170Y1148525D01*
X115632Y1149648D01*
X116755Y1151110D01*
X117460Y1152813D01*
X117700Y1154640D01*
X117460Y1156467D01*
X116755Y1158170D01*
X115632Y1159632D01*
X114170Y1160754D01*
X112467Y1161460D01*
X110640Y1161700D01*
X108813Y1161460D01*
X107110Y1160754D01*
X106018Y1159916D01*
X92300D01*
Y1164000D01*
X120000D01*
Y1015000D01*
D02*
G37*
G36*
X-2000Y1161000D02*
X-1000Y1160000D01*
X40000D01*
Y1010000D01*
X125000D01*
Y1069315D01*
X122039D01*
Y1115300D01*
X127657D01*
X129341Y1114175D01*
X131360Y1113774D01*
X133379Y1114175D01*
X135063Y1115300D01*
X140000D01*
Y1104107D01*
X295000D01*
Y1122000D01*
X319101D01*
Y1117339D01*
X314000D01*
X313220Y1117184D01*
X312558Y1116742D01*
X312116Y1116080D01*
X311961Y1115300D01*
Y1112100D01*
X312116Y1111320D01*
X312558Y1110658D01*
X313220Y1110216D01*
X314000Y1110061D01*
X319101D01*
Y1104639D01*
X314000D01*
X313220Y1104484D01*
X312558Y1104042D01*
X312116Y1103380D01*
X311961Y1102600D01*
Y1099400D01*
X312116Y1098620D01*
X312558Y1097958D01*
X313220Y1097516D01*
X314000Y1097361D01*
X319101D01*
Y1091939D01*
X314000D01*
X313220Y1091784D01*
X312558Y1091342D01*
X312116Y1090680D01*
X311961Y1089900D01*
Y1088310D01*
X310640Y1087226D01*
X299260D01*
X297827Y1087820D01*
X296000Y1088060D01*
X294173Y1087820D01*
X292470Y1087114D01*
X291007Y1085992D01*
X289886Y1084530D01*
X289180Y1082827D01*
X288940Y1081000D01*
X289180Y1079173D01*
X289886Y1077470D01*
X291007Y1076008D01*
X292470Y1074885D01*
X294173Y1074180D01*
X296000Y1073940D01*
X297827Y1074180D01*
X299530Y1074885D01*
X300992Y1076008D01*
X301504Y1076674D01*
X310640D01*
X311961Y1075590D01*
Y1072298D01*
X310000D01*
Y1010000D01*
X395000D01*
Y1120000D01*
X397000D01*
Y1128612D01*
X397110Y1129450D01*
X397000Y1130288D01*
Y1160000D01*
X431000D01*
Y1166500D01*
X435500D01*
Y1190500D01*
X431000D01*
Y1531000D01*
X574000D01*
Y453000D01*
Y418300D01*
X546000D01*
Y399300D01*
X574000D01*
Y393100D01*
X546000D01*
Y374100D01*
X574000D01*
Y367900D01*
X546000D01*
Y348900D01*
X574000D01*
Y342700D01*
X546000D01*
Y323700D01*
X574000D01*
Y316300D01*
X546000D01*
Y297300D01*
X574000D01*
Y265900D01*
X546000D01*
Y255720D01*
X545659Y255652D01*
X543674Y254326D01*
X542348Y252341D01*
X541883Y250000D01*
X542348Y247659D01*
X543674Y245674D01*
X545659Y244348D01*
X548000Y243883D01*
X550341Y244348D01*
X552326Y245674D01*
X553145Y246900D01*
X574000D01*
Y240700D01*
X546000D01*
Y230720D01*
X545659Y230652D01*
X543674Y229326D01*
X542348Y227341D01*
X541883Y225000D01*
X542348Y222659D01*
X543674Y220674D01*
X545659Y219348D01*
X548000Y218883D01*
X550341Y219348D01*
X552326Y220674D01*
X553011Y221700D01*
X574000D01*
Y215500D01*
X546000D01*
Y205720D01*
X545659Y205652D01*
X543674Y204326D01*
X542348Y202341D01*
X541883Y200000D01*
X542348Y197659D01*
X543674Y195674D01*
X545659Y194348D01*
X548000Y193883D01*
X550341Y194348D01*
X552326Y195674D01*
X552878Y196500D01*
X574000D01*
Y6000D01*
X574000Y6000D01*
X574000Y6000D01*
X573586Y5000D01*
X-134000D01*
Y1533000D01*
X-2000D01*
Y1161000D01*
D02*
G37*
G36*
X385300Y1157846D02*
X385175Y1157659D01*
X384774Y1155640D01*
Y1134072D01*
X383936Y1132980D01*
X383230Y1131277D01*
X382990Y1129450D01*
X383230Y1127623D01*
X383936Y1125920D01*
X385057Y1124457D01*
X386520Y1123335D01*
X388223Y1122630D01*
X390000Y1122396D01*
Y1015000D01*
X314000D01*
Y1077200D01*
X321140D01*
Y1086700D01*
X314000D01*
Y1089900D01*
X321140D01*
Y1099400D01*
X314000D01*
Y1102600D01*
X321140D01*
Y1112100D01*
X314000D01*
Y1115300D01*
X321140D01*
Y1124800D01*
X314000D01*
Y1164000D01*
X385300D01*
Y1157846D01*
D02*
G37*
G36*
X92000Y1486000D02*
X83278D01*
X82237Y1486250D01*
X78000Y1486584D01*
X73763Y1486250D01*
X72722Y1486000D01*
X38000D01*
Y1250000D01*
X1000D01*
Y1533000D01*
X92000D01*
Y1486000D01*
D02*
G37*
%LPC*%
G36*
X6000Y304118D02*
X3659Y303652D01*
X1674Y302326D01*
X348Y300341D01*
X-118Y298000D01*
X348Y295659D01*
X1674Y293674D01*
X3659Y292348D01*
X6000Y291882D01*
X8341Y292348D01*
X10326Y293674D01*
X11652Y295659D01*
X12118Y298000D01*
X11652Y300341D01*
X10326Y302326D01*
X8341Y303652D01*
X6000Y304118D01*
D01*
X6000D01*
D02*
G37*
G36*
X210000Y133050D02*
X176000D01*
Y121976D01*
X176000D01*
X176000Y121976D01*
X176000Y121050D01*
Y120700D01*
Y120350D01*
X176000Y119424D01*
X176000Y119424D01*
X176000D01*
Y108350D01*
X176000Y108350D01*
X176000Y107650D01*
X176000D01*
Y96576D01*
X176000D01*
X176000Y96576D01*
X176000Y95650D01*
Y95300D01*
Y94950D01*
X176000Y94024D01*
X176000Y94024D01*
X176000D01*
Y82950D01*
X176000Y82950D01*
X176000D01*
X176768Y81096D01*
X172309Y76636D01*
X171024Y74714D01*
X170574Y72447D01*
Y71499D01*
X166497D01*
Y54325D01*
X166227Y54103D01*
X161497D01*
Y71499D01*
X141497D01*
Y65334D01*
X132250D01*
Y68500D01*
X132250D01*
X131652Y68659D01*
X131652D01*
X132118Y71000D01*
X131652Y73341D01*
X130326Y75326D01*
X128341Y76652D01*
X126000Y77118D01*
X123659Y76652D01*
X121674Y75326D01*
X120348Y73341D01*
X119882Y71000D01*
X120348Y68659D01*
X120348D01*
X118750Y68500D01*
X118851Y68510D01*
X118750Y68500D01*
X118750D01*
Y55500D01*
X132250D01*
Y58666D01*
X141497D01*
Y53975D01*
X140867Y53849D01*
X139785Y53127D01*
X133993Y47334D01*
X125500D01*
X124224Y47080D01*
X123142Y46357D01*
X122420Y45276D01*
X122166Y44000D01*
X122420Y42724D01*
X123142Y41642D01*
X124224Y40920D01*
X125500Y40666D01*
X135374D01*
X136650Y40920D01*
X137731Y41642D01*
X139372Y43284D01*
X141497Y42403D01*
Y31499D01*
X161497D01*
Y47435D01*
X164846D01*
X174140Y38142D01*
X175221Y37419D01*
X176497Y37165D01*
X177773Y37419D01*
X178855Y38142D01*
X179578Y39223D01*
X179831Y40499D01*
X179578Y41775D01*
X178855Y42857D01*
X170337Y51374D01*
X171217Y53499D01*
X186497D01*
Y71499D01*
X186497Y71499D01*
X186497D01*
X185744Y73317D01*
X195378Y82950D01*
X210000D01*
Y94024D01*
X210000D01*
Y94024D01*
X211778Y96324D01*
Y96324D01*
X214000Y95883D01*
X216341Y96348D01*
X218326Y97674D01*
X219652Y99659D01*
X220117Y102000D01*
X219652Y104341D01*
X218326Y106326D01*
X217541Y106850D01*
Y109150D01*
X218326Y109674D01*
X219652Y111659D01*
X220117Y114000D01*
X219652Y116341D01*
X218326Y118326D01*
X216341Y119652D01*
X214000Y120118D01*
X211778Y119676D01*
X210000Y121135D01*
X210000Y121976D01*
X210000Y121976D01*
X210000D01*
Y133050D01*
D02*
G37*
G36*
X150000Y107650D02*
X116000D01*
Y95650D01*
X116000Y95650D01*
X116000Y94950D01*
X116000D01*
Y82950D01*
X150000D01*
Y88285D01*
X151830Y90115D01*
X153000Y89882D01*
X155341Y90348D01*
X157326Y91674D01*
X158652Y93659D01*
X159117Y96000D01*
X158652Y98341D01*
X157326Y100326D01*
X155341Y101652D01*
X153000Y102118D01*
X151830Y101885D01*
X150000Y103715D01*
Y107650D01*
D02*
G37*
G36*
X-72900Y420900D02*
X-96900D01*
Y397126D01*
X-96900D01*
X-96900Y397126D01*
X-96900Y396900D01*
Y396200D01*
Y395500D01*
X-96900Y395274D01*
X-96900Y395274D01*
X-96900D01*
Y371726D01*
X-96900D01*
X-96900Y371726D01*
X-96900Y371500D01*
Y370800D01*
Y370100D01*
X-96900Y369874D01*
X-96900Y369874D01*
X-96900D01*
Y346326D01*
X-96900D01*
X-96900Y346326D01*
X-96900Y346100D01*
Y345400D01*
Y344700D01*
X-96900Y344474D01*
X-96900Y344474D01*
X-96900D01*
Y320926D01*
X-96900D01*
X-96900Y320926D01*
X-96900Y320700D01*
Y320000D01*
Y319300D01*
X-96900Y319074D01*
X-96900Y319074D01*
X-96900D01*
Y295300D01*
X-72900D01*
Y319074D01*
X-72900D01*
Y319074D01*
D01*
X-72900Y319300D01*
Y319601D01*
Y320000D01*
Y320211D01*
Y320700D01*
X-72900Y320864D01*
X-72900Y320926D01*
X-72900Y320926D01*
X-72900D01*
Y344474D01*
X-72900D01*
Y344474D01*
D01*
X-72900Y344700D01*
Y345001D01*
Y345400D01*
Y345611D01*
Y346100D01*
X-72900Y346264D01*
X-72900Y346326D01*
X-72900Y346326D01*
X-72900D01*
Y369874D01*
X-72900D01*
Y369874D01*
D01*
X-72900Y370100D01*
Y370401D01*
Y370800D01*
Y371011D01*
Y371500D01*
X-72900Y371664D01*
X-72900Y371726D01*
X-72900Y371726D01*
X-72900D01*
Y395274D01*
X-72900D01*
Y395274D01*
D01*
X-72900Y395500D01*
Y395801D01*
Y396200D01*
Y396411D01*
Y396900D01*
X-72900Y397064D01*
X-72900Y397126D01*
X-72900Y397126D01*
X-72900D01*
Y420900D01*
D02*
G37*
G36*
X-30400Y268500D02*
X-54400D01*
Y244500D01*
X-54400Y244500D01*
X-54400Y243100D01*
X-54400D01*
Y219326D01*
X-54400D01*
X-54400Y219326D01*
X-54400Y219100D01*
Y218400D01*
Y217700D01*
X-54400Y217474D01*
X-54400Y217474D01*
X-54400D01*
Y193700D01*
X-33868D01*
X-33341Y193348D01*
X-31000Y192882D01*
X-28659Y193348D01*
X-26674Y194674D01*
X-25348Y196659D01*
X-24882Y199000D01*
X-25348Y201341D01*
X-26674Y203326D01*
X-28659Y204652D01*
X-30400Y204998D01*
Y217474D01*
X-30400D01*
Y217474D01*
D01*
X-30400Y217700D01*
Y218001D01*
Y218400D01*
Y218611D01*
Y219100D01*
X-30400Y219264D01*
X-30400Y219326D01*
X-30400Y219326D01*
X-30400D01*
Y243100D01*
D01*
Y243100D01*
X-30400Y243100D01*
Y244500D01*
X-30400D01*
Y268500D01*
D02*
G37*
G36*
X488000Y215500D02*
X456000D01*
Y196500D01*
X481935D01*
X483659Y195348D01*
X486000Y194883D01*
X488341Y195348D01*
X490326Y196674D01*
X491652Y198659D01*
X492118Y201000D01*
X491652Y203341D01*
X490326Y205326D01*
X488341Y206652D01*
X488000Y206720D01*
Y215500D01*
D02*
G37*
G36*
X150000Y133050D02*
X116000D01*
Y121050D01*
X150000D01*
Y133050D01*
D02*
G37*
G36*
X-72900Y268500D02*
X-96900D01*
Y244500D01*
X-96900Y244500D01*
X-96900Y243100D01*
X-96900D01*
Y219326D01*
X-96900D01*
X-96900Y219326D01*
X-96900Y219100D01*
Y218400D01*
Y217700D01*
X-96900Y217474D01*
X-96900Y217474D01*
X-96900D01*
Y193700D01*
X-75868D01*
X-75341Y193348D01*
X-73000Y192882D01*
X-70659Y193348D01*
X-68674Y194674D01*
X-67348Y196659D01*
X-66883Y199000D01*
X-67348Y201341D01*
X-68674Y203326D01*
X-70659Y204652D01*
X-72900Y205098D01*
Y217700D01*
X-72900Y217700D01*
X-72900D01*
Y217902D01*
X-70659Y218348D01*
X-68674Y219674D01*
X-67348Y221659D01*
X-66883Y224000D01*
X-67348Y226341D01*
X-68674Y228326D01*
X-70659Y229652D01*
X-72900Y230098D01*
Y242902D01*
X-70659Y243348D01*
X-68674Y244674D01*
X-67348Y246659D01*
X-66883Y249000D01*
X-67348Y251341D01*
X-68674Y253326D01*
X-70659Y254652D01*
X-72900Y255098D01*
Y268500D01*
D02*
G37*
G36*
X488000Y265900D02*
X456000D01*
Y246900D01*
X469166D01*
Y240700D01*
X456000D01*
Y221700D01*
X488000D01*
Y240700D01*
X475834D01*
Y246900D01*
X488000D01*
Y265900D01*
D02*
G37*
G36*
X227000Y67060D02*
X225173Y66820D01*
X223470Y66115D01*
X222008Y64992D01*
X220886Y63530D01*
X220180Y61827D01*
X219940Y60000D01*
X220180Y58173D01*
X220886Y56470D01*
X222008Y55008D01*
X223470Y53885D01*
X225173Y53180D01*
X227000Y52940D01*
X228827Y53180D01*
X230530Y53885D01*
X231992Y55008D01*
X233114Y56470D01*
X233820Y58173D01*
X234060Y60000D01*
X233820Y61827D01*
X233114Y63530D01*
X231992Y64992D01*
X230530Y66115D01*
X228827Y66820D01*
X227000Y67060D01*
D02*
G37*
G36*
X118000Y1251868D02*
X115659Y1251402D01*
X113674Y1250076D01*
X112348Y1248091D01*
X111882Y1245750D01*
X112348Y1243409D01*
X113674Y1241424D01*
X115659Y1240098D01*
X118000Y1239632D01*
X120341Y1240098D01*
X122326Y1241424D01*
X123652Y1243409D01*
X124117Y1245750D01*
X123652Y1248091D01*
X122326Y1250076D01*
X120341Y1251402D01*
X118000Y1251868D01*
D02*
G37*
G36*
X215187Y1168000D02*
X211813D01*
X212323Y1167659D01*
X213500Y1167425D01*
X214677Y1167659D01*
X215187Y1168000D01*
D02*
G37*
G36*
X294000Y1257000D02*
Y1257000D01*
X282000D01*
Y1241000D01*
X294000D01*
Y1241742D01*
X295912Y1243020D01*
X296733Y1242680D01*
X298560Y1242440D01*
X300388Y1242680D01*
X302091Y1243385D01*
X303553Y1244508D01*
X304675Y1245970D01*
X305380Y1247673D01*
X305621Y1249500D01*
X305380Y1251327D01*
X304675Y1253030D01*
X303553Y1254492D01*
X302091Y1255614D01*
X300388Y1256320D01*
X298560Y1256560D01*
X296733Y1256320D01*
X295030Y1255614D01*
X294000Y1257000D01*
D02*
G37*
G36*
X324000Y1263500D02*
X308000D01*
Y1251500D01*
X309328D01*
X310348Y1249591D01*
X309883Y1247250D01*
X310348Y1244909D01*
X311674Y1242924D01*
X313659Y1241598D01*
X316000Y1241133D01*
X318341Y1241598D01*
X320326Y1242924D01*
X321652Y1244909D01*
X322118Y1247250D01*
X321652Y1249591D01*
X322672Y1251500D01*
X324000D01*
Y1263500D01*
D02*
G37*
G36*
X354000Y1395090D02*
X348506Y1394730D01*
X343106Y1393656D01*
X337893Y1391886D01*
X332955Y1389451D01*
X328377Y1386392D01*
X324238Y1382762D01*
X320608Y1378623D01*
X317549Y1374045D01*
X315114Y1369107D01*
X313344Y1363894D01*
X312270Y1358494D01*
X311910Y1353000D01*
X312270Y1347506D01*
X313344Y1342106D01*
X315114Y1336893D01*
X317549Y1331955D01*
X320608Y1327377D01*
X324238Y1323238D01*
X328377Y1319608D01*
X332955Y1316549D01*
X337893Y1314114D01*
X343106Y1312344D01*
X348506Y1311270D01*
X354000Y1310910D01*
X359494Y1311270D01*
X364894Y1312344D01*
X370107Y1314114D01*
X375045Y1316549D01*
X379623Y1319608D01*
X383762Y1323238D01*
X387392Y1327377D01*
X390451Y1331955D01*
X392886Y1336893D01*
X394656Y1342106D01*
X395730Y1347506D01*
X396090Y1353000D01*
X395730Y1358494D01*
X394656Y1363894D01*
X392886Y1369107D01*
X390451Y1374045D01*
X387392Y1378623D01*
X383762Y1382762D01*
X379623Y1386392D01*
X375045Y1389451D01*
X370107Y1391886D01*
X364894Y1393656D01*
X359494Y1394730D01*
X354000Y1395090D01*
D02*
G37*
G36*
X395000Y980000D02*
X310000D01*
Y955000D01*
Y880000D01*
X260000D01*
Y945000D01*
X170000D01*
Y880000D01*
X125000D01*
Y955000D01*
Y980000D01*
X40000D01*
Y900000D01*
X50000D01*
Y840000D01*
X19277D01*
X19282Y833666D01*
X17657Y832039D01*
X5000D01*
X4220Y831884D01*
X3558Y831442D01*
X3116Y830780D01*
X2961Y830000D01*
Y740000D01*
X3116Y739220D01*
X3558Y738558D01*
X4220Y738116D01*
X5000Y737961D01*
X19365D01*
X19368Y735000D01*
X70000D01*
X81000Y724000D01*
Y621584D01*
X77131D01*
X73885Y624830D01*
X74117Y626000D01*
X73652Y628341D01*
X72326Y630326D01*
X70341Y631652D01*
X68000Y632118D01*
X66370Y633456D01*
Y635751D01*
X56370D01*
Y633615D01*
X54169Y632948D01*
X53727Y633608D01*
X52646Y634331D01*
X51370Y634585D01*
X37251D01*
X35975Y634331D01*
X34893Y633608D01*
X34643Y633358D01*
X33920Y632276D01*
X33666Y631000D01*
X33920Y629724D01*
X34643Y628643D01*
X35966Y627319D01*
X34507Y625541D01*
X34341Y625652D01*
X32000Y626118D01*
X29659Y625652D01*
X27674Y624326D01*
X26348Y622341D01*
X25882Y620000D01*
X26348Y617659D01*
X27674Y615674D01*
X29659Y614348D01*
X32000Y613882D01*
X33170Y614115D01*
X36393Y610892D01*
X37474Y610170D01*
X38750Y609916D01*
X42946D01*
X43826Y607791D01*
X31023Y594987D01*
X30300Y593906D01*
X30046Y592630D01*
Y444651D01*
X7125Y421730D01*
X-2371Y412234D01*
X-30400D01*
Y420900D01*
X-54400D01*
Y396900D01*
X-54400Y396900D01*
X-54400Y395500D01*
X-54400D01*
Y371500D01*
X-54400Y371500D01*
X-54400Y370100D01*
X-54400D01*
Y346100D01*
X-54400Y346100D01*
X-54400Y344700D01*
X-54400D01*
Y320926D01*
X-54400D01*
X-54400Y320926D01*
X-54400Y320700D01*
Y320000D01*
Y319300D01*
X-54400Y319074D01*
X-54400Y319074D01*
X-54400D01*
Y295300D01*
X-36412D01*
X-35326Y293674D01*
X-33341Y292348D01*
X-31000Y291882D01*
X-28659Y292348D01*
X-26674Y293674D01*
X-25348Y295659D01*
X-24882Y298000D01*
X-25348Y300341D01*
X-26674Y302326D01*
X-28659Y303652D01*
X-30400Y303998D01*
Y319074D01*
X-30400D01*
Y319074D01*
D01*
X-30400Y319300D01*
Y319601D01*
Y320000D01*
Y320211D01*
Y320700D01*
X-30400Y320864D01*
X-30400Y320926D01*
X-30400Y320926D01*
X-30400D01*
Y329366D01*
X7700D01*
X8976Y329620D01*
X10057Y330342D01*
X10057Y330342D01*
D01*
D01*
D01*
X16708Y336993D01*
D01*
X59358Y379642D01*
X60080Y380724D01*
X60334Y382000D01*
Y579869D01*
X70381Y589916D01*
X85000D01*
Y563803D01*
X84603Y563724D01*
X83147Y562751D01*
X79870D01*
Y553751D01*
X83147D01*
X84603Y552778D01*
X85000Y552699D01*
Y548803D01*
X84603Y548724D01*
X83147Y547751D01*
X79870D01*
Y538751D01*
X83147D01*
X84603Y537778D01*
X85000Y537699D01*
Y531803D01*
X84603Y531724D01*
X83147Y530751D01*
X79870D01*
Y521751D01*
X83147D01*
X84603Y520778D01*
X85000Y520699D01*
Y515803D01*
X84603Y515724D01*
X83147Y514751D01*
X79870D01*
Y505751D01*
X83147D01*
X84603Y504778D01*
X85000Y504699D01*
Y498000D01*
X91869D01*
Y495249D01*
X100869D01*
Y498000D01*
X110869D01*
Y495249D01*
X119869D01*
Y498000D01*
X130869D01*
Y495249D01*
X139869D01*
Y498000D01*
X148869D01*
Y495249D01*
X157869D01*
Y498000D01*
X166629D01*
Y495250D01*
X175629D01*
Y498000D01*
X184629D01*
Y495250D01*
X193629D01*
Y498000D01*
X202629D01*
Y495250D01*
X211629D01*
Y498000D01*
X219629D01*
Y495250D01*
X228629D01*
Y498000D01*
X238000D01*
X237000Y499000D01*
Y505249D01*
X239370D01*
Y514249D01*
X237000D01*
Y522249D01*
X239370D01*
Y531249D01*
X237000D01*
Y538249D01*
X239370D01*
Y547249D01*
X237000D01*
Y554249D01*
X239370D01*
Y563249D01*
X237000D01*
Y583530D01*
X239125Y584410D01*
X260876Y562659D01*
Y492852D01*
X250357Y482334D01*
X195000D01*
X193724Y482080D01*
X192642Y481357D01*
X120542Y409258D01*
X119820Y408176D01*
X119566Y406900D01*
Y266838D01*
X119820Y265563D01*
X120542Y264481D01*
X151631Y233393D01*
X152713Y232670D01*
X153989Y232416D01*
X209000D01*
Y205500D01*
X205924D01*
Y196500D01*
X209000D01*
Y190500D01*
X205924D01*
Y181500D01*
X209000D01*
Y173500D01*
X205924D01*
Y164500D01*
X209000D01*
Y157500D01*
X205924D01*
Y148500D01*
X209000D01*
Y141000D01*
X218387D01*
X218620Y140651D01*
Y138424D01*
X227620D01*
Y141000D01*
X237387D01*
X237680Y140561D01*
X237740Y140521D01*
Y137924D01*
X246740D01*
Y141000D01*
X257387D01*
X257680Y140561D01*
X257740Y140521D01*
Y137924D01*
X266740D01*
Y141000D01*
X275387D01*
X275680Y140561D01*
X275740Y140521D01*
Y137924D01*
X284740D01*
Y141000D01*
X293147D01*
X293440Y140561D01*
X293500Y140521D01*
Y137924D01*
X302500D01*
Y141000D01*
X311147D01*
X311440Y140561D01*
X311500Y140521D01*
Y137924D01*
X320500D01*
Y141000D01*
X329147D01*
X329440Y140561D01*
X329500Y140521D01*
Y137924D01*
X338500D01*
Y141000D01*
X346147D01*
X346440Y140561D01*
X346500Y140521D01*
Y137924D01*
X355500D01*
Y141000D01*
X364000D01*
X365000Y142000D01*
Y147749D01*
X365870D01*
Y156749D01*
X365000D01*
Y164749D01*
X365870D01*
Y173749D01*
X365000D01*
Y180749D01*
X365870D01*
Y189749D01*
X365000D01*
Y196749D01*
X365870D01*
Y205749D01*
X365000D01*
Y227416D01*
X383219D01*
X384495Y227670D01*
X384803Y227876D01*
X398091D01*
X399367Y228130D01*
X400448Y228853D01*
X453478Y281881D01*
X454200Y282963D01*
X454454Y284239D01*
Y297300D01*
X456000D01*
Y297300D01*
X463636D01*
X463882Y297000D01*
X464348Y294659D01*
X465674Y292674D01*
X467659Y291348D01*
X470000Y290882D01*
X472341Y291348D01*
X474326Y292674D01*
X475652Y294659D01*
X476118Y297000D01*
X476364Y297300D01*
X488000D01*
Y316300D01*
X463320D01*
X462440Y318425D01*
X467715Y323700D01*
X488000D01*
Y342700D01*
X456420D01*
X455540Y344825D01*
X459615Y348900D01*
X488000D01*
Y367900D01*
X463596D01*
X462715Y370025D01*
X466791Y374100D01*
X488000D01*
Y393100D01*
X463596D01*
X462715Y395225D01*
X466791Y399300D01*
X488000D01*
Y418300D01*
X456000D01*
Y399300D01*
X456000Y399300D01*
X456000D01*
X456399Y398338D01*
X455370Y397450D01*
D01*
X454288Y396727D01*
X435143Y377582D01*
X434420Y376500D01*
X434166Y375224D01*
Y291381D01*
X396119Y253334D01*
X393918Y254002D01*
X393652Y255341D01*
X392326Y257326D01*
X390341Y258652D01*
X388370Y259044D01*
Y266749D01*
D01*
Y266749D01*
X388371Y266749D01*
Y268749D01*
X388370D01*
Y277749D01*
X378370D01*
Y274860D01*
X376592Y273401D01*
X375502Y273617D01*
X373161Y273152D01*
X372028Y272395D01*
X370000Y273479D01*
Y383000D01*
X442500Y455500D01*
X440000Y458000D01*
Y838000D01*
X431414D01*
X431000Y839000D01*
X431000D01*
X431000Y839000D01*
Y840000D01*
X385000D01*
Y900000D01*
X395000D01*
Y980000D01*
D02*
G37*
G36*
X85000Y1259060D02*
X83173Y1258820D01*
X81470Y1258114D01*
X80008Y1256992D01*
X78885Y1255530D01*
X78180Y1253827D01*
X77940Y1252000D01*
X78180Y1250173D01*
X78885Y1248470D01*
X80008Y1247008D01*
X81470Y1245885D01*
X83173Y1245180D01*
X85000Y1244940D01*
X86827Y1245180D01*
X88530Y1245885D01*
X89993Y1247008D01*
X91115Y1248470D01*
X91820Y1250173D01*
X92060Y1252000D01*
X91820Y1253827D01*
X91115Y1255530D01*
X89993Y1256992D01*
X88530Y1258114D01*
X86827Y1258820D01*
X85000Y1259060D01*
D02*
G37*
G36*
X291000Y1339922D02*
X288820Y1339635D01*
X286789Y1338794D01*
X285045Y1337455D01*
X283706Y1335711D01*
X283343Y1334834D01*
X280000D01*
Y1338250D01*
X267000D01*
Y1324750D01*
X280000D01*
Y1328166D01*
X283343D01*
X283706Y1327289D01*
X285045Y1325545D01*
X286789Y1324206D01*
X288820Y1323365D01*
X291000Y1323078D01*
X293180Y1323365D01*
X295211Y1324206D01*
X296955Y1325545D01*
X298294Y1327289D01*
X299135Y1329320D01*
X299422Y1331500D01*
X299135Y1333680D01*
X298294Y1335711D01*
X296955Y1337455D01*
X295211Y1338794D01*
X293180Y1339635D01*
X291000Y1339922D01*
D02*
G37*
G36*
X183000Y1398621D02*
X181173Y1398380D01*
X179470Y1397675D01*
X178008Y1396553D01*
X176886Y1395090D01*
X176180Y1393388D01*
X175940Y1391560D01*
X176180Y1389733D01*
X176886Y1388030D01*
X178008Y1386568D01*
X179470Y1385446D01*
X181173Y1384740D01*
X183000Y1384500D01*
X183580Y1384576D01*
X193654Y1374502D01*
X193444Y1373995D01*
X191859Y1373339D01*
X190968Y1373221D01*
X189992Y1374492D01*
X188530Y1375614D01*
X186827Y1376320D01*
X185000Y1376560D01*
X183173Y1376320D01*
X181470Y1375614D01*
X180589Y1374938D01*
X178367Y1375534D01*
X178294Y1375711D01*
X176955Y1377455D01*
X175211Y1378794D01*
X173180Y1379635D01*
X171000Y1379922D01*
X168820Y1379635D01*
X166789Y1378794D01*
X165045Y1377455D01*
X163706Y1375711D01*
X162865Y1373680D01*
X162578Y1371500D01*
X162865Y1369320D01*
X163228Y1368443D01*
X142642Y1347858D01*
X141920Y1346776D01*
X141666Y1345500D01*
Y1279500D01*
X141920Y1278224D01*
X142642Y1277142D01*
X142642Y1277142D01*
X142642Y1277142D01*
X146332Y1273453D01*
X145664Y1271252D01*
X145159Y1271152D01*
X143174Y1269826D01*
X141848Y1267841D01*
X141830Y1267750D01*
X126500D01*
Y1255750D01*
X142500D01*
Y1258416D01*
X143750D01*
X145026Y1258670D01*
X146108Y1259392D01*
X146330Y1259615D01*
X147500Y1259382D01*
X148027Y1259487D01*
X149653Y1257861D01*
X149382Y1256500D01*
X149848Y1254159D01*
X151174Y1252174D01*
X152879Y1251035D01*
X152212Y1248834D01*
X142500D01*
Y1251750D01*
X126500D01*
Y1239750D01*
X142500D01*
Y1242166D01*
X155500D01*
X156776Y1242420D01*
X157858Y1243142D01*
X158240Y1243715D01*
X161437Y1246911D01*
X163614Y1246172D01*
X163680Y1245673D01*
X164386Y1243970D01*
X165508Y1242507D01*
X166970Y1241385D01*
X168673Y1240680D01*
X170500Y1240440D01*
X172327Y1240680D01*
X174030Y1241385D01*
X175492Y1242507D01*
X175822Y1242937D01*
X178000Y1242198D01*
Y1241050D01*
X186550D01*
Y1241000D01*
X186550D01*
Y1236765D01*
X177088Y1227303D01*
X176030Y1228114D01*
X174327Y1228820D01*
X172500Y1229060D01*
X170673Y1228820D01*
X168970Y1228114D01*
X167507Y1226992D01*
X166385Y1225530D01*
X165680Y1223827D01*
X165440Y1222000D01*
X165680Y1220173D01*
X165761Y1219977D01*
X165142Y1219358D01*
X164420Y1218276D01*
X164166Y1217000D01*
Y1182881D01*
X161535Y1180250D01*
X153000D01*
Y1168000D01*
Y1166750D01*
X161535D01*
X176142Y1152142D01*
X177224Y1151420D01*
X178500Y1151166D01*
X181304D01*
X181385Y1150970D01*
X182507Y1149508D01*
X183970Y1148385D01*
X185673Y1147680D01*
X187500Y1147440D01*
X189327Y1147680D01*
X191030Y1148385D01*
X192492Y1149508D01*
X193614Y1150970D01*
X194320Y1152673D01*
X194560Y1154500D01*
X194320Y1156327D01*
X193614Y1158030D01*
X192492Y1159492D01*
X191030Y1160614D01*
X189327Y1161320D01*
X187500Y1161560D01*
X185673Y1161320D01*
X183970Y1160614D01*
X182507Y1159492D01*
X181709Y1158452D01*
X179414Y1158301D01*
X173090Y1164625D01*
X173970Y1166750D01*
X184000D01*
Y1168000D01*
Y1180250D01*
X183470D01*
X182590Y1182375D01*
X190476Y1190261D01*
X190673Y1190180D01*
X192500Y1189940D01*
X194327Y1190180D01*
X195658Y1190731D01*
X197058Y1188907D01*
X196385Y1188030D01*
X195680Y1186327D01*
X195440Y1184500D01*
X195680Y1182673D01*
X196373Y1181000D01*
X196385Y1180970D01*
X197508Y1179508D01*
X198970Y1178385D01*
X200673Y1177680D01*
X202500Y1177440D01*
X204327Y1177680D01*
X206030Y1178385D01*
X207492Y1179508D01*
X208615Y1180970D01*
X209320Y1182673D01*
X209560Y1184500D01*
X209320Y1186327D01*
X208615Y1188030D01*
X208334Y1188396D01*
Y1204059D01*
X210537Y1204276D01*
X210646Y1204167D01*
X210646Y1204167D01*
Y1204167D01*
X211341Y1203127D01*
X214750Y1199718D01*
Y1191000D01*
X218295D01*
Y1175500D01*
X218539Y1174274D01*
X218539Y1174274D01*
X218539Y1174274D01*
X218776Y1173919D01*
D01*
X219234Y1173234D01*
X223000Y1169468D01*
Y1158500D01*
X228084D01*
X228965Y1156375D01*
X225089Y1152500D01*
X213000D01*
Y1148011D01*
X212537Y1147783D01*
X210584Y1149000D01*
X210500Y1149423D01*
Y1159000D01*
X197000D01*
Y1146000D01*
X199220D01*
X200152Y1145285D01*
X200952Y1144088D01*
X200430Y1142827D01*
X200190Y1141000D01*
X200430Y1139173D01*
X201136Y1137470D01*
X202258Y1136008D01*
X203720Y1134885D01*
X205423Y1134180D01*
X207250Y1133940D01*
X209077Y1134180D01*
X210780Y1134885D01*
X212243Y1136008D01*
X212699Y1136602D01*
X213000Y1136500D01*
Y1136500D01*
X213000Y1136500D01*
X228000D01*
Y1145981D01*
X230875Y1148856D01*
X233000Y1147975D01*
Y1136500D01*
X248000D01*
Y1139010D01*
X249912Y1140288D01*
X250173Y1140180D01*
X252000Y1139940D01*
X253827Y1140180D01*
X255530Y1140885D01*
X256992Y1142008D01*
X258114Y1143470D01*
X258820Y1145173D01*
X259060Y1147000D01*
X258820Y1148827D01*
X258114Y1150530D01*
X257178Y1151750D01*
X258546Y1152190D01*
X258546D01*
D01*
D01*
D01*
X258546Y1152190D01*
X259628Y1152913D01*
X273465Y1166750D01*
X282000D01*
Y1168000D01*
Y1180250D01*
X278834D01*
Y1207500D01*
X278580Y1208776D01*
X277857Y1209857D01*
X249858Y1237858D01*
X248776Y1238580D01*
X248450Y1238645D01*
Y1241000D01*
D01*
Y1241000D01*
X248500Y1241050D01*
X257000D01*
Y1244064D01*
X259063Y1245081D01*
X259970Y1244386D01*
X261673Y1243680D01*
X263500Y1243440D01*
X264271Y1243541D01*
X266000Y1242025D01*
Y1241000D01*
X278000D01*
Y1257000D01*
X278000D01*
X278000Y1258731D01*
X278212Y1258872D01*
X278212Y1258872D01*
X278212Y1258872D01*
X281840Y1262500D01*
X292500D01*
Y1278500D01*
D01*
Y1278500D01*
X293666Y1279666D01*
X308000D01*
Y1279000D01*
Y1267500D01*
X324000D01*
Y1279000D01*
Y1291000D01*
X308000D01*
Y1286334D01*
X295052D01*
X294827Y1288623D01*
X295959Y1288848D01*
X297943Y1290174D01*
X299269Y1292159D01*
X299735Y1294500D01*
X299269Y1296841D01*
X297943Y1298826D01*
X295959Y1300152D01*
X293617Y1300618D01*
X291276Y1300152D01*
X289500Y1301611D01*
Y1302500D01*
D01*
Y1302500D01*
X289500Y1302500D01*
Y1304500D01*
X289500D01*
Y1305365D01*
X291278Y1306824D01*
X293500Y1306382D01*
X295841Y1306848D01*
X297826Y1308174D01*
X299152Y1310159D01*
X299618Y1312500D01*
X299152Y1314841D01*
X297826Y1316826D01*
X295841Y1318152D01*
X293500Y1318618D01*
X291278Y1318176D01*
X289500Y1319635D01*
Y1320500D01*
X277500D01*
Y1304500D01*
X277500Y1304500D01*
X277500Y1302500D01*
X277500D01*
Y1287960D01*
X277500D01*
X277500Y1287960D01*
X277500Y1286500D01*
X277334Y1286334D01*
X273500D01*
Y1286500D01*
X273500D01*
Y1302500D01*
D01*
Y1302500D01*
X273500Y1302500D01*
Y1304500D01*
X273500D01*
Y1320500D01*
X261500D01*
Y1319000D01*
X261250D01*
Y1319000D01*
X250910D01*
X249393Y1320729D01*
X249560Y1322000D01*
X249426Y1323021D01*
X250942Y1324750D01*
X262000D01*
Y1338250D01*
X250970D01*
X250090Y1340375D01*
X255215Y1345500D01*
X264500D01*
Y1345500D01*
X265124D01*
X266750Y1343874D01*
Y1343000D01*
X280250D01*
Y1356000D01*
X266750D01*
Y1356000D01*
X266000D01*
X264500Y1357500D01*
Y1357500D01*
X248500D01*
Y1356000D01*
X246250D01*
Y1356000D01*
X232750D01*
Y1350204D01*
X230126D01*
X228500Y1351831D01*
X228500Y1353500D01*
X228500D01*
Y1369500D01*
X225705D01*
Y1374295D01*
X232750D01*
Y1374000D01*
X232750D01*
Y1361000D01*
X246250D01*
Y1361500D01*
X248500D01*
Y1361500D01*
X264500D01*
Y1361500D01*
X266250D01*
X266750Y1361000D01*
Y1361000D01*
X280250D01*
Y1364295D01*
X283289D01*
X283706Y1363289D01*
X285045Y1361545D01*
X286789Y1360206D01*
X288820Y1359365D01*
X291000Y1359078D01*
X293180Y1359365D01*
X295211Y1360206D01*
X296955Y1361545D01*
X298294Y1363289D01*
X299135Y1365320D01*
X299422Y1367500D01*
X299135Y1369680D01*
X298294Y1371711D01*
X296955Y1373455D01*
X295211Y1374794D01*
X293180Y1375635D01*
X291000Y1375922D01*
X288820Y1375635D01*
X286789Y1374794D01*
X285045Y1373455D01*
X283706Y1371711D01*
X283289Y1370704D01*
X280250D01*
Y1374000D01*
X271532D01*
X265766Y1379766D01*
X264726Y1380461D01*
X263500Y1380704D01*
X223500D01*
Y1381000D01*
X213500D01*
D01*
X213500Y1381000D01*
X213500D01*
Y1381000D01*
D01*
X208223D01*
X206767Y1381973D01*
X204500Y1382424D01*
X202487D01*
X189162Y1395749D01*
X188028Y1396507D01*
X187992Y1396553D01*
X186530Y1397675D01*
X184827Y1398380D01*
X183000Y1398621D01*
D02*
G37*
%LPD*%
G36*
X120000Y865000D02*
X55000D01*
Y905000D01*
X45000D01*
Y975000D01*
X120000D01*
Y865000D01*
D02*
G37*
G36*
X390000Y905000D02*
X380000D01*
Y865000D01*
X315000D01*
Y975000D01*
X390000D01*
Y905000D01*
D02*
G37*
G36*
X255000Y870000D02*
X305000D01*
Y855000D01*
X375000D01*
Y830000D01*
X435000D01*
Y455000D01*
X365000Y385000D01*
X365000D01*
Y265000D01*
X333000D01*
Y265500D01*
X242000D01*
Y265000D01*
X210000D01*
Y390000D01*
X310000Y490000D01*
Y740000D01*
X237000D01*
Y625000D01*
X85000D01*
Y710000D01*
Y725000D01*
X77000Y733000D01*
Y734500D01*
X75500D01*
X70000Y740000D01*
X5000D01*
Y830000D01*
X60000D01*
Y856000D01*
X125000D01*
Y870000D01*
X180000D01*
Y940000D01*
X255000D01*
Y870000D01*
D02*
G37*
G36*
X305000Y495000D02*
Y491000D01*
X247000Y433000D01*
X239500D01*
Y425500D01*
X206000Y392000D01*
X207000Y391000D01*
Y264084D01*
X204631D01*
X200885Y267830D01*
X201117Y269000D01*
X200652Y271341D01*
X199326Y273326D01*
X197341Y274652D01*
X195000Y275117D01*
X194647Y275047D01*
X192869Y276507D01*
Y278251D01*
X182869D01*
Y276115D01*
X180669Y275448D01*
X180227Y276108D01*
X179145Y276831D01*
X177869Y277085D01*
X170630D01*
X166357Y281357D01*
X165276Y282080D01*
X164000Y282334D01*
X162724Y282080D01*
X161642Y281357D01*
X160920Y280276D01*
X160666Y279000D01*
X160920Y277724D01*
X161642Y276642D01*
X166892Y271393D01*
X167973Y270671D01*
X169249Y270417D01*
X174536D01*
Y262751D01*
X174789Y261475D01*
X175032Y261112D01*
X173947Y259084D01*
X170631D01*
X160885Y268830D01*
X161117Y270000D01*
X160652Y272341D01*
X159326Y274326D01*
X157341Y275652D01*
X155000Y276117D01*
X152659Y275652D01*
X151362Y274786D01*
X149334Y275870D01*
Y409357D01*
X201682Y461706D01*
X257040D01*
X258315Y461959D01*
X259397Y462682D01*
X280357Y483643D01*
X281080Y484724D01*
X281334Y486000D01*
Y569511D01*
X281080Y570787D01*
X280357Y571869D01*
X247079Y605148D01*
X245997Y605870D01*
X244722Y606124D01*
X242584D01*
X242276Y606330D01*
X241000Y606584D01*
X237000D01*
Y609916D01*
X255890D01*
X278414Y587392D01*
X278180Y586827D01*
X277940Y585000D01*
X278180Y583173D01*
X278885Y581470D01*
X280007Y580008D01*
X281470Y578885D01*
X283173Y578180D01*
X285000Y577940D01*
X286827Y578180D01*
X288530Y578885D01*
X289992Y580008D01*
X291115Y581470D01*
X291820Y583173D01*
X292060Y585000D01*
X291820Y586827D01*
X291115Y588530D01*
X289992Y589992D01*
X288530Y591115D01*
X286827Y591820D01*
X285000Y592060D01*
X283388Y591848D01*
X259628Y615607D01*
X258547Y616330D01*
X257271Y616584D01*
X256371D01*
Y624249D01*
D01*
Y624249D01*
X256371Y624249D01*
Y626249D01*
X256371D01*
Y635249D01*
X246371D01*
Y632360D01*
X244593Y630901D01*
X243503Y631118D01*
X242778Y630973D01*
X241000Y632433D01*
Y735000D01*
X305000D01*
Y495000D01*
D02*
G37*
D10*
X134500Y1261750D02*
D03*
Y1245750D02*
D03*
X316000Y1285000D02*
D03*
Y1301000D02*
D03*
Y1257500D02*
D03*
Y1273500D02*
D03*
X256500Y1367500D02*
D03*
Y1351500D02*
D03*
X160500Y1285500D02*
D03*
Y1269500D02*
D03*
X178000Y1332000D02*
D03*
Y1316000D02*
D03*
X163000Y1332000D02*
D03*
Y1316000D02*
D03*
D11*
X227000Y60000D02*
D03*
X76000Y250000D02*
D03*
X85000Y1252000D02*
D03*
X227500Y1249500D02*
D03*
Y1269500D02*
D03*
X207500D02*
D03*
Y1249500D02*
D03*
X197500Y1259500D02*
D03*
X217500D02*
D03*
X237500D02*
D03*
X285000Y585000D02*
D03*
X284000Y672000D02*
D03*
Y660000D02*
D03*
Y684000D02*
D03*
Y648000D02*
D03*
Y707000D02*
D03*
Y695000D02*
D03*
X75000Y705000D02*
D03*
Y718000D02*
D03*
X12000Y672000D02*
D03*
Y660000D02*
D03*
Y684000D02*
D03*
Y648000D02*
D03*
X375000Y351000D02*
D03*
Y375000D02*
D03*
Y339000D02*
D03*
X414250Y303750D02*
D03*
Y327750D02*
D03*
Y291750D02*
D03*
X158000Y316000D02*
D03*
Y292000D02*
D03*
X157000Y341000D02*
D03*
Y365000D02*
D03*
X35000Y1099000D02*
D03*
Y1085000D02*
D03*
Y1071000D02*
D03*
Y1057000D02*
D03*
Y1043000D02*
D03*
X402000Y1099000D02*
D03*
Y1085000D02*
D03*
Y1071000D02*
D03*
Y1057000D02*
D03*
Y1043000D02*
D03*
X35000Y973000D02*
D03*
Y959000D02*
D03*
Y987000D02*
D03*
Y1001000D02*
D03*
Y1015000D02*
D03*
Y1029000D02*
D03*
X402000Y973000D02*
D03*
Y959000D02*
D03*
Y987000D02*
D03*
Y1001000D02*
D03*
Y1015000D02*
D03*
Y1029000D02*
D03*
X263000Y1068000D02*
D03*
Y1054000D02*
D03*
Y1040000D02*
D03*
Y1026000D02*
D03*
Y998000D02*
D03*
Y1012000D02*
D03*
X279000Y1068000D02*
D03*
Y1054000D02*
D03*
Y1040000D02*
D03*
Y1026000D02*
D03*
Y998000D02*
D03*
Y1012000D02*
D03*
X151000Y1068000D02*
D03*
Y1054000D02*
D03*
Y1040000D02*
D03*
Y1026000D02*
D03*
Y998000D02*
D03*
Y1012000D02*
D03*
X167000Y1068000D02*
D03*
Y1054000D02*
D03*
Y1040000D02*
D03*
Y1026000D02*
D03*
Y998000D02*
D03*
Y1012000D02*
D03*
X183000Y1068000D02*
D03*
Y1054000D02*
D03*
Y1040000D02*
D03*
Y1026000D02*
D03*
Y998000D02*
D03*
Y1012000D02*
D03*
X199000Y1068000D02*
D03*
Y1054000D02*
D03*
Y1040000D02*
D03*
Y1026000D02*
D03*
Y998000D02*
D03*
Y1012000D02*
D03*
X247000D02*
D03*
Y998000D02*
D03*
Y1026000D02*
D03*
Y1040000D02*
D03*
Y1054000D02*
D03*
Y1068000D02*
D03*
X231000Y1012000D02*
D03*
Y998000D02*
D03*
Y1026000D02*
D03*
Y1040000D02*
D03*
Y1054000D02*
D03*
Y1068000D02*
D03*
X215000D02*
D03*
Y1054000D02*
D03*
Y1040000D02*
D03*
Y1026000D02*
D03*
Y998000D02*
D03*
Y1012000D02*
D03*
X82000Y797500D02*
D03*
X180000Y1210000D02*
D03*
X255000Y1215000D02*
D03*
X375000Y1492500D02*
D03*
Y1477500D02*
D03*
Y1445000D02*
D03*
Y1460000D02*
D03*
X392500Y1492500D02*
D03*
Y1477500D02*
D03*
Y1445000D02*
D03*
Y1460000D02*
D03*
X410000D02*
D03*
Y1445000D02*
D03*
Y1477500D02*
D03*
Y1492500D02*
D03*
X263500Y1250500D02*
D03*
X172500Y1222000D02*
D03*
X242500Y1197000D02*
D03*
X192500D02*
D03*
X232500Y1184500D02*
D03*
X202500D02*
D03*
X192500Y1322000D02*
D03*
X202500Y1334500D02*
D03*
X242500Y1322000D02*
D03*
X232500Y1334500D02*
D03*
X222500Y1347000D02*
D03*
X262500Y1275500D02*
D03*
X170500Y1247500D02*
D03*
X242000Y1168000D02*
D03*
X296000Y1081000D02*
D03*
X390050Y1129450D02*
D03*
X131360Y1142140D02*
D03*
X110640Y1154640D02*
D03*
X82500Y909000D02*
D03*
X352500Y911500D02*
D03*
X353500Y804500D02*
D03*
X187500Y1154500D02*
D03*
X185000Y1369500D02*
D03*
X183000Y1391560D02*
D03*
X249000Y492000D02*
D03*
X244000Y571000D02*
D03*
Y535000D02*
D03*
X109770Y1135000D02*
D03*
X318395Y1138000D02*
D03*
X414250Y315750D02*
D03*
X252000Y1147000D02*
D03*
X298560Y1249500D02*
D03*
X375000Y363000D02*
D03*
X207250Y1141000D02*
D03*
D12*
X215000Y920000D02*
D03*
Y970000D02*
D03*
D13*
X30000Y789500D02*
D03*
Y865500D02*
D03*
X407500Y792000D02*
D03*
Y868000D02*
D03*
D14*
X285000Y850000D02*
D03*
Y899000D02*
D03*
X147500Y896500D02*
D03*
Y847500D02*
D03*
D15*
X207500Y712500D02*
D03*
X256500D02*
D03*
X207500Y667500D02*
D03*
X256500D02*
D03*
X237500Y357500D02*
D03*
X188500D02*
D03*
X237500Y310000D02*
D03*
X188500D02*
D03*
X115000Y667500D02*
D03*
X66000D02*
D03*
X335000Y310000D02*
D03*
X384000D02*
D03*
X61000Y712500D02*
D03*
X110000D02*
D03*
D16*
X327000Y357500D02*
D03*
X403000D02*
D03*
D17*
X383370Y273249D02*
D03*
X393370D02*
D03*
X383370Y262249D02*
D03*
X393370D02*
D03*
X61370Y620251D02*
D03*
X51370D02*
D03*
X61370Y631251D02*
D03*
X51370D02*
D03*
X251371Y630749D02*
D03*
X261371D02*
D03*
X251371Y619749D02*
D03*
X261371D02*
D03*
X187869Y262751D02*
D03*
X177869D02*
D03*
X187869Y273751D02*
D03*
X177869D02*
D03*
X360870Y201249D02*
D03*
X370871D02*
D03*
X360870Y185249D02*
D03*
X370871D02*
D03*
X234370Y558749D02*
D03*
X244370D02*
D03*
X234370Y542749D02*
D03*
X244370D02*
D03*
X234370Y526749D02*
D03*
X244370D02*
D03*
X234370Y509749D02*
D03*
X244370D02*
D03*
X84870Y510251D02*
D03*
X74869D02*
D03*
X84870Y526251D02*
D03*
X74869D02*
D03*
X84870Y543251D02*
D03*
X74869D02*
D03*
X84870Y558251D02*
D03*
X74869D02*
D03*
X218500Y1376500D02*
D03*
X208500D02*
D03*
X210924Y201000D02*
D03*
X200924D02*
D03*
X210924Y186000D02*
D03*
X200924D02*
D03*
X210924Y169000D02*
D03*
X200924D02*
D03*
X210924Y153000D02*
D03*
X200924D02*
D03*
X360870Y152249D02*
D03*
X370871D02*
D03*
X360870Y169249D02*
D03*
X370871D02*
D03*
D18*
X151497Y40499D02*
D03*
X176497D02*
D03*
Y62499D02*
D03*
X151497D02*
D03*
D19*
X125500Y62000D02*
D03*
Y44000D02*
D03*
X221500Y1197500D02*
D03*
Y1215500D02*
D03*
X273500Y1349500D02*
D03*
Y1367500D02*
D03*
X239500D02*
D03*
Y1349500D02*
D03*
X254500Y1294500D02*
D03*
Y1312500D02*
D03*
X217500Y1322500D02*
D03*
Y1304500D02*
D03*
X203750Y1152500D02*
D03*
Y1170500D02*
D03*
D20*
X-42400Y205700D02*
D03*
Y231100D02*
D03*
Y256500D02*
D03*
Y281900D02*
D03*
Y307300D02*
D03*
Y332700D02*
D03*
Y358100D02*
D03*
Y383500D02*
D03*
Y408900D02*
D03*
Y434300D02*
D03*
X-84900D02*
D03*
Y408900D02*
D03*
Y383500D02*
D03*
Y358100D02*
D03*
Y332700D02*
D03*
Y307300D02*
D03*
Y281900D02*
D03*
Y256500D02*
D03*
Y231100D02*
D03*
Y205700D02*
D03*
D21*
X55000Y1270000D02*
D03*
X23000D02*
D03*
X55000Y1307000D02*
D03*
X23000D02*
D03*
X55000Y1344711D02*
D03*
X23000D02*
D03*
X55000Y1382000D02*
D03*
X23000D02*
D03*
D22*
X337500Y723750D02*
D03*
X287500D02*
D03*
X259000Y421000D02*
D03*
X209000D02*
D03*
D23*
X189129Y500249D02*
D03*
Y490249D02*
D03*
X207129Y500249D02*
D03*
Y490249D02*
D03*
X224129Y500249D02*
D03*
Y490249D02*
D03*
X153369Y500249D02*
D03*
Y490249D02*
D03*
X135369Y500249D02*
D03*
Y490249D02*
D03*
X115369Y500249D02*
D03*
Y490249D02*
D03*
X96369Y500249D02*
D03*
Y490249D02*
D03*
X171129Y500249D02*
D03*
Y490249D02*
D03*
X128750Y383000D02*
D03*
Y393000D02*
D03*
X139500Y383000D02*
D03*
Y393000D02*
D03*
X49250Y438000D02*
D03*
Y428000D02*
D03*
X38750Y438000D02*
D03*
Y428000D02*
D03*
X223120Y143424D02*
D03*
Y133424D02*
D03*
X242240Y142924D02*
D03*
Y132924D02*
D03*
X262240Y142924D02*
D03*
Y132924D02*
D03*
X280240Y142924D02*
D03*
Y132924D02*
D03*
X298000Y142924D02*
D03*
Y132924D02*
D03*
X316000Y142924D02*
D03*
Y132924D02*
D03*
X334000Y142924D02*
D03*
Y132924D02*
D03*
X351000Y142924D02*
D03*
Y132924D02*
D03*
D24*
X139000Y1372000D02*
D03*
X217500Y860000D02*
D03*
D25*
X362500Y1470000D02*
D03*
X332500D02*
D03*
D26*
X133000Y88950D02*
D03*
Y127050D02*
D03*
Y101650D02*
D03*
Y114350D02*
D03*
X193000D02*
D03*
Y101650D02*
D03*
Y127050D02*
D03*
Y88950D02*
D03*
D27*
X22500Y1178500D02*
D03*
Y1146500D02*
D03*
X417500Y1178500D02*
D03*
Y1146500D02*
D03*
X272500Y1121000D02*
D03*
Y1089000D02*
D03*
X235000Y1121000D02*
D03*
Y1089000D02*
D03*
X197500Y1121000D02*
D03*
Y1089000D02*
D03*
X160000Y1121000D02*
D03*
Y1089000D02*
D03*
D28*
X472000Y206000D02*
D03*
Y231200D02*
D03*
Y256400D02*
D03*
Y281600D02*
D03*
Y306800D02*
D03*
Y333200D02*
D03*
Y434000D02*
D03*
Y383600D02*
D03*
Y358400D02*
D03*
Y408800D02*
D03*
X562000Y231200D02*
D03*
Y281600D02*
D03*
Y256400D02*
D03*
Y206000D02*
D03*
Y306800D02*
D03*
Y333200D02*
D03*
Y358400D02*
D03*
Y383600D02*
D03*
Y408800D02*
D03*
Y434000D02*
D03*
D29*
X287500Y276000D02*
D03*
Y164000D02*
D03*
X161000Y633500D02*
D03*
Y521500D02*
D03*
D30*
X235500Y274000D02*
D03*
X339500D02*
D03*
Y166000D02*
D03*
X235500D02*
D03*
X109000Y631500D02*
D03*
X213000D02*
D03*
Y523500D02*
D03*
X109000D02*
D03*
D31*
X233500Y194000D02*
D03*
X341500D02*
D03*
X107000Y551500D02*
D03*
X215000D02*
D03*
D32*
X232500Y230750D02*
D03*
Y260750D02*
D03*
Y255750D02*
D03*
Y250750D02*
D03*
Y245750D02*
D03*
Y240750D02*
D03*
Y235750D02*
D03*
X342500D02*
D03*
Y240750D02*
D03*
Y245750D02*
D03*
Y250750D02*
D03*
Y255750D02*
D03*
Y260750D02*
D03*
Y230750D02*
D03*
X106000Y588250D02*
D03*
Y618250D02*
D03*
Y613250D02*
D03*
Y608250D02*
D03*
Y603250D02*
D03*
Y598250D02*
D03*
Y593250D02*
D03*
X216000D02*
D03*
Y598250D02*
D03*
Y603250D02*
D03*
Y608250D02*
D03*
Y613250D02*
D03*
Y618250D02*
D03*
Y588250D02*
D03*
D33*
X287500Y220000D02*
D03*
X161000Y577500D02*
D03*
D34*
X233500Y273000D02*
D03*
X341500D02*
D03*
X107000Y630500D02*
D03*
X215000D02*
D03*
D35*
X217500Y1259500D02*
D03*
D36*
X251500Y1274500D02*
D03*
Y1269500D02*
D03*
Y1264500D02*
D03*
Y1259500D02*
D03*
Y1254500D02*
D03*
Y1249500D02*
D03*
Y1244500D02*
D03*
X183500Y1274500D02*
D03*
Y1269500D02*
D03*
Y1264500D02*
D03*
Y1259500D02*
D03*
Y1254500D02*
D03*
Y1249500D02*
D03*
Y1244500D02*
D03*
D37*
X190000Y1283500D02*
D03*
X195000D02*
D03*
X200000D02*
D03*
X205000D02*
D03*
X210000D02*
D03*
X215000D02*
D03*
X220000D02*
D03*
X225000D02*
D03*
X230000D02*
D03*
X235000D02*
D03*
X240000D02*
D03*
X245000D02*
D03*
Y1235500D02*
D03*
X240000D02*
D03*
X235000D02*
D03*
X230000D02*
D03*
X225000D02*
D03*
X220000D02*
D03*
X215000D02*
D03*
X210000D02*
D03*
X205000D02*
D03*
X200000D02*
D03*
X195000D02*
D03*
X190000D02*
D03*
D38*
X222500Y1361500D02*
D03*
X206500D02*
D03*
X283500Y1312500D02*
D03*
X267500D02*
D03*
X283500Y1294500D02*
D03*
X267500D02*
D03*
X288000Y1249000D02*
D03*
X272000D02*
D03*
X286500Y1270500D02*
D03*
X270500D02*
D03*
D39*
X230500Y1166500D02*
D03*
X220500Y1144500D02*
D03*
X240500D02*
D03*
D40*
X167500Y1304500D02*
D03*
X185500D02*
D03*
X177500Y1173500D02*
D03*
X159500D02*
D03*
X275500D02*
D03*
X257500D02*
D03*
X255500Y1331500D02*
D03*
X273500D02*
D03*
D41*
X352500Y940000D02*
D03*
Y1050000D02*
D03*
X82500Y940000D02*
D03*
Y1050000D02*
D03*
D42*
X354000Y888000D02*
D03*
Y828000D02*
D03*
X81500Y885500D02*
D03*
Y825500D02*
D03*
D43*
X371000Y1189500D02*
D03*
D03*
D03*
D03*
X68500Y1188500D02*
D03*
D03*
D03*
D03*
D44*
X351950Y1155640D02*
D03*
X364650D02*
D03*
X377350D02*
D03*
X390050D02*
D03*
X49450Y1154640D02*
D03*
X62150D02*
D03*
X74850D02*
D03*
X87550D02*
D03*
D45*
X310640Y1081950D02*
D03*
Y1094650D02*
D03*
Y1107350D02*
D03*
Y1120050D02*
D03*
X131360Y1120050D02*
D03*
Y1107350D02*
D03*
Y1094650D02*
D03*
Y1081950D02*
D03*
D46*
X344500Y1101000D02*
D03*
D03*
D03*
D03*
X97500Y1101000D02*
D03*
D03*
D03*
D03*
D47*
X178500Y1279500D02*
Y1282250D01*
Y1279500D02*
X183500Y1274500D01*
X143750Y1261750D02*
X147500Y1265500D01*
X134500Y1261750D02*
X143750D01*
X134500Y1245750D02*
X134750Y1245500D01*
X155500D01*
X202500Y1244500D02*
X207500Y1249500D01*
X183500Y1244500D02*
X202500D01*
X437500Y375224D02*
X456646Y394370D01*
X457146D02*
X471576Y408800D01*
X456646Y394370D02*
X457146D01*
Y369170D02*
X471576Y383600D01*
X456646Y369170D02*
X457146D01*
X442040Y354564D02*
X456646Y369170D01*
X472000Y358400D02*
X472500D01*
X464400D02*
X472000D01*
X446580Y340580D02*
X464400Y358400D01*
X456870Y317570D02*
X472500Y333200D01*
X456646Y317570D02*
X456870D01*
X451120Y312044D02*
X456646Y317570D01*
X-42400Y332700D02*
X7700D01*
X-42400Y231100D02*
Y256500D01*
X342500Y245750D02*
X342520Y245730D01*
X393230D01*
X472500Y231200D02*
Y256400D01*
X385250Y255750D02*
X388000Y253000D01*
X342500Y255750D02*
X385250D01*
X285000Y585000D02*
Y585521D01*
X257271Y613250D02*
X285000Y585521D01*
X216000Y613250D02*
X257271D01*
X244722Y602790D02*
X278000Y569511D01*
X243301Y597790D02*
X273290Y567801D01*
X241880Y592790D02*
X268750Y565921D01*
X142143Y50769D02*
X166227D01*
X176497Y40499D01*
X125500Y44000D02*
X135374D01*
X142143Y50769D01*
X150998Y62000D02*
X151497Y62499D01*
X125500Y62000D02*
X150998D01*
X245000Y1235500D02*
X247500D01*
X275500Y1207500D01*
Y1173500D02*
Y1207500D01*
X240000Y1230000D02*
X255000Y1215000D01*
X240000Y1230000D02*
Y1235500D01*
X180000Y1210000D02*
X194720Y1224720D01*
Y1235220D01*
X195000Y1235500D01*
X257270Y1155270D02*
X275500Y1173500D01*
X232575Y1155270D02*
X257270D01*
X221804Y1144500D02*
X232575Y1155270D01*
X220500Y1144500D02*
X221804D01*
X32000Y620000D02*
X38750Y613250D01*
X106000D01*
X155000Y270000D02*
X169250Y255750D01*
X232500D01*
X216000Y603250D02*
X241000D01*
X241460Y602790D01*
X244722D01*
X216000Y598250D02*
X240000D01*
X240460Y597790D01*
X243301D01*
X216000Y593250D02*
X240000D01*
X240460Y592790D01*
X241880D01*
X216000Y588250D02*
X240000D01*
X242500Y1197000D02*
X257500Y1182000D01*
Y1173500D02*
Y1182000D01*
X177500D02*
X192500Y1197000D01*
X177500Y1173500D02*
Y1182000D01*
X256760Y191280D02*
X286490Y221010D01*
X287500Y220000D02*
X296500Y229000D01*
X342500Y230750D02*
X383219D01*
X393230Y245730D02*
X437500Y290000D01*
Y375224D01*
X210000Y1283500D02*
X215000D01*
X217500Y1322500D02*
Y1333500D01*
X251500Y1264500D02*
X251780Y1264220D01*
X256355D01*
X259345Y1261230D01*
X275854D01*
X285124Y1270500D01*
X286500D01*
X314000Y1283000D02*
X316000Y1285000D01*
Y1273500D02*
Y1285000D01*
X267465Y1283000D02*
X314000D01*
X266695Y1283770D02*
X267465Y1283000D01*
X259074Y1283770D02*
X266695D01*
X251500Y1276196D02*
X259074Y1283770D01*
X251500Y1274500D02*
Y1276196D01*
Y1269500D02*
Y1274500D01*
X318250Y250750D02*
X342500D01*
X296500Y229000D02*
X305500Y238000D01*
X314500Y247000D01*
X318250Y250750D01*
X191750Y608250D02*
X216000D01*
X161000Y577500D02*
X170000Y586500D01*
X179000Y595500D01*
X188000Y604500D01*
X191750Y608250D01*
X130260Y548780D02*
X159990Y578510D01*
X230000Y1187000D02*
Y1235500D01*
Y1187000D02*
X232500Y1184500D01*
X235000Y1204500D02*
Y1235500D01*
Y1204500D02*
X242500Y1197000D01*
X176500Y1222000D02*
X190000Y1235500D01*
X172500Y1222000D02*
X176500D01*
X200000Y1204500D02*
Y1235500D01*
X192500Y1197000D02*
X200000Y1204500D01*
X205000Y1187000D02*
Y1235500D01*
X202500Y1184500D02*
X205000Y1187000D01*
X220000Y1217000D02*
Y1235500D01*
Y1217000D02*
X221500Y1215500D01*
X235000Y1283500D02*
Y1314500D01*
X242500Y1322000D01*
X230000Y1283500D02*
Y1332000D01*
X232500Y1334500D01*
X200000Y1283500D02*
Y1314500D01*
X192500Y1322000D02*
X200000Y1314500D01*
X205000Y1283500D02*
Y1332000D01*
X202500Y1334500D02*
X205000Y1332000D01*
X220000Y1235500D02*
Y1257000D01*
X217500Y1259500D02*
X220000Y1257000D01*
X232500Y1334500D02*
X239500D01*
X256500Y1351500D01*
X239500Y1367500D02*
X256500D01*
X242500Y1322000D02*
X252000Y1331500D01*
X255500D01*
X160500Y1269500D02*
X183500D01*
X160500Y1269500D02*
X160500Y1269500D01*
X170124Y1264500D02*
X183500D01*
X167854Y1262230D02*
X170124Y1264500D01*
X161230Y1262230D02*
X167854D01*
X155500Y1256500D02*
X161230Y1262230D01*
X171545Y1259500D02*
X183500D01*
X169735Y1257690D02*
X171545Y1259500D01*
X155500Y1245690D02*
X167500Y1257690D01*
X155500Y1245500D02*
Y1245690D01*
X167500Y1257690D02*
X169735D01*
X183304Y1244500D02*
X183500D01*
X195000Y1283500D02*
Y1295000D01*
X185500Y1304500D02*
X195000Y1295000D01*
X169000Y1304500D02*
X190000Y1283500D01*
X167500Y1304500D02*
X169000D01*
X178500Y1311500D02*
X185500Y1304500D01*
X167500Y1217000D02*
X172500Y1222000D01*
X167500Y1181500D02*
Y1217000D01*
X159500Y1173500D02*
X167500Y1181500D01*
X159500Y1173500D02*
X178500Y1154500D01*
X273500Y1331500D02*
X291000D01*
X155000Y1269500D02*
X160500D01*
X145000Y1279500D02*
X155000Y1269500D01*
X145000Y1279500D02*
Y1345500D01*
X171000Y1371500D01*
X258500Y1349500D02*
X273500D01*
X256500Y1351500D02*
X258500Y1349500D01*
X178500Y1154500D02*
X187500D01*
X146000Y410738D02*
X200301Y465039D01*
X139330Y410489D02*
X198421Y469580D01*
X128670Y406250D02*
X196880Y474460D01*
X122900Y406900D02*
X195000Y479000D01*
X-42400Y358100D02*
X6560D01*
X-42400Y383500D02*
X4420D01*
X-42400Y408900D02*
X-990D01*
X49000Y608250D02*
X106000D01*
X-990Y408900D02*
X33380Y443270D01*
Y592630D01*
X49000Y608250D01*
X200301Y465039D02*
X257040D01*
X278000Y486000D01*
Y569511D01*
X198421Y469580D02*
X255159D01*
X273290Y487710D01*
Y567801D01*
X196880Y474460D02*
X253619D01*
X268750Y489591D01*
Y565921D01*
X195000Y479000D02*
X251738D01*
X264210Y491471D01*
X240000Y588250D02*
X264210Y564040D01*
Y491471D02*
Y564040D01*
X394790Y240750D02*
X442040Y288000D01*
X342500Y240750D02*
X394790D01*
X442040Y288000D02*
Y354564D01*
X390000Y235750D02*
X390460Y236210D01*
X396670D01*
X446580Y286119D01*
X342500Y235750D02*
X390000D01*
X446580Y286119D02*
Y340580D01*
X383219Y230750D02*
X383679Y231210D01*
X398091D01*
X451120Y284239D01*
Y312044D01*
X139330Y393000D02*
Y410489D01*
X146000Y263000D02*
X158250Y250750D01*
X146000Y263000D02*
Y410738D01*
X139330Y263249D02*
Y383000D01*
Y263249D02*
X156830Y245750D01*
X232500D01*
X158250Y250750D02*
X232500D01*
X128670Y267489D02*
Y383000D01*
Y393000D02*
Y406250D01*
Y267489D02*
X155409Y240750D01*
X232500D01*
X122900Y266838D02*
X153989Y235750D01*
X122900Y266838D02*
Y406900D01*
X153989Y235750D02*
X232500D01*
X4420Y383500D02*
X38670Y417750D01*
Y428000D01*
Y438000D02*
Y590670D01*
X51250Y603250D01*
X106000D01*
X49330Y590000D02*
X57580Y598250D01*
X106000D01*
X49330Y438000D02*
Y590000D01*
X6560Y358100D02*
X49330Y400870D01*
Y428000D01*
X57000Y382000D02*
Y581250D01*
X69000Y593250D01*
X106000D01*
X7700Y332700D02*
X57000Y382000D01*
X195000Y269000D02*
X203250Y260750D01*
X232500D01*
X187869Y262751D02*
X188751D01*
X195000Y269000D01*
X192620D02*
X195000D01*
X187869Y273751D02*
X192620Y269000D01*
X177869Y262751D02*
Y273751D01*
X169249D02*
X177869D01*
X164000Y279000D02*
X169249Y273751D01*
X368753Y260750D02*
X375502Y267500D01*
X342500Y260750D02*
X368753D01*
X375502Y267500D02*
X380753Y262249D01*
X383370D01*
X375502Y267500D02*
X377621D01*
X383370Y273249D01*
X125500Y62000D02*
Y70500D01*
X126000Y71000D01*
X133000Y88950D02*
X145950D01*
X153000Y96000D01*
X133000Y101650D02*
X147350D01*
X153000Y96000D01*
X68000Y626000D02*
X75750Y618250D01*
X106000D01*
X61370Y620251D02*
X62251D01*
X68000Y626000D01*
X66620D02*
X68000D01*
X61370Y631251D02*
X66620Y626000D01*
X47749Y620251D02*
X51370D01*
X37000Y631000D02*
X47749Y620251D01*
X37251Y631251D02*
X51370D01*
X37000Y631000D02*
X37251Y631251D01*
X216000Y618250D02*
X236752D01*
X243503Y625000D01*
X248753Y619749D01*
X251371D01*
X243503Y625000D02*
X245621D01*
X251371Y630749D01*
X178500Y1311500D02*
Y1315500D01*
X178000Y1316000D02*
X178500Y1315500D01*
X240500Y1144500D02*
X249500D01*
X252000Y1147000D01*
X283500Y1312500D02*
X293500D01*
X283500Y1294500D02*
X293617D01*
X163000Y1332000D02*
Y1342000D01*
X178000Y1332000D02*
Y1341000D01*
X177000Y1342000D02*
X178000Y1341000D01*
X193000Y114350D02*
X213650D01*
X214000Y114000D01*
X193000Y101650D02*
X213650D01*
X214000Y102000D01*
X316000Y1247250D02*
Y1257500D01*
X207250Y1141000D02*
Y1149000D01*
X203750Y1152500D02*
X207250Y1149000D01*
D48*
X78000Y1511500D02*
X99539D01*
X116039Y1495000D01*
D49*
X245000D02*
X287000D01*
X203000D02*
X245000D01*
X116039D02*
X203000D01*
X245000Y1440000D02*
X287000D01*
X203000D02*
X245000D01*
X97500D02*
X203000D01*
X78000Y1459500D02*
X97500Y1440000D01*
D50*
X222500Y1347000D02*
Y1376500D01*
X218500D02*
X219500Y1377500D01*
X223500D01*
X262500Y1249500D02*
X263500Y1250500D01*
X251500Y1249500D02*
X262500D01*
X219593Y1283907D02*
X220000Y1283500D01*
X225000D02*
X225393Y1283893D01*
Y1329107D01*
X222500Y1332000D02*
X225393Y1329107D01*
X222500Y1332000D02*
Y1347000D01*
X220000Y1283500D02*
Y1292000D01*
X217500Y1294500D02*
X220000Y1292000D01*
X217500Y1294500D02*
Y1304500D01*
X215000Y1222695D02*
Y1235500D01*
X213607Y1221302D02*
X215000Y1222695D01*
X213607Y1205393D02*
Y1221302D01*
Y1205393D02*
X221500Y1197500D01*
X237000Y1347000D02*
X239500Y1349500D01*
X222500Y1347000D02*
X237000D01*
X263500Y1377500D02*
X273500Y1367500D01*
X223500Y1377500D02*
X263500D01*
X222500Y1376500D02*
X223500Y1377500D01*
X160500Y1285500D02*
Y1290398D01*
X152500Y1298398D02*
X160500Y1290398D01*
X162500Y1309500D02*
X167500Y1304500D01*
X240000Y1283500D02*
Y1304000D01*
X248500Y1312500D01*
X254500D01*
X245000Y1283500D02*
Y1285000D01*
X254500Y1294500D01*
Y1312500D02*
X267500D01*
X254500Y1294500D02*
X267500D01*
X254500Y1294500D02*
X254500Y1294500D01*
X221500Y1175500D02*
Y1197500D01*
Y1175500D02*
X230500Y1166500D01*
X204000Y1347000D02*
X222500D01*
X191500Y1359500D02*
X204000Y1347000D01*
X208357Y1342643D02*
X217500Y1333500D01*
X194357Y1342643D02*
X208357D01*
X273500Y1367500D02*
X291000D01*
X251500Y1264500D02*
X251907Y1264907D01*
X162500Y1309500D02*
Y1315500D01*
X163000Y1316000D01*
X230500Y1166500D02*
X240500D01*
X242000Y1168000D01*
X288000Y1249000D02*
X298060D01*
X298560Y1249500D01*
X152500Y1341602D02*
X170398Y1359500D01*
X152500Y1298398D02*
Y1341602D01*
X170398Y1359500D02*
X191500D01*
D51*
X201000Y517000D02*
X207000Y511000D01*
X207129Y510871D01*
Y502249D02*
Y510871D01*
X327500Y159500D02*
X333500Y153500D01*
X333629Y153371D01*
Y144749D02*
Y153371D01*
X176497Y72447D02*
X193000Y88950D01*
X176497Y62499D02*
Y72447D01*
X213370Y200751D02*
X220751D01*
X221500Y201500D01*
X226000D01*
X233500Y194000D01*
X213370Y185751D02*
X220751D01*
X221500Y186500D01*
X226000D01*
X233500Y194000D01*
X213370Y168751D02*
X221249D01*
X221500Y168500D01*
X233000D01*
X213370Y152751D02*
X221751D01*
X222500Y153500D01*
X222869Y144749D02*
Y153131D01*
X222500Y153500D02*
X222869Y153131D01*
X222500Y153500D02*
X223000D01*
X241869Y144749D02*
Y153131D01*
X241500Y153500D02*
X241869Y153131D01*
X261869Y144749D02*
Y153131D01*
X261500Y153500D02*
X261869Y153131D01*
X350500Y153500D02*
Y155000D01*
X339500Y166000D02*
X350500Y155000D01*
X343000Y169500D02*
X351500D01*
X339500Y166000D02*
X343000Y169500D01*
X351000Y184500D02*
X351500D01*
X279500Y153500D02*
X279869Y153131D01*
Y144749D02*
Y153131D01*
X297260Y153500D02*
X297629Y153131D01*
Y144749D02*
Y153131D01*
X315260Y153500D02*
X315629Y153131D01*
Y144749D02*
Y153131D01*
X233000Y168500D02*
X235500Y166000D01*
X223000Y153500D02*
X235500Y166000D01*
X241500Y153500D02*
Y160000D01*
X235500Y166000D02*
X241500Y160000D01*
X327500Y159500D02*
Y159500D01*
X351751Y201249D02*
X358871D01*
X351500Y201500D02*
X351751Y201249D01*
X352249Y185249D02*
X358871D01*
X351500Y184500D02*
X352249Y185249D01*
X351751Y169249D02*
X358871D01*
X351500Y169500D02*
X351751Y169249D01*
X351751Y152249D02*
X358871D01*
X350629Y144749D02*
Y153371D01*
X350500Y153500D02*
X350629Y153371D01*
X351751Y152249D01*
X224129Y510871D02*
X225251Y509749D01*
X224000Y511000D02*
X224129Y510871D01*
Y502249D02*
Y510871D01*
X225251Y509749D02*
X232370D01*
X225000Y527000D02*
X225251Y526749D01*
X232370D01*
X225000Y542000D02*
X225749Y542749D01*
X232370D01*
X225000Y559000D02*
X225251Y558749D01*
X232370D01*
X201000Y517000D02*
Y517000D01*
X109000Y523500D02*
X115000Y517500D01*
Y511000D02*
Y517500D01*
X96500Y511000D02*
X109000Y523500D01*
X106500Y526000D02*
X109000Y523500D01*
X189129Y502249D02*
Y510631D01*
X188760Y511000D02*
X189129Y510631D01*
X171129Y502249D02*
Y510631D01*
X170760Y511000D02*
X171129Y510631D01*
X153369Y502249D02*
Y510631D01*
X153000Y511000D02*
X153369Y510631D01*
X224500Y542000D02*
X225000D01*
X213000Y523500D02*
X216500Y527000D01*
X225000D01*
X213000Y523500D02*
X224000Y512500D01*
Y511000D02*
Y512500D01*
X135000Y511000D02*
X135369Y510631D01*
Y502249D02*
Y510631D01*
X115000Y511000D02*
X115369Y510631D01*
Y502249D02*
Y510631D01*
X96000Y511000D02*
X96500D01*
X96000D02*
X96369Y510631D01*
Y502249D02*
Y510631D01*
X95251Y510251D02*
X96000Y511000D01*
X86869Y510251D02*
X95251D01*
X95000Y526000D02*
X106500D01*
X94749Y526251D02*
X95000Y526000D01*
X86869Y526251D02*
X94749D01*
X99500Y544000D02*
X107000Y551500D01*
X95000Y544000D02*
X99500D01*
X94251Y543251D02*
X95000Y544000D01*
X86869Y543251D02*
X94251D01*
X99500Y559000D02*
X107000Y551500D01*
X95000Y559000D02*
X99500D01*
X94251Y558251D02*
X95000Y559000D01*
X86869Y558251D02*
X94251D01*
X185000Y1369500D02*
X188047Y1366453D01*
X194380D01*
X199333Y1361500D01*
X206500D01*
X200033Y1376500D02*
X204500D01*
X184973Y1391560D02*
X200033Y1376500D01*
X183000Y1391560D02*
X184973D01*
D52*
X287000Y1495000D02*
X307500D01*
X332500Y1470000D01*
D53*
X170500Y1247500D02*
X172500Y1249500D01*
X183500D01*
Y1254500D01*
X209734Y1314734D02*
X217500Y1322500D01*
X209734Y1283766D02*
Y1314734D01*
Y1283766D02*
X210000Y1283500D01*
Y1223577D02*
Y1235500D01*
X209448Y1223025D02*
X210000Y1223577D01*
X209448Y1197552D02*
Y1223025D01*
Y1197552D02*
X213500Y1193500D01*
Y1170500D02*
Y1193500D01*
D54*
X296950Y1081950D02*
X310640D01*
X390050Y1129450D02*
Y1155640D01*
X87550Y1154640D02*
X110640D01*
X131360Y1119050D02*
Y1120050D01*
Y1142140D01*
D55*
X342000Y191500D02*
D03*
D56*
X287500Y165000D02*
D03*
D57*
X232750Y196000D02*
D03*
D58*
X215000Y555000D02*
D03*
D59*
X160000Y524250D02*
D03*
D60*
X106000Y552875D02*
D03*
D61*
X388750Y1468750D02*
D03*
D62*
X251500Y238000D02*
D03*
Y256000D02*
D03*
X260500Y229000D02*
D03*
Y247000D02*
D03*
X269500Y238000D02*
D03*
Y256000D02*
D03*
X278500Y229000D02*
D03*
Y247000D02*
D03*
X287500Y238000D02*
D03*
Y256000D02*
D03*
X251500Y184000D02*
D03*
X269500D02*
D03*
X260500Y193000D02*
D03*
X278500D02*
D03*
X251500Y202000D02*
D03*
X269500D02*
D03*
X260500Y211000D02*
D03*
X278500D02*
D03*
X251500Y220000D02*
D03*
X269500D02*
D03*
X305500Y184000D02*
D03*
X323500D02*
D03*
X296500Y193000D02*
D03*
X314500D02*
D03*
X305500Y202000D02*
D03*
X323500D02*
D03*
X296500Y211000D02*
D03*
X314500D02*
D03*
X305500Y256000D02*
D03*
X323500D02*
D03*
X296500Y247000D02*
D03*
X314500D02*
D03*
X305500Y238000D02*
D03*
X323500D02*
D03*
X296500Y229000D02*
D03*
X314500D02*
D03*
X287500Y184000D02*
D03*
X323500Y220000D02*
D03*
X287500Y202000D02*
D03*
X305500Y220000D02*
D03*
X287500D02*
D03*
X125000Y595500D02*
D03*
Y613500D02*
D03*
X134000Y586500D02*
D03*
Y604500D02*
D03*
X143000Y595500D02*
D03*
Y613500D02*
D03*
X152000Y586500D02*
D03*
Y604500D02*
D03*
X161000Y595500D02*
D03*
Y613500D02*
D03*
X125000Y541500D02*
D03*
X143000D02*
D03*
X134000Y550500D02*
D03*
X152000D02*
D03*
X125000Y559500D02*
D03*
X143000D02*
D03*
X134000Y568500D02*
D03*
X152000D02*
D03*
X125000Y577500D02*
D03*
X143000D02*
D03*
X179000Y541500D02*
D03*
X197000D02*
D03*
X170000Y550500D02*
D03*
X188000D02*
D03*
X179000Y559500D02*
D03*
X197000D02*
D03*
X170000Y568500D02*
D03*
X188000D02*
D03*
X179000Y613500D02*
D03*
X197000D02*
D03*
X170000Y604500D02*
D03*
X188000D02*
D03*
X179000Y595500D02*
D03*
X197000D02*
D03*
X170000Y586500D02*
D03*
X188000D02*
D03*
X161000Y541500D02*
D03*
X197000Y577500D02*
D03*
X161000Y559500D02*
D03*
X179000Y577500D02*
D03*
X161000D02*
D03*
D63*
X78000Y1494500D02*
D03*
Y1459500D02*
D03*
D64*
X245000Y1440000D02*
D03*
Y1495000D02*
D03*
X203000Y1440000D02*
D03*
X287000Y1495000D02*
D03*
Y1440000D02*
D03*
X203000Y1495000D02*
D03*
D65*
X354000Y55000D02*
D03*
X69000D02*
D03*
Y324000D02*
D03*
X354000Y1353000D02*
D03*
D66*
X118000Y1245750D02*
D03*
X178500Y1282250D02*
D03*
X147500Y1265500D02*
D03*
X6000Y298000D02*
D03*
X-31000D02*
D03*
X-73000Y279000D02*
D03*
X-31000D02*
D03*
Y199000D02*
D03*
X-73000Y249000D02*
D03*
Y224000D02*
D03*
Y199000D02*
D03*
X-32000Y443000D02*
D03*
X-74000Y442000D02*
D03*
X98000Y209000D02*
D03*
Y222000D02*
D03*
Y184000D02*
D03*
Y197000D02*
D03*
Y171000D02*
D03*
X85000Y209000D02*
D03*
Y222000D02*
D03*
Y184000D02*
D03*
Y197000D02*
D03*
Y171000D02*
D03*
X72000Y209000D02*
D03*
Y222000D02*
D03*
Y184000D02*
D03*
Y197000D02*
D03*
Y171000D02*
D03*
X59000Y209000D02*
D03*
Y222000D02*
D03*
Y184000D02*
D03*
Y197000D02*
D03*
Y171000D02*
D03*
X46000D02*
D03*
Y197000D02*
D03*
Y184000D02*
D03*
Y222000D02*
D03*
Y209000D02*
D03*
X-43000Y1482000D02*
D03*
Y1495000D02*
D03*
Y1457000D02*
D03*
Y1470000D02*
D03*
Y1444000D02*
D03*
X-56000Y1482000D02*
D03*
Y1495000D02*
D03*
Y1457000D02*
D03*
Y1470000D02*
D03*
Y1444000D02*
D03*
X-69000Y1482000D02*
D03*
Y1495000D02*
D03*
Y1457000D02*
D03*
Y1470000D02*
D03*
Y1444000D02*
D03*
X-82000Y1482000D02*
D03*
Y1495000D02*
D03*
Y1457000D02*
D03*
Y1470000D02*
D03*
Y1444000D02*
D03*
X-95000D02*
D03*
Y1470000D02*
D03*
Y1457000D02*
D03*
Y1495000D02*
D03*
Y1482000D02*
D03*
X532000D02*
D03*
Y1495000D02*
D03*
Y1457000D02*
D03*
Y1470000D02*
D03*
Y1444000D02*
D03*
X519000Y1482000D02*
D03*
Y1495000D02*
D03*
Y1457000D02*
D03*
Y1470000D02*
D03*
Y1444000D02*
D03*
X506000Y1482000D02*
D03*
Y1495000D02*
D03*
Y1457000D02*
D03*
Y1470000D02*
D03*
Y1444000D02*
D03*
X493000Y1482000D02*
D03*
Y1495000D02*
D03*
Y1457000D02*
D03*
Y1470000D02*
D03*
Y1444000D02*
D03*
X480000D02*
D03*
Y1470000D02*
D03*
Y1457000D02*
D03*
Y1495000D02*
D03*
Y1482000D02*
D03*
X548000Y427000D02*
D03*
X486000Y428000D02*
D03*
X487000Y289000D02*
D03*
X548000Y287000D02*
D03*
Y250000D02*
D03*
Y225000D02*
D03*
Y200000D02*
D03*
X486000Y201000D02*
D03*
X174000Y706000D02*
D03*
Y719000D02*
D03*
Y732000D02*
D03*
X161000Y706000D02*
D03*
Y719000D02*
D03*
Y732000D02*
D03*
X148000Y706000D02*
D03*
Y719000D02*
D03*
Y732000D02*
D03*
X400000Y573000D02*
D03*
Y586000D02*
D03*
Y612000D02*
D03*
Y599000D02*
D03*
Y637000D02*
D03*
Y624000D02*
D03*
Y547000D02*
D03*
Y560000D02*
D03*
Y522000D02*
D03*
Y535000D02*
D03*
Y509000D02*
D03*
Y496000D02*
D03*
X413000Y573000D02*
D03*
Y586000D02*
D03*
Y612000D02*
D03*
Y599000D02*
D03*
Y637000D02*
D03*
Y624000D02*
D03*
Y547000D02*
D03*
Y560000D02*
D03*
Y522000D02*
D03*
Y535000D02*
D03*
Y509000D02*
D03*
Y496000D02*
D03*
X426000Y573000D02*
D03*
Y586000D02*
D03*
Y612000D02*
D03*
Y599000D02*
D03*
Y637000D02*
D03*
Y624000D02*
D03*
Y547000D02*
D03*
Y560000D02*
D03*
Y522000D02*
D03*
Y535000D02*
D03*
Y509000D02*
D03*
Y496000D02*
D03*
X122000Y745000D02*
D03*
X147000D02*
D03*
X134000D02*
D03*
X173000D02*
D03*
X160000D02*
D03*
X122000Y758000D02*
D03*
X147000D02*
D03*
X134000D02*
D03*
X173000D02*
D03*
X160000D02*
D03*
X122000Y771000D02*
D03*
X147000D02*
D03*
X134000D02*
D03*
X173000D02*
D03*
X160000D02*
D03*
X122000Y784000D02*
D03*
X147000D02*
D03*
X134000D02*
D03*
X173000D02*
D03*
X160000D02*
D03*
Y797000D02*
D03*
X173000D02*
D03*
X134000D02*
D03*
X147000D02*
D03*
X122000D02*
D03*
X470000Y297000D02*
D03*
X214000Y102000D02*
D03*
Y114000D02*
D03*
X388000Y253000D02*
D03*
X194357Y1342643D02*
D03*
X126000Y71000D02*
D03*
X153000Y96000D02*
D03*
X32000Y620000D02*
D03*
X155000Y270000D02*
D03*
X221500Y201500D02*
D03*
Y186500D02*
D03*
Y168500D02*
D03*
X241500Y153500D02*
D03*
X261500D02*
D03*
X351500Y169500D02*
D03*
Y201500D02*
D03*
X333500Y153500D02*
D03*
X350500D02*
D03*
X351500Y184500D02*
D03*
X279500Y153500D02*
D03*
X297260Y153500D02*
D03*
X315260D02*
D03*
X222500Y153500D02*
D03*
X96000Y511000D02*
D03*
X188760Y511000D02*
D03*
X170760D02*
D03*
X153000Y511000D02*
D03*
X225000Y542000D02*
D03*
X224000Y511000D02*
D03*
X207000D02*
D03*
X316000Y1247250D02*
D03*
X195000Y269000D02*
D03*
X164000Y279000D02*
D03*
X375502Y267500D02*
D03*
X408000Y275000D02*
D03*
X225000Y559000D02*
D03*
Y527000D02*
D03*
X135000Y511000D02*
D03*
X115000D02*
D03*
X95000Y526000D02*
D03*
Y544000D02*
D03*
Y559000D02*
D03*
X68000Y626000D02*
D03*
X37000Y631000D02*
D03*
X243503Y625000D02*
D03*
X271000Y625000D02*
D03*
X217500Y1294500D02*
D03*
X155500Y1256500D02*
D03*
X13000Y572000D02*
D03*
Y585000D02*
D03*
Y547000D02*
D03*
Y560000D02*
D03*
Y534000D02*
D03*
X26000D02*
D03*
Y560000D02*
D03*
Y547000D02*
D03*
Y585000D02*
D03*
Y572000D02*
D03*
X293617Y1294500D02*
D03*
X293500Y1312500D02*
D03*
X163000Y1342000D02*
D03*
X177000D02*
D03*
X136500Y667000D02*
D03*
X43000Y664000D02*
D03*
D67*
X291000Y1331500D02*
D03*
Y1367500D02*
D03*
X171000Y1371500D02*
D03*
M02*
