%FSLAX44Y44*%
%MOMM*%
G71*
G01*
G75*
%ADD10R,1.2000X0.8000*%
%ADD11C,1.0000*%
%ADD12R,2.0000X3.5000*%
%ADD13R,3.0000X4.0000*%
%ADD14R,4.0000X2.8000*%
%ADD15R,2.8000X4.0000*%
%ADD16R,4.0000X3.0000*%
%ADD17R,0.6000X0.5000*%
%ADD18R,1.6000X1.4000*%
%ADD19R,0.9500X0.9000*%
%ADD20R,2.0000X2.0000*%
%ADD21R,2.0000X3.2000*%
%ADD22R,3.5000X2.0000*%
%ADD23R,0.5000X0.6000*%
%ADD24C,2.0000*%
%ADD25R,1.0000X1.8000*%
%ADD26R,3.0000X0.8000*%
%ADD27R,3.2000X2.0000*%
%ADD28R,2.8000X1.5000*%
%ADD29R,7.7000X1.6000*%
%ADD30R,1.7000X1.6000*%
%ADD31R,1.6000X6.3000*%
%ADD32R,1.8000X0.2900*%
%ADD33R,8.7000X8.7000*%
%ADD34R,1.6000X1.7000*%
%ADD35R,5.1500X3.1500*%
%ADD36R,0.7000X0.2900*%
%ADD37R,0.2900X0.7000*%
%ADD38R,0.8000X1.2000*%
%ADD39R,1.1000X1.2000*%
%ADD40R,0.9000X0.9500*%
%ADD41R,4.5000X4.0000*%
%ADD42R,3.2000X3.0000*%
%ADD43R,4.5000X4.2000*%
%ADD44R,0.5500X1.7000*%
%ADD45R,1.7000X0.5500*%
%ADD46R,4.2000X4.5000*%
%ADD47C,0.2540*%
%ADD48C,4.5720*%
%ADD49C,5.0000*%
%ADD50C,0.2286*%
%ADD51C,0.7620*%
%ADD52C,1.0160*%
%ADD53C,0.2032*%
%ADD54C,0.6350*%
%ADD55R,1.6000X6.7000*%
%ADD56R,12.5000X1.4000*%
%ADD57R,1.7500X7.2000*%
%ADD58R,1.6000X5.6000*%
%ADD59R,12.6000X1.3500*%
%ADD60R,1.8000X7.0750*%
%ADD61R,6.2500X6.2500*%
%ADD62C,0.8100*%
%ADD63C,1.5240*%
%ADD64C,1.8500*%
%ADD65C,8.0000*%
%ADD66C,0.8000*%
%ADD67C,1.2700*%
%ADD68C,0.7112*%
%ADD69C,1.2700*%
%ADD70C,0.0500*%
%ADD71C,0.2000*%
%ADD72C,0.1270*%
G36*
X-83006Y928303D02*
X-64162D01*
Y920871D01*
X-83006D01*
Y909193D01*
X-89906D01*
Y939980D01*
X-83006D01*
Y928303D01*
D02*
G37*
G36*
X-64162Y973156D02*
X-77963D01*
Y972891D01*
X-77698D01*
Y972625D01*
X-77167D01*
Y972360D01*
X-76636D01*
Y972095D01*
X-76370D01*
Y971829D01*
X-75840D01*
Y971564D01*
X-75309D01*
Y971298D01*
X-74778D01*
Y971033D01*
X-74513D01*
Y970768D01*
X-73982D01*
Y970502D01*
X-73451D01*
Y970237D01*
X-72920D01*
Y969971D01*
X-72655D01*
Y969706D01*
X-72124D01*
Y969441D01*
X-71593D01*
Y969175D01*
X-71328D01*
Y968910D01*
X-70797D01*
Y968644D01*
X-70266D01*
Y968379D01*
X-70001D01*
Y968113D01*
X-69470D01*
Y967848D01*
X-68939D01*
Y967583D01*
X-68674D01*
Y967317D01*
X-68143D01*
Y967052D01*
X-67877D01*
Y966786D01*
X-67347D01*
Y966521D01*
X-67081D01*
Y966256D01*
X-66550D01*
Y965990D01*
X-66285D01*
Y965725D01*
X-66020D01*
Y965460D01*
X-65754D01*
Y965194D01*
X-65223D01*
Y964929D01*
X-64958D01*
Y964663D01*
X-64693D01*
Y964398D01*
X-64427D01*
Y963867D01*
X-64162D01*
Y958824D01*
X-64427D01*
Y958559D01*
X-64693D01*
Y958294D01*
X-64958D01*
Y958028D01*
X-65223D01*
Y957763D01*
X-65489D01*
Y957497D01*
X-66020D01*
Y957232D01*
X-66285D01*
Y956966D01*
X-66550D01*
Y956701D01*
X-67081D01*
Y956436D01*
X-67347D01*
Y956170D01*
X-67612D01*
Y955905D01*
X-68143D01*
Y955639D01*
X-68674D01*
Y955374D01*
X-68939D01*
Y955109D01*
X-69470D01*
Y954843D01*
X-69735D01*
Y954578D01*
X-70266D01*
Y954312D01*
X-70797D01*
Y954047D01*
X-71062D01*
Y953782D01*
X-71593D01*
Y953516D01*
X-72124D01*
Y953251D01*
X-72389D01*
Y952985D01*
X-72920D01*
Y952720D01*
X-73451D01*
Y952455D01*
X-73982D01*
Y952189D01*
X-74247D01*
Y951924D01*
X-74778D01*
Y951658D01*
X-75309D01*
Y951393D01*
X-75574D01*
Y951127D01*
X-76105D01*
Y950862D01*
X-76636D01*
Y950597D01*
X-77167D01*
Y950331D01*
X-77432D01*
Y950066D01*
X-77963D01*
Y949800D01*
X-64162D01*
Y942900D01*
X-86191D01*
Y943165D01*
X-86987D01*
Y943431D01*
X-87517D01*
Y943696D01*
X-87783D01*
Y943962D01*
X-88048D01*
Y944227D01*
X-88314D01*
Y944492D01*
X-88579D01*
Y945023D01*
X-88844D01*
Y945289D01*
X-89110D01*
Y945819D01*
X-89375D01*
Y946616D01*
X-89641D01*
Y947677D01*
X-89906D01*
Y950066D01*
X-89641D01*
Y950862D01*
X-89375D01*
Y951393D01*
X-89110D01*
Y951658D01*
X-88844D01*
Y952189D01*
X-88579D01*
Y952455D01*
X-88314D01*
Y952720D01*
X-88048D01*
Y952985D01*
X-87783D01*
Y953251D01*
X-87252D01*
Y953516D01*
X-86987D01*
Y953782D01*
X-86456D01*
Y954047D01*
X-85925D01*
Y954312D01*
X-85660D01*
Y954578D01*
X-85129D01*
Y954843D01*
X-84598D01*
Y955109D01*
X-84067D01*
Y955374D01*
X-83802D01*
Y955639D01*
X-83271D01*
Y955905D01*
X-82740D01*
Y956170D01*
X-82209D01*
Y956436D01*
X-81679D01*
Y956701D01*
X-81413D01*
Y956966D01*
X-80882D01*
Y957232D01*
X-80351D01*
Y957497D01*
X-79821D01*
Y957763D01*
X-79555D01*
Y958028D01*
X-79025D01*
Y958294D01*
X-78494D01*
Y958559D01*
X-77963D01*
Y958824D01*
X-77432D01*
Y959090D01*
X-77167D01*
Y959355D01*
X-76636D01*
Y959621D01*
X-76105D01*
Y959886D01*
X-75574D01*
Y960151D01*
X-75043D01*
Y960417D01*
X-74778D01*
Y960682D01*
X-74247D01*
Y960948D01*
X-73716D01*
Y961213D01*
X-73451D01*
Y961478D01*
X-73716D01*
Y961744D01*
X-73982D01*
Y962009D01*
X-74513D01*
Y962275D01*
X-75043D01*
Y962540D01*
X-75309D01*
Y962805D01*
X-75840D01*
Y963071D01*
X-76370D01*
Y963336D01*
X-76901D01*
Y963602D01*
X-77167D01*
Y963867D01*
X-77698D01*
Y964132D01*
X-78228D01*
Y964398D01*
X-78494D01*
Y964663D01*
X-79025D01*
Y964929D01*
X-79555D01*
Y965194D01*
X-80086D01*
Y965460D01*
X-80351D01*
Y965725D01*
X-80882D01*
Y965990D01*
X-81413D01*
Y966256D01*
X-81679D01*
Y966521D01*
X-82209D01*
Y966786D01*
X-82740D01*
Y967052D01*
X-83271D01*
Y967317D01*
X-83536D01*
Y967583D01*
X-84067D01*
Y967848D01*
X-84598D01*
Y968113D01*
X-85129D01*
Y968379D01*
X-85394D01*
Y968644D01*
X-85925D01*
Y968910D01*
X-86456D01*
Y969175D01*
X-86721D01*
Y969441D01*
X-87252D01*
Y969706D01*
X-87517D01*
Y969971D01*
X-88048D01*
Y970237D01*
X-88314D01*
Y970502D01*
X-88579D01*
Y970768D01*
X-88844D01*
Y971298D01*
X-89110D01*
Y971564D01*
X-89375D01*
Y972095D01*
X-89641D01*
Y972891D01*
X-89906D01*
Y975279D01*
X-89641D01*
Y976341D01*
X-89375D01*
Y976872D01*
X-89110D01*
Y977403D01*
X-88844D01*
Y977934D01*
X-88579D01*
Y978199D01*
X-88314D01*
Y978730D01*
X-88048D01*
Y978995D01*
X-87783D01*
Y979261D01*
X-87252D01*
Y979526D01*
X-86721D01*
Y979791D01*
X-64162D01*
Y973156D01*
D02*
G37*
G36*
Y899373D02*
X-89906D01*
Y906274D01*
X-64162D01*
Y899373D01*
D02*
G37*
G36*
X-73982Y858501D02*
X-69735D01*
Y858235D01*
X-67612D01*
Y857970D01*
X-66020D01*
Y857704D01*
X-64693D01*
Y857439D01*
X-63631D01*
Y857174D01*
X-62569D01*
Y856908D01*
X-61773D01*
Y856643D01*
X-60977D01*
Y856377D01*
X-60181D01*
Y856112D01*
X-59384D01*
Y855847D01*
X-58588D01*
Y855581D01*
X-57792D01*
Y855316D01*
X-57261D01*
Y855051D01*
X-56730D01*
Y854785D01*
X-55934D01*
Y854520D01*
X-55403D01*
Y854254D01*
X-54872D01*
Y853989D01*
X-54342D01*
Y853723D01*
X-53811D01*
Y853458D01*
X-53280D01*
Y853193D01*
X-52749D01*
Y852927D01*
X-52484D01*
Y852662D01*
X-51953D01*
Y852396D01*
X-51422D01*
Y852131D01*
X-51157D01*
Y851866D01*
X-50626D01*
Y851600D01*
X-50095D01*
Y851335D01*
X-49830D01*
Y851069D01*
X-49299D01*
Y850804D01*
X-49034D01*
Y850539D01*
X-48768D01*
Y850273D01*
X-48237D01*
Y850008D01*
X-47972D01*
Y849742D01*
X-47441D01*
Y849477D01*
X-47176D01*
Y849212D01*
X-46910D01*
Y848946D01*
X-46645D01*
Y848681D01*
X-46114D01*
Y848415D01*
X-45849D01*
Y848150D01*
X-45583D01*
Y847885D01*
X-45318D01*
Y847619D01*
X-45052D01*
Y847354D01*
X-44522D01*
Y847088D01*
X-44256D01*
Y846823D01*
X-43991D01*
Y846557D01*
X-43726D01*
Y846292D01*
X-43460D01*
Y846027D01*
X-43195D01*
Y845761D01*
X-42929D01*
Y845496D01*
X-42664D01*
Y845230D01*
X-42398D01*
Y844965D01*
X-42133D01*
Y844700D01*
X-41868D01*
Y844434D01*
X-41602D01*
Y844169D01*
X-41337D01*
Y843903D01*
X-41071D01*
Y843373D01*
X-40806D01*
Y843107D01*
X-40541D01*
Y842842D01*
X-40275D01*
Y842576D01*
X-40010D01*
Y842311D01*
X-39744D01*
Y842046D01*
X-39479D01*
Y841515D01*
X-39214D01*
Y841249D01*
X-38948D01*
Y840984D01*
X-38683D01*
Y840453D01*
X-38417D01*
Y840188D01*
X-38152D01*
Y839922D01*
X-37887D01*
Y839391D01*
X-37621D01*
Y839126D01*
X-37356D01*
Y838595D01*
X-37090D01*
Y838330D01*
X-36825D01*
Y837799D01*
X-36560D01*
Y837534D01*
X-36294D01*
Y837003D01*
X-36029D01*
Y836472D01*
X-35763D01*
Y836207D01*
X-35498D01*
Y835676D01*
X-35233D01*
Y835145D01*
X-34967D01*
Y834614D01*
X-34702D01*
Y834083D01*
X-34436D01*
Y833553D01*
X-34171D01*
Y833022D01*
X-33905D01*
Y832491D01*
X-33640D01*
Y831960D01*
X-33375D01*
Y831429D01*
X-33109D01*
Y830633D01*
X-32844D01*
Y830102D01*
X-32578D01*
Y829306D01*
X-32313D01*
Y828775D01*
X-32048D01*
Y827979D01*
X-31782D01*
Y826917D01*
X-31517D01*
Y826121D01*
X-31251D01*
Y825325D01*
X-30986D01*
Y824263D01*
X-30721D01*
Y822936D01*
X-30455D01*
Y821609D01*
X-30190D01*
Y820017D01*
X-29924D01*
Y817628D01*
X-29659D01*
Y810197D01*
X-29924D01*
Y807808D01*
X-30190D01*
Y805950D01*
X-30455D01*
Y804623D01*
X-30721D01*
Y803562D01*
X-30986D01*
Y802500D01*
X-31251D01*
Y801438D01*
X-31517D01*
Y800642D01*
X-31782D01*
Y799846D01*
X-32048D01*
Y799050D01*
X-32313D01*
Y798253D01*
X-32578D01*
Y797457D01*
X-32844D01*
Y796926D01*
X-33109D01*
Y796396D01*
X-33375D01*
Y795600D01*
X-33640D01*
Y795069D01*
X-33905D01*
Y794538D01*
X-34171D01*
Y794007D01*
X-34436D01*
Y793476D01*
X-34702D01*
Y792945D01*
X-34967D01*
Y792415D01*
X-35233D01*
Y791884D01*
X-35498D01*
Y791618D01*
X-35763D01*
Y791087D01*
X-36029D01*
Y790557D01*
X-36294D01*
Y790291D01*
X-36560D01*
Y789761D01*
X-36825D01*
Y789495D01*
X-37090D01*
Y788964D01*
X-37356D01*
Y788699D01*
X-37621D01*
Y788168D01*
X-37887D01*
Y787903D01*
X-38152D01*
Y787372D01*
X-38417D01*
Y787106D01*
X-38683D01*
Y786841D01*
X-38948D01*
Y786310D01*
X-39214D01*
Y786045D01*
X-39479D01*
Y785779D01*
X-39744D01*
Y785514D01*
X-40010D01*
Y784983D01*
X-40275D01*
Y784718D01*
X-40541D01*
Y784452D01*
X-40806D01*
Y784187D01*
X-41071D01*
Y783922D01*
X-41337D01*
Y783656D01*
X-41602D01*
Y783391D01*
X-41868D01*
Y783125D01*
X-42133D01*
Y782595D01*
X-42398D01*
Y782329D01*
X-42664D01*
Y782064D01*
X-42929D01*
Y781798D01*
X-43195D01*
Y781533D01*
X-43726D01*
Y781267D01*
X-43991D01*
Y781002D01*
X-44256D01*
Y780737D01*
X-44522D01*
Y780471D01*
X-44787D01*
Y780206D01*
X-45052D01*
Y779940D01*
X-45318D01*
Y779675D01*
X-45583D01*
Y779410D01*
X-46114D01*
Y779144D01*
X-46379D01*
Y778879D01*
X-46645D01*
Y778614D01*
X-46910D01*
Y778348D01*
X-47441D01*
Y778083D01*
X-47707D01*
Y777817D01*
X-47972D01*
Y777552D01*
X-48503D01*
Y777286D01*
X-48768D01*
Y777021D01*
X-49299D01*
Y776756D01*
X-49564D01*
Y776490D01*
X-49830D01*
Y776225D01*
X-50361D01*
Y775959D01*
X-50891D01*
Y775694D01*
X-51157D01*
Y775429D01*
X-51688D01*
Y775163D01*
X-52218D01*
Y774898D01*
X-52484D01*
Y774632D01*
X-53015D01*
Y774367D01*
X-53545D01*
Y774102D01*
X-54076D01*
Y773836D01*
X-54607D01*
Y773571D01*
X-55138D01*
Y773305D01*
X-55669D01*
Y773040D01*
X-56200D01*
Y772775D01*
X-56996D01*
Y772509D01*
X-57527D01*
Y772244D01*
X-58057D01*
Y771978D01*
X-58854D01*
Y771713D01*
X-59650D01*
Y771448D01*
X-60446D01*
Y771182D01*
X-61242D01*
Y770917D01*
X-62038D01*
Y770651D01*
X-63100D01*
Y770386D01*
X-64162D01*
Y770120D01*
X-65223D01*
Y769855D01*
X-66550D01*
Y769590D01*
X-68408D01*
Y769324D01*
X-70797D01*
Y769059D01*
X-78228D01*
Y769324D01*
X-80617D01*
Y769590D01*
X-82209D01*
Y769855D01*
X-83536D01*
Y770120D01*
X-84863D01*
Y770386D01*
X-85925D01*
Y770651D01*
X-86721D01*
Y770917D01*
X-87783D01*
Y771182D01*
X-88579D01*
Y771448D01*
X-89375D01*
Y771713D01*
X-89906D01*
Y771978D01*
X-90702D01*
Y772244D01*
X-91233D01*
Y772509D01*
X-92029D01*
Y772775D01*
X-92560D01*
Y773040D01*
X-93091D01*
Y773305D01*
X-93622D01*
Y773571D01*
X-94418D01*
Y773836D01*
X-94949D01*
Y774102D01*
X-95214D01*
Y774367D01*
X-95745D01*
Y774632D01*
X-96276D01*
Y774898D01*
X-96807D01*
Y775163D01*
X-97338D01*
Y775429D01*
X-97603D01*
Y775694D01*
X-98134D01*
Y775959D01*
X-98399D01*
Y776225D01*
X-98930D01*
Y776490D01*
X-99195D01*
Y776756D01*
X-99726D01*
Y777021D01*
X-99992D01*
Y777286D01*
X-100522D01*
Y777552D01*
X-100788D01*
Y777817D01*
X-101319D01*
Y778083D01*
X-101584D01*
Y778348D01*
X-101849D01*
Y778614D01*
X-102115D01*
Y778879D01*
X-102646D01*
Y779144D01*
X-102911D01*
Y779410D01*
X-103176D01*
Y779675D01*
X-103442D01*
Y779940D01*
X-103707D01*
Y780206D01*
X-104238D01*
Y780471D01*
X-104503D01*
Y780737D01*
X-104769D01*
Y781002D01*
X-105034D01*
Y781267D01*
X-105300D01*
Y781533D01*
X-105565D01*
Y781798D01*
X-105830D01*
Y782064D01*
X-106096D01*
Y782329D01*
X-106361D01*
Y782595D01*
X-106627D01*
Y782860D01*
X-106892D01*
Y783125D01*
X-107158D01*
Y783391D01*
X-107423D01*
Y783656D01*
X-107688D01*
Y783922D01*
X-107954D01*
Y784452D01*
X-108219D01*
Y784718D01*
X-108485D01*
Y784983D01*
X-108750D01*
Y785249D01*
X-109015D01*
Y785514D01*
X-109281D01*
Y785779D01*
X-109546D01*
Y786310D01*
X-109812D01*
Y786576D01*
X-110077D01*
Y786841D01*
X-110343D01*
Y787372D01*
X-110608D01*
Y787637D01*
X-110873D01*
Y787903D01*
X-111139D01*
Y788434D01*
X-111404D01*
Y788699D01*
X-111670D01*
Y789230D01*
X-111935D01*
Y789495D01*
X-112200D01*
Y790026D01*
X-112466D01*
Y790557D01*
X-112731D01*
Y790822D01*
X-112997D01*
Y791353D01*
X-113262D01*
Y791884D01*
X-113527D01*
Y792149D01*
X-113793D01*
Y792680D01*
X-114058D01*
Y793211D01*
X-114324D01*
Y793742D01*
X-114589D01*
Y794272D01*
X-114854D01*
Y794803D01*
X-115120D01*
Y795334D01*
X-115385D01*
Y796130D01*
X-115651D01*
Y796661D01*
X-115916D01*
Y797192D01*
X-116181D01*
Y797988D01*
X-116447D01*
Y798784D01*
X-116712D01*
Y799315D01*
X-116978D01*
Y800111D01*
X-117243D01*
Y801173D01*
X-117508D01*
Y801969D01*
X-117774D01*
Y803031D01*
X-118039D01*
Y804092D01*
X-118305D01*
Y805419D01*
X-118570D01*
Y807012D01*
X-118835D01*
Y808870D01*
X-119101D01*
Y813116D01*
X-119366D01*
Y814709D01*
X-119101D01*
Y818690D01*
X-118835D01*
Y820813D01*
X-118570D01*
Y822140D01*
X-118305D01*
Y823467D01*
X-118039D01*
Y824529D01*
X-117774D01*
Y825590D01*
X-117508D01*
Y826652D01*
X-117243D01*
Y827448D01*
X-116978D01*
Y828244D01*
X-116712D01*
Y829041D01*
X-116447D01*
Y829572D01*
X-116181D01*
Y830368D01*
X-115916D01*
Y830899D01*
X-115651D01*
Y831695D01*
X-115385D01*
Y832225D01*
X-115120D01*
Y832756D01*
X-114854D01*
Y833287D01*
X-114589D01*
Y833818D01*
X-114324D01*
Y834349D01*
X-114058D01*
Y834880D01*
X-113793D01*
Y835410D01*
X-113527D01*
Y835941D01*
X-113262D01*
Y836472D01*
X-112997D01*
Y836737D01*
X-112731D01*
Y837268D01*
X-112466D01*
Y837534D01*
X-112200D01*
Y838064D01*
X-111935D01*
Y838595D01*
X-111670D01*
Y838861D01*
X-111404D01*
Y839126D01*
X-111139D01*
Y839657D01*
X-110873D01*
Y839922D01*
X-110608D01*
Y840453D01*
X-110343D01*
Y840719D01*
X-110077D01*
Y840984D01*
X-109812D01*
Y841515D01*
X-109546D01*
Y841780D01*
X-109281D01*
Y842046D01*
X-109015D01*
Y842311D01*
X-108750D01*
Y842842D01*
X-108485D01*
Y843107D01*
X-108219D01*
Y843373D01*
X-107954D01*
Y843638D01*
X-107688D01*
Y843903D01*
X-107423D01*
Y844169D01*
X-107158D01*
Y844434D01*
X-106892D01*
Y844700D01*
X-106627D01*
Y844965D01*
X-106361D01*
Y845230D01*
X-106096D01*
Y845496D01*
X-105830D01*
Y845761D01*
X-105565D01*
Y846027D01*
X-105300D01*
Y846292D01*
X-105034D01*
Y846557D01*
X-104769D01*
Y846823D01*
X-104503D01*
Y847088D01*
X-104238D01*
Y847354D01*
X-103973D01*
Y847619D01*
X-103707D01*
Y847885D01*
X-103442D01*
Y848150D01*
X-102911D01*
Y848415D01*
X-102646D01*
Y848681D01*
X-102380D01*
Y848946D01*
X-102115D01*
Y849212D01*
X-101584D01*
Y849477D01*
X-101319D01*
Y849742D01*
X-101053D01*
Y850008D01*
X-100522D01*
Y850273D01*
X-100257D01*
Y850539D01*
X-99726D01*
Y850804D01*
X-99461D01*
Y851069D01*
X-99195D01*
Y851335D01*
X-98665D01*
Y851600D01*
X-98134D01*
Y851866D01*
X-97868D01*
Y852131D01*
X-97338D01*
Y852396D01*
X-96807D01*
Y852662D01*
X-96541D01*
Y852927D01*
X-96011D01*
Y853193D01*
X-95480D01*
Y853458D01*
X-94949D01*
Y853723D01*
X-94418D01*
Y853989D01*
X-93887D01*
Y854254D01*
X-93357D01*
Y854520D01*
X-92826D01*
Y854785D01*
X-92295D01*
Y855051D01*
X-91499D01*
Y855316D01*
X-90968D01*
Y855581D01*
X-90172D01*
Y855847D01*
X-89641D01*
Y856112D01*
X-88844D01*
Y856377D01*
X-88048D01*
Y856643D01*
X-87252D01*
Y856908D01*
X-86191D01*
Y857174D01*
X-85129D01*
Y857439D01*
X-84067D01*
Y857704D01*
X-82740D01*
Y857970D01*
X-81148D01*
Y858235D01*
X-79290D01*
Y858501D01*
X-74778D01*
Y858766D01*
X-73982D01*
Y858501D01*
D02*
G37*
G36*
X-66020Y896188D02*
X-65489D01*
Y895923D01*
X-64958D01*
Y895658D01*
X-64693D01*
Y895392D01*
X-64427D01*
Y894861D01*
X-64162D01*
Y865667D01*
X-89906D01*
Y892207D01*
X-89641D01*
Y893003D01*
X-89375D01*
Y893269D01*
X-89110D01*
Y893534D01*
X-88844D01*
Y893800D01*
X-88579D01*
Y894065D01*
X-88048D01*
Y894331D01*
X-80086D01*
Y894596D01*
X-79821D01*
Y895127D01*
X-79555D01*
Y895392D01*
X-79290D01*
Y895658D01*
X-79025D01*
Y895923D01*
X-78494D01*
Y896188D01*
X-77963D01*
Y896454D01*
X-66020D01*
Y896188D01*
D02*
G37*
G36*
X-64162Y982976D02*
X-89906D01*
Y989611D01*
X-64162D01*
Y982976D01*
D02*
G37*
G36*
X-67081Y1102409D02*
X-66550D01*
Y1102144D01*
X-66020D01*
Y1101878D01*
X-65489D01*
Y1101613D01*
X-65223D01*
Y1101348D01*
X-64958D01*
Y1101082D01*
X-64693D01*
Y1100817D01*
X-64427D01*
Y1100551D01*
X-64162D01*
Y1100020D01*
X-63896D01*
Y1099755D01*
X-63631D01*
Y1098959D01*
X-63366D01*
Y1074541D01*
X-63631D01*
Y1073745D01*
X-63896D01*
Y1073480D01*
X-64162D01*
Y1072949D01*
X-64427D01*
Y1072684D01*
X-64693D01*
Y1072418D01*
X-64958D01*
Y1072153D01*
X-65223D01*
Y1071887D01*
X-65489D01*
Y1071622D01*
X-66020D01*
Y1071357D01*
X-66285D01*
Y1071091D01*
X-67081D01*
Y1070826D01*
X-85660D01*
Y1071091D01*
X-86191D01*
Y1071357D01*
X-86721D01*
Y1071622D01*
X-86987D01*
Y1071887D01*
X-87252D01*
Y1072153D01*
X-87517D01*
Y1072418D01*
X-87783D01*
Y1072684D01*
X-88048D01*
Y1072949D01*
X-88314D01*
Y1073480D01*
X-88579D01*
Y1073745D01*
X-88844D01*
Y1074276D01*
X-89110D01*
Y1099224D01*
X-88844D01*
Y1099755D01*
X-88579D01*
Y1100286D01*
X-88314D01*
Y1100551D01*
X-88048D01*
Y1100817D01*
X-87783D01*
Y1101082D01*
X-87517D01*
Y1101348D01*
X-87252D01*
Y1101613D01*
X-86987D01*
Y1101878D01*
X-86456D01*
Y1102144D01*
X-86191D01*
Y1102409D01*
X-85394D01*
Y1102674D01*
X-79025D01*
Y1095508D01*
X-82209D01*
Y1077992D01*
X-70532D01*
Y1095508D01*
X-73451D01*
Y1102674D01*
X-67081D01*
Y1102409D01*
D02*
G37*
G36*
X-63366Y1130011D02*
X-73186D01*
Y1112495D01*
X-63366D01*
Y1105594D01*
X-89110D01*
Y1112495D01*
X-79290D01*
Y1129746D01*
X-89110D01*
Y1136646D01*
X-63366D01*
Y1130011D01*
D02*
G37*
G36*
Y1061006D02*
X-70266D01*
Y1067906D01*
X-63366D01*
Y1061006D01*
D02*
G37*
G36*
X-64162Y1030749D02*
X-64427D01*
Y1030219D01*
X-64693D01*
Y1029688D01*
X-64958D01*
Y1029422D01*
X-65223D01*
Y1029157D01*
X-65489D01*
Y1028892D01*
X-65754D01*
Y1028626D01*
X-66020D01*
Y1028361D01*
X-66285D01*
Y1028095D01*
X-66816D01*
Y1027830D01*
X-67347D01*
Y1027564D01*
X-67877D01*
Y1027299D01*
X-85925D01*
Y1027564D01*
X-86721D01*
Y1027830D01*
X-87252D01*
Y1028095D01*
X-87517D01*
Y1028361D01*
X-88048D01*
Y1028626D01*
X-88314D01*
Y1028892D01*
X-88579D01*
Y1029422D01*
X-88844D01*
Y1029688D01*
X-89110D01*
Y1029953D01*
X-89375D01*
Y1030484D01*
X-89641D01*
Y1031280D01*
X-89906D01*
Y1056228D01*
X-83006D01*
Y1034996D01*
X-82740D01*
Y1034731D01*
X-81944D01*
Y1034465D01*
X-81413D01*
Y1034731D01*
X-80086D01*
Y1056228D01*
X-73982D01*
Y1034731D01*
X-72655D01*
Y1034465D01*
X-71859D01*
Y1034731D01*
X-71062D01*
Y1056228D01*
X-64162D01*
Y1030749D01*
D02*
G37*
G36*
X-66020Y1024114D02*
X-65489D01*
Y1023849D01*
X-65223D01*
Y1023583D01*
X-64958D01*
Y1023053D01*
X-64693D01*
Y1022787D01*
X-64427D01*
Y1021991D01*
X-64162D01*
Y1020664D01*
X-63896D01*
Y1018010D01*
X-64162D01*
Y1017214D01*
X-64427D01*
Y1016683D01*
X-64693D01*
Y1016152D01*
X-64958D01*
Y1015887D01*
X-65223D01*
Y1015356D01*
X-65489D01*
Y1015090D01*
X-65754D01*
Y1014560D01*
X-66020D01*
Y1014294D01*
X-66285D01*
Y1014029D01*
X-66550D01*
Y1013763D01*
X-66816D01*
Y1013233D01*
X-67081D01*
Y1012967D01*
X-67347D01*
Y1012702D01*
X-67612D01*
Y1012436D01*
X-67877D01*
Y1012171D01*
X-68143D01*
Y1011906D01*
X-68408D01*
Y1011640D01*
X-68674D01*
Y1011375D01*
X-68939D01*
Y1011109D01*
X-69205D01*
Y1010579D01*
X-69470D01*
Y1010313D01*
X-69735D01*
Y1010048D01*
X-70001D01*
Y1009782D01*
X-70266D01*
Y1009517D01*
X-70532D01*
Y1009251D01*
X-70797D01*
Y1008986D01*
X-71062D01*
Y1008721D01*
X-71328D01*
Y1008455D01*
X-71593D01*
Y1008190D01*
X-71859D01*
Y1007924D01*
X-72389D01*
Y1007659D01*
X-72655D01*
Y1007394D01*
X-72920D01*
Y1007128D01*
X-73186D01*
Y1006863D01*
X-73451D01*
Y1006597D01*
X-73716D01*
Y1006332D01*
X-73982D01*
Y1006067D01*
X-74247D01*
Y1005801D01*
X-74513D01*
Y1005536D01*
X-74778D01*
Y1005270D01*
X-75043D01*
Y1005005D01*
X-75309D01*
Y1004474D01*
X-75574D01*
Y1004209D01*
X-75840D01*
Y1003943D01*
X-76105D01*
Y1003678D01*
X-76370D01*
Y1003412D01*
X-76636D01*
Y1003147D01*
X-76901D01*
Y1002882D01*
X-77167D01*
Y1002616D01*
X-77432D01*
Y1002351D01*
X-77698D01*
Y1002085D01*
X-77963D01*
Y1001820D01*
X-78228D01*
Y1001555D01*
X-78494D01*
Y1001289D01*
X-78759D01*
Y1000759D01*
X-79025D01*
Y1000493D01*
X-79290D01*
Y1000228D01*
X-79555D01*
Y999697D01*
X-79821D01*
Y999432D01*
X-64162D01*
Y992531D01*
X-86721D01*
Y992796D01*
X-87517D01*
Y993062D01*
X-88048D01*
Y993327D01*
X-88314D01*
Y993593D01*
X-88579D01*
Y993858D01*
X-88844D01*
Y994389D01*
X-89110D01*
Y994654D01*
X-89375D01*
Y995450D01*
X-89641D01*
Y996512D01*
X-89906D01*
Y998635D01*
X-89641D01*
Y999432D01*
X-89375D01*
Y1000228D01*
X-89110D01*
Y1000759D01*
X-88844D01*
Y1001024D01*
X-88579D01*
Y1001555D01*
X-88314D01*
Y1001820D01*
X-88048D01*
Y1002351D01*
X-87783D01*
Y1002616D01*
X-87517D01*
Y1002882D01*
X-87252D01*
Y1003412D01*
X-86987D01*
Y1003678D01*
X-86721D01*
Y1003943D01*
X-86456D01*
Y1004209D01*
X-86191D01*
Y1004740D01*
X-85925D01*
Y1005005D01*
X-85660D01*
Y1005270D01*
X-85394D01*
Y1005536D01*
X-85129D01*
Y1005801D01*
X-84863D01*
Y1006067D01*
X-84598D01*
Y1006332D01*
X-84333D01*
Y1006597D01*
X-84067D01*
Y1006863D01*
X-83802D01*
Y1007394D01*
X-83536D01*
Y1007659D01*
X-83271D01*
Y1007924D01*
X-83006D01*
Y1008190D01*
X-82740D01*
Y1008455D01*
X-82475D01*
Y1008721D01*
X-82209D01*
Y1008986D01*
X-81944D01*
Y1009251D01*
X-81679D01*
Y1009517D01*
X-81413D01*
Y1009782D01*
X-81148D01*
Y1010048D01*
X-80882D01*
Y1010313D01*
X-80617D01*
Y1010579D01*
X-80351D01*
Y1010844D01*
X-80086D01*
Y1011109D01*
X-79821D01*
Y1011375D01*
X-79555D01*
Y1011640D01*
X-79290D01*
Y1011906D01*
X-79025D01*
Y1012171D01*
X-78759D01*
Y1012436D01*
X-78494D01*
Y1012702D01*
X-78228D01*
Y1012967D01*
X-77963D01*
Y1013233D01*
X-77698D01*
Y1013498D01*
X-77432D01*
Y1013763D01*
X-77167D01*
Y1014029D01*
X-76901D01*
Y1014294D01*
X-76636D01*
Y1014560D01*
X-76370D01*
Y1014825D01*
X-76105D01*
Y1015090D01*
X-75840D01*
Y1015356D01*
X-75574D01*
Y1015621D01*
X-75309D01*
Y1015887D01*
X-75043D01*
Y1016152D01*
X-74778D01*
Y1016417D01*
X-74513D01*
Y1016948D01*
X-74247D01*
Y1017214D01*
X-73982D01*
Y1017745D01*
X-89375D01*
Y1024380D01*
X-66020D01*
Y1024114D01*
D02*
G37*
%LPC*%
G36*
X-70266Y849742D02*
X-78228D01*
Y849477D01*
X-80351D01*
Y849212D01*
X-81679D01*
Y848946D01*
X-83006D01*
Y848681D01*
X-83802D01*
Y848415D01*
X-84863D01*
Y848150D01*
X-85660D01*
Y847885D01*
X-86456D01*
Y847619D01*
X-87252D01*
Y847354D01*
X-87783D01*
Y847088D01*
X-88579D01*
Y846823D01*
X-89110D01*
Y846557D01*
X-89641D01*
Y846292D01*
X-90172D01*
Y846027D01*
X-90702D01*
Y845761D01*
X-91233D01*
Y845496D01*
X-91764D01*
Y845230D01*
X-92295D01*
Y844965D01*
X-92826D01*
Y844700D01*
X-93091D01*
Y844434D01*
X-93622D01*
Y844169D01*
X-93887D01*
Y843903D01*
X-94418D01*
Y843638D01*
X-94684D01*
Y843373D01*
X-95214D01*
Y843107D01*
X-95480D01*
Y842842D01*
X-96011D01*
Y842576D01*
X-96276D01*
Y842311D01*
X-96541D01*
Y842046D01*
X-96807D01*
Y841780D01*
X-97338D01*
Y841515D01*
X-97603D01*
Y841249D01*
X-97868D01*
Y840984D01*
X-98134D01*
Y840719D01*
X-98399D01*
Y840453D01*
X-98665D01*
Y840188D01*
X-98930D01*
Y839922D01*
X-99461D01*
Y839657D01*
X-99726D01*
Y839391D01*
X-99992D01*
Y839126D01*
X-100257D01*
Y838861D01*
X-100522D01*
Y838330D01*
X-100788D01*
Y838064D01*
X-101053D01*
Y837799D01*
X-101319D01*
Y837534D01*
X-101584D01*
Y837268D01*
X-101849D01*
Y837003D01*
X-102115D01*
Y836737D01*
X-102380D01*
Y836207D01*
X-102646D01*
Y835941D01*
X-102911D01*
Y835676D01*
X-103176D01*
Y835145D01*
X-103442D01*
Y834880D01*
X-103707D01*
Y834614D01*
X-103973D01*
Y834083D01*
X-104238D01*
Y833818D01*
X-104503D01*
Y833287D01*
X-104769D01*
Y833022D01*
X-105034D01*
Y832491D01*
X-105300D01*
Y831960D01*
X-105565D01*
Y831695D01*
X-105830D01*
Y831164D01*
X-106096D01*
Y830633D01*
X-106361D01*
Y830102D01*
X-106627D01*
Y829572D01*
X-106892D01*
Y829041D01*
X-107158D01*
Y828510D01*
X-107423D01*
Y827714D01*
X-107688D01*
Y827183D01*
X-107954D01*
Y826387D01*
X-108219D01*
Y825856D01*
X-108485D01*
Y825060D01*
X-108750D01*
Y823998D01*
X-109015D01*
Y823202D01*
X-109281D01*
Y822140D01*
X-109546D01*
Y820813D01*
X-109812D01*
Y819486D01*
X-110077D01*
Y817097D01*
X-110343D01*
Y810462D01*
X-110077D01*
Y808074D01*
X-109812D01*
Y806747D01*
X-109546D01*
Y805419D01*
X-109281D01*
Y804358D01*
X-109015D01*
Y803296D01*
X-108750D01*
Y802500D01*
X-108485D01*
Y801704D01*
X-108219D01*
Y800908D01*
X-107954D01*
Y800377D01*
X-107688D01*
Y799581D01*
X-107423D01*
Y799050D01*
X-107158D01*
Y798519D01*
X-106892D01*
Y797988D01*
X-106627D01*
Y797457D01*
X-106361D01*
Y796926D01*
X-106096D01*
Y796396D01*
X-105830D01*
Y795865D01*
X-105565D01*
Y795600D01*
X-105300D01*
Y795069D01*
X-105034D01*
Y794538D01*
X-104769D01*
Y794272D01*
X-104503D01*
Y793742D01*
X-104238D01*
Y793476D01*
X-103973D01*
Y792945D01*
X-103707D01*
Y792680D01*
X-103442D01*
Y792149D01*
X-103176D01*
Y791884D01*
X-102911D01*
Y791618D01*
X-102646D01*
Y791353D01*
X-102380D01*
Y790822D01*
X-102115D01*
Y790557D01*
X-101849D01*
Y790291D01*
X-101584D01*
Y790026D01*
X-101319D01*
Y789761D01*
X-101053D01*
Y789495D01*
X-100788D01*
Y788964D01*
X-100522D01*
Y788699D01*
X-100257D01*
Y788434D01*
X-99992D01*
Y788168D01*
X-99726D01*
Y787903D01*
X-99461D01*
Y787637D01*
X-99195D01*
Y787372D01*
X-98930D01*
Y787106D01*
X-98399D01*
Y786841D01*
X-98134D01*
Y786576D01*
X-97868D01*
Y786310D01*
X-97603D01*
Y786045D01*
X-97338D01*
Y785779D01*
X-97072D01*
Y785514D01*
X-96541D01*
Y785249D01*
X-96276D01*
Y784983D01*
X-96011D01*
Y784718D01*
X-95480D01*
Y784452D01*
X-95214D01*
Y784187D01*
X-94949D01*
Y783922D01*
X-94418D01*
Y783656D01*
X-94153D01*
Y783391D01*
X-93622D01*
Y783125D01*
X-93091D01*
Y782860D01*
X-92826D01*
Y782595D01*
X-92295D01*
Y782329D01*
X-91764D01*
Y782064D01*
X-91233D01*
Y781798D01*
X-90702D01*
Y781533D01*
X-90437D01*
Y781267D01*
X-89641D01*
Y781002D01*
X-89110D01*
Y780737D01*
X-88579D01*
Y780471D01*
X-88048D01*
Y780206D01*
X-87252D01*
Y779940D01*
X-86456D01*
Y779675D01*
X-85660D01*
Y779410D01*
X-84863D01*
Y779144D01*
X-84067D01*
Y778879D01*
X-83006D01*
Y778614D01*
X-81944D01*
Y778348D01*
X-80351D01*
Y778083D01*
X-78494D01*
Y777817D01*
X-70001D01*
Y778083D01*
X-68143D01*
Y778348D01*
X-66816D01*
Y778614D01*
X-65489D01*
Y778879D01*
X-64693D01*
Y779144D01*
X-63631D01*
Y779410D01*
X-62835D01*
Y779675D01*
X-62038D01*
Y779940D01*
X-61242D01*
Y780206D01*
X-60711D01*
Y780471D01*
X-60181D01*
Y780737D01*
X-59384D01*
Y781002D01*
X-58854D01*
Y781267D01*
X-58323D01*
Y781533D01*
X-57792D01*
Y781798D01*
X-57261D01*
Y782064D01*
X-56730D01*
Y782329D01*
X-56200D01*
Y782595D01*
X-55934D01*
Y782860D01*
X-55403D01*
Y783125D01*
X-55138D01*
Y783391D01*
X-54607D01*
Y783656D01*
X-54076D01*
Y783922D01*
X-53811D01*
Y784187D01*
X-53545D01*
Y784452D01*
X-53015D01*
Y784718D01*
X-52749D01*
Y784983D01*
X-52218D01*
Y785249D01*
X-51953D01*
Y785514D01*
X-51688D01*
Y785779D01*
X-51422D01*
Y786045D01*
X-51157D01*
Y786310D01*
X-50626D01*
Y786576D01*
X-50361D01*
Y786841D01*
X-50095D01*
Y787106D01*
X-49830D01*
Y787372D01*
X-49564D01*
Y787637D01*
X-49299D01*
Y787903D01*
X-49034D01*
Y788168D01*
X-48768D01*
Y788434D01*
X-48503D01*
Y788699D01*
X-48237D01*
Y788964D01*
X-47972D01*
Y789230D01*
X-47707D01*
Y789495D01*
X-47441D01*
Y789761D01*
X-47176D01*
Y790026D01*
X-46910D01*
Y790291D01*
X-46645D01*
Y790822D01*
X-46379D01*
Y791087D01*
X-46114D01*
Y791353D01*
X-45849D01*
Y791618D01*
X-45583D01*
Y792149D01*
X-45318D01*
Y792415D01*
X-45052D01*
Y792680D01*
X-44787D01*
Y793211D01*
X-44522D01*
Y793476D01*
X-44256D01*
Y794007D01*
X-43991D01*
Y794272D01*
X-43726D01*
Y794803D01*
X-43460D01*
Y795334D01*
X-43195D01*
Y795600D01*
X-42929D01*
Y796130D01*
X-42664D01*
Y796661D01*
X-42398D01*
Y797192D01*
X-42133D01*
Y797723D01*
X-41868D01*
Y798253D01*
X-41602D01*
Y798784D01*
X-41337D01*
Y799315D01*
X-41071D01*
Y800111D01*
X-40806D01*
Y800642D01*
X-40541D01*
Y801438D01*
X-40275D01*
Y802235D01*
X-40010D01*
Y803031D01*
X-39744D01*
Y803827D01*
X-39479D01*
Y804889D01*
X-39214D01*
Y805950D01*
X-38948D01*
Y807277D01*
X-38683D01*
Y809135D01*
X-38417D01*
Y812320D01*
X-38152D01*
Y814974D01*
X-38417D01*
Y818424D01*
X-38683D01*
Y820282D01*
X-38948D01*
Y821609D01*
X-39214D01*
Y822671D01*
X-39479D01*
Y823733D01*
X-39744D01*
Y824529D01*
X-40010D01*
Y825325D01*
X-40275D01*
Y826121D01*
X-40541D01*
Y826917D01*
X-40806D01*
Y827448D01*
X-41071D01*
Y828244D01*
X-41337D01*
Y828775D01*
X-41602D01*
Y829306D01*
X-41868D01*
Y829837D01*
X-42133D01*
Y830368D01*
X-42398D01*
Y830899D01*
X-42664D01*
Y831429D01*
X-42929D01*
Y831960D01*
X-43195D01*
Y832225D01*
X-43460D01*
Y832756D01*
X-43726D01*
Y833022D01*
X-43991D01*
Y833553D01*
X-44256D01*
Y834083D01*
X-44522D01*
Y834349D01*
X-44787D01*
Y834614D01*
X-45052D01*
Y835145D01*
X-45318D01*
Y835410D01*
X-45583D01*
Y835676D01*
X-45849D01*
Y836207D01*
X-46114D01*
Y836472D01*
X-46379D01*
Y836737D01*
X-46645D01*
Y837003D01*
X-46910D01*
Y837534D01*
X-47176D01*
Y837799D01*
X-47441D01*
Y838064D01*
X-47707D01*
Y838330D01*
X-47972D01*
Y838595D01*
X-48237D01*
Y838861D01*
X-48503D01*
Y839126D01*
X-48768D01*
Y839391D01*
X-49034D01*
Y839657D01*
X-49299D01*
Y839922D01*
X-49564D01*
Y840188D01*
X-49830D01*
Y840453D01*
X-50095D01*
Y840719D01*
X-50361D01*
Y840984D01*
X-50626D01*
Y841249D01*
X-51157D01*
Y841515D01*
X-51422D01*
Y841780D01*
X-51688D01*
Y842046D01*
X-51953D01*
Y842311D01*
X-52484D01*
Y842576D01*
X-52749D01*
Y842842D01*
X-53015D01*
Y843107D01*
X-53545D01*
Y843373D01*
X-53811D01*
Y843638D01*
X-54342D01*
Y843903D01*
X-54607D01*
Y844169D01*
X-55138D01*
Y844434D01*
X-55403D01*
Y844700D01*
X-55934D01*
Y844965D01*
X-56465D01*
Y845230D01*
X-56730D01*
Y845496D01*
X-57261D01*
Y845761D01*
X-57792D01*
Y846027D01*
X-58323D01*
Y846292D01*
X-58854D01*
Y846557D01*
X-59384D01*
Y846823D01*
X-60181D01*
Y847088D01*
X-60711D01*
Y847354D01*
X-61508D01*
Y847619D01*
X-62038D01*
Y847885D01*
X-62835D01*
Y848150D01*
X-63896D01*
Y848415D01*
X-64693D01*
Y848681D01*
X-65754D01*
Y848946D01*
X-66816D01*
Y849212D01*
X-68408D01*
Y849477D01*
X-70266D01*
Y849742D01*
D02*
G37*
G36*
X-71328Y889023D02*
X-73451D01*
Y888757D01*
X-73716D01*
Y872302D01*
X-71062D01*
Y888492D01*
X-71328D01*
Y889023D01*
D02*
G37*
G36*
X-80351Y886899D02*
X-82740D01*
Y886368D01*
X-83006D01*
Y872302D01*
X-80086D01*
Y886634D01*
X-80351D01*
Y886899D01*
D02*
G37*
%LPD*%
G36*
X-68408Y834349D02*
X-65223D01*
Y834083D01*
X-64162D01*
Y833818D01*
X-63631D01*
Y833553D01*
X-62835D01*
Y833287D01*
X-62304D01*
Y833022D01*
X-62038D01*
Y832756D01*
X-61508D01*
Y832491D01*
X-61242D01*
Y832225D01*
X-60977D01*
Y831960D01*
X-60711D01*
Y831695D01*
X-60446D01*
Y831429D01*
X-60181D01*
Y831164D01*
X-59915D01*
Y830899D01*
X-59650D01*
Y830633D01*
X-59384D01*
Y830368D01*
X-59119D01*
Y829837D01*
X-58854D01*
Y829572D01*
X-58588D01*
Y829041D01*
X-58323D01*
Y828510D01*
X-58057D01*
Y827979D01*
X-57792D01*
Y827448D01*
X-57527D01*
Y826917D01*
X-57261D01*
Y826121D01*
X-56996D01*
Y825325D01*
X-56730D01*
Y824529D01*
X-56465D01*
Y823467D01*
X-56200D01*
Y822140D01*
X-55934D01*
Y820813D01*
X-46379D01*
Y816036D01*
X-55669D01*
Y812586D01*
X-46379D01*
Y807808D01*
X-55669D01*
Y793211D01*
X-61508D01*
Y799050D01*
X-68408D01*
Y787903D01*
X-73186D01*
Y799050D01*
X-76370D01*
Y787903D01*
X-81148D01*
Y799050D01*
X-89375D01*
Y793211D01*
X-94949D01*
Y807808D01*
X-103176D01*
Y812586D01*
X-94949D01*
Y816036D01*
X-103176D01*
Y820813D01*
X-94684D01*
Y821344D01*
X-94418D01*
Y822405D01*
X-94153D01*
Y823202D01*
X-93887D01*
Y823998D01*
X-93622D01*
Y824529D01*
X-93357D01*
Y825060D01*
X-93091D01*
Y825590D01*
X-92826D01*
Y826121D01*
X-92560D01*
Y826652D01*
X-92295D01*
Y826917D01*
X-92029D01*
Y827183D01*
X-91764D01*
Y827714D01*
X-91499D01*
Y827979D01*
X-91233D01*
Y828244D01*
X-90968D01*
Y828510D01*
X-90702D01*
Y828775D01*
X-90172D01*
Y829041D01*
X-89906D01*
Y829306D01*
X-89641D01*
Y829572D01*
X-89110D01*
Y829837D01*
X-88844D01*
Y830102D01*
X-88314D01*
Y830368D01*
X-87517D01*
Y830633D01*
X-86987D01*
Y830899D01*
X-85925D01*
Y831164D01*
X-83006D01*
Y830899D01*
X-81944D01*
Y830633D01*
X-81413D01*
Y830368D01*
X-81148D01*
Y840984D01*
X-76370D01*
Y829572D01*
X-76105D01*
Y830102D01*
X-75840D01*
Y830368D01*
X-75574D01*
Y830899D01*
X-75309D01*
Y831164D01*
X-75043D01*
Y831429D01*
X-74778D01*
Y831695D01*
X-74513D01*
Y831960D01*
X-74247D01*
Y832225D01*
X-73982D01*
Y832491D01*
X-73716D01*
Y832756D01*
X-73186D01*
Y840984D01*
X-68408D01*
Y834349D01*
D02*
G37*
%LPC*%
G36*
X-65489Y825325D02*
X-69205D01*
Y825060D01*
X-70001D01*
Y824794D01*
X-70532D01*
Y824529D01*
X-70797D01*
Y824263D01*
X-71062D01*
Y823998D01*
X-71328D01*
Y823733D01*
X-71593D01*
Y823467D01*
X-71859D01*
Y823202D01*
X-72124D01*
Y822671D01*
X-72389D01*
Y822140D01*
X-72655D01*
Y821344D01*
X-72920D01*
Y820282D01*
X-73186D01*
Y808604D01*
X-61508D01*
Y820282D01*
X-61773D01*
Y821344D01*
X-62038D01*
Y822140D01*
X-62304D01*
Y822671D01*
X-62569D01*
Y823202D01*
X-62835D01*
Y823467D01*
X-63100D01*
Y823733D01*
X-63366D01*
Y823998D01*
X-63631D01*
Y824263D01*
X-63896D01*
Y824529D01*
X-64427D01*
Y824794D01*
X-64958D01*
Y825060D01*
X-65489D01*
Y825325D01*
D02*
G37*
G36*
X-83536Y822140D02*
X-85129D01*
Y821875D01*
X-85925D01*
Y821609D01*
X-86456D01*
Y821344D01*
X-86987D01*
Y821078D01*
X-87252D01*
Y820813D01*
X-87517D01*
Y820548D01*
X-87783D01*
Y820282D01*
X-88048D01*
Y819751D01*
X-88314D01*
Y819486D01*
X-88579D01*
Y818955D01*
X-88844D01*
Y818159D01*
X-89110D01*
Y817363D01*
X-89375D01*
Y808339D01*
X-86987D01*
Y808604D01*
X-78759D01*
Y817894D01*
X-79025D01*
Y818424D01*
X-79290D01*
Y818955D01*
X-79555D01*
Y819486D01*
X-79821D01*
Y819751D01*
X-80086D01*
Y820282D01*
X-80351D01*
Y820548D01*
X-80617D01*
Y820813D01*
X-81148D01*
Y821078D01*
X-81413D01*
Y821344D01*
X-81944D01*
Y821609D01*
X-82475D01*
Y821875D01*
X-83536D01*
Y822140D01*
D02*
G37*
%LPD*%
D47*
X134997Y41499D02*
G03*
X134997Y41499I-1000J0D01*
G01*
X192750Y73500D02*
G03*
X192750Y73500I-500J0D01*
G01*
X518414Y181000D02*
G03*
X518414Y181000I-1414J0D01*
G01*
X238500Y288000D02*
G03*
X238500Y288000I-1000J0D01*
G01*
X112000Y645500D02*
G03*
X112000Y645500I-1000J0D01*
G01*
X253309Y1283250D02*
G03*
X253309Y1283250I-559J0D01*
G01*
X128010Y1477000D02*
G03*
X128010Y1477000I-50010J0D01*
G01*
X562000Y445000D02*
Y455000D01*
X472000D02*
X562000D01*
X472000Y445000D02*
Y455000D01*
X562000Y185000D02*
Y195000D01*
X472000Y185000D02*
X562000D01*
X472000D02*
Y195000D01*
X314000Y1419500D02*
Y1515500D01*
X176000Y1419500D02*
X314000D01*
X176000D02*
Y1515500D01*
X314000D01*
X228000D02*
Y1527500D01*
X262000D01*
Y1515500D02*
Y1527500D01*
X0Y0D02*
Y1400000D01*
X440000D01*
Y0D02*
Y1400000D01*
X464000Y27235D02*
Y17078D01*
X469078Y12000D01*
X474157Y17078D01*
Y27235D01*
X494470Y12000D02*
X499548D01*
X497009D01*
Y27235D01*
X494470Y24696D01*
X507166Y12000D02*
Y14539D01*
X509705D01*
Y12000D01*
X507166D01*
X519862Y24696D02*
X522401Y27235D01*
X527480D01*
X530019Y24696D01*
Y14539D01*
X527480Y12000D01*
X522401D01*
X519862Y14539D01*
Y24696D01*
X535097Y12000D02*
Y14539D01*
X537636D01*
Y12000D01*
X535097D01*
X547793Y27235D02*
Y12000D01*
X555410D01*
X557950Y14539D01*
Y17078D01*
X555410Y19618D01*
X547793D01*
X555410D01*
X557950Y22157D01*
Y24696D01*
X555410Y27235D01*
X547793D01*
D70*
X134500Y1245750D02*
X138500D01*
Y1261750D01*
X130500D02*
X138500D01*
X130500Y1245750D02*
Y1261750D01*
Y1245750D02*
X134500D01*
X312000Y1301000D02*
X316000D01*
X312000Y1285000D02*
Y1301000D01*
Y1285000D02*
X320000D01*
Y1301000D01*
X316000D02*
X320000D01*
X312000Y1273500D02*
X316000D01*
X312000Y1257500D02*
Y1273500D01*
Y1257500D02*
X320000D01*
Y1273500D01*
X316000D02*
X320000D01*
X172500Y902500D02*
Y987500D01*
X257500D01*
Y902500D02*
Y987500D01*
X172500Y902500D02*
X257500D01*
X210000Y892500D02*
X220000D01*
X215000Y887500D02*
Y897500D01*
X9000Y862500D02*
X30000D01*
X9000Y792500D02*
Y862500D01*
Y792500D02*
X51000D01*
Y862500D01*
X30000D02*
X51000D01*
X25000Y761250D02*
X35000D01*
X30000Y756250D02*
Y766250D01*
X269000Y898000D02*
X301000D01*
X269000Y852000D02*
Y898000D01*
Y852000D02*
X301000D01*
Y898000D01*
X255500Y696500D02*
Y728500D01*
X209500D02*
X255500D01*
X209500Y696500D02*
Y728500D01*
Y696500D02*
X255500D01*
Y651500D02*
Y683500D01*
X209500D02*
X255500D01*
X209500Y651500D02*
Y683500D01*
Y651500D02*
X255500D01*
X189500Y341500D02*
Y373500D01*
Y341500D02*
X235500D01*
Y373500D01*
X189500D02*
X235500D01*
X189500Y294000D02*
Y326000D01*
Y294000D02*
X235500D01*
Y326000D01*
X189500D02*
X235500D01*
X400000Y357500D02*
Y378500D01*
X330000D02*
X400000D01*
X330000Y336500D02*
Y378500D01*
Y336500D02*
X400000D01*
Y357500D01*
X298750Y352500D02*
Y362500D01*
X293750Y357500D02*
X303750D01*
X138997Y67499D02*
X188997D01*
Y35499D02*
Y67499D01*
X138997Y35499D02*
X188997D01*
X138997D02*
Y67499D01*
X120500Y43000D02*
X130500D01*
Y63000D01*
X120500D02*
X130500D01*
X120500Y43000D02*
Y63000D01*
X-137400Y186650D02*
X-112000D01*
X-137400D02*
Y453350D01*
X-112000D01*
Y186650D02*
Y453350D01*
X55000Y1257000D02*
Y1283000D01*
X23000D02*
X55000D01*
X23000Y1257000D02*
Y1283000D01*
Y1257000D02*
X55000D01*
Y1294000D02*
Y1320000D01*
X23000D02*
X55000D01*
X23000Y1294000D02*
Y1320000D01*
Y1294000D02*
X55000D01*
Y1331711D02*
Y1357711D01*
X23000D02*
X55000D01*
X23000Y1331711D02*
Y1357711D01*
Y1331711D02*
X55000D01*
Y1369000D02*
Y1395000D01*
X23000D02*
X55000D01*
X23000Y1369000D02*
Y1395000D01*
Y1369000D02*
X55000D01*
X270000Y681250D02*
X355000D01*
X270000D02*
Y766250D01*
X355000D01*
Y681250D02*
Y766250D01*
X365000Y718750D02*
Y728750D01*
X360000Y723750D02*
X370000D01*
X67000Y651500D02*
Y683500D01*
Y651500D02*
X113000D01*
Y683500D01*
X67000D02*
X113000D01*
X383000Y294000D02*
Y326000D01*
X337000D02*
X383000D01*
X337000Y294000D02*
Y326000D01*
Y294000D02*
X383000D01*
X183000Y83000D02*
Y133000D01*
X143000D02*
X183000D01*
X143000Y83000D02*
Y133000D01*
Y83000D02*
X183000D01*
X9500Y1178500D02*
X35500D01*
X9500Y1146500D02*
Y1178500D01*
Y1146500D02*
X35500D01*
Y1178500D01*
X226500Y281000D02*
X348500D01*
Y159000D02*
Y281000D01*
X226500Y159000D02*
X348500D01*
X226500D02*
Y281000D01*
X100000Y638500D02*
X222000D01*
Y516500D02*
Y638500D01*
X100000Y516500D02*
X222000D01*
X100000D02*
Y638500D01*
X256500Y1367500D02*
X260500D01*
Y1351500D02*
Y1367500D01*
X252500Y1351500D02*
X260500D01*
X252500D02*
Y1367500D01*
X256500D01*
X160500Y1285500D02*
X164500D01*
Y1269500D02*
Y1285500D01*
X156500Y1269500D02*
X164500D01*
X156500D02*
Y1285500D01*
X160500D01*
X222500Y1357500D02*
Y1361500D01*
X206500Y1357500D02*
X222500D01*
X206500D02*
Y1365500D01*
X222500D01*
Y1361500D02*
Y1365500D01*
X178000Y1332000D02*
X182000D01*
Y1316000D02*
Y1332000D01*
X174000Y1316000D02*
X182000D01*
X174000D02*
Y1332000D01*
X178000D01*
X163000D02*
X167000D01*
Y1316000D02*
Y1332000D01*
X159000Y1316000D02*
X167000D01*
X159000D02*
Y1332000D01*
X163000D01*
X283500Y1308500D02*
Y1312500D01*
X267500Y1308500D02*
X283500D01*
X267500D02*
Y1316500D01*
X283500D01*
Y1312500D02*
Y1316500D01*
Y1290500D02*
Y1294500D01*
X267500Y1290500D02*
X283500D01*
X267500D02*
Y1298500D01*
X283500D01*
Y1294500D02*
Y1298500D01*
X288000Y1245000D02*
Y1249000D01*
X272000Y1245000D02*
X288000D01*
X272000D02*
Y1253000D01*
X288000D01*
Y1249000D02*
Y1253000D01*
X215500Y1161500D02*
X245500D01*
Y1149500D02*
Y1161500D01*
X215500Y1149500D02*
X245500D01*
X215500D02*
Y1161500D01*
X216500Y1196500D02*
Y1216500D01*
X226500D01*
Y1196500D02*
Y1216500D01*
X216500Y1196500D02*
X226500D01*
X268500Y1348500D02*
Y1368500D01*
X278500D01*
Y1348500D02*
Y1368500D01*
X268500Y1348500D02*
X278500D01*
X244500D02*
Y1368500D01*
X234500Y1348500D02*
X244500D01*
X234500D02*
Y1368500D01*
X244500D01*
X166500Y1309500D02*
X186500D01*
Y1299500D02*
Y1309500D01*
X166500Y1299500D02*
X186500D01*
X166500D02*
Y1309500D01*
X249500Y1293500D02*
Y1313500D01*
X259500D01*
Y1293500D02*
Y1313500D01*
X249500Y1293500D02*
X259500D01*
X158500Y1168500D02*
X178500D01*
X158500D02*
Y1178500D01*
X178500D01*
Y1168500D02*
Y1178500D01*
X256500Y1168500D02*
X276500D01*
X256500D02*
Y1178500D01*
X276500D01*
Y1168500D02*
Y1178500D01*
X254500Y1336500D02*
X274500D01*
Y1326500D02*
Y1336500D01*
X254500Y1326500D02*
X274500D01*
X254500D02*
Y1336500D01*
X222500Y1303500D02*
Y1323500D01*
X212500Y1303500D02*
X222500D01*
X212500D02*
Y1323500D01*
X222500D01*
X198750Y1151500D02*
Y1171500D01*
X208750D01*
Y1151500D02*
Y1171500D01*
X198750Y1151500D02*
X208750D01*
X422500Y925000D02*
Y1065000D01*
X282500Y925000D02*
X422500D01*
X282500D02*
Y1065000D01*
X422500D01*
X152500Y925000D02*
Y1065000D01*
X12500Y925000D02*
X152500D01*
X12500D02*
Y1065000D01*
X152500D01*
X354000Y890000D02*
X371000D01*
Y826000D02*
Y890000D01*
X337000Y826000D02*
X371000D01*
X337000D02*
Y890000D01*
X354000D01*
X81500Y887500D02*
X98500D01*
Y823500D02*
Y887500D01*
X64500Y823500D02*
X98500D01*
X64500D02*
Y887500D01*
X81500D01*
X347000Y1197500D02*
X395000D01*
Y1159500D02*
Y1197500D01*
X347000Y1159500D02*
X395000D01*
X347000D02*
Y1197500D01*
X314500Y1125000D02*
X352500D01*
X314500Y1077000D02*
Y1125000D01*
Y1077000D02*
X352500D01*
Y1125000D01*
X44500Y1196500D02*
X92500D01*
Y1158500D02*
Y1196500D01*
X44500Y1158500D02*
X92500D01*
X44500D02*
Y1196500D01*
X89500Y1077000D02*
X127500D01*
Y1125000D01*
X89500D02*
X127500D01*
X89500Y1077000D02*
Y1125000D01*
X286500Y1266500D02*
Y1270500D01*
X270500Y1266500D02*
X286500D01*
X270500D02*
Y1274500D01*
X286500D01*
Y1270500D02*
Y1274500D01*
X38000Y1422000D02*
X48000D01*
X43000Y1417000D02*
Y1427000D01*
X404500Y1178500D02*
X430500D01*
X404500Y1146500D02*
Y1178500D01*
Y1146500D02*
X430500D01*
Y1178500D01*
X259500Y1121000D02*
X285500D01*
X259500Y1089000D02*
Y1121000D01*
Y1089000D02*
X285500D01*
Y1121000D01*
X222000D02*
X248000D01*
X222000Y1089000D02*
Y1121000D01*
Y1089000D02*
X248000D01*
Y1121000D01*
X184500D02*
X210500D01*
X184500Y1089000D02*
Y1121000D01*
Y1089000D02*
X210500D01*
Y1121000D01*
X147000D02*
X173000D01*
X147000Y1089000D02*
Y1121000D01*
Y1089000D02*
X173000D01*
Y1121000D01*
X386500Y865000D02*
X407500D01*
X386500Y795000D02*
Y865000D01*
Y795000D02*
X428500D01*
Y865000D01*
X407500D02*
X428500D01*
X402500Y763750D02*
X412500D01*
X407500Y758750D02*
Y768750D01*
X191500Y378500D02*
X276500D01*
X191500D02*
Y463500D01*
X276500D01*
Y378500D02*
Y463500D01*
X286500Y416000D02*
Y426000D01*
X281500Y421000D02*
X291500D01*
X62000Y728500D02*
X108000D01*
Y696500D02*
Y728500D01*
X62000Y696500D02*
X108000D01*
X62000D02*
Y728500D01*
X163500Y849500D02*
Y895500D01*
X131500Y849500D02*
X163500D01*
X131500D02*
Y895500D01*
X163500D01*
D71*
X399370Y271749D02*
Y274749D01*
Y260749D02*
Y263749D01*
X187629Y484250D02*
X190629D01*
X205629D02*
X208629D01*
X222629D02*
X225629D01*
X341500Y1462000D02*
X353500D01*
X341500Y1478000D02*
X353500D01*
X45370Y618751D02*
Y621751D01*
Y629751D02*
Y632751D01*
X267370Y629249D02*
Y632249D01*
Y618249D02*
Y621249D01*
X171870Y261251D02*
Y264251D01*
Y272251D02*
Y275251D01*
X376870Y199749D02*
Y202749D01*
Y183749D02*
Y186749D01*
X250371Y557249D02*
Y560249D01*
Y541249D02*
Y544249D01*
Y525249D02*
Y528249D01*
Y508249D02*
Y511249D01*
X151869Y484249D02*
X154869D01*
X133869D02*
X136869D01*
X113869D02*
X116869D01*
X94869D02*
X97869D01*
X169629Y484250D02*
X172629D01*
X68870Y508751D02*
Y511751D01*
Y524751D02*
Y527751D01*
Y541751D02*
Y544751D01*
Y556751D02*
Y559751D01*
X194924Y199500D02*
Y202500D01*
Y184500D02*
Y187500D01*
Y167500D02*
Y170500D01*
Y151500D02*
Y154500D01*
X221620Y127424D02*
X224620D01*
X240740Y126924D02*
X243740D01*
X260740D02*
X263740D01*
X278740D02*
X281740D01*
X296500Y126924D02*
X299500D01*
X314500D02*
X317500D01*
X332500D02*
X335500D01*
X349500D02*
X352500D01*
X376870Y150749D02*
Y153749D01*
Y167749D02*
Y170749D01*
D72*
X131000Y1288000D02*
X138617D01*
Y1284191D01*
X137348Y1282922D01*
X134809D01*
X133539Y1284191D01*
Y1288000D01*
Y1285461D02*
X131000Y1282922D01*
Y1280383D02*
Y1277843D01*
Y1279113D01*
X138617D01*
X137348Y1280383D01*
X131000Y1268956D02*
Y1274035D01*
X136078Y1268956D01*
X137348D01*
X138617Y1270226D01*
Y1272765D01*
X137348Y1274035D01*
X-125000Y462000D02*
Y469618D01*
X-121191D01*
X-119922Y468348D01*
Y465809D01*
X-121191Y464539D01*
X-125000D01*
X-117382Y468348D02*
X-116113Y469618D01*
X-113574D01*
X-112304Y468348D01*
Y467078D01*
X-113574Y465809D01*
X-114843D01*
X-113574D01*
X-112304Y464539D01*
Y463270D01*
X-113574Y462000D01*
X-116113D01*
X-117382Y463270D01*
X79242Y1274720D02*
X77973Y1275990D01*
X75434D01*
X74164Y1274720D01*
Y1269642D01*
X75434Y1268372D01*
X77973D01*
X79242Y1269642D01*
X81782Y1275990D02*
X84321D01*
X83051D01*
Y1268372D01*
X81782D01*
X84321D01*
X88130D02*
Y1275990D01*
X93208Y1268372D01*
Y1275990D01*
X95747Y1268372D02*
X98286D01*
X97017D01*
Y1275990D01*
X95747Y1274720D01*
X102095Y1268372D02*
X104634D01*
X103365D01*
Y1275990D01*
X102095Y1274720D01*
X79242Y1311788D02*
X77973Y1313058D01*
X75434D01*
X74164Y1311788D01*
Y1306710D01*
X75434Y1305440D01*
X77973D01*
X79242Y1306710D01*
X81782Y1313058D02*
X84321D01*
X83051D01*
Y1305440D01*
X81782D01*
X84321D01*
X88130D02*
Y1313058D01*
X93208Y1305440D01*
Y1313058D01*
X95747Y1305440D02*
X98286D01*
X97017D01*
Y1313058D01*
X95747Y1311788D01*
X102095D02*
X103365Y1313058D01*
X105904D01*
X107173Y1311788D01*
Y1306710D01*
X105904Y1305440D01*
X103365D01*
X102095Y1306710D01*
Y1311788D01*
X79226Y1349380D02*
X77957Y1350650D01*
X75418D01*
X74148Y1349380D01*
Y1344302D01*
X75418Y1343032D01*
X77957D01*
X79226Y1344302D01*
X81765Y1350650D02*
X84305D01*
X83035D01*
Y1343032D01*
X81765D01*
X84305D01*
X88113D02*
Y1350650D01*
X93192Y1343032D01*
Y1350650D01*
X95731Y1344302D02*
X97001Y1343032D01*
X99540D01*
X100809Y1344302D01*
Y1349380D01*
X99540Y1350650D01*
X97001D01*
X95731Y1349380D01*
Y1348110D01*
X97001Y1346841D01*
X100809D01*
X79226Y1386718D02*
X77957Y1387988D01*
X75418D01*
X74148Y1386718D01*
Y1381640D01*
X75418Y1380370D01*
X77957D01*
X79226Y1381640D01*
X81765Y1387988D02*
X84305D01*
X83035D01*
Y1380370D01*
X81765D01*
X84305D01*
X88113D02*
Y1387988D01*
X93192Y1380370D01*
Y1387988D01*
X95731Y1386718D02*
X97001Y1387988D01*
X99540D01*
X100809Y1386718D01*
Y1385448D01*
X99540Y1384179D01*
X100809Y1382909D01*
Y1381640D01*
X99540Y1380370D01*
X97001D01*
X95731Y1381640D01*
Y1382909D01*
X97001Y1384179D01*
X95731Y1385448D01*
Y1386718D01*
X97001Y1384179D02*
X99540D01*
X290078Y440348D02*
X288809Y441618D01*
X286270D01*
X285000Y440348D01*
Y435270D01*
X286270Y434000D01*
X288809D01*
X290078Y435270D01*
X297696Y441618D02*
X292617D01*
Y437809D01*
X295157Y439078D01*
X296426D01*
X297696Y437809D01*
Y435270D01*
X296426Y434000D01*
X293887D01*
X292617Y435270D01*
X300235Y440348D02*
X301505Y441618D01*
X304044D01*
X305313Y440348D01*
Y435270D01*
X304044Y434000D01*
X301505D01*
X300235Y435270D01*
Y440348D01*
X312931Y434000D02*
X307853D01*
X312931Y439078D01*
Y440348D01*
X311661Y441618D01*
X309122D01*
X307853Y440348D01*
X363240Y753306D02*
X361971Y754576D01*
X359432D01*
X358162Y753306D01*
Y748228D01*
X359432Y746958D01*
X361971D01*
X363240Y748228D01*
X370858Y754576D02*
X365780D01*
Y750767D01*
X368319Y752036D01*
X369588D01*
X370858Y750767D01*
Y748228D01*
X369588Y746958D01*
X367049D01*
X365780Y748228D01*
X373397Y753306D02*
X374667Y754576D01*
X377206D01*
X378475Y753306D01*
Y748228D01*
X377206Y746958D01*
X374667D01*
X373397Y748228D01*
Y753306D01*
X381015D02*
X382284Y754576D01*
X384823D01*
X386093Y753306D01*
Y748228D01*
X384823Y746958D01*
X382284D01*
X381015Y748228D01*
Y753306D01*
X191728Y473922D02*
X192997Y475191D01*
Y477730D01*
X191728Y479000D01*
X186650D01*
X185380Y477730D01*
Y475191D01*
X186650Y473922D01*
X185380Y466304D02*
Y471382D01*
X190458Y466304D01*
X191728D01*
X192997Y467574D01*
Y470113D01*
X191728Y471382D01*
X185380Y463765D02*
Y461226D01*
Y462495D01*
X192997D01*
X191728Y463765D01*
X185380Y453608D02*
X192997D01*
X189189Y457417D01*
Y452339D01*
X209728Y473922D02*
X210998Y475191D01*
Y477730D01*
X209728Y479000D01*
X204650D01*
X203380Y477730D01*
Y475191D01*
X204650Y473922D01*
X203380Y466304D02*
Y471382D01*
X208458Y466304D01*
X209728D01*
X210998Y467574D01*
Y470113D01*
X209728Y471382D01*
X203380Y463765D02*
Y461226D01*
Y462495D01*
X210998D01*
X209728Y463765D01*
Y457417D02*
X210998Y456147D01*
Y453608D01*
X209728Y452339D01*
X208458D01*
X207189Y453608D01*
Y454878D01*
Y453608D01*
X205919Y452339D01*
X204650D01*
X203380Y453608D01*
Y456147D01*
X204650Y457417D01*
X226968Y471922D02*
X228237Y473191D01*
Y475730D01*
X226968Y477000D01*
X221890D01*
X220620Y475730D01*
Y473191D01*
X221890Y471922D01*
X220620Y464304D02*
Y469382D01*
X225698Y464304D01*
X226968D01*
X228237Y465574D01*
Y468113D01*
X226968Y469382D01*
X220620Y461765D02*
Y459226D01*
Y460495D01*
X228237D01*
X226968Y461765D01*
X220620Y450339D02*
Y455417D01*
X225698Y450339D01*
X226968D01*
X228237Y451608D01*
Y454147D01*
X226968Y455417D01*
X13078Y681348D02*
X11809Y682617D01*
X9270D01*
X8000Y681348D01*
Y676270D01*
X9270Y675000D01*
X11809D01*
X13078Y676270D01*
X19426Y682617D02*
X16887D01*
X15618Y681348D01*
Y676270D01*
X16887Y675000D01*
X19426D01*
X20696Y676270D01*
Y681348D01*
X19426Y682617D01*
X23235D02*
Y676270D01*
X24505Y675000D01*
X27044D01*
X28313Y676270D01*
Y682617D01*
X30853D02*
X35931D01*
X33392D01*
Y675000D01*
X38470D02*
X41009D01*
X39740D01*
Y682617D01*
X38470Y681348D01*
X44818D02*
X46088Y682617D01*
X48627D01*
X49896Y681348D01*
Y680078D01*
X48627Y678809D01*
X47357D01*
X48627D01*
X49896Y677539D01*
Y676270D01*
X48627Y675000D01*
X46088D01*
X44818Y676270D01*
X207812Y884933D02*
X212890D01*
X210351D01*
Y877316D01*
X220508D02*
X215429D01*
X220508Y882394D01*
Y883664D01*
X219238Y884933D01*
X216699D01*
X215429Y883664D01*
X104000Y1372118D02*
X109078D01*
X106539D01*
Y1364500D01*
X111617D02*
X114157D01*
X112887D01*
Y1372118D01*
X111617Y1370848D01*
X328000Y1262000D02*
Y1269617D01*
X331809D01*
X333078Y1268348D01*
Y1265809D01*
X331809Y1264539D01*
X328000D01*
X330539D02*
X333078Y1262000D01*
X335617D02*
X338157D01*
X336887D01*
Y1269617D01*
X335617Y1268348D01*
X345774Y1262000D02*
Y1269617D01*
X341965Y1265809D01*
X347044D01*
X327000Y1290000D02*
Y1297617D01*
X330809D01*
X332078Y1296348D01*
Y1293809D01*
X330809Y1292539D01*
X327000D01*
X329539D02*
X332078Y1290000D01*
X334618D02*
X337157D01*
X335887D01*
Y1297617D01*
X334618Y1296348D01*
X340965D02*
X342235Y1297617D01*
X344774D01*
X346044Y1296348D01*
Y1295078D01*
X344774Y1293809D01*
X343505D01*
X344774D01*
X346044Y1292539D01*
Y1291270D01*
X344774Y1290000D01*
X342235D01*
X340965Y1291270D01*
X332270Y1494534D02*
X327192D01*
Y1490725D01*
X329731D01*
X327192D01*
Y1486916D01*
X334809Y1494534D02*
Y1486916D01*
X338618D01*
X339888Y1488186D01*
Y1489455D01*
X338618Y1490725D01*
X334809D01*
X338618D01*
X339888Y1491994D01*
Y1493264D01*
X338618Y1494534D01*
X334809D01*
X193000Y56617D02*
X198078Y49000D01*
Y56617D02*
X193000Y49000D01*
X200618D02*
X203157D01*
X201887D01*
Y56617D01*
X200618Y55348D01*
X118254Y147192D02*
Y140844D01*
X119524Y139574D01*
X122063D01*
X123332Y140844D01*
Y147192D01*
X130950D02*
X128411Y145922D01*
X125871Y143383D01*
Y140844D01*
X127141Y139574D01*
X129680D01*
X130950Y140844D01*
Y142113D01*
X129680Y143383D01*
X125871D01*
X133489Y145922D02*
X134759Y147192D01*
X137298D01*
X138567Y145922D01*
Y140844D01*
X137298Y139574D01*
X134759D01*
X133489Y140844D01*
Y145922D01*
X272078Y324348D02*
X270809Y325617D01*
X268270D01*
X267000Y324348D01*
Y319270D01*
X268270Y318000D01*
X270809D01*
X272078Y319270D01*
X278426Y325617D02*
X275887D01*
X274618Y324348D01*
Y319270D01*
X275887Y318000D01*
X278426D01*
X279696Y319270D01*
Y324348D01*
X278426Y325617D01*
X282235D02*
Y319270D01*
X283505Y318000D01*
X286044D01*
X287313Y319270D01*
Y325617D01*
X289853D02*
X294931D01*
X292392D01*
Y318000D01*
X302549D02*
X297470D01*
X302549Y323078D01*
Y324348D01*
X301279Y325617D01*
X298740D01*
X297470Y324348D01*
X305088D02*
X306357Y325617D01*
X308897D01*
X310166Y324348D01*
Y319270D01*
X308897Y318000D01*
X306357D01*
X305088Y319270D01*
Y324348D01*
X11722Y1202180D02*
X10453Y1203449D01*
X7914D01*
X6644Y1202180D01*
Y1197102D01*
X7914Y1195832D01*
X10453D01*
X11722Y1197102D01*
X14261Y1203449D02*
X16801D01*
X15531D01*
Y1195832D01*
X14261D01*
X16801D01*
X20610D02*
Y1203449D01*
X25688Y1195832D01*
Y1203449D01*
X33305Y1195832D02*
X28227D01*
X33305Y1200910D01*
Y1202180D01*
X32036Y1203449D01*
X29497D01*
X28227Y1202180D01*
X92078Y56348D02*
X90809Y57618D01*
X88270D01*
X87000Y56348D01*
Y51270D01*
X88270Y50000D01*
X90809D01*
X92078Y51270D01*
X94618Y50000D02*
X97157D01*
X95887D01*
Y57618D01*
X94618Y56348D01*
X106044Y57618D02*
X100965D01*
Y53809D01*
X103505Y55078D01*
X104774D01*
X106044Y53809D01*
Y51270D01*
X104774Y50000D01*
X102235D01*
X100965Y51270D01*
X108583Y56348D02*
X109853Y57618D01*
X112392D01*
X113661Y56348D01*
Y51270D01*
X112392Y50000D01*
X109853D01*
X108583Y51270D01*
Y56348D01*
X49078Y610348D02*
X47809Y611618D01*
X45270D01*
X44000Y610348D01*
Y605270D01*
X45270Y604000D01*
X47809D01*
X49078Y605270D01*
X56696Y611618D02*
X54157Y610348D01*
X51617Y607809D01*
Y605270D01*
X52887Y604000D01*
X55426D01*
X56696Y605270D01*
Y606539D01*
X55426Y607809D01*
X51617D01*
X59235Y610348D02*
X60505Y611618D01*
X63044D01*
X64313Y610348D01*
Y605270D01*
X63044Y604000D01*
X60505D01*
X59235Y605270D01*
Y610348D01*
X66853D02*
X68122Y611618D01*
X70661D01*
X71931Y610348D01*
Y605270D01*
X70661Y604000D01*
X68122D01*
X66853Y605270D01*
Y610348D01*
X38078Y643348D02*
X36809Y644617D01*
X34270D01*
X33000Y643348D01*
Y638270D01*
X34270Y637000D01*
X36809D01*
X38078Y638270D01*
X45696Y644617D02*
X43157Y643348D01*
X40617Y640809D01*
Y638270D01*
X41887Y637000D01*
X44426D01*
X45696Y638270D01*
Y639539D01*
X44426Y640809D01*
X40617D01*
X48235Y643348D02*
X49505Y644617D01*
X52044D01*
X53313Y643348D01*
Y638270D01*
X52044Y637000D01*
X49505D01*
X48235Y638270D01*
Y643348D01*
X55853Y637000D02*
X58392D01*
X57122D01*
Y644617D01*
X55853Y643348D01*
X253276Y647444D02*
X252007Y648714D01*
X249468D01*
X248198Y647444D01*
Y642366D01*
X249468Y641096D01*
X252007D01*
X253276Y642366D01*
X260894Y648714D02*
X258355Y647444D01*
X255816Y644905D01*
Y642366D01*
X257085Y641096D01*
X259624D01*
X260894Y642366D01*
Y643635D01*
X259624Y644905D01*
X255816D01*
X263433Y647444D02*
X264703Y648714D01*
X267242D01*
X268511Y647444D01*
Y642366D01*
X267242Y641096D01*
X264703D01*
X263433Y642366D01*
Y647444D01*
X276129Y641096D02*
X271051D01*
X276129Y646174D01*
Y647444D01*
X274859Y648714D01*
X272320D01*
X271051Y647444D01*
X253276Y636522D02*
X252007Y637791D01*
X249468D01*
X248198Y636522D01*
Y631444D01*
X249468Y630174D01*
X252007D01*
X253276Y631444D01*
X260894Y637791D02*
X258355Y636522D01*
X255816Y633983D01*
Y631444D01*
X257085Y630174D01*
X259624D01*
X260894Y631444D01*
Y632713D01*
X259624Y633983D01*
X255816D01*
X263433Y636522D02*
X264703Y637791D01*
X267242D01*
X268511Y636522D01*
Y631444D01*
X267242Y630174D01*
X264703D01*
X263433Y631444D01*
Y636522D01*
X271051D02*
X272320Y637791D01*
X274859D01*
X276129Y636522D01*
Y635252D01*
X274859Y633983D01*
X273590D01*
X274859D01*
X276129Y632713D01*
Y631444D01*
X274859Y630174D01*
X272320D01*
X271051Y631444D01*
X172078Y255348D02*
X170809Y256618D01*
X168270D01*
X167000Y255348D01*
Y250270D01*
X168270Y249000D01*
X170809D01*
X172078Y250270D01*
X179696Y256618D02*
X177157Y255348D01*
X174618Y252809D01*
Y250270D01*
X175887Y249000D01*
X178426D01*
X179696Y250270D01*
Y251539D01*
X178426Y252809D01*
X174618D01*
X182235Y255348D02*
X183505Y256618D01*
X186044D01*
X187313Y255348D01*
Y250270D01*
X186044Y249000D01*
X183505D01*
X182235Y250270D01*
Y255348D01*
X193661Y249000D02*
Y256618D01*
X189853Y252809D01*
X194931D01*
X172078Y286348D02*
X170809Y287617D01*
X168270D01*
X167000Y286348D01*
Y281270D01*
X168270Y280000D01*
X170809D01*
X172078Y281270D01*
X179696Y287617D02*
X177157Y286348D01*
X174618Y283809D01*
Y281270D01*
X175887Y280000D01*
X178426D01*
X179696Y281270D01*
Y282539D01*
X178426Y283809D01*
X174618D01*
X182235Y286348D02*
X183505Y287617D01*
X186044D01*
X187313Y286348D01*
Y281270D01*
X186044Y280000D01*
X183505D01*
X182235Y281270D01*
Y286348D01*
X194931Y287617D02*
X189853D01*
Y283809D01*
X192392Y285078D01*
X193661D01*
X194931Y283809D01*
Y281270D01*
X193661Y280000D01*
X191122D01*
X189853Y281270D01*
X381078Y285348D02*
X379809Y286618D01*
X377270D01*
X376000Y285348D01*
Y280270D01*
X377270Y279000D01*
X379809D01*
X381078Y280270D01*
X388696Y286618D02*
X386157Y285348D01*
X383618Y282809D01*
Y280270D01*
X384887Y279000D01*
X387426D01*
X388696Y280270D01*
Y281539D01*
X387426Y282809D01*
X383618D01*
X391235Y285348D02*
X392505Y286618D01*
X395044D01*
X396313Y285348D01*
Y280270D01*
X395044Y279000D01*
X392505D01*
X391235Y280270D01*
Y285348D01*
X403931Y286618D02*
X401392Y285348D01*
X398853Y282809D01*
Y280270D01*
X400122Y279000D01*
X402661D01*
X403931Y280270D01*
Y281539D01*
X402661Y282809D01*
X398853D01*
X382078Y241348D02*
X380809Y242617D01*
X378270D01*
X377000Y241348D01*
Y236270D01*
X378270Y235000D01*
X380809D01*
X382078Y236270D01*
X389696Y242617D02*
X387157Y241348D01*
X384618Y238809D01*
Y236270D01*
X385887Y235000D01*
X388426D01*
X389696Y236270D01*
Y237539D01*
X388426Y238809D01*
X384618D01*
X392235Y241348D02*
X393505Y242617D01*
X396044D01*
X397313Y241348D01*
Y236270D01*
X396044Y235000D01*
X393505D01*
X392235Y236270D01*
Y241348D01*
X399853Y242617D02*
X404931D01*
Y241348D01*
X399853Y236270D01*
Y235000D01*
X31078Y748348D02*
X29809Y749617D01*
X27270D01*
X26000Y748348D01*
Y743270D01*
X27270Y742000D01*
X29809D01*
X31078Y743270D01*
X37426Y749617D02*
X34887D01*
X33617Y748348D01*
Y743270D01*
X34887Y742000D01*
X37426D01*
X38696Y743270D01*
Y748348D01*
X37426Y749617D01*
X41235D02*
Y743270D01*
X42505Y742000D01*
X45044D01*
X46313Y743270D01*
Y749617D01*
X48853D02*
X53931D01*
X51392D01*
Y742000D01*
X56470Y749617D02*
X61549D01*
Y748348D01*
X56470Y743270D01*
Y742000D01*
X275000Y295618D02*
Y289270D01*
X276270Y288000D01*
X278809D01*
X280078Y289270D01*
Y295618D01*
X287696Y288000D02*
X282617D01*
X287696Y293078D01*
Y294348D01*
X286426Y295618D01*
X283887D01*
X282617Y294348D01*
X295313Y288000D02*
X290235D01*
X295313Y293078D01*
Y294348D01*
X294044Y295618D01*
X291505D01*
X290235Y294348D01*
X387198Y203848D02*
X385929Y205117D01*
X383390D01*
X382120Y203848D01*
Y198770D01*
X383390Y197500D01*
X385929D01*
X387198Y198770D01*
X394816Y197500D02*
X389738D01*
X394816Y202578D01*
Y203848D01*
X393546Y205117D01*
X391007D01*
X389738Y203848D01*
X397355D02*
X398625Y205117D01*
X401164D01*
X402433Y203848D01*
Y202578D01*
X401164Y201309D01*
X399894D01*
X401164D01*
X402433Y200039D01*
Y198770D01*
X401164Y197500D01*
X398625D01*
X397355Y198770D01*
X404973Y203848D02*
X406242Y205117D01*
X408781D01*
X410051Y203848D01*
Y198770D01*
X408781Y197500D01*
X406242D01*
X404973Y198770D01*
Y203848D01*
X387198Y187848D02*
X385929Y189118D01*
X383390D01*
X382120Y187848D01*
Y182770D01*
X383390Y181500D01*
X385929D01*
X387198Y182770D01*
X394816Y181500D02*
X389738D01*
X394816Y186578D01*
Y187848D01*
X393546Y189118D01*
X391007D01*
X389738Y187848D01*
X397355D02*
X398625Y189118D01*
X401164D01*
X402433Y187848D01*
Y186578D01*
X401164Y185309D01*
X399894D01*
X401164D01*
X402433Y184039D01*
Y182770D01*
X401164Y181500D01*
X398625D01*
X397355Y182770D01*
X404973Y181500D02*
X407512D01*
X406242D01*
Y189118D01*
X404973Y187848D01*
X152000Y651618D02*
Y645270D01*
X153270Y644000D01*
X155809D01*
X157078Y645270D01*
Y651618D01*
X164696Y644000D02*
X159618D01*
X164696Y649078D01*
Y650348D01*
X163426Y651618D01*
X160887D01*
X159618Y650348D01*
X167235Y644000D02*
X169774D01*
X168505D01*
Y651618D01*
X167235Y650348D01*
X260698Y561348D02*
X259429Y562617D01*
X256890D01*
X255620Y561348D01*
Y556270D01*
X256890Y555000D01*
X259429D01*
X260698Y556270D01*
X268316Y555000D02*
X263237D01*
X268316Y560078D01*
Y561348D01*
X267046Y562617D01*
X264507D01*
X263237Y561348D01*
X270855D02*
X272125Y562617D01*
X274664D01*
X275933Y561348D01*
Y556270D01*
X274664Y555000D01*
X272125D01*
X270855Y556270D01*
Y561348D01*
X278473D02*
X279742Y562617D01*
X282281D01*
X283551Y561348D01*
Y560078D01*
X282281Y558809D01*
X283551Y557539D01*
Y556270D01*
X282281Y555000D01*
X279742D01*
X278473Y556270D01*
Y557539D01*
X279742Y558809D01*
X278473Y560078D01*
Y561348D01*
X279742Y558809D02*
X282281D01*
X260698Y545348D02*
X259429Y546618D01*
X256890D01*
X255620Y545348D01*
Y540270D01*
X256890Y539000D01*
X259429D01*
X260698Y540270D01*
X268316Y539000D02*
X263237D01*
X268316Y544078D01*
Y545348D01*
X267046Y546618D01*
X264507D01*
X263237Y545348D01*
X270855D02*
X272125Y546618D01*
X274664D01*
X275933Y545348D01*
Y540270D01*
X274664Y539000D01*
X272125D01*
X270855Y540270D01*
Y545348D01*
X278473Y540270D02*
X279742Y539000D01*
X282281D01*
X283551Y540270D01*
Y545348D01*
X282281Y546618D01*
X279742D01*
X278473Y545348D01*
Y544078D01*
X279742Y542809D01*
X283551D01*
X260698Y529348D02*
X259429Y530617D01*
X256890D01*
X255620Y529348D01*
Y524270D01*
X256890Y523000D01*
X259429D01*
X260698Y524270D01*
X268316Y523000D02*
X263237D01*
X268316Y528078D01*
Y529348D01*
X267046Y530617D01*
X264507D01*
X263237Y529348D01*
X270855Y523000D02*
X273394D01*
X272125D01*
Y530617D01*
X270855Y529348D01*
X277203D02*
X278473Y530617D01*
X281012D01*
X282281Y529348D01*
Y524270D01*
X281012Y523000D01*
X278473D01*
X277203Y524270D01*
Y529348D01*
X260698Y511348D02*
X259429Y512617D01*
X256890D01*
X255620Y511348D01*
Y506270D01*
X256890Y505000D01*
X259429D01*
X260698Y506270D01*
X268316Y505000D02*
X263237D01*
X268316Y510078D01*
Y511348D01*
X267046Y512617D01*
X264507D01*
X263237Y511348D01*
X270855Y505000D02*
X273394D01*
X272125D01*
Y512617D01*
X270855Y511348D01*
X277203Y505000D02*
X279742D01*
X278473D01*
Y512617D01*
X277203Y511348D01*
X155968Y473922D02*
X157238Y475191D01*
Y477730D01*
X155968Y479000D01*
X150890D01*
X149620Y477730D01*
Y475191D01*
X150890Y473922D01*
X149620Y466304D02*
Y471382D01*
X154698Y466304D01*
X155968D01*
X157238Y467574D01*
Y470113D01*
X155968Y471382D01*
X149620Y463765D02*
Y461226D01*
Y462495D01*
X157238D01*
X155968Y463765D01*
X157238Y452339D02*
X155968Y454878D01*
X153429Y457417D01*
X150890D01*
X149620Y456147D01*
Y453608D01*
X150890Y452339D01*
X152159D01*
X153429Y453608D01*
Y457417D01*
X137968Y473922D02*
X139237Y475191D01*
Y477730D01*
X137968Y479000D01*
X132890D01*
X131620Y477730D01*
Y475191D01*
X132890Y473922D01*
X131620Y466304D02*
Y471382D01*
X136698Y466304D01*
X137968D01*
X139237Y467574D01*
Y470113D01*
X137968Y471382D01*
X131620Y463765D02*
Y461226D01*
Y462495D01*
X139237D01*
X137968Y463765D01*
X139237Y457417D02*
Y452339D01*
X137968D01*
X132890Y457417D01*
X131620D01*
X117968Y473922D02*
X119238Y475191D01*
Y477730D01*
X117968Y479000D01*
X112890D01*
X111620Y477730D01*
Y475191D01*
X112890Y473922D01*
X111620Y466304D02*
Y471382D01*
X116698Y466304D01*
X117968D01*
X119238Y467574D01*
Y470113D01*
X117968Y471382D01*
X111620Y463765D02*
Y461226D01*
Y462495D01*
X119238D01*
X117968Y463765D01*
Y457417D02*
X119238Y456147D01*
Y453608D01*
X117968Y452339D01*
X116698D01*
X115429Y453608D01*
X114159Y452339D01*
X112890D01*
X111620Y453608D01*
Y456147D01*
X112890Y457417D01*
X114159D01*
X115429Y456147D01*
X116698Y457417D01*
X117968D01*
X115429Y456147D02*
Y453608D01*
X98968Y473922D02*
X100238Y475191D01*
Y477730D01*
X98968Y479000D01*
X93890D01*
X92620Y477730D01*
Y475191D01*
X93890Y473922D01*
X92620Y466304D02*
Y471382D01*
X97698Y466304D01*
X98968D01*
X100238Y467574D01*
Y470113D01*
X98968Y471382D01*
X92620Y463765D02*
Y461226D01*
Y462495D01*
X100238D01*
X98968Y463765D01*
X93890Y457417D02*
X92620Y456147D01*
Y453608D01*
X93890Y452339D01*
X98968D01*
X100238Y453608D01*
Y456147D01*
X98968Y457417D01*
X97698D01*
X96429Y456147D01*
Y452339D01*
X173728Y473922D02*
X174998Y475191D01*
Y477730D01*
X173728Y479000D01*
X168650D01*
X167380Y477730D01*
Y475191D01*
X168650Y473922D01*
X167380Y466304D02*
Y471382D01*
X172458Y466304D01*
X173728D01*
X174998Y467574D01*
Y470113D01*
X173728Y471382D01*
X167380Y463765D02*
Y461226D01*
Y462495D01*
X174998D01*
X173728Y463765D01*
X174998Y452339D02*
Y457417D01*
X171189D01*
X172458Y454878D01*
Y453608D01*
X171189Y452339D01*
X168650D01*
X167380Y453608D01*
Y456147D01*
X168650Y457417D01*
X44376Y505851D02*
X43107Y507120D01*
X40567D01*
X39298Y505851D01*
Y500772D01*
X40567Y499503D01*
X43107D01*
X44376Y500772D01*
X51994Y499503D02*
X46915D01*
X51994Y504581D01*
Y505851D01*
X50724Y507120D01*
X48185D01*
X46915Y505851D01*
X59611Y499503D02*
X54533D01*
X59611Y504581D01*
Y505851D01*
X58342Y507120D01*
X55802D01*
X54533Y505851D01*
X62150D02*
X63420Y507120D01*
X65959D01*
X67229Y505851D01*
Y500772D01*
X65959Y499503D01*
X63420D01*
X62150Y500772D01*
Y505851D01*
X44376Y521853D02*
X43107Y523122D01*
X40567D01*
X39298Y521853D01*
Y516774D01*
X40567Y515505D01*
X43107D01*
X44376Y516774D01*
X51994Y515505D02*
X46915D01*
X51994Y520583D01*
Y521853D01*
X50724Y523122D01*
X48185D01*
X46915Y521853D01*
X59611Y515505D02*
X54533D01*
X59611Y520583D01*
Y521853D01*
X58342Y523122D01*
X55802D01*
X54533Y521853D01*
X62150Y515505D02*
X64690D01*
X63420D01*
Y523122D01*
X62150Y521853D01*
X44376Y538871D02*
X43107Y540140D01*
X40567D01*
X39298Y538871D01*
Y533792D01*
X40567Y532523D01*
X43107D01*
X44376Y533792D01*
X51994Y532523D02*
X46915D01*
X51994Y537601D01*
Y538871D01*
X50724Y540140D01*
X48185D01*
X46915Y538871D01*
X59611Y532523D02*
X54533D01*
X59611Y537601D01*
Y538871D01*
X58342Y540140D01*
X55802D01*
X54533Y538871D01*
X67229Y532523D02*
X62150D01*
X67229Y537601D01*
Y538871D01*
X65959Y540140D01*
X63420D01*
X62150Y538871D01*
X44376Y553857D02*
X43107Y555126D01*
X40567D01*
X39298Y553857D01*
Y548778D01*
X40567Y547509D01*
X43107D01*
X44376Y548778D01*
X51994Y547509D02*
X46915D01*
X51994Y552587D01*
Y553857D01*
X50724Y555126D01*
X48185D01*
X46915Y553857D01*
X59611Y547509D02*
X54533D01*
X59611Y552587D01*
Y553857D01*
X58342Y555126D01*
X55802D01*
X54533Y553857D01*
X62150D02*
X63420Y555126D01*
X65959D01*
X67229Y553857D01*
Y552587D01*
X65959Y551317D01*
X64690D01*
X65959D01*
X67229Y550048D01*
Y548778D01*
X65959Y547509D01*
X63420D01*
X62150Y548778D01*
X189382Y1214500D02*
X195730D01*
X197000Y1215770D01*
Y1218309D01*
X195730Y1219578D01*
X189382D01*
X197000Y1222117D02*
Y1224657D01*
Y1223387D01*
X189382D01*
X190652Y1222117D01*
X252000Y1380000D02*
Y1387617D01*
X255809D01*
X257078Y1386348D01*
Y1383809D01*
X255809Y1382539D01*
X252000D01*
X254539D02*
X257078Y1380000D01*
X259618D02*
X262157D01*
X260887D01*
Y1387617D01*
X259618Y1386348D01*
X265965Y1380000D02*
X268505D01*
X267235D01*
Y1387617D01*
X265965Y1386348D01*
X143000Y1283000D02*
X150618D01*
Y1279191D01*
X149348Y1277922D01*
X146809D01*
X145539Y1279191D01*
Y1283000D01*
Y1280461D02*
X143000Y1277922D01*
X149348Y1275383D02*
X150618Y1274113D01*
Y1271574D01*
X149348Y1270304D01*
X148078D01*
X146809Y1271574D01*
X145539Y1270304D01*
X144270D01*
X143000Y1271574D01*
Y1274113D01*
X144270Y1275383D01*
X145539D01*
X146809Y1274113D01*
X148078Y1275383D01*
X149348D01*
X146809Y1274113D02*
Y1271574D01*
X204000Y1347000D02*
Y1354617D01*
X207809D01*
X209078Y1353348D01*
Y1350809D01*
X207809Y1349539D01*
X204000D01*
X206539D02*
X209078Y1347000D01*
X211618Y1354617D02*
X216696D01*
Y1353348D01*
X211618Y1348270D01*
Y1347000D01*
X173500Y1354500D02*
X181117D01*
Y1350691D01*
X179848Y1349422D01*
X177309D01*
X176039Y1350691D01*
Y1354500D01*
Y1351961D02*
X173500Y1349422D01*
X181117Y1341804D02*
X179848Y1344343D01*
X177309Y1346882D01*
X174770D01*
X173500Y1345613D01*
Y1343074D01*
X174770Y1341804D01*
X176039D01*
X177309Y1343074D01*
Y1346882D01*
X159000Y1354500D02*
X166618D01*
Y1350691D01*
X165348Y1349422D01*
X162809D01*
X161539Y1350691D01*
Y1354500D01*
Y1351961D02*
X159000Y1349422D01*
X166618Y1341804D02*
Y1346882D01*
X162809D01*
X164078Y1344343D01*
Y1343074D01*
X162809Y1341804D01*
X160270D01*
X159000Y1343074D01*
Y1345613D01*
X160270Y1346882D01*
X296000Y1310000D02*
Y1317617D01*
X299809D01*
X301078Y1316348D01*
Y1313809D01*
X299809Y1312539D01*
X296000D01*
X298539D02*
X301078Y1310000D01*
X307426D02*
Y1317617D01*
X303617Y1313809D01*
X308696D01*
X293152Y1292159D02*
Y1299776D01*
X296961D01*
X298230Y1298507D01*
Y1295968D01*
X296961Y1294698D01*
X293152D01*
X295691D02*
X298230Y1292159D01*
X300769Y1298507D02*
X302039Y1299776D01*
X304578D01*
X305848Y1298507D01*
Y1297237D01*
X304578Y1295968D01*
X303309D01*
X304578D01*
X305848Y1294698D01*
Y1293428D01*
X304578Y1292159D01*
X302039D01*
X300769Y1293428D01*
X273500Y1233500D02*
Y1241118D01*
X277309D01*
X278578Y1239848D01*
Y1237309D01*
X277309Y1236039D01*
X273500D01*
X276039D02*
X278578Y1233500D01*
X281117D02*
X283657D01*
X282387D01*
Y1241118D01*
X281117Y1239848D01*
X215178Y1187448D02*
Y1179830D01*
X218987D01*
X220256Y1181100D01*
Y1186178D01*
X218987Y1187448D01*
X215178D01*
X222796Y1179830D02*
X225335D01*
X224065D01*
Y1187448D01*
X222796Y1186178D01*
X222034Y1233676D02*
X220765Y1234946D01*
X218226D01*
X216956Y1233676D01*
Y1228598D01*
X218226Y1227328D01*
X220765D01*
X222034Y1228598D01*
X224573Y1227328D02*
X227113D01*
X225843D01*
Y1234946D01*
X224573Y1233676D01*
X230921Y1227328D02*
X233461D01*
X232191D01*
Y1234946D01*
X230921Y1233676D01*
X290078Y1356348D02*
X288809Y1357617D01*
X286270D01*
X285000Y1356348D01*
Y1351270D01*
X286270Y1350000D01*
X288809D01*
X290078Y1351270D01*
X292617Y1350000D02*
X295157D01*
X293887D01*
Y1357617D01*
X292617Y1356348D01*
X298965D02*
X300235Y1357617D01*
X302774D01*
X304044Y1356348D01*
Y1351270D01*
X302774Y1350000D01*
X300235D01*
X298965Y1351270D01*
Y1356348D01*
X239078Y1385348D02*
X237809Y1386617D01*
X235270D01*
X234000Y1385348D01*
Y1380270D01*
X235270Y1379000D01*
X237809D01*
X239078Y1380270D01*
X241618D02*
X242887Y1379000D01*
X245426D01*
X246696Y1380270D01*
Y1385348D01*
X245426Y1386617D01*
X242887D01*
X241618Y1385348D01*
Y1384078D01*
X242887Y1382809D01*
X246696D01*
X214078Y1390348D02*
X212809Y1391617D01*
X210270D01*
X209000Y1390348D01*
Y1385270D01*
X210270Y1384000D01*
X212809D01*
X214078Y1385270D01*
X216618Y1390348D02*
X217887Y1391617D01*
X220426D01*
X221696Y1390348D01*
Y1389078D01*
X220426Y1387809D01*
X221696Y1386539D01*
Y1385270D01*
X220426Y1384000D01*
X217887D01*
X216618Y1385270D01*
Y1386539D01*
X217887Y1387809D01*
X216618Y1389078D01*
Y1390348D01*
X217887Y1387809D02*
X220426D01*
X149078Y1308348D02*
X147809Y1309617D01*
X145270D01*
X144000Y1308348D01*
Y1303270D01*
X145270Y1302000D01*
X147809D01*
X149078Y1303270D01*
X151617Y1309617D02*
X156696D01*
Y1308348D01*
X151617Y1303270D01*
Y1302000D01*
X239652Y1302578D02*
X238382Y1301309D01*
Y1298770D01*
X239652Y1297500D01*
X244730D01*
X246000Y1298770D01*
Y1301309D01*
X244730Y1302578D01*
X238382Y1310196D02*
X239652Y1307657D01*
X242191Y1305117D01*
X244730D01*
X246000Y1306387D01*
Y1308926D01*
X244730Y1310196D01*
X243461D01*
X242191Y1308926D01*
Y1305117D01*
X144652Y1169578D02*
X143383Y1168309D01*
Y1165770D01*
X144652Y1164500D01*
X149730D01*
X151000Y1165770D01*
Y1168309D01*
X149730Y1169578D01*
X143383Y1177196D02*
Y1172117D01*
X147191D01*
X145922Y1174657D01*
Y1175926D01*
X147191Y1177196D01*
X149730D01*
X151000Y1175926D01*
Y1173387D01*
X149730Y1172117D01*
X264652Y1188578D02*
X263382Y1187309D01*
Y1184770D01*
X264652Y1183500D01*
X269730D01*
X271000Y1184770D01*
Y1187309D01*
X269730Y1188578D01*
X271000Y1194926D02*
X263382D01*
X267191Y1191117D01*
Y1196196D01*
X309078Y1334348D02*
X307809Y1335618D01*
X305270D01*
X304000Y1334348D01*
Y1329270D01*
X305270Y1328000D01*
X307809D01*
X309078Y1329270D01*
X311618Y1334348D02*
X312887Y1335618D01*
X315426D01*
X316696Y1334348D01*
Y1333078D01*
X315426Y1331809D01*
X314157D01*
X315426D01*
X316696Y1330539D01*
Y1329270D01*
X315426Y1328000D01*
X312887D01*
X311618Y1329270D01*
X202652Y1311578D02*
X201383Y1310309D01*
Y1307769D01*
X202652Y1306500D01*
X207730D01*
X209000Y1307769D01*
Y1310309D01*
X207730Y1311578D01*
X209000Y1319196D02*
Y1314117D01*
X203922Y1319196D01*
X202652D01*
X201383Y1317926D01*
Y1315387D01*
X202652Y1314117D01*
X217672Y1147652D02*
X218941Y1146383D01*
X221480D01*
X222750Y1147652D01*
Y1152730D01*
X221480Y1154000D01*
X218941D01*
X217672Y1152730D01*
X215133Y1154000D02*
X212593D01*
X213863D01*
Y1146383D01*
X215133Y1147652D01*
X282500Y1080117D02*
Y1072500D01*
X287578D01*
X290117D02*
X292657D01*
X291387D01*
Y1080117D01*
X290117Y1078848D01*
X12500Y1080117D02*
Y1072500D01*
X17578D01*
X25196D02*
X20117D01*
X25196Y1077578D01*
Y1078848D01*
X23926Y1080117D01*
X21387D01*
X20117Y1078848D01*
X338114Y910336D02*
Y917953D01*
X341923D01*
X343192Y916684D01*
Y914145D01*
X341923Y912875D01*
X338114D01*
X340653D02*
X343192Y910336D01*
X345732Y911606D02*
X347001Y910336D01*
X349540D01*
X350810Y911606D01*
Y916684D01*
X349540Y917953D01*
X347001D01*
X345732Y916684D01*
Y915414D01*
X347001Y914145D01*
X350810D01*
X73000Y906000D02*
Y913617D01*
X76809D01*
X78078Y912348D01*
Y909809D01*
X76809Y908539D01*
X73000D01*
X75539D02*
X78078Y906000D01*
X80618D02*
X83157D01*
X81887D01*
Y913617D01*
X80618Y912348D01*
X86966D02*
X88235Y913617D01*
X90774D01*
X92044Y912348D01*
Y907270D01*
X90774Y906000D01*
X88235D01*
X86966Y907270D01*
Y912348D01*
X129618Y359348D02*
X128349Y360617D01*
X125810D01*
X124540Y359348D01*
Y354270D01*
X125810Y353000D01*
X128349D01*
X129618Y354270D01*
X135966Y360617D02*
X133427D01*
X132157Y359348D01*
Y354270D01*
X133427Y353000D01*
X135966D01*
X137236Y354270D01*
Y359348D01*
X135966Y360617D01*
X139775D02*
Y354270D01*
X141045Y353000D01*
X143584D01*
X144853Y354270D01*
Y360617D01*
X147393D02*
X152471D01*
X149932D01*
Y353000D01*
X155010D02*
X157549D01*
X156280D01*
Y360617D01*
X155010Y359348D01*
X161358Y354270D02*
X162628Y353000D01*
X165167D01*
X166436Y354270D01*
Y359348D01*
X165167Y360617D01*
X162628D01*
X161358Y359348D01*
Y358078D01*
X162628Y356809D01*
X166436D01*
X353098Y1219200D02*
Y1224278D01*
X351829Y1225547D01*
X349290D01*
X348020Y1224278D01*
Y1219200D01*
X349290Y1217930D01*
X351829D01*
X350559Y1220469D02*
X353098Y1217930D01*
X351829D02*
X353098Y1219200D01*
X355638Y1217930D02*
X358177D01*
X356907D01*
Y1225547D01*
X355638Y1224278D01*
X344078Y1130270D02*
Y1135348D01*
X342809Y1136618D01*
X340270D01*
X339000Y1135348D01*
Y1130270D01*
X340270Y1129000D01*
X342809D01*
X341539Y1131539D02*
X344078Y1129000D01*
X342809D02*
X344078Y1130270D01*
X351696Y1129000D02*
X346618D01*
X351696Y1134078D01*
Y1135348D01*
X350426Y1136618D01*
X347887D01*
X346618Y1135348D01*
X50584Y1218184D02*
Y1223262D01*
X49315Y1224531D01*
X46776D01*
X45506Y1223262D01*
Y1218184D01*
X46776Y1216914D01*
X49315D01*
X48045Y1219453D02*
X50584Y1216914D01*
X49315D02*
X50584Y1218184D01*
X53123Y1223262D02*
X54393Y1224531D01*
X56932D01*
X58202Y1223262D01*
Y1221992D01*
X56932Y1220723D01*
X55663D01*
X56932D01*
X58202Y1219453D01*
Y1218184D01*
X56932Y1216914D01*
X54393D01*
X53123Y1218184D01*
X81826Y1132840D02*
Y1137918D01*
X80557Y1139187D01*
X78018D01*
X76748Y1137918D01*
Y1132840D01*
X78018Y1131570D01*
X80557D01*
X79287Y1134109D02*
X81826Y1131570D01*
X80557D02*
X81826Y1132840D01*
X88174Y1131570D02*
Y1139187D01*
X84366Y1135379D01*
X89444D01*
X273000Y1279000D02*
Y1286617D01*
X276809D01*
X278078Y1285348D01*
Y1282809D01*
X276809Y1281539D01*
X273000D01*
X275539D02*
X278078Y1279000D01*
X285696D02*
X280618D01*
X285696Y1284078D01*
Y1285348D01*
X284426Y1286617D01*
X281887D01*
X280618Y1285348D01*
X6078Y1512348D02*
X4809Y1513618D01*
X2270D01*
X1000Y1512348D01*
Y1507270D01*
X2270Y1506000D01*
X4809D01*
X6078Y1507270D01*
X8618Y1513618D02*
X11157D01*
X9887D01*
Y1506000D01*
X8618D01*
X11157D01*
X14965D02*
Y1513618D01*
X20044Y1506000D01*
Y1513618D01*
X22583Y1506000D02*
X25122D01*
X23853D01*
Y1513618D01*
X22583Y1512348D01*
X542500Y468000D02*
Y475617D01*
X546309D01*
X547578Y474348D01*
Y471809D01*
X546309Y470539D01*
X542500D01*
X555196Y468000D02*
X550117D01*
X555196Y473078D01*
Y474348D01*
X553926Y475617D01*
X551387D01*
X550117Y474348D01*
X157500Y1502500D02*
Y1510118D01*
X161309D01*
X162578Y1508848D01*
Y1506309D01*
X161309Y1505039D01*
X157500D01*
X165118Y1502500D02*
X167657D01*
X166387D01*
Y1510118D01*
X165118Y1508848D01*
X131078Y304348D02*
X129809Y305618D01*
X127270D01*
X126000Y304348D01*
Y299270D01*
X127270Y298000D01*
X129809D01*
X131078Y299270D01*
X137426Y305618D02*
X134887D01*
X133617Y304348D01*
Y299270D01*
X134887Y298000D01*
X137426D01*
X138696Y299270D01*
Y304348D01*
X137426Y305618D01*
X141235D02*
Y299270D01*
X142505Y298000D01*
X145044D01*
X146313Y299270D01*
Y305618D01*
X148853D02*
X153931D01*
X151392D01*
Y298000D01*
X156470D02*
X159009D01*
X157740D01*
Y305618D01*
X156470Y304348D01*
X162818D02*
X164088Y305618D01*
X166627D01*
X167896Y304348D01*
Y303078D01*
X166627Y301809D01*
X167896Y300539D01*
Y299270D01*
X166627Y298000D01*
X164088D01*
X162818Y299270D01*
Y300539D01*
X164088Y301809D01*
X162818Y303078D01*
Y304348D01*
X164088Y301809D02*
X166627D01*
X215078Y744348D02*
X213809Y745618D01*
X211270D01*
X210000Y744348D01*
Y739270D01*
X211270Y738000D01*
X213809D01*
X215078Y739270D01*
X221426Y745618D02*
X218887D01*
X217617Y744348D01*
Y739270D01*
X218887Y738000D01*
X221426D01*
X222696Y739270D01*
Y744348D01*
X221426Y745618D01*
X225235D02*
Y739270D01*
X226505Y738000D01*
X229044D01*
X230313Y739270D01*
Y745618D01*
X232853D02*
X237931D01*
X235392D01*
Y738000D01*
X240470D02*
X243009D01*
X241740D01*
Y745618D01*
X240470Y744348D01*
X246818Y745618D02*
X251896D01*
Y744348D01*
X246818Y739270D01*
Y738000D01*
X149078Y673348D02*
X147809Y674617D01*
X145270D01*
X144000Y673348D01*
Y668270D01*
X145270Y667000D01*
X147809D01*
X149078Y668270D01*
X155426Y674617D02*
X152887D01*
X151617Y673348D01*
Y668270D01*
X152887Y667000D01*
X155426D01*
X156696Y668270D01*
Y673348D01*
X155426Y674617D01*
X159235D02*
Y668270D01*
X160505Y667000D01*
X163044D01*
X164313Y668270D01*
Y674617D01*
X166853D02*
X171931D01*
X169392D01*
Y667000D01*
X174470D02*
X177009D01*
X175740D01*
Y674617D01*
X174470Y673348D01*
X185896Y674617D02*
X183357Y673348D01*
X180818Y670809D01*
Y668270D01*
X182088Y667000D01*
X184627D01*
X185896Y668270D01*
Y669539D01*
X184627Y670809D01*
X180818D01*
X265078Y828348D02*
X263809Y829617D01*
X261270D01*
X260000Y828348D01*
Y823270D01*
X261270Y822000D01*
X263809D01*
X265078Y823270D01*
X271426Y829617D02*
X268887D01*
X267617Y828348D01*
Y823270D01*
X268887Y822000D01*
X271426D01*
X272696Y823270D01*
Y828348D01*
X271426Y829617D01*
X275235D02*
Y823270D01*
X276505Y822000D01*
X279044D01*
X280313Y823270D01*
Y829617D01*
X282853D02*
X287931D01*
X285392D01*
Y822000D01*
X290470D02*
X293009D01*
X291740D01*
Y829617D01*
X290470Y828348D01*
X301896Y829617D02*
X296818D01*
Y825809D01*
X299357Y827078D01*
X300627D01*
X301896Y825809D01*
Y823270D01*
X300627Y822000D01*
X298088D01*
X296818Y823270D01*
X330078Y392348D02*
X328809Y393618D01*
X326270D01*
X325000Y392348D01*
Y387270D01*
X326270Y386000D01*
X328809D01*
X330078Y387270D01*
X336426Y393618D02*
X333887D01*
X332617Y392348D01*
Y387270D01*
X333887Y386000D01*
X336426D01*
X337696Y387270D01*
Y392348D01*
X336426Y393618D01*
X340235D02*
Y387270D01*
X341505Y386000D01*
X344044D01*
X345313Y387270D01*
Y393618D01*
X347853D02*
X352931D01*
X350392D01*
Y386000D01*
X360549Y393618D02*
X358009Y392348D01*
X355470Y389809D01*
Y387270D01*
X356740Y386000D01*
X359279D01*
X360549Y387270D01*
Y388539D01*
X359279Y389809D01*
X355470D01*
X392722Y901698D02*
X391453Y902968D01*
X388914D01*
X387644Y901698D01*
Y896620D01*
X388914Y895350D01*
X391453D01*
X392722Y896620D01*
X399070Y902968D02*
X396531D01*
X395261Y901698D01*
Y896620D01*
X396531Y895350D01*
X399070D01*
X400340Y896620D01*
Y901698D01*
X399070Y902968D01*
X402879D02*
Y896620D01*
X404149Y895350D01*
X406688D01*
X407957Y896620D01*
Y902968D01*
X410497D02*
X415575D01*
X413036D01*
Y895350D01*
X421923D02*
Y902968D01*
X418114Y899159D01*
X423192D01*
X18078Y912348D02*
X16809Y913617D01*
X14270D01*
X13000Y912348D01*
Y907270D01*
X14270Y906000D01*
X16809D01*
X18078Y907270D01*
X24426Y913617D02*
X21887D01*
X20617Y912348D01*
Y907270D01*
X21887Y906000D01*
X24426D01*
X25696Y907270D01*
Y912348D01*
X24426Y913617D01*
X28235D02*
Y907270D01*
X29505Y906000D01*
X32044D01*
X33313Y907270D01*
Y913617D01*
X35853D02*
X40931D01*
X38392D01*
Y906000D01*
X48548D02*
X43470D01*
X48548Y911078D01*
Y912348D01*
X47279Y913617D01*
X44740D01*
X43470Y912348D01*
X406946Y1202180D02*
X405677Y1203449D01*
X403138D01*
X401868Y1202180D01*
Y1197102D01*
X403138Y1195832D01*
X405677D01*
X406946Y1197102D01*
X409486Y1203449D02*
X412025D01*
X410755D01*
Y1195832D01*
X409486D01*
X412025D01*
X415834D02*
Y1203449D01*
X420912Y1195832D01*
Y1203449D01*
X423451D02*
X428529D01*
Y1202180D01*
X423451Y1197102D01*
Y1195832D01*
X261912Y1144776D02*
X260643Y1146046D01*
X258104D01*
X256834Y1144776D01*
Y1139698D01*
X258104Y1138428D01*
X260643D01*
X261912Y1139698D01*
X264452Y1146046D02*
X266991D01*
X265721D01*
Y1138428D01*
X264452D01*
X266991D01*
X270800D02*
Y1146046D01*
X275878Y1138428D01*
Y1146046D01*
X283495D02*
X280956Y1144776D01*
X278417Y1142237D01*
Y1139698D01*
X279687Y1138428D01*
X282226D01*
X283495Y1139698D01*
Y1140967D01*
X282226Y1142237D01*
X278417D01*
X224320Y1144776D02*
X223051Y1146046D01*
X220512D01*
X219242Y1144776D01*
Y1139698D01*
X220512Y1138428D01*
X223051D01*
X224320Y1139698D01*
X226859Y1146046D02*
X229399D01*
X228129D01*
Y1138428D01*
X226859D01*
X229399D01*
X233207D02*
Y1146046D01*
X238286Y1138428D01*
Y1146046D01*
X245903D02*
X240825D01*
Y1142237D01*
X243364Y1143506D01*
X244634D01*
X245903Y1142237D01*
Y1139698D01*
X244634Y1138428D01*
X242095D01*
X240825Y1139698D01*
X186728Y1144776D02*
X185459Y1146046D01*
X182920D01*
X181650Y1144776D01*
Y1139698D01*
X182920Y1138428D01*
X185459D01*
X186728Y1139698D01*
X189268Y1146046D02*
X191807D01*
X190537D01*
Y1138428D01*
X189268D01*
X191807D01*
X195616D02*
Y1146046D01*
X200694Y1138428D01*
Y1146046D01*
X207042Y1138428D02*
Y1146046D01*
X203233Y1142237D01*
X208311D01*
X149390Y1144776D02*
X148121Y1146046D01*
X145582D01*
X144312Y1144776D01*
Y1139698D01*
X145582Y1138428D01*
X148121D01*
X149390Y1139698D01*
X151930Y1146046D02*
X154469D01*
X153199D01*
Y1138428D01*
X151930D01*
X154469D01*
X158278D02*
Y1146046D01*
X163356Y1138428D01*
Y1146046D01*
X165895Y1144776D02*
X167165Y1146046D01*
X169704D01*
X170973Y1144776D01*
Y1143506D01*
X169704Y1142237D01*
X168434D01*
X169704D01*
X170973Y1140967D01*
Y1139698D01*
X169704Y1138428D01*
X167165D01*
X165895Y1139698D01*
X236078Y898348D02*
X234809Y899617D01*
X232270D01*
X231000Y898348D01*
Y893270D01*
X232270Y892000D01*
X234809D01*
X236078Y893270D01*
X243696Y899617D02*
X238617D01*
Y895809D01*
X241157Y897078D01*
X242426D01*
X243696Y895809D01*
Y893270D01*
X242426Y892000D01*
X239887D01*
X238617Y893270D01*
X246235Y898348D02*
X247505Y899617D01*
X250044D01*
X251313Y898348D01*
Y893270D01*
X250044Y892000D01*
X247505D01*
X246235Y893270D01*
Y898348D01*
X253853Y892000D02*
X256392D01*
X255122D01*
Y899617D01*
X253853Y898348D01*
X114000Y391867D02*
Y384250D01*
X116539Y386789D01*
X119078Y384250D01*
Y391867D01*
X121617Y384250D02*
X124157D01*
X122887D01*
Y391867D01*
X121617Y390598D01*
X145250Y392118D02*
Y384500D01*
X147789Y387039D01*
X150328Y384500D01*
Y392118D01*
X157946Y384500D02*
X152867D01*
X157946Y389578D01*
Y390848D01*
X156676Y392118D01*
X154137D01*
X152867Y390848D01*
X54000Y437118D02*
Y429500D01*
X56539Y432039D01*
X59078Y429500D01*
Y437118D01*
X61617Y435848D02*
X62887Y437118D01*
X65426D01*
X66696Y435848D01*
Y434578D01*
X65426Y433309D01*
X64157D01*
X65426D01*
X66696Y432039D01*
Y430770D01*
X65426Y429500D01*
X62887D01*
X61617Y430770D01*
X22000Y436867D02*
Y429250D01*
X24539Y431789D01*
X27078Y429250D01*
Y436867D01*
X33426Y429250D02*
Y436867D01*
X29618Y433059D01*
X34696D01*
X133078Y823348D02*
X131809Y824617D01*
X129270D01*
X128000Y823348D01*
Y818270D01*
X129270Y817000D01*
X131809D01*
X133078Y818270D01*
X139426Y824617D02*
X136887D01*
X135618Y823348D01*
Y818270D01*
X136887Y817000D01*
X139426D01*
X140696Y818270D01*
Y823348D01*
X139426Y824617D01*
X143235D02*
Y818270D01*
X144505Y817000D01*
X147044D01*
X148313Y818270D01*
Y824617D01*
X150853D02*
X155931D01*
X153392D01*
Y817000D01*
X158470D02*
X161009D01*
X159740D01*
Y824617D01*
X158470Y823348D01*
X168627Y817000D02*
Y824617D01*
X164818Y820809D01*
X169896D01*
X165285Y204671D02*
X164015Y205941D01*
X161476D01*
X160206Y204671D01*
Y199593D01*
X161476Y198323D01*
X164015D01*
X165285Y199593D01*
X172902Y198323D02*
X167824D01*
X172902Y203402D01*
Y204671D01*
X171633Y205941D01*
X169093D01*
X167824Y204671D01*
X179250Y198323D02*
Y205941D01*
X175441Y202132D01*
X180520D01*
X188137Y205941D02*
X183059D01*
Y202132D01*
X185598Y203402D01*
X186868D01*
X188137Y202132D01*
Y199593D01*
X186868Y198323D01*
X184328D01*
X183059Y199593D01*
X165285Y189685D02*
X164015Y190955D01*
X161476D01*
X160206Y189685D01*
Y184607D01*
X161476Y183337D01*
X164015D01*
X165285Y184607D01*
X172902Y183337D02*
X167824D01*
X172902Y188416D01*
Y189685D01*
X171633Y190955D01*
X169093D01*
X167824Y189685D01*
X179250Y183337D02*
Y190955D01*
X175441Y187146D01*
X180520D01*
X186868Y183337D02*
Y190955D01*
X183059Y187146D01*
X188137D01*
X165285Y172667D02*
X164015Y173937D01*
X161476D01*
X160206Y172667D01*
Y167589D01*
X161476Y166319D01*
X164015D01*
X165285Y167589D01*
X172902Y166319D02*
X167824D01*
X172902Y171397D01*
Y172667D01*
X171633Y173937D01*
X169093D01*
X167824Y172667D01*
X179250Y166319D02*
Y173937D01*
X175441Y170128D01*
X180520D01*
X183059Y172667D02*
X184328Y173937D01*
X186868D01*
X188137Y172667D01*
Y171397D01*
X186868Y170128D01*
X185598D01*
X186868D01*
X188137Y168858D01*
Y167589D01*
X186868Y166319D01*
X184328D01*
X183059Y167589D01*
X165285Y156665D02*
X164015Y157935D01*
X161476D01*
X160206Y156665D01*
Y151587D01*
X161476Y150317D01*
X164015D01*
X165285Y151587D01*
X172902Y150317D02*
X167824D01*
X172902Y155395D01*
Y156665D01*
X171633Y157935D01*
X169093D01*
X167824Y156665D01*
X179250Y150317D02*
Y157935D01*
X175441Y154126D01*
X180520D01*
X188137Y150317D02*
X183059D01*
X188137Y155395D01*
Y156665D01*
X186868Y157935D01*
X184328D01*
X183059Y156665D01*
X225719Y117096D02*
X226988Y118365D01*
Y120905D01*
X225719Y122174D01*
X220640D01*
X219371Y120905D01*
Y118365D01*
X220640Y117096D01*
X219371Y109478D02*
Y114557D01*
X224449Y109478D01*
X225719D01*
X226988Y110748D01*
Y113287D01*
X225719Y114557D01*
X219371Y103130D02*
X226988D01*
X223180Y106939D01*
Y101861D01*
X219371Y99322D02*
Y96783D01*
Y98052D01*
X226988D01*
X225719Y99322D01*
X244839Y116596D02*
X246108Y117865D01*
Y120405D01*
X244839Y121674D01*
X239760D01*
X238491Y120405D01*
Y117865D01*
X239760Y116596D01*
X238491Y108978D02*
Y114057D01*
X243569Y108978D01*
X244839D01*
X246108Y110248D01*
Y112787D01*
X244839Y114057D01*
X238491Y102630D02*
X246108D01*
X242300Y106439D01*
Y101361D01*
X244839Y98822D02*
X246108Y97552D01*
Y95013D01*
X244839Y93743D01*
X239760D01*
X238491Y95013D01*
Y97552D01*
X239760Y98822D01*
X244839D01*
X264839Y116596D02*
X266108Y117865D01*
Y120405D01*
X264839Y121674D01*
X259760D01*
X258491Y120405D01*
Y117865D01*
X259760Y116596D01*
X258491Y108978D02*
Y114057D01*
X263569Y108978D01*
X264839D01*
X266108Y110248D01*
Y112787D01*
X264839Y114057D01*
Y106439D02*
X266108Y105170D01*
Y102630D01*
X264839Y101361D01*
X263569D01*
X262300Y102630D01*
Y103900D01*
Y102630D01*
X261030Y101361D01*
X259760D01*
X258491Y102630D01*
Y105170D01*
X259760Y106439D01*
Y98822D02*
X258491Y97552D01*
Y95013D01*
X259760Y93743D01*
X264839D01*
X266108Y95013D01*
Y97552D01*
X264839Y98822D01*
X263569D01*
X262300Y97552D01*
Y93743D01*
X282839Y116596D02*
X284108Y117865D01*
Y120405D01*
X282839Y121674D01*
X277760D01*
X276491Y120405D01*
Y117865D01*
X277760Y116596D01*
X276491Y108978D02*
Y114057D01*
X281569Y108978D01*
X282839D01*
X284108Y110248D01*
Y112787D01*
X282839Y114057D01*
Y106439D02*
X284108Y105170D01*
Y102630D01*
X282839Y101361D01*
X281569D01*
X280300Y102630D01*
Y103900D01*
Y102630D01*
X279030Y101361D01*
X277760D01*
X276491Y102630D01*
Y105170D01*
X277760Y106439D01*
X282839Y98822D02*
X284108Y97552D01*
Y95013D01*
X282839Y93743D01*
X281569D01*
X280300Y95013D01*
X279030Y93743D01*
X277760D01*
X276491Y95013D01*
Y97552D01*
X277760Y98822D01*
X279030D01*
X280300Y97552D01*
X281569Y98822D01*
X282839D01*
X280300Y97552D02*
Y95013D01*
X300599Y116596D02*
X301868Y117865D01*
Y120405D01*
X300599Y121674D01*
X295520D01*
X294251Y120405D01*
Y117865D01*
X295520Y116596D01*
X294251Y108978D02*
Y114057D01*
X299329Y108978D01*
X300599D01*
X301868Y110248D01*
Y112787D01*
X300599Y114057D01*
Y106439D02*
X301868Y105170D01*
Y102630D01*
X300599Y101361D01*
X299329D01*
X298060Y102630D01*
Y103900D01*
Y102630D01*
X296790Y101361D01*
X295520D01*
X294251Y102630D01*
Y105170D01*
X295520Y106439D01*
X301868Y98822D02*
Y93743D01*
X300599D01*
X295520Y98822D01*
X294251D01*
X318599Y116596D02*
X319868Y117865D01*
Y120405D01*
X318599Y121674D01*
X313520D01*
X312251Y120405D01*
Y117865D01*
X313520Y116596D01*
X312251Y108978D02*
Y114057D01*
X317329Y108978D01*
X318599D01*
X319868Y110248D01*
Y112787D01*
X318599Y114057D01*
Y106439D02*
X319868Y105170D01*
Y102630D01*
X318599Y101361D01*
X317329D01*
X316060Y102630D01*
Y103900D01*
Y102630D01*
X314790Y101361D01*
X313520D01*
X312251Y102630D01*
Y105170D01*
X313520Y106439D01*
X319868Y93743D02*
X318599Y96283D01*
X316060Y98822D01*
X313520D01*
X312251Y97552D01*
Y95013D01*
X313520Y93743D01*
X314790D01*
X316060Y95013D01*
Y98822D01*
X336599Y116596D02*
X337868Y117865D01*
Y120405D01*
X336599Y121674D01*
X331520D01*
X330251Y120405D01*
Y117865D01*
X331520Y116596D01*
X330251Y108978D02*
Y114057D01*
X335329Y108978D01*
X336599D01*
X337868Y110248D01*
Y112787D01*
X336599Y114057D01*
Y106439D02*
X337868Y105170D01*
Y102630D01*
X336599Y101361D01*
X335329D01*
X334060Y102630D01*
Y103900D01*
Y102630D01*
X332790Y101361D01*
X331520D01*
X330251Y102630D01*
Y105170D01*
X331520Y106439D01*
X337868Y93743D02*
Y98822D01*
X334060D01*
X335329Y96283D01*
Y95013D01*
X334060Y93743D01*
X331520D01*
X330251Y95013D01*
Y97552D01*
X331520Y98822D01*
X353839Y114596D02*
X355108Y115865D01*
Y118405D01*
X353839Y119674D01*
X348760D01*
X347491Y118405D01*
Y115865D01*
X348760Y114596D01*
X347491Y106978D02*
Y112057D01*
X352569Y106978D01*
X353839D01*
X355108Y108248D01*
Y110787D01*
X353839Y112057D01*
Y104439D02*
X355108Y103170D01*
Y100630D01*
X353839Y99361D01*
X352569D01*
X351300Y100630D01*
Y101900D01*
Y100630D01*
X350030Y99361D01*
X348760D01*
X347491Y100630D01*
Y103170D01*
X348760Y104439D01*
X347491Y93013D02*
X355108D01*
X351300Y96822D01*
Y91743D01*
X387198Y153848D02*
X385929Y155118D01*
X383390D01*
X382120Y153848D01*
Y148770D01*
X383390Y147500D01*
X385929D01*
X387198Y148770D01*
X394816Y147500D02*
X389738D01*
X394816Y152578D01*
Y153848D01*
X393546Y155118D01*
X391007D01*
X389738Y153848D01*
X397355D02*
X398625Y155118D01*
X401164D01*
X402433Y153848D01*
Y152578D01*
X401164Y151309D01*
X399894D01*
X401164D01*
X402433Y150039D01*
Y148770D01*
X401164Y147500D01*
X398625D01*
X397355Y148770D01*
X404973Y153848D02*
X406242Y155118D01*
X408781D01*
X410051Y153848D01*
Y152578D01*
X408781Y151309D01*
X407512D01*
X408781D01*
X410051Y150039D01*
Y148770D01*
X408781Y147500D01*
X406242D01*
X404973Y148770D01*
X387198Y171848D02*
X385929Y173118D01*
X383390D01*
X382120Y171848D01*
Y166770D01*
X383390Y165500D01*
X385929D01*
X387198Y166770D01*
X394816Y165500D02*
X389738D01*
X394816Y170578D01*
Y171848D01*
X393546Y173118D01*
X391007D01*
X389738Y171848D01*
X397355D02*
X398625Y173118D01*
X401164D01*
X402433Y171848D01*
Y170578D01*
X401164Y169309D01*
X399894D01*
X401164D01*
X402433Y168039D01*
Y166770D01*
X401164Y165500D01*
X398625D01*
X397355Y166770D01*
X410051Y165500D02*
X404973D01*
X410051Y170578D01*
Y171848D01*
X408781Y173118D01*
X406242D01*
X404973Y171848D01*
M02*
